<svg width="864" height="476" viewBox="0 0 864 476" fill="none" xmlns="http://www.w3.org/2000/svg">
<rect width="864" height="476" rx="6" fill="black"/>
<g filter="url(#filter0_d_215_76)">
<circle cx="431.5" cy="215.5" r="52.5" fill="url(#paint0_linear_215_76)" fill-opacity="0.8" shape-rendering="crispEdges"/>
</g>
<path d="M453.454 215.5L420.523 234.513V196.487L453.454 215.5Z" fill="white"/>
<path d="M334.573 283.28H337.965L346.797 306H343.021L340.621 299.824H331.853L329.485 306H325.677L334.573 283.28ZM339.917 297.168L336.269 287.216L332.493 297.168H339.917ZM358.663 306.32C357.319 306.32 356.135 306 355.111 305.36C354.087 304.72 353.276 303.888 352.679 302.864V312.816H349.159V289.264H352.263V292.272C352.903 291.269 353.735 290.469 354.759 289.872C355.783 289.275 356.924 288.976 358.183 288.976C359.335 288.976 360.391 289.211 361.351 289.68C362.311 290.128 363.143 290.757 363.847 291.568C364.551 292.379 365.095 293.307 365.479 294.352C365.884 295.376 366.087 296.464 366.087 297.616C366.087 299.216 365.767 300.677 365.127 302C364.508 303.323 363.634 304.379 362.503 305.168C361.394 305.936 360.114 306.32 358.663 306.32ZM357.511 303.312C358.258 303.312 358.93 303.152 359.527 302.832C360.146 302.512 360.668 302.085 361.095 301.552C361.543 301.019 361.884 300.411 362.119 299.728C362.354 299.045 362.471 298.341 362.471 297.616C362.471 296.848 362.343 296.123 362.087 295.44C361.831 294.757 361.458 294.16 360.967 293.648C360.498 293.136 359.943 292.731 359.303 292.432C358.684 292.133 358.002 291.984 357.255 291.984C356.807 291.984 356.338 292.069 355.847 292.24C355.356 292.411 354.898 292.645 354.471 292.944C354.044 293.243 353.671 293.595 353.351 294C353.031 294.405 352.807 294.832 352.679 295.28V299.664C352.978 300.347 353.372 300.965 353.863 301.52C354.354 302.053 354.919 302.491 355.559 302.832C356.199 303.152 356.85 303.312 357.511 303.312ZM376.837 306.32C375.535 306.32 374.351 306.096 373.285 305.648C372.239 305.179 371.333 304.549 370.565 303.76C369.797 302.949 369.199 302.032 368.773 301.008C368.367 299.963 368.165 298.853 368.165 297.68C368.165 296.101 368.527 294.661 369.253 293.36C369.978 292.037 370.991 290.981 372.293 290.192C373.594 289.381 375.119 288.976 376.869 288.976C378.618 288.976 380.122 289.381 381.381 290.192C382.661 290.981 383.653 292.027 384.357 293.328C385.061 294.629 385.413 296.027 385.413 297.52C385.413 297.776 385.402 298.021 385.381 298.256C385.359 298.469 385.338 298.651 385.317 298.8H371.909C371.973 299.781 372.239 300.645 372.709 301.392C373.199 302.117 373.818 302.693 374.565 303.12C375.311 303.525 376.111 303.728 376.965 303.728C377.903 303.728 378.789 303.493 379.621 303.024C380.474 302.555 381.05 301.936 381.349 301.168L384.357 302.032C383.994 302.843 383.439 303.579 382.693 304.24C381.967 304.88 381.103 305.392 380.101 305.776C379.098 306.139 378.01 306.32 376.837 306.32ZM371.813 296.464H381.925C381.861 295.504 381.583 294.661 381.093 293.936C380.623 293.189 380.015 292.613 379.269 292.208C378.543 291.781 377.733 291.568 376.837 291.568C375.962 291.568 375.151 291.781 374.405 292.208C373.679 292.613 373.082 293.189 372.613 293.936C372.143 294.661 371.877 295.504 371.813 296.464ZM397.692 292.304C396.327 292.325 395.111 292.635 394.044 293.232C392.999 293.829 392.252 294.672 391.804 295.76V306H388.284V289.264H391.548V293.008C392.124 291.856 392.881 290.939 393.82 290.256C394.759 289.552 395.751 289.168 396.796 289.104C397.009 289.104 397.18 289.104 397.308 289.104C397.457 289.104 397.585 289.115 397.692 289.136V292.304ZM409.565 305.136C409.266 305.285 408.893 305.445 408.445 305.616C407.997 305.787 407.485 305.936 406.909 306.064C406.354 306.192 405.778 306.256 405.181 306.256C404.455 306.256 403.783 306.128 403.165 305.872C402.546 305.616 402.045 305.211 401.661 304.656C401.298 304.08 401.117 303.344 401.117 302.448V291.984H398.909V289.264H401.117V283.76H404.637V289.264H408.285V291.984H404.637V301.328C404.679 301.904 404.861 302.331 405.181 302.608C405.522 302.885 405.938 303.024 406.429 303.024C406.919 303.024 407.389 302.939 407.837 302.768C408.285 302.597 408.615 302.459 408.829 302.352L409.565 305.136ZM419.368 306.32C418.067 306.32 416.883 306.096 415.816 305.648C414.771 305.179 413.864 304.549 413.096 303.76C412.328 302.949 411.731 302.032 411.304 301.008C410.899 299.963 410.696 298.853 410.696 297.68C410.696 296.101 411.059 294.661 411.784 293.36C412.509 292.037 413.523 290.981 414.824 290.192C416.125 289.381 417.651 288.976 419.4 288.976C421.149 288.976 422.653 289.381 423.912 290.192C425.192 290.981 426.184 292.027 426.888 293.328C427.592 294.629 427.944 296.027 427.944 297.52C427.944 297.776 427.933 298.021 427.912 298.256C427.891 298.469 427.869 298.651 427.848 298.8H414.44C414.504 299.781 414.771 300.645 415.24 301.392C415.731 302.117 416.349 302.693 417.096 303.12C417.843 303.525 418.643 303.728 419.496 303.728C420.435 303.728 421.32 303.493 422.152 303.024C423.005 302.555 423.581 301.936 423.88 301.168L426.888 302.032C426.525 302.843 425.971 303.579 425.224 304.24C424.499 304.88 423.635 305.392 422.632 305.776C421.629 306.139 420.541 306.32 419.368 306.32ZM414.344 296.464H424.456C424.392 295.504 424.115 294.661 423.624 293.936C423.155 293.189 422.547 292.613 421.8 292.208C421.075 291.781 420.264 291.568 419.368 291.568C418.493 291.568 417.683 291.781 416.936 292.208C416.211 292.613 415.613 293.189 415.144 293.936C414.675 294.661 414.408 295.504 414.344 296.464ZM446.241 306.32C444.919 306.32 443.735 306.096 442.689 305.648C441.644 305.179 440.737 304.539 439.969 303.728C439.223 302.917 438.647 302 438.241 300.976C437.836 299.931 437.633 298.821 437.633 297.648C437.633 296.475 437.836 295.365 438.241 294.32C438.647 293.275 439.223 292.357 439.969 291.568C440.737 290.757 441.644 290.128 442.689 289.68C443.756 289.211 444.94 288.976 446.241 288.976C447.543 288.976 448.716 289.211 449.761 289.68C450.828 290.128 451.735 290.757 452.481 291.568C453.249 292.357 453.836 293.275 454.241 294.32C454.647 295.365 454.849 296.475 454.849 297.648C454.849 298.821 454.647 299.931 454.241 300.976C453.836 302 453.249 302.917 452.481 303.728C451.735 304.539 450.828 305.179 449.761 305.648C448.716 306.096 447.543 306.32 446.241 306.32ZM441.249 297.68C441.249 298.747 441.473 299.707 441.921 300.56C442.369 301.413 442.967 302.085 443.713 302.576C444.46 303.067 445.303 303.312 446.241 303.312C447.159 303.312 447.991 303.067 448.737 302.576C449.505 302.064 450.113 301.381 450.561 300.528C451.009 299.653 451.233 298.693 451.233 297.648C451.233 296.581 451.009 295.621 450.561 294.768C450.113 293.915 449.505 293.243 448.737 292.752C447.991 292.24 447.159 291.984 446.241 291.984C445.303 291.984 444.46 292.24 443.713 292.752C442.967 293.264 442.369 293.947 441.921 294.8C441.473 295.632 441.249 296.592 441.249 297.68ZM475.382 306.32C474.038 306.32 472.854 306 471.83 305.36C470.806 304.72 469.995 303.888 469.398 302.864V312.816H465.878V289.264H468.982V292.272C469.622 291.269 470.454 290.469 471.478 289.872C472.502 289.275 473.643 288.976 474.902 288.976C476.054 288.976 477.11 289.211 478.07 289.68C479.03 290.128 479.862 290.757 480.566 291.568C481.27 292.379 481.814 293.307 482.198 294.352C482.603 295.376 482.806 296.464 482.806 297.616C482.806 299.216 482.486 300.677 481.846 302C481.227 303.323 480.352 304.379 479.222 305.168C478.112 305.936 476.832 306.32 475.382 306.32ZM474.23 303.312C474.976 303.312 475.648 303.152 476.246 302.832C476.864 302.512 477.387 302.085 477.814 301.552C478.262 301.019 478.603 300.411 478.838 299.728C479.072 299.045 479.19 298.341 479.19 297.616C479.19 296.848 479.062 296.123 478.806 295.44C478.55 294.757 478.176 294.16 477.686 293.648C477.216 293.136 476.662 292.731 476.022 292.432C475.403 292.133 474.72 291.984 473.974 291.984C473.526 291.984 473.056 292.069 472.566 292.24C472.075 292.411 471.616 292.645 471.19 292.944C470.763 293.243 470.39 293.595 470.07 294C469.75 294.405 469.526 294.832 469.398 295.28V299.664C469.696 300.347 470.091 300.965 470.582 301.52C471.072 302.053 471.638 302.491 472.278 302.832C472.918 303.152 473.568 303.312 474.23 303.312ZM486.003 282.64H489.523V301.168C489.523 302.021 489.651 302.565 489.907 302.8C490.163 303.035 490.483 303.152 490.867 303.152C491.294 303.152 491.689 303.109 492.051 303.024C492.435 302.939 492.766 302.832 493.043 302.704L493.555 305.488C493.043 305.701 492.435 305.883 491.731 306.032C491.027 306.181 490.398 306.256 489.843 306.256C488.649 306.256 487.71 305.925 487.027 305.264C486.345 304.581 486.003 303.643 486.003 302.448V282.64ZM494.38 301.104C494.38 300.037 494.679 299.109 495.276 298.32C495.895 297.509 496.738 296.891 497.804 296.464C498.871 296.016 500.108 295.792 501.516 295.792C502.263 295.792 503.02 295.845 503.788 295.952C504.578 296.059 505.271 296.229 505.868 296.464V295.408C505.868 294.235 505.516 293.317 504.812 292.656C504.108 291.995 503.095 291.664 501.772 291.664C500.834 291.664 499.948 291.835 499.116 292.176C498.284 292.496 497.399 292.955 496.46 293.552L495.276 291.184C496.386 290.437 497.495 289.883 498.604 289.52C499.735 289.157 500.919 288.976 502.156 288.976C504.396 288.976 506.156 289.573 507.436 290.768C508.738 291.941 509.388 293.616 509.388 295.792V302.032C509.388 302.437 509.452 302.725 509.58 302.896C509.73 303.067 509.975 303.163 510.316 303.184V306C509.996 306.064 509.708 306.107 509.452 306.128C509.196 306.149 508.983 306.16 508.812 306.16C508.066 306.16 507.5 305.979 507.116 305.616C506.732 305.253 506.508 304.827 506.444 304.336L506.348 303.376C505.623 304.315 504.695 305.04 503.564 305.552C502.434 306.064 501.292 306.32 500.14 306.32C499.031 306.32 498.039 306.096 497.164 305.648C496.29 305.179 495.607 304.549 495.116 303.76C494.626 302.971 494.38 302.085 494.38 301.104ZM505.036 302.128C505.292 301.851 505.495 301.573 505.644 301.296C505.794 301.019 505.868 300.773 505.868 300.56V298.64C505.271 298.405 504.642 298.235 503.98 298.128C503.319 298 502.668 297.936 502.028 297.936C500.748 297.936 499.703 298.192 498.892 298.704C498.103 299.216 497.708 299.92 497.708 300.816C497.708 301.307 497.836 301.776 498.092 302.224C498.37 302.672 498.754 303.035 499.244 303.312C499.756 303.589 500.386 303.728 501.132 303.728C501.9 303.728 502.636 303.579 503.34 303.28C504.044 302.981 504.61 302.597 505.036 302.128ZM513.641 309.936C513.961 309.979 514.27 310.021 514.569 310.064C514.889 310.128 515.145 310.16 515.337 310.16C515.7 310.16 516.009 310.043 516.265 309.808C516.542 309.595 516.82 309.189 517.097 308.592C517.374 307.995 517.716 307.131 518.121 306L511.241 289.264H514.921L520.041 302.416L524.585 289.264H527.977L520.393 309.872C520.158 310.491 519.817 311.056 519.369 311.568C518.921 312.101 518.366 312.517 517.705 312.816C517.044 313.115 516.265 313.264 515.369 313.264C515.113 313.264 514.846 313.243 514.569 313.2C514.292 313.157 513.982 313.093 513.641 313.008V309.936ZM531.237 297.904V283.056H534.757V297.904H531.237ZM531.237 306V301.616H534.757V306H531.237Z" fill="white"/>
<defs>
<filter id="filter0_d_215_76" x="339" y="129" width="193" height="193" filterUnits="userSpaceOnUse" color-interpolation-filters="sRGB">
<feFlood flood-opacity="0" result="BackgroundImageFix"/>
<feColorMatrix in="SourceAlpha" type="matrix" values="0 0 0 0 0 0 0 0 0 0 0 0 0 0 0 0 0 0 127 0" result="hardAlpha"/>
<feOffset dx="4" dy="10"/>
<feGaussianBlur stdDeviation="22"/>
<feComposite in2="hardAlpha" operator="out"/>
<feColorMatrix type="matrix" values="0 0 0 0 0.101961 0 0 0 0 1 0 0 0 0 0.701961 0 0 0 0.25 0"/>
<feBlend mode="normal" in2="BackgroundImageFix" result="effect1_dropShadow_215_76"/>
<feBlend mode="normal" in="SourceGraphic" in2="effect1_dropShadow_215_76" result="shape"/>
</filter>
<linearGradient id="paint0_linear_215_76" x1="379" y1="190.682" x2="470.636" y2="257.5" gradientUnits="userSpaceOnUse">
<stop stop-color="#1AFFB3"/>
<stop offset="1" stop-color="#0EE37D" stop-opacity="0.37"/>
</linearGradient>
</defs>
</svg>
