<svg width="560" height="586" viewBox="0 0 560 586" fill="none" xmlns="http://www.w3.org/2000/svg">
<g clip-path="url(#clip0_103_1084)">
<g opacity="0.8">
<mask id="mask0_103_1084" style="mask-type:alpha" maskUnits="userSpaceOnUse" x="-345" y="246" width="3112" height="537">
<path d="M-344 246H2766.54V782.096H-344V246Z" fill="#AAB2B0"/>
</mask>
<g mask="url(#mask0_103_1084)">
<path d="M-32.9445 552.623H184.794V571.787H-32.9445V552.623Z" fill="#AAB2B0" fill-opacity="0.15"/>
<path d="M-32.9445 514.287H184.794V533.452H-32.9445V514.287Z" fill="#AAB2B0" fill-opacity="0.15"/>
<path d="M-32.9445 475.965H184.794V495.13H-32.9445V475.965Z" fill="#AAB2B0" fill-opacity="0.15"/>
<path d="M200.329 475.965H215.884V571.789H200.329V475.965Z" fill="#AAB2B0" fill-opacity="0.15"/>
<path d="M231.459 475.965H247.014V571.789H231.459V475.965Z" fill="#AAB2B0" fill-opacity="0.15"/>
<path d="M262.549 475.965H278.104V571.789H262.549V475.965Z" fill="#AAB2B0" fill-opacity="0.15"/>
<path d="M29.2555 437.641H278.104V456.806H29.2555V437.641Z" fill="#AAB2B0" fill-opacity="0.15"/>
<path d="M-1.84497 380.149H13.7V456.809H-1.84497V380.149Z" fill="#AAB2B0" fill-opacity="0.15"/>
<path d="M29.2555 399.306H278.104V418.471H29.2555V399.306Z" fill="#AAB2B0" fill-opacity="0.15"/>
<path d="M29.2555 360.982H278.104V380.147H29.2555V360.982Z" fill="#AAB2B0" fill-opacity="0.15"/>
<path d="M13.7104 245.988H29.2651V341.812H13.7104V245.988Z" fill="#AAB2B0" fill-opacity="0.15"/>
<path d="M44.8207 322.647H60.3755V341.811H44.8207V322.647Z" fill="#AAB2B0" fill-opacity="0.15"/>
<path d="M44.8207 284.323H60.3755V303.488H44.8207V284.323Z" fill="#AAB2B0" fill-opacity="0.15"/>
<path d="M44.8207 245.988H60.3755V265.153H44.8207V245.988Z" fill="#AAB2B0" fill-opacity="0.15"/>
<path d="M60.3753 265.156H75.9304V284.32H60.3753V265.156Z" fill="#AAB2B0" fill-opacity="0.15"/>
<path d="M60.3753 303.479H75.9304V322.644H60.3753V303.479Z" fill="#AAB2B0" fill-opacity="0.15"/>
<path d="M75.9301 322.647H91.4849V341.811H75.9301V322.647Z" fill="#AAB2B0" fill-opacity="0.15"/>
<path d="M75.9301 284.323H91.4849V303.488H75.9301V284.323Z" fill="#AAB2B0" fill-opacity="0.15"/>
<path d="M75.9301 245.988H91.4849V265.153H75.9301V245.988Z" fill="#AAB2B0" fill-opacity="0.15"/>
<path d="M91.4651 265.156H278.104V284.32H91.4651V265.156Z" fill="#AAB2B0" fill-opacity="0.15"/>
<path d="M184.785 322.644H91.4651V303.479H184.785V322.644H278.104V341.809H184.785V322.644Z" fill="#AAB2B0" fill-opacity="0.15"/>
<path d="M215.905 571.791H231.459V590.956H215.905V571.791Z" fill="#AAB2B0" fill-opacity="0.15"/>
<path d="M247.014 571.791H262.569V590.956H247.014V571.791Z" fill="#AAB2B0" fill-opacity="0.15"/>
<path d="M278.114 571.791H589.162V590.956H278.114V571.791Z" fill="#AAB2B0" fill-opacity="0.15"/>
<path d="M278.114 495.12H589.162V514.285H278.114V495.12Z" fill="#AAB2B0" fill-opacity="0.15"/>
<path d="M433.633 418.473H713.582V437.638H433.633V418.473Z" fill="#AAB2B0" fill-opacity="0.15"/>
<path d="M433.623 360.982H775.791V399.312H433.623V360.982Z" fill="#AAB2B0" fill-opacity="0.15"/>
<path d="M433.623 284.323H651.362V303.488H433.623V284.323Z" fill="#AAB2B0" fill-opacity="0.15"/>
<path d="M371.424 303.479H433.633V322.644H371.424V303.479Z" fill="#AAB2B0" fill-opacity="0.15"/>
<path d="M371.424 341.814H433.633V360.979H371.424V341.814Z" fill="#AAB2B0" fill-opacity="0.15"/>
<path d="M355.858 322.647H371.413V341.811H355.858V322.647Z" fill="#AAB2B0" fill-opacity="0.15"/>
<path d="M309.204 341.814H355.859V360.979H309.204V341.814Z" fill="#AAB2B0" fill-opacity="0.15"/>
<path d="M278.104 360.982H309.214V380.147H278.104V360.982Z" fill="#AAB2B0" fill-opacity="0.15"/>
<path d="M309.204 303.479H355.859V322.644H309.204V303.479Z" fill="#AAB2B0" fill-opacity="0.15"/>
<path d="M293.659 284.323H309.214V303.488H293.659V284.323Z" fill="#AAB2B0" fill-opacity="0.15"/>
<path d="M278.104 303.479H293.659V322.644H278.104V303.479Z" fill="#AAB2B0" fill-opacity="0.15"/>
<path d="M309.204 265.156H402.523V284.32H309.204V265.156Z" fill="#AAB2B0" fill-opacity="0.15"/>
<path d="M402.523 245.988H433.633V265.153H402.523V245.988Z" fill="#AAB2B0" fill-opacity="0.15"/>
<path d="M278.104 399.306H309.214V418.471H278.104V399.306Z" fill="#AAB2B0" fill-opacity="0.15"/>
<path d="M309.204 418.473H402.523V437.638H309.204V418.473Z" fill="#AAB2B0" fill-opacity="0.15"/>
<path d="M402.523 399.306H433.633V418.471H402.523V399.306Z" fill="#AAB2B0" fill-opacity="0.15"/>
<path d="M309.204 380.149H402.523V399.314H309.204V380.149Z" fill="#AAB2B0" fill-opacity="0.15"/>
</g>
</g>
<g filter="url(#filter0_f_103_1084)">
<path d="M458.397 -85.36H460.637L464.813 -74H462.541L461.485 -76.832H457.517L456.477 -74H454.205L458.397 -85.36ZM461.085 -78.384L459.517 -83.072L457.885 -78.384H461.085ZM463.632 -61.36C463.632 -60.656 463.44 -60.0427 463.056 -59.52C462.683 -58.9973 462.181 -58.5867 461.552 -58.288C460.923 -58 460.235 -57.856 459.488 -57.856C458.731 -57.856 458.037 -58.0107 457.408 -58.32C456.789 -58.6293 456.293 -59.0507 455.92 -59.584C455.557 -60.128 455.376 -60.7467 455.376 -61.44C455.376 -61.8667 455.467 -62.2507 455.648 -62.592C455.829 -62.944 456.053 -63.2427 456.32 -63.488C456.597 -63.744 456.875 -63.9413 457.152 -64.08C456.896 -64.208 456.656 -64.3787 456.432 -64.592C456.219 -64.8053 456.048 -65.0507 455.92 -65.328C455.792 -65.6053 455.728 -65.8987 455.728 -66.208C455.728 -66.7093 455.84 -67.1573 456.064 -67.552C456.288 -67.9467 456.587 -68.2773 456.96 -68.544C457.333 -68.8213 457.739 -69.024 458.176 -69.152C458.624 -69.2907 459.067 -69.36 459.504 -69.36C459.931 -69.36 460.368 -69.2907 460.816 -69.152C461.264 -69.024 461.675 -68.8267 462.048 -68.56C462.421 -68.2933 462.72 -67.9627 462.944 -67.568C463.179 -67.184 463.296 -66.736 463.296 -66.224C463.296 -65.9253 463.227 -65.632 463.088 -65.344C462.96 -65.0667 462.784 -64.816 462.56 -64.592C462.347 -64.3787 462.101 -64.208 461.824 -64.08C462.133 -63.92 462.427 -63.712 462.704 -63.456C462.981 -63.2 463.205 -62.896 463.376 -62.544C463.547 -62.192 463.632 -61.7973 463.632 -61.36ZM461.456 -61.488C461.456 -61.7653 461.403 -62.0053 461.296 -62.208C461.189 -62.4213 461.04 -62.5973 460.848 -62.736C460.656 -62.8853 460.443 -62.9973 460.208 -63.072C459.973 -63.1467 459.733 -63.184 459.488 -63.184C459.147 -63.184 458.827 -63.1147 458.528 -62.976C458.24 -62.8373 458.005 -62.64 457.824 -62.384C457.643 -62.128 457.552 -61.8293 457.552 -61.488C457.552 -61.232 457.605 -60.9973 457.712 -60.784C457.829 -60.5813 457.979 -60.4053 458.16 -60.256C458.352 -60.1067 458.56 -59.9893 458.784 -59.904C459.019 -59.8293 459.259 -59.792 459.504 -59.792C459.845 -59.792 460.165 -59.8667 460.464 -60.016C460.763 -60.1653 461.003 -60.368 461.184 -60.624C461.365 -60.88 461.456 -61.168 461.456 -61.488ZM457.904 -66.144C457.904 -65.856 457.984 -65.6107 458.144 -65.408C458.304 -65.2053 458.507 -65.0507 458.752 -64.944C459.008 -64.848 459.259 -64.8 459.504 -64.8C459.76 -64.8 460.005 -64.8533 460.24 -64.96C460.485 -65.0667 460.688 -65.216 460.848 -65.408C461.019 -65.6107 461.104 -65.8613 461.104 -66.16C461.104 -66.4267 461.029 -66.656 460.88 -66.848C460.731 -67.04 460.533 -67.1893 460.288 -67.296C460.053 -67.4027 459.787 -67.456 459.488 -67.456C459.211 -67.456 458.949 -67.4027 458.704 -67.296C458.459 -67.1893 458.261 -67.0347 458.112 -66.832C457.973 -66.64 457.904 -66.4107 457.904 -66.144ZM461.135 -45.776C461.583 -45.7013 461.972 -45.5307 462.303 -45.264C462.634 -45.008 462.89 -44.6773 463.071 -44.272C463.263 -43.8667 463.359 -43.4187 463.359 -42.928C463.359 -42.2667 463.188 -41.6907 462.847 -41.2C462.506 -40.7093 462.02 -40.3307 461.391 -40.064C460.772 -39.7867 460.042 -39.648 459.199 -39.648C458.388 -39.648 457.668 -39.7813 457.039 -40.048C456.42 -40.304 455.903 -40.6827 455.487 -41.184L456.703 -42.704C456.98 -42.3627 457.311 -42.096 457.695 -41.904C458.09 -41.7013 458.57 -41.6 459.135 -41.6C459.786 -41.6 460.282 -41.7333 460.623 -42C460.964 -42.256 461.135 -42.6453 461.135 -43.168C461.135 -43.7227 460.938 -44.1493 460.543 -44.448C460.148 -44.7467 459.551 -44.896 458.751 -44.896H458.303V-46.496H458.799C459.45 -46.496 459.956 -46.6453 460.319 -46.944C460.692 -47.2427 460.879 -47.616 460.879 -48.064C460.879 -48.352 460.81 -48.592 460.671 -48.784C460.532 -48.976 460.34 -49.12 460.095 -49.216C459.86 -49.312 459.583 -49.36 459.263 -49.36C458.783 -49.36 458.346 -49.248 457.951 -49.024C457.556 -48.8 457.236 -48.4853 456.991 -48.08L455.647 -49.584C455.871 -49.9147 456.175 -50.1973 456.559 -50.432C456.954 -50.6773 457.402 -50.8693 457.903 -51.008C458.415 -51.1467 458.948 -51.216 459.503 -51.216C460.228 -51.216 460.863 -51.0987 461.407 -50.864C461.962 -50.6293 462.394 -50.2987 462.703 -49.872C463.012 -49.4453 463.167 -48.9493 463.167 -48.384C463.167 -47.968 463.082 -47.5733 462.911 -47.2C462.74 -46.8267 462.5 -46.512 462.191 -46.256C461.892 -46.0107 461.54 -45.8507 461.135 -45.776ZM459.262 -23.616C458.441 -23.616 457.7 -23.792 457.038 -24.144C456.377 -24.496 455.876 -24.976 455.534 -25.584L456.766 -26.864C457.065 -26.448 457.438 -26.1173 457.886 -25.872C458.334 -25.6267 458.798 -25.504 459.278 -25.504C459.662 -25.504 459.998 -25.584 460.286 -25.744C460.585 -25.904 460.82 -26.128 460.99 -26.416C461.161 -26.704 461.246 -27.0347 461.246 -27.408C461.246 -27.7813 461.166 -28.1067 461.006 -28.384C460.846 -28.6613 460.628 -28.8747 460.35 -29.024C460.073 -29.184 459.758 -29.264 459.406 -29.264C459.054 -29.264 458.724 -29.184 458.414 -29.024C458.116 -28.8747 457.876 -28.656 457.694 -28.368H455.822L457.134 -35.136H462.734V-33.184H458.686L458.222 -30.64C458.361 -30.768 458.553 -30.8747 458.798 -30.96C459.044 -31.056 459.348 -31.104 459.71 -31.104C460.425 -31.104 461.065 -30.9493 461.63 -30.64C462.196 -30.3307 462.638 -29.8987 462.958 -29.344C463.278 -28.8 463.438 -28.1707 463.438 -27.456C463.438 -26.6987 463.257 -26.032 462.894 -25.456C462.532 -24.8693 462.036 -24.416 461.406 -24.096C460.777 -23.776 460.062 -23.616 459.262 -23.616ZM454.512 -15.76C454.512 -16.4533 454.634 -17.1307 454.88 -17.792C455.136 -18.464 455.504 -19.072 455.984 -19.616C456.464 -20.1707 457.05 -20.608 457.744 -20.928C458.437 -21.2587 459.226 -21.424 460.112 -21.424C461.157 -21.424 462.058 -21.1947 462.816 -20.736C463.584 -20.2773 464.154 -19.68 464.528 -18.944L462.832 -17.776C462.64 -18.2027 462.389 -18.5387 462.08 -18.784C461.77 -19.04 461.44 -19.216 461.088 -19.312C460.736 -19.4187 460.389 -19.472 460.048 -19.472C459.493 -19.472 459.008 -19.36 458.592 -19.136C458.186 -18.912 457.845 -18.6187 457.568 -18.256C457.29 -17.8933 457.082 -17.488 456.944 -17.04C456.816 -16.592 456.752 -16.144 456.752 -15.696C456.752 -15.1947 456.832 -14.7093 456.992 -14.24C457.152 -13.7813 457.376 -13.3707 457.664 -13.008C457.962 -12.656 458.314 -12.3733 458.72 -12.16C459.136 -11.9573 459.589 -11.856 460.08 -11.856C460.432 -11.856 460.789 -11.9147 461.152 -12.032C461.514 -12.1493 461.85 -12.336 462.16 -12.592C462.469 -12.848 462.709 -13.1787 462.88 -13.584L464.688 -12.544C464.464 -11.9787 464.096 -11.4987 463.584 -11.104C463.082 -10.7093 462.517 -10.4107 461.888 -10.208C461.258 -10.0053 460.634 -9.904 460.016 -9.904C459.205 -9.904 458.464 -10.0693 457.792 -10.4C457.12 -10.7413 456.538 -11.1893 456.048 -11.744C455.568 -12.3093 455.189 -12.9387 454.912 -13.632C454.645 -14.336 454.512 -15.0453 454.512 -15.76ZM463.767 4.064V6H455.879V-5.36H463.623V-3.424H458.087V-0.688H462.871V1.104H458.087V4.064H463.767ZM459.922 24.032V21.648H455.25V19.744L460.61 12.864H462.066V19.728H463.474V21.648H462.066V24.032H459.922ZM457.394 19.728H460.162V16.112L457.394 19.728ZM458.397 26.64H460.637L464.813 38H462.541L461.485 35.168H457.517L456.477 38H454.205L458.397 26.64ZM461.085 33.616L459.517 28.928L457.885 33.616H461.085ZM463.713 50.208C463.713 49.4933 463.537 48.8533 463.185 48.288C462.843 47.712 462.374 47.2587 461.777 46.928C461.179 46.5867 460.502 46.416 459.745 46.416C459.393 46.416 459.062 46.4693 458.753 46.576C458.443 46.672 458.171 46.816 457.937 47.008C457.702 47.1893 457.51 47.408 457.361 47.664C457.382 46.9813 457.489 46.4 457.681 45.92C457.873 45.4293 458.145 45.056 458.497 44.8C458.849 44.544 459.265 44.416 459.745 44.416C460.214 44.416 460.651 44.5333 461.057 44.768C461.462 44.992 461.793 45.3013 462.049 45.696L463.281 44.352C462.865 43.776 462.353 43.3333 461.745 43.024C461.147 42.7147 460.491 42.56 459.777 42.56C458.881 42.56 458.102 42.8053 457.441 43.296C456.779 43.776 456.267 44.496 455.905 45.456C455.553 46.4053 455.377 47.568 455.377 48.944C455.377 50.032 455.547 50.9653 455.889 51.744C456.23 52.5227 456.71 53.12 457.329 53.536C457.958 53.952 458.699 54.16 459.553 54.16C460.342 54.16 461.046 53.984 461.665 53.632C462.294 53.28 462.79 52.8053 463.153 52.208C463.526 51.6107 463.713 50.944 463.713 50.208ZM459.553 52.352C459.19 52.352 458.849 52.256 458.529 52.064C458.209 51.8613 457.953 51.6 457.761 51.28C457.569 50.9493 457.473 50.592 457.473 50.208C457.473 49.824 457.563 49.4773 457.745 49.168C457.937 48.848 458.193 48.5973 458.513 48.416C458.833 48.224 459.185 48.128 459.569 48.128C459.953 48.128 460.299 48.224 460.609 48.416C460.929 48.5973 461.185 48.848 461.377 49.168C461.569 49.4773 461.665 49.824 461.665 50.208C461.665 50.592 461.569 50.9493 461.377 51.28C461.185 51.6 460.929 51.8613 460.609 52.064C460.289 52.256 459.937 52.352 459.553 52.352ZM464.399 67.072C464.399 67.712 464.233 68.2507 463.903 68.688C463.572 69.1147 463.124 69.44 462.559 69.664C462.004 69.888 461.396 70 460.735 70H455.247V58.64H461.327C461.86 58.64 462.319 58.784 462.703 59.072C463.097 59.3493 463.396 59.712 463.599 60.16C463.812 60.5973 463.919 61.056 463.919 61.536C463.919 62.08 463.78 62.5973 463.503 63.088C463.225 63.5787 462.82 63.9413 462.286 64.176C462.937 64.368 463.449 64.7147 463.823 65.216C464.207 65.7173 464.399 66.336 464.399 67.072ZM462.175 66.656C462.175 66.368 462.116 66.112 461.999 65.888C461.881 65.6533 461.721 65.472 461.519 65.344C461.327 65.2053 461.103 65.136 460.847 65.136H457.455V68.128H460.735C461.001 68.128 461.241 68.064 461.455 67.936C461.679 67.7973 461.855 67.616 461.983 67.392C462.111 67.168 462.175 66.9227 462.175 66.656ZM457.455 60.528V63.392H460.399C460.644 63.392 460.868 63.3333 461.071 63.216C461.273 63.0987 461.433 62.9333 461.551 62.72C461.679 62.5067 461.743 62.2507 461.743 61.952C461.743 61.664 461.684 61.4133 461.567 61.2C461.46 60.9867 461.311 60.8213 461.119 60.704C460.937 60.5867 460.729 60.528 460.495 60.528H457.455ZM454.512 80.24C454.512 79.5467 454.634 78.8693 454.88 78.208C455.136 77.536 455.504 76.928 455.984 76.384C456.464 75.8293 457.05 75.392 457.744 75.072C458.437 74.7413 459.226 74.576 460.112 74.576C461.157 74.576 462.058 74.8053 462.816 75.264C463.584 75.7227 464.154 76.32 464.528 77.056L462.832 78.224C462.64 77.7973 462.389 77.4613 462.08 77.216C461.77 76.96 461.44 76.784 461.088 76.688C460.736 76.5813 460.389 76.528 460.048 76.528C459.493 76.528 459.008 76.64 458.592 76.864C458.186 77.088 457.845 77.3813 457.568 77.744C457.29 78.1067 457.082 78.512 456.944 78.96C456.816 79.408 456.752 79.856 456.752 80.304C456.752 80.8053 456.832 81.2907 456.992 81.76C457.152 82.2187 457.376 82.6293 457.664 82.992C457.962 83.344 458.314 83.6267 458.72 83.84C459.136 84.0427 459.589 84.144 460.08 84.144C460.432 84.144 460.789 84.0853 461.152 83.968C461.514 83.8507 461.85 83.664 462.16 83.408C462.469 83.152 462.709 82.8213 462.88 82.416L464.688 83.456C464.464 84.0213 464.096 84.5013 463.584 84.896C463.082 85.2907 462.517 85.5893 461.888 85.792C461.258 85.9947 460.634 86.096 460.016 86.096C459.205 86.096 458.464 85.9307 457.792 85.6C457.12 85.2587 456.538 84.8107 456.048 84.256C455.568 83.6907 455.189 83.0613 454.912 82.368C454.645 81.664 454.512 80.9547 454.512 80.24ZM463.632 98.64C463.632 99.344 463.44 99.9573 463.056 100.48C462.683 101.003 462.181 101.413 461.552 101.712C460.923 102 460.235 102.144 459.488 102.144C458.731 102.144 458.037 101.989 457.408 101.68C456.789 101.371 456.293 100.949 455.92 100.416C455.557 99.872 455.376 99.2533 455.376 98.56C455.376 98.1333 455.467 97.7493 455.648 97.408C455.829 97.056 456.053 96.7573 456.32 96.512C456.597 96.256 456.875 96.0587 457.152 95.92C456.896 95.792 456.656 95.6213 456.432 95.408C456.219 95.1947 456.048 94.9493 455.92 94.672C455.792 94.3947 455.728 94.1013 455.728 93.792C455.728 93.2907 455.84 92.8427 456.064 92.448C456.288 92.0533 456.587 91.7227 456.96 91.456C457.333 91.1787 457.739 90.976 458.176 90.848C458.624 90.7093 459.067 90.64 459.504 90.64C459.931 90.64 460.368 90.7093 460.816 90.848C461.264 90.976 461.675 91.1733 462.048 91.44C462.421 91.7067 462.72 92.0373 462.944 92.432C463.179 92.816 463.296 93.264 463.296 93.776C463.296 94.0747 463.227 94.368 463.088 94.656C462.96 94.9333 462.784 95.184 462.56 95.408C462.347 95.6213 462.101 95.792 461.824 95.92C462.133 96.08 462.427 96.288 462.704 96.544C462.981 96.8 463.205 97.104 463.376 97.456C463.547 97.808 463.632 98.2027 463.632 98.64ZM461.456 98.512C461.456 98.2347 461.403 97.9947 461.296 97.792C461.189 97.5787 461.04 97.4027 460.848 97.264C460.656 97.1147 460.443 97.0027 460.208 96.928C459.973 96.8533 459.733 96.816 459.488 96.816C459.147 96.816 458.827 96.8853 458.528 97.024C458.24 97.1627 458.005 97.36 457.824 97.616C457.643 97.872 457.552 98.1707 457.552 98.512C457.552 98.768 457.605 99.0027 457.712 99.216C457.829 99.4187 457.979 99.5947 458.16 99.744C458.352 99.8933 458.56 100.011 458.784 100.096C459.019 100.171 459.259 100.208 459.504 100.208C459.845 100.208 460.165 100.133 460.464 99.984C460.763 99.8347 461.003 99.632 461.184 99.376C461.365 99.12 461.456 98.832 461.456 98.512ZM457.904 93.856C457.904 94.144 457.984 94.3893 458.144 94.592C458.304 94.7947 458.507 94.9493 458.752 95.056C459.008 95.152 459.259 95.2 459.504 95.2C459.76 95.2 460.005 95.1467 460.24 95.04C460.485 94.9333 460.688 94.784 460.848 94.592C461.019 94.3893 461.104 94.1387 461.104 93.84C461.104 93.5733 461.029 93.344 460.88 93.152C460.731 92.96 460.533 92.8107 460.288 92.704C460.053 92.5973 459.787 92.544 459.488 92.544C459.211 92.544 458.949 92.5973 458.704 92.704C458.459 92.8107 458.261 92.9653 458.112 93.168C457.973 93.36 457.904 93.5893 457.904 93.856ZM463.067 116.064V118H456.571V116.064H458.843V111.216C458.747 111.344 458.598 111.477 458.395 111.616C458.192 111.744 457.963 111.867 457.707 111.984C457.451 112.101 457.195 112.197 456.939 112.272C456.683 112.347 456.454 112.384 456.251 112.384V110.384C456.443 110.384 456.672 110.325 456.939 110.208C457.216 110.08 457.488 109.931 457.755 109.76C458.032 109.589 458.267 109.424 458.459 109.264C458.662 109.093 458.79 108.96 458.843 108.864H461.035V116.064H463.067ZM463.626 129.312C463.626 130.251 463.445 131.088 463.082 131.824C462.73 132.549 462.239 133.12 461.61 133.536C460.991 133.952 460.287 134.16 459.498 134.16C458.709 134.16 457.999 133.952 457.37 133.536C456.751 133.12 456.261 132.549 455.898 131.824C455.546 131.088 455.37 130.251 455.37 129.312C455.37 128.373 455.546 127.541 455.898 126.816C456.261 126.08 456.751 125.504 457.37 125.088C457.999 124.661 458.709 124.448 459.498 124.448C460.287 124.448 460.991 124.661 461.61 125.088C462.239 125.504 462.73 126.08 463.082 126.816C463.445 127.541 463.626 128.373 463.626 129.312ZM461.466 129.312C461.466 128.736 461.381 128.235 461.21 127.808C461.05 127.371 460.821 127.029 460.522 126.784C460.223 126.539 459.882 126.416 459.498 126.416C459.103 126.416 458.757 126.539 458.458 126.784C458.159 127.029 457.925 127.371 457.754 127.808C457.594 128.235 457.514 128.736 457.514 129.312C457.514 129.888 457.594 130.389 457.754 130.816C457.925 131.243 458.159 131.579 458.458 131.824C458.757 132.069 459.103 132.192 459.498 132.192C459.882 132.192 460.218 132.069 460.506 131.824C460.805 131.579 461.039 131.243 461.21 130.816C461.381 130.379 461.466 129.877 461.466 129.312ZM454.512 144.24C454.512 143.547 454.634 142.869 454.88 142.208C455.136 141.536 455.504 140.928 455.984 140.384C456.464 139.829 457.05 139.392 457.744 139.072C458.437 138.741 459.226 138.576 460.112 138.576C461.157 138.576 462.058 138.805 462.816 139.264C463.584 139.723 464.154 140.32 464.528 141.056L462.832 142.224C462.64 141.797 462.389 141.461 462.08 141.216C461.77 140.96 461.44 140.784 461.088 140.688C460.736 140.581 460.389 140.528 460.048 140.528C459.493 140.528 459.008 140.64 458.592 140.864C458.186 141.088 457.845 141.381 457.568 141.744C457.29 142.107 457.082 142.512 456.944 142.96C456.816 143.408 456.752 143.856 456.752 144.304C456.752 144.805 456.832 145.291 456.992 145.76C457.152 146.219 457.376 146.629 457.664 146.992C457.962 147.344 458.314 147.627 458.72 147.84C459.136 148.043 459.589 148.144 460.08 148.144C460.432 148.144 460.789 148.085 461.152 147.968C461.514 147.851 461.85 147.664 462.16 147.408C462.469 147.152 462.709 146.821 462.88 146.416L464.688 147.456C464.464 148.021 464.096 148.501 463.584 148.896C463.082 149.291 462.517 149.589 461.888 149.792C461.258 149.995 460.634 150.096 460.016 150.096C459.205 150.096 458.464 149.931 457.792 149.6C457.12 149.259 456.538 148.811 456.048 148.256C455.568 147.691 455.189 147.061 454.912 146.368C454.645 145.664 454.512 144.955 454.512 144.24ZM458.397 154.64H460.637L464.813 166H462.541L461.485 163.168H457.517L456.477 166H454.205L458.397 154.64ZM461.085 161.616L459.517 156.928L457.885 161.616H461.085ZM459.922 184.032V181.648H455.25V179.744L460.61 172.864H462.066V179.728H463.474V181.648H462.066V184.032H459.922ZM457.394 179.728H460.162V176.112L457.394 179.728ZM463.713 194.208C463.713 193.493 463.537 192.853 463.185 192.288C462.843 191.712 462.374 191.259 461.777 190.928C461.179 190.587 460.502 190.416 459.745 190.416C459.393 190.416 459.062 190.469 458.753 190.576C458.443 190.672 458.171 190.816 457.937 191.008C457.702 191.189 457.51 191.408 457.361 191.664C457.382 190.981 457.489 190.4 457.681 189.92C457.873 189.429 458.145 189.056 458.497 188.8C458.849 188.544 459.265 188.416 459.745 188.416C460.214 188.416 460.651 188.533 461.057 188.768C461.462 188.992 461.793 189.301 462.049 189.696L463.281 188.352C462.865 187.776 462.353 187.333 461.745 187.024C461.147 186.715 460.491 186.56 459.777 186.56C458.881 186.56 458.102 186.805 457.441 187.296C456.779 187.776 456.267 188.496 455.905 189.456C455.553 190.405 455.377 191.568 455.377 192.944C455.377 194.032 455.547 194.965 455.889 195.744C456.23 196.523 456.71 197.12 457.329 197.536C457.958 197.952 458.699 198.16 459.553 198.16C460.342 198.16 461.046 197.984 461.665 197.632C462.294 197.28 462.79 196.805 463.153 196.208C463.526 195.611 463.713 194.944 463.713 194.208ZM459.553 196.352C459.19 196.352 458.849 196.256 458.529 196.064C458.209 195.861 457.953 195.6 457.761 195.28C457.569 194.949 457.473 194.592 457.473 194.208C457.473 193.824 457.563 193.477 457.745 193.168C457.937 192.848 458.193 192.597 458.513 192.416C458.833 192.224 459.185 192.128 459.569 192.128C459.953 192.128 460.299 192.224 460.609 192.416C460.929 192.597 461.185 192.848 461.377 193.168C461.569 193.477 461.665 193.824 461.665 194.208C461.665 194.592 461.569 194.949 461.377 195.28C461.185 195.6 460.929 195.861 460.609 196.064C460.289 196.256 459.937 196.352 459.553 196.352ZM456.09 214V202.64H463.722V204.576H458.298V207.504H462.81V209.296H458.298V214H456.09ZM458.397 218.64H460.637L464.813 230H462.541L461.485 227.168H457.517L456.477 230H454.205L458.397 218.64ZM461.085 225.616L459.517 220.928L457.885 225.616H461.085ZM463.632 242.64C463.632 243.344 463.44 243.957 463.056 244.48C462.683 245.003 462.181 245.413 461.552 245.712C460.923 246 460.235 246.144 459.488 246.144C458.731 246.144 458.037 245.989 457.408 245.68C456.789 245.371 456.293 244.949 455.92 244.416C455.557 243.872 455.376 243.253 455.376 242.56C455.376 242.133 455.467 241.749 455.648 241.408C455.829 241.056 456.053 240.757 456.32 240.512C456.597 240.256 456.875 240.059 457.152 239.92C456.896 239.792 456.656 239.621 456.432 239.408C456.219 239.195 456.048 238.949 455.92 238.672C455.792 238.395 455.728 238.101 455.728 237.792C455.728 237.291 455.84 236.843 456.064 236.448C456.288 236.053 456.587 235.723 456.96 235.456C457.333 235.179 457.739 234.976 458.176 234.848C458.624 234.709 459.067 234.64 459.504 234.64C459.931 234.64 460.368 234.709 460.816 234.848C461.264 234.976 461.675 235.173 462.048 235.44C462.421 235.707 462.72 236.037 462.944 236.432C463.179 236.816 463.296 237.264 463.296 237.776C463.296 238.075 463.227 238.368 463.088 238.656C462.96 238.933 462.784 239.184 462.56 239.408C462.347 239.621 462.101 239.792 461.824 239.92C462.133 240.08 462.427 240.288 462.704 240.544C462.981 240.8 463.205 241.104 463.376 241.456C463.547 241.808 463.632 242.203 463.632 242.64ZM461.456 242.512C461.456 242.235 461.403 241.995 461.296 241.792C461.189 241.579 461.04 241.403 460.848 241.264C460.656 241.115 460.443 241.003 460.208 240.928C459.973 240.853 459.733 240.816 459.488 240.816C459.147 240.816 458.827 240.885 458.528 241.024C458.24 241.163 458.005 241.36 457.824 241.616C457.643 241.872 457.552 242.171 457.552 242.512C457.552 242.768 457.605 243.003 457.712 243.216C457.829 243.419 457.979 243.595 458.16 243.744C458.352 243.893 458.56 244.011 458.784 244.096C459.019 244.171 459.259 244.208 459.504 244.208C459.845 244.208 460.165 244.133 460.464 243.984C460.763 243.835 461.003 243.632 461.184 243.376C461.365 243.12 461.456 242.832 461.456 242.512ZM457.904 237.856C457.904 238.144 457.984 238.389 458.144 238.592C458.304 238.795 458.507 238.949 458.752 239.056C459.008 239.152 459.259 239.2 459.504 239.2C459.76 239.2 460.005 239.147 460.24 239.04C460.485 238.933 460.688 238.784 460.848 238.592C461.019 238.389 461.104 238.139 461.104 237.84C461.104 237.573 461.029 237.344 460.88 237.152C460.731 236.96 460.533 236.811 460.288 236.704C460.053 236.597 459.787 236.544 459.488 236.544C459.211 236.544 458.949 236.597 458.704 236.704C458.459 236.811 458.261 236.965 458.112 237.168C457.973 237.36 457.904 237.589 457.904 237.856ZM461.135 258.224C461.583 258.299 461.972 258.469 462.303 258.736C462.634 258.992 462.89 259.323 463.071 259.728C463.263 260.133 463.359 260.581 463.359 261.072C463.359 261.733 463.188 262.309 462.847 262.8C462.506 263.291 462.02 263.669 461.391 263.936C460.772 264.213 460.042 264.352 459.199 264.352C458.388 264.352 457.668 264.219 457.039 263.952C456.42 263.696 455.903 263.317 455.487 262.816L456.703 261.296C456.98 261.637 457.311 261.904 457.695 262.096C458.09 262.299 458.57 262.4 459.135 262.4C459.786 262.4 460.282 262.267 460.623 262C460.964 261.744 461.135 261.355 461.135 260.832C461.135 260.277 460.938 259.851 460.543 259.552C460.148 259.253 459.551 259.104 458.751 259.104H458.303V257.504H458.799C459.45 257.504 459.956 257.355 460.319 257.056C460.692 256.757 460.879 256.384 460.879 255.936C460.879 255.648 460.81 255.408 460.671 255.216C460.532 255.024 460.34 254.88 460.095 254.784C459.86 254.688 459.583 254.64 459.263 254.64C458.783 254.64 458.346 254.752 457.951 254.976C457.556 255.2 457.236 255.515 456.991 255.92L455.647 254.416C455.871 254.085 456.175 253.803 456.559 253.568C456.954 253.323 457.402 253.131 457.903 252.992C458.415 252.853 458.948 252.784 459.503 252.784C460.228 252.784 460.863 252.901 461.407 253.136C461.962 253.371 462.394 253.701 462.703 254.128C463.012 254.555 463.167 255.051 463.167 255.616C463.167 256.032 463.082 256.427 462.911 256.8C462.74 257.173 462.5 257.488 462.191 257.744C461.892 257.989 461.54 258.149 461.135 258.224ZM459.262 280.384C458.441 280.384 457.7 280.208 457.038 279.856C456.377 279.504 455.876 279.024 455.534 278.416L456.766 277.136C457.065 277.552 457.438 277.883 457.886 278.128C458.334 278.373 458.798 278.496 459.278 278.496C459.662 278.496 459.998 278.416 460.286 278.256C460.585 278.096 460.82 277.872 460.99 277.584C461.161 277.296 461.246 276.965 461.246 276.592C461.246 276.219 461.166 275.893 461.006 275.616C460.846 275.339 460.628 275.125 460.35 274.976C460.073 274.816 459.758 274.736 459.406 274.736C459.054 274.736 458.724 274.816 458.414 274.976C458.116 275.125 457.876 275.344 457.694 275.632H455.822L457.134 268.864H462.734V270.816H458.686L458.222 273.36C458.361 273.232 458.553 273.125 458.798 273.04C459.044 272.944 459.348 272.896 459.71 272.896C460.425 272.896 461.065 273.051 461.63 273.36C462.196 273.669 462.638 274.101 462.958 274.656C463.278 275.2 463.438 275.829 463.438 276.544C463.438 277.301 463.257 277.968 462.894 278.544C462.532 279.131 462.036 279.584 461.406 279.904C460.777 280.224 460.062 280.384 459.262 280.384ZM454.512 288.24C454.512 287.547 454.634 286.869 454.88 286.208C455.136 285.536 455.504 284.928 455.984 284.384C456.464 283.829 457.05 283.392 457.744 283.072C458.437 282.741 459.226 282.576 460.112 282.576C461.157 282.576 462.058 282.805 462.816 283.264C463.584 283.723 464.154 284.32 464.528 285.056L462.832 286.224C462.64 285.797 462.389 285.461 462.08 285.216C461.77 284.96 461.44 284.784 461.088 284.688C460.736 284.581 460.389 284.528 460.048 284.528C459.493 284.528 459.008 284.64 458.592 284.864C458.186 285.088 457.845 285.381 457.568 285.744C457.29 286.107 457.082 286.512 456.944 286.96C456.816 287.408 456.752 287.856 456.752 288.304C456.752 288.805 456.832 289.291 456.992 289.76C457.152 290.219 457.376 290.629 457.664 290.992C457.962 291.344 458.314 291.627 458.72 291.84C459.136 292.043 459.589 292.144 460.08 292.144C460.432 292.144 460.789 292.085 461.152 291.968C461.514 291.851 461.85 291.664 462.16 291.408C462.469 291.152 462.709 290.821 462.88 290.416L464.688 291.456C464.464 292.021 464.096 292.501 463.584 292.896C463.082 293.291 462.517 293.589 461.888 293.792C461.258 293.995 460.634 294.096 460.016 294.096C459.205 294.096 458.464 293.931 457.792 293.6C457.12 293.259 456.538 292.811 456.048 292.256C455.568 291.691 455.189 291.061 454.912 290.368C454.645 289.664 454.512 288.955 454.512 288.24ZM463.767 308.064V310H455.879V298.64H463.623V300.576H458.087V303.312H462.871V305.104H458.087V308.064H463.767ZM459.922 328.032V325.648H455.25V323.744L460.61 316.864H462.066V323.728H463.474V325.648H462.066V328.032H459.922ZM457.394 323.728H460.162V320.112L457.394 323.728ZM458.397 330.64H460.637L464.813 342H462.541L461.485 339.168H457.517L456.477 342H454.205L458.397 330.64ZM461.085 337.616L459.517 332.928L457.885 337.616H461.085ZM463.713 354.208C463.713 353.493 463.537 352.853 463.185 352.288C462.843 351.712 462.374 351.259 461.777 350.928C461.179 350.587 460.502 350.416 459.745 350.416C459.393 350.416 459.062 350.469 458.753 350.576C458.443 350.672 458.171 350.816 457.937 351.008C457.702 351.189 457.51 351.408 457.361 351.664C457.382 350.981 457.489 350.4 457.681 349.92C457.873 349.429 458.145 349.056 458.497 348.8C458.849 348.544 459.265 348.416 459.745 348.416C460.214 348.416 460.651 348.533 461.057 348.768C461.462 348.992 461.793 349.301 462.049 349.696L463.281 348.352C462.865 347.776 462.353 347.333 461.745 347.024C461.147 346.715 460.491 346.56 459.777 346.56C458.881 346.56 458.102 346.805 457.441 347.296C456.779 347.776 456.267 348.496 455.905 349.456C455.553 350.405 455.377 351.568 455.377 352.944C455.377 354.032 455.547 354.965 455.889 355.744C456.23 356.523 456.71 357.12 457.329 357.536C457.958 357.952 458.699 358.16 459.553 358.16C460.342 358.16 461.046 357.984 461.665 357.632C462.294 357.28 462.79 356.805 463.153 356.208C463.526 355.611 463.713 354.944 463.713 354.208ZM459.553 356.352C459.19 356.352 458.849 356.256 458.529 356.064C458.209 355.861 457.953 355.6 457.761 355.28C457.569 354.949 457.473 354.592 457.473 354.208C457.473 353.824 457.563 353.477 457.745 353.168C457.937 352.848 458.193 352.597 458.513 352.416C458.833 352.224 459.185 352.128 459.569 352.128C459.953 352.128 460.299 352.224 460.609 352.416C460.929 352.597 461.185 352.848 461.377 353.168C461.569 353.477 461.665 353.824 461.665 354.208C461.665 354.592 461.569 354.949 461.377 355.28C461.185 355.6 460.929 355.861 460.609 356.064C460.289 356.256 459.937 356.352 459.553 356.352ZM464.399 371.072C464.399 371.712 464.233 372.251 463.903 372.688C463.572 373.115 463.124 373.44 462.559 373.664C462.004 373.888 461.396 374 460.735 374H455.247V362.64H461.327C461.86 362.64 462.319 362.784 462.703 363.072C463.097 363.349 463.396 363.712 463.599 364.16C463.812 364.597 463.919 365.056 463.919 365.536C463.919 366.08 463.78 366.597 463.503 367.088C463.225 367.579 462.82 367.941 462.286 368.176C462.937 368.368 463.449 368.715 463.823 369.216C464.207 369.717 464.399 370.336 464.399 371.072ZM462.175 370.656C462.175 370.368 462.116 370.112 461.999 369.888C461.881 369.653 461.721 369.472 461.519 369.344C461.327 369.205 461.103 369.136 460.847 369.136H457.455V372.128H460.735C461.001 372.128 461.241 372.064 461.455 371.936C461.679 371.797 461.855 371.616 461.983 371.392C462.111 371.168 462.175 370.923 462.175 370.656ZM457.455 364.528V367.392H460.399C460.644 367.392 460.868 367.333 461.071 367.216C461.273 367.099 461.433 366.933 461.551 366.72C461.679 366.507 461.743 366.251 461.743 365.952C461.743 365.664 461.684 365.413 461.567 365.2C461.46 364.987 461.311 364.821 461.119 364.704C460.937 364.587 460.729 364.528 460.495 364.528H457.455ZM454.512 384.24C454.512 383.547 454.634 382.869 454.88 382.208C455.136 381.536 455.504 380.928 455.984 380.384C456.464 379.829 457.05 379.392 457.744 379.072C458.437 378.741 459.226 378.576 460.112 378.576C461.157 378.576 462.058 378.805 462.816 379.264C463.584 379.723 464.154 380.32 464.528 381.056L462.832 382.224C462.64 381.797 462.389 381.461 462.08 381.216C461.77 380.96 461.44 380.784 461.088 380.688C460.736 380.581 460.389 380.528 460.048 380.528C459.493 380.528 459.008 380.64 458.592 380.864C458.186 381.088 457.845 381.381 457.568 381.744C457.29 382.107 457.082 382.512 456.944 382.96C456.816 383.408 456.752 383.856 456.752 384.304C456.752 384.805 456.832 385.291 456.992 385.76C457.152 386.219 457.376 386.629 457.664 386.992C457.962 387.344 458.314 387.627 458.72 387.84C459.136 388.043 459.589 388.144 460.08 388.144C460.432 388.144 460.789 388.085 461.152 387.968C461.514 387.851 461.85 387.664 462.16 387.408C462.469 387.152 462.709 386.821 462.88 386.416L464.688 387.456C464.464 388.021 464.096 388.501 463.584 388.896C463.082 389.291 462.517 389.589 461.888 389.792C461.258 389.995 460.634 390.096 460.016 390.096C459.205 390.096 458.464 389.931 457.792 389.6C457.12 389.259 456.538 388.811 456.048 388.256C455.568 387.691 455.189 387.061 454.912 386.368C454.645 385.664 454.512 384.955 454.512 384.24ZM463.632 402.64C463.632 403.344 463.44 403.957 463.056 404.48C462.683 405.003 462.181 405.413 461.552 405.712C460.923 406 460.235 406.144 459.488 406.144C458.731 406.144 458.037 405.989 457.408 405.68C456.789 405.371 456.293 404.949 455.92 404.416C455.557 403.872 455.376 403.253 455.376 402.56C455.376 402.133 455.467 401.749 455.648 401.408C455.829 401.056 456.053 400.757 456.32 400.512C456.597 400.256 456.875 400.059 457.152 399.92C456.896 399.792 456.656 399.621 456.432 399.408C456.219 399.195 456.048 398.949 455.92 398.672C455.792 398.395 455.728 398.101 455.728 397.792C455.728 397.291 455.84 396.843 456.064 396.448C456.288 396.053 456.587 395.723 456.96 395.456C457.333 395.179 457.739 394.976 458.176 394.848C458.624 394.709 459.067 394.64 459.504 394.64C459.931 394.64 460.368 394.709 460.816 394.848C461.264 394.976 461.675 395.173 462.048 395.44C462.421 395.707 462.72 396.037 462.944 396.432C463.179 396.816 463.296 397.264 463.296 397.776C463.296 398.075 463.227 398.368 463.088 398.656C462.96 398.933 462.784 399.184 462.56 399.408C462.347 399.621 462.101 399.792 461.824 399.92C462.133 400.08 462.427 400.288 462.704 400.544C462.981 400.8 463.205 401.104 463.376 401.456C463.547 401.808 463.632 402.203 463.632 402.64ZM461.456 402.512C461.456 402.235 461.403 401.995 461.296 401.792C461.189 401.579 461.04 401.403 460.848 401.264C460.656 401.115 460.443 401.003 460.208 400.928C459.973 400.853 459.733 400.816 459.488 400.816C459.147 400.816 458.827 400.885 458.528 401.024C458.24 401.163 458.005 401.36 457.824 401.616C457.643 401.872 457.552 402.171 457.552 402.512C457.552 402.768 457.605 403.003 457.712 403.216C457.829 403.419 457.979 403.595 458.16 403.744C458.352 403.893 458.56 404.011 458.784 404.096C459.019 404.171 459.259 404.208 459.504 404.208C459.845 404.208 460.165 404.133 460.464 403.984C460.763 403.835 461.003 403.632 461.184 403.376C461.365 403.12 461.456 402.832 461.456 402.512ZM457.904 397.856C457.904 398.144 457.984 398.389 458.144 398.592C458.304 398.795 458.507 398.949 458.752 399.056C459.008 399.152 459.259 399.2 459.504 399.2C459.76 399.2 460.005 399.147 460.24 399.04C460.485 398.933 460.688 398.784 460.848 398.592C461.019 398.389 461.104 398.139 461.104 397.84C461.104 397.573 461.029 397.344 460.88 397.152C460.731 396.96 460.533 396.811 460.288 396.704C460.053 396.597 459.787 396.544 459.488 396.544C459.211 396.544 458.949 396.597 458.704 396.704C458.459 396.811 458.261 396.965 458.112 397.168C457.973 397.36 457.904 397.589 457.904 397.856ZM463.067 420.064V422H456.571V420.064H458.843V415.216C458.747 415.344 458.598 415.477 458.395 415.616C458.192 415.744 457.963 415.867 457.707 415.984C457.451 416.101 457.195 416.197 456.939 416.272C456.683 416.347 456.454 416.384 456.251 416.384V414.384C456.443 414.384 456.672 414.325 456.939 414.208C457.216 414.08 457.488 413.931 457.755 413.76C458.032 413.589 458.267 413.424 458.459 413.264C458.662 413.093 458.79 412.96 458.843 412.864H461.035V420.064H463.067ZM463.626 433.312C463.626 434.251 463.445 435.088 463.082 435.824C462.73 436.549 462.239 437.12 461.61 437.536C460.991 437.952 460.287 438.16 459.498 438.16C458.709 438.16 457.999 437.952 457.37 437.536C456.751 437.12 456.261 436.549 455.898 435.824C455.546 435.088 455.37 434.251 455.37 433.312C455.37 432.373 455.546 431.541 455.898 430.816C456.261 430.08 456.751 429.504 457.37 429.088C457.999 428.661 458.709 428.448 459.498 428.448C460.287 428.448 460.991 428.661 461.61 429.088C462.239 429.504 462.73 430.08 463.082 430.816C463.445 431.541 463.626 432.373 463.626 433.312ZM461.466 433.312C461.466 432.736 461.381 432.235 461.21 431.808C461.05 431.371 460.821 431.029 460.522 430.784C460.223 430.539 459.882 430.416 459.498 430.416C459.103 430.416 458.757 430.539 458.458 430.784C458.159 431.029 457.925 431.371 457.754 431.808C457.594 432.235 457.514 432.736 457.514 433.312C457.514 433.888 457.594 434.389 457.754 434.816C457.925 435.243 458.159 435.579 458.458 435.824C458.757 436.069 459.103 436.192 459.498 436.192C459.882 436.192 460.218 436.069 460.506 435.824C460.805 435.579 461.039 435.243 461.21 434.816C461.381 434.379 461.466 433.877 461.466 433.312ZM454.512 448.24C454.512 447.547 454.634 446.869 454.88 446.208C455.136 445.536 455.504 444.928 455.984 444.384C456.464 443.829 457.05 443.392 457.744 443.072C458.437 442.741 459.226 442.576 460.112 442.576C461.157 442.576 462.058 442.805 462.816 443.264C463.584 443.723 464.154 444.32 464.528 445.056L462.832 446.224C462.64 445.797 462.389 445.461 462.08 445.216C461.77 444.96 461.44 444.784 461.088 444.688C460.736 444.581 460.389 444.528 460.048 444.528C459.493 444.528 459.008 444.64 458.592 444.864C458.186 445.088 457.845 445.381 457.568 445.744C457.29 446.107 457.082 446.512 456.944 446.96C456.816 447.408 456.752 447.856 456.752 448.304C456.752 448.805 456.832 449.291 456.992 449.76C457.152 450.219 457.376 450.629 457.664 450.992C457.962 451.344 458.314 451.627 458.72 451.84C459.136 452.043 459.589 452.144 460.08 452.144C460.432 452.144 460.789 452.085 461.152 451.968C461.514 451.851 461.85 451.664 462.16 451.408C462.469 451.152 462.709 450.821 462.88 450.416L464.688 451.456C464.464 452.021 464.096 452.501 463.584 452.896C463.082 453.291 462.517 453.589 461.888 453.792C461.258 453.995 460.634 454.096 460.016 454.096C459.205 454.096 458.464 453.931 457.792 453.6C457.12 453.259 456.538 452.811 456.048 452.256C455.568 451.691 455.189 451.061 454.912 450.368C454.645 449.664 454.512 448.955 454.512 448.24ZM458.397 458.64H460.637L464.813 470H462.541L461.485 467.168H457.517L456.477 470H454.205L458.397 458.64ZM461.085 465.616L459.517 460.928L457.885 465.616H461.085ZM459.922 488.032V485.648H455.25V483.744L460.61 476.864H462.066V483.728H463.474V485.648H462.066V488.032H459.922ZM457.394 483.728H460.162V480.112L457.394 483.728ZM463.713 498.208C463.713 497.493 463.537 496.853 463.185 496.288C462.843 495.712 462.374 495.259 461.777 494.928C461.179 494.587 460.502 494.416 459.745 494.416C459.393 494.416 459.062 494.469 458.753 494.576C458.443 494.672 458.171 494.816 457.937 495.008C457.702 495.189 457.51 495.408 457.361 495.664C457.382 494.981 457.489 494.4 457.681 493.92C457.873 493.429 458.145 493.056 458.497 492.8C458.849 492.544 459.265 492.416 459.745 492.416C460.214 492.416 460.651 492.533 461.057 492.768C461.462 492.992 461.793 493.301 462.049 493.696L463.281 492.352C462.865 491.776 462.353 491.333 461.745 491.024C461.147 490.715 460.491 490.56 459.777 490.56C458.881 490.56 458.102 490.805 457.441 491.296C456.779 491.776 456.267 492.496 455.905 493.456C455.553 494.405 455.377 495.568 455.377 496.944C455.377 498.032 455.547 498.965 455.889 499.744C456.23 500.523 456.71 501.12 457.329 501.536C457.958 501.952 458.699 502.16 459.553 502.16C460.342 502.16 461.046 501.984 461.665 501.632C462.294 501.28 462.79 500.805 463.153 500.208C463.526 499.611 463.713 498.944 463.713 498.208ZM459.553 500.352C459.19 500.352 458.849 500.256 458.529 500.064C458.209 499.861 457.953 499.6 457.761 499.28C457.569 498.949 457.473 498.592 457.473 498.208C457.473 497.824 457.563 497.477 457.745 497.168C457.937 496.848 458.193 496.597 458.513 496.416C458.833 496.224 459.185 496.128 459.569 496.128C459.953 496.128 460.299 496.224 460.609 496.416C460.929 496.597 461.185 496.848 461.377 497.168C461.569 497.477 461.665 497.824 461.665 498.208C461.665 498.592 461.569 498.949 461.377 499.28C461.185 499.6 460.929 499.861 460.609 500.064C460.289 500.256 459.937 500.352 459.553 500.352ZM456.09 518V506.64H463.722V508.576H458.298V511.504H462.81V513.296H458.298V518H456.09ZM458.397 522.64H460.637L464.813 534H462.541L461.485 531.168H457.517L456.477 534H454.205L458.397 522.64ZM461.085 529.616L459.517 524.928L457.885 529.616H461.085ZM463.632 546.64C463.632 547.344 463.44 547.957 463.056 548.48C462.683 549.003 462.181 549.413 461.552 549.712C460.923 550 460.235 550.144 459.488 550.144C458.731 550.144 458.037 549.989 457.408 549.68C456.789 549.371 456.293 548.949 455.92 548.416C455.557 547.872 455.376 547.253 455.376 546.56C455.376 546.133 455.467 545.749 455.648 545.408C455.829 545.056 456.053 544.757 456.32 544.512C456.597 544.256 456.875 544.059 457.152 543.92C456.896 543.792 456.656 543.621 456.432 543.408C456.219 543.195 456.048 542.949 455.92 542.672C455.792 542.395 455.728 542.101 455.728 541.792C455.728 541.291 455.84 540.843 456.064 540.448C456.288 540.053 456.587 539.723 456.96 539.456C457.333 539.179 457.739 538.976 458.176 538.848C458.624 538.709 459.067 538.64 459.504 538.64C459.931 538.64 460.368 538.709 460.816 538.848C461.264 538.976 461.675 539.173 462.048 539.44C462.421 539.707 462.72 540.037 462.944 540.432C463.179 540.816 463.296 541.264 463.296 541.776C463.296 542.075 463.227 542.368 463.088 542.656C462.96 542.933 462.784 543.184 462.56 543.408C462.347 543.621 462.101 543.792 461.824 543.92C462.133 544.08 462.427 544.288 462.704 544.544C462.981 544.8 463.205 545.104 463.376 545.456C463.547 545.808 463.632 546.203 463.632 546.64ZM461.456 546.512C461.456 546.235 461.403 545.995 461.296 545.792C461.189 545.579 461.04 545.403 460.848 545.264C460.656 545.115 460.443 545.003 460.208 544.928C459.973 544.853 459.733 544.816 459.488 544.816C459.147 544.816 458.827 544.885 458.528 545.024C458.24 545.163 458.005 545.36 457.824 545.616C457.643 545.872 457.552 546.171 457.552 546.512C457.552 546.768 457.605 547.003 457.712 547.216C457.829 547.419 457.979 547.595 458.16 547.744C458.352 547.893 458.56 548.011 458.784 548.096C459.019 548.171 459.259 548.208 459.504 548.208C459.845 548.208 460.165 548.133 460.464 547.984C460.763 547.835 461.003 547.632 461.184 547.376C461.365 547.12 461.456 546.832 461.456 546.512ZM457.904 541.856C457.904 542.144 457.984 542.389 458.144 542.592C458.304 542.795 458.507 542.949 458.752 543.056C459.008 543.152 459.259 543.2 459.504 543.2C459.76 543.2 460.005 543.147 460.24 543.04C460.485 542.933 460.688 542.784 460.848 542.592C461.019 542.389 461.104 542.139 461.104 541.84C461.104 541.573 461.029 541.344 460.88 541.152C460.731 540.96 460.533 540.811 460.288 540.704C460.053 540.597 459.787 540.544 459.488 540.544C459.211 540.544 458.949 540.597 458.704 540.704C458.459 540.811 458.261 540.965 458.112 541.168C457.973 541.36 457.904 541.589 457.904 541.856ZM461.135 562.224C461.583 562.299 461.972 562.469 462.303 562.736C462.634 562.992 462.89 563.323 463.071 563.728C463.263 564.133 463.359 564.581 463.359 565.072C463.359 565.733 463.188 566.309 462.847 566.8C462.506 567.291 462.02 567.669 461.391 567.936C460.772 568.213 460.042 568.352 459.199 568.352C458.388 568.352 457.668 568.219 457.039 567.952C456.42 567.696 455.903 567.317 455.487 566.816L456.703 565.296C456.98 565.637 457.311 565.904 457.695 566.096C458.09 566.299 458.57 566.4 459.135 566.4C459.786 566.4 460.282 566.267 460.623 566C460.964 565.744 461.135 565.355 461.135 564.832C461.135 564.277 460.938 563.851 460.543 563.552C460.148 563.253 459.551 563.104 458.751 563.104H458.303V561.504H458.799C459.45 561.504 459.956 561.355 460.319 561.056C460.692 560.757 460.879 560.384 460.879 559.936C460.879 559.648 460.81 559.408 460.671 559.216C460.532 559.024 460.34 558.88 460.095 558.784C459.86 558.688 459.583 558.64 459.263 558.64C458.783 558.64 458.346 558.752 457.951 558.976C457.556 559.2 457.236 559.515 456.991 559.92L455.647 558.416C455.871 558.085 456.175 557.803 456.559 557.568C456.954 557.323 457.402 557.131 457.903 556.992C458.415 556.853 458.948 556.784 459.503 556.784C460.228 556.784 460.863 556.901 461.407 557.136C461.962 557.371 462.394 557.701 462.703 558.128C463.012 558.555 463.167 559.051 463.167 559.616C463.167 560.032 463.082 560.427 462.911 560.8C462.74 561.173 462.5 561.488 462.191 561.744C461.892 561.989 461.54 562.149 461.135 562.224ZM459.262 584.384C458.441 584.384 457.7 584.208 457.038 583.856C456.377 583.504 455.876 583.024 455.534 582.416L456.766 581.136C457.065 581.552 457.438 581.883 457.886 582.128C458.334 582.373 458.798 582.496 459.278 582.496C459.662 582.496 459.998 582.416 460.286 582.256C460.585 582.096 460.82 581.872 460.99 581.584C461.161 581.296 461.246 580.965 461.246 580.592C461.246 580.219 461.166 579.893 461.006 579.616C460.846 579.339 460.628 579.125 460.35 578.976C460.073 578.816 459.758 578.736 459.406 578.736C459.054 578.736 458.724 578.816 458.414 578.976C458.116 579.125 457.876 579.344 457.694 579.632H455.822L457.134 572.864H462.734V574.816H458.686L458.222 577.36C458.361 577.232 458.553 577.125 458.798 577.04C459.044 576.944 459.348 576.896 459.71 576.896C460.425 576.896 461.065 577.051 461.63 577.36C462.196 577.669 462.638 578.101 462.958 578.656C463.278 579.2 463.438 579.829 463.438 580.544C463.438 581.301 463.257 581.968 462.894 582.544C462.532 583.131 462.036 583.584 461.406 583.904C460.777 584.224 460.062 584.384 459.262 584.384ZM454.512 592.24C454.512 591.547 454.634 590.869 454.88 590.208C455.136 589.536 455.504 588.928 455.984 588.384C456.464 587.829 457.05 587.392 457.744 587.072C458.437 586.741 459.226 586.576 460.112 586.576C461.157 586.576 462.058 586.805 462.816 587.264C463.584 587.723 464.154 588.32 464.528 589.056L462.832 590.224C462.64 589.797 462.389 589.461 462.08 589.216C461.77 588.96 461.44 588.784 461.088 588.688C460.736 588.581 460.389 588.528 460.048 588.528C459.493 588.528 459.008 588.64 458.592 588.864C458.186 589.088 457.845 589.381 457.568 589.744C457.29 590.107 457.082 590.512 456.944 590.96C456.816 591.408 456.752 591.856 456.752 592.304C456.752 592.805 456.832 593.291 456.992 593.76C457.152 594.219 457.376 594.629 457.664 594.992C457.962 595.344 458.314 595.627 458.72 595.84C459.136 596.043 459.589 596.144 460.08 596.144C460.432 596.144 460.789 596.085 461.152 595.968C461.514 595.851 461.85 595.664 462.16 595.408C462.469 595.152 462.709 594.821 462.88 594.416L464.688 595.456C464.464 596.021 464.096 596.501 463.584 596.896C463.082 597.291 462.517 597.589 461.888 597.792C461.258 597.995 460.634 598.096 460.016 598.096C459.205 598.096 458.464 597.931 457.792 597.6C457.12 597.259 456.538 596.811 456.048 596.256C455.568 595.691 455.189 595.061 454.912 594.368C454.645 593.664 454.512 592.955 454.512 592.24ZM463.767 612.064V614H455.879V602.64H463.623V604.576H458.087V607.312H462.871V609.104H458.087V612.064H463.767ZM459.922 632.032V629.648H455.25V627.744L460.61 620.864H462.066V627.728H463.474V629.648H462.066V632.032H459.922ZM457.394 627.728H460.162V624.112L457.394 627.728ZM458.397 634.64H460.637L464.813 646H462.541L461.485 643.168H457.517L456.477 646H454.205L458.397 634.64ZM461.085 641.616L459.517 636.928L457.885 641.616H461.085ZM463.713 658.208C463.713 657.493 463.537 656.853 463.185 656.288C462.843 655.712 462.374 655.259 461.777 654.928C461.179 654.587 460.502 654.416 459.745 654.416C459.393 654.416 459.062 654.469 458.753 654.576C458.443 654.672 458.171 654.816 457.937 655.008C457.702 655.189 457.51 655.408 457.361 655.664C457.382 654.981 457.489 654.4 457.681 653.92C457.873 653.429 458.145 653.056 458.497 652.8C458.849 652.544 459.265 652.416 459.745 652.416C460.214 652.416 460.651 652.533 461.057 652.768C461.462 652.992 461.793 653.301 462.049 653.696L463.281 652.352C462.865 651.776 462.353 651.333 461.745 651.024C461.147 650.715 460.491 650.56 459.777 650.56C458.881 650.56 458.102 650.805 457.441 651.296C456.779 651.776 456.267 652.496 455.905 653.456C455.553 654.405 455.377 655.568 455.377 656.944C455.377 658.032 455.547 658.965 455.889 659.744C456.23 660.523 456.71 661.12 457.329 661.536C457.958 661.952 458.699 662.16 459.553 662.16C460.342 662.16 461.046 661.984 461.665 661.632C462.294 661.28 462.79 660.805 463.153 660.208C463.526 659.611 463.713 658.944 463.713 658.208ZM459.553 660.352C459.19 660.352 458.849 660.256 458.529 660.064C458.209 659.861 457.953 659.6 457.761 659.28C457.569 658.949 457.473 658.592 457.473 658.208C457.473 657.824 457.563 657.477 457.745 657.168C457.937 656.848 458.193 656.597 458.513 656.416C458.833 656.224 459.185 656.128 459.569 656.128C459.953 656.128 460.299 656.224 460.609 656.416C460.929 656.597 461.185 656.848 461.377 657.168C461.569 657.477 461.665 657.824 461.665 658.208C461.665 658.592 461.569 658.949 461.377 659.28C461.185 659.6 460.929 659.861 460.609 660.064C460.289 660.256 459.937 660.352 459.553 660.352ZM464.399 675.072C464.399 675.712 464.233 676.251 463.903 676.688C463.572 677.115 463.124 677.44 462.559 677.664C462.004 677.888 461.396 678 460.735 678H455.247V666.64H461.327C461.86 666.64 462.319 666.784 462.703 667.072C463.097 667.349 463.396 667.712 463.599 668.16C463.812 668.597 463.919 669.056 463.919 669.536C463.919 670.08 463.78 670.597 463.503 671.088C463.225 671.579 462.82 671.941 462.286 672.176C462.937 672.368 463.449 672.715 463.823 673.216C464.207 673.717 464.399 674.336 464.399 675.072ZM462.175 674.656C462.175 674.368 462.116 674.112 461.999 673.888C461.881 673.653 461.721 673.472 461.519 673.344C461.327 673.205 461.103 673.136 460.847 673.136H457.455V676.128H460.735C461.001 676.128 461.241 676.064 461.455 675.936C461.679 675.797 461.855 675.616 461.983 675.392C462.111 675.168 462.175 674.923 462.175 674.656ZM457.455 668.528V671.392H460.399C460.644 671.392 460.868 671.333 461.071 671.216C461.273 671.099 461.433 670.933 461.551 670.72C461.679 670.507 461.743 670.251 461.743 669.952C461.743 669.664 461.684 669.413 461.567 669.2C461.46 668.987 461.311 668.821 461.119 668.704C460.937 668.587 460.729 668.528 460.495 668.528H457.455ZM454.512 688.24C454.512 687.547 454.634 686.869 454.88 686.208C455.136 685.536 455.504 684.928 455.984 684.384C456.464 683.829 457.05 683.392 457.744 683.072C458.437 682.741 459.226 682.576 460.112 682.576C461.157 682.576 462.058 682.805 462.816 683.264C463.584 683.723 464.154 684.32 464.528 685.056L462.832 686.224C462.64 685.797 462.389 685.461 462.08 685.216C461.77 684.96 461.44 684.784 461.088 684.688C460.736 684.581 460.389 684.528 460.048 684.528C459.493 684.528 459.008 684.64 458.592 684.864C458.186 685.088 457.845 685.381 457.568 685.744C457.29 686.107 457.082 686.512 456.944 686.96C456.816 687.408 456.752 687.856 456.752 688.304C456.752 688.805 456.832 689.291 456.992 689.76C457.152 690.219 457.376 690.629 457.664 690.992C457.962 691.344 458.314 691.627 458.72 691.84C459.136 692.043 459.589 692.144 460.08 692.144C460.432 692.144 460.789 692.085 461.152 691.968C461.514 691.851 461.85 691.664 462.16 691.408C462.469 691.152 462.709 690.821 462.88 690.416L464.688 691.456C464.464 692.021 464.096 692.501 463.584 692.896C463.082 693.291 462.517 693.589 461.888 693.792C461.258 693.995 460.634 694.096 460.016 694.096C459.205 694.096 458.464 693.931 457.792 693.6C457.12 693.259 456.538 692.811 456.048 692.256C455.568 691.691 455.189 691.061 454.912 690.368C454.645 689.664 454.512 688.955 454.512 688.24ZM463.632 706.64C463.632 707.344 463.44 707.957 463.056 708.48C462.683 709.003 462.181 709.413 461.552 709.712C460.923 710 460.235 710.144 459.488 710.144C458.731 710.144 458.037 709.989 457.408 709.68C456.789 709.371 456.293 708.949 455.92 708.416C455.557 707.872 455.376 707.253 455.376 706.56C455.376 706.133 455.467 705.749 455.648 705.408C455.829 705.056 456.053 704.757 456.32 704.512C456.597 704.256 456.875 704.059 457.152 703.92C456.896 703.792 456.656 703.621 456.432 703.408C456.219 703.195 456.048 702.949 455.92 702.672C455.792 702.395 455.728 702.101 455.728 701.792C455.728 701.291 455.84 700.843 456.064 700.448C456.288 700.053 456.587 699.723 456.96 699.456C457.333 699.179 457.739 698.976 458.176 698.848C458.624 698.709 459.067 698.64 459.504 698.64C459.931 698.64 460.368 698.709 460.816 698.848C461.264 698.976 461.675 699.173 462.048 699.44C462.421 699.707 462.72 700.037 462.944 700.432C463.179 700.816 463.296 701.264 463.296 701.776C463.296 702.075 463.227 702.368 463.088 702.656C462.96 702.933 462.784 703.184 462.56 703.408C462.347 703.621 462.101 703.792 461.824 703.92C462.133 704.08 462.427 704.288 462.704 704.544C462.981 704.8 463.205 705.104 463.376 705.456C463.547 705.808 463.632 706.203 463.632 706.64ZM461.456 706.512C461.456 706.235 461.403 705.995 461.296 705.792C461.189 705.579 461.04 705.403 460.848 705.264C460.656 705.115 460.443 705.003 460.208 704.928C459.973 704.853 459.733 704.816 459.488 704.816C459.147 704.816 458.827 704.885 458.528 705.024C458.24 705.163 458.005 705.36 457.824 705.616C457.643 705.872 457.552 706.171 457.552 706.512C457.552 706.768 457.605 707.003 457.712 707.216C457.829 707.419 457.979 707.595 458.16 707.744C458.352 707.893 458.56 708.011 458.784 708.096C459.019 708.171 459.259 708.208 459.504 708.208C459.845 708.208 460.165 708.133 460.464 707.984C460.763 707.835 461.003 707.632 461.184 707.376C461.365 707.12 461.456 706.832 461.456 706.512ZM457.904 701.856C457.904 702.144 457.984 702.389 458.144 702.592C458.304 702.795 458.507 702.949 458.752 703.056C459.008 703.152 459.259 703.2 459.504 703.2C459.76 703.2 460.005 703.147 460.24 703.04C460.485 702.933 460.688 702.784 460.848 702.592C461.019 702.389 461.104 702.139 461.104 701.84C461.104 701.573 461.029 701.344 460.88 701.152C460.731 700.96 460.533 700.811 460.288 700.704C460.053 700.597 459.787 700.544 459.488 700.544C459.211 700.544 458.949 700.597 458.704 700.704C458.459 700.811 458.261 700.965 458.112 701.168C457.973 701.36 457.904 701.589 457.904 701.856ZM463.067 724.064V726H456.571V724.064H458.843V719.216C458.747 719.344 458.598 719.477 458.395 719.616C458.192 719.744 457.963 719.867 457.707 719.984C457.451 720.101 457.195 720.197 456.939 720.272C456.683 720.347 456.454 720.384 456.251 720.384V718.384C456.443 718.384 456.672 718.325 456.939 718.208C457.216 718.08 457.488 717.931 457.755 717.76C458.032 717.589 458.267 717.424 458.459 717.264C458.662 717.093 458.79 716.96 458.843 716.864H461.035V724.064H463.067ZM463.626 737.312C463.626 738.251 463.445 739.088 463.082 739.824C462.73 740.549 462.239 741.12 461.61 741.536C460.991 741.952 460.287 742.16 459.498 742.16C458.709 742.16 457.999 741.952 457.37 741.536C456.751 741.12 456.261 740.549 455.898 739.824C455.546 739.088 455.37 738.251 455.37 737.312C455.37 736.373 455.546 735.541 455.898 734.816C456.261 734.08 456.751 733.504 457.37 733.088C457.999 732.661 458.709 732.448 459.498 732.448C460.287 732.448 460.991 732.661 461.61 733.088C462.239 733.504 462.73 734.08 463.082 734.816C463.445 735.541 463.626 736.373 463.626 737.312ZM461.466 737.312C461.466 736.736 461.381 736.235 461.21 735.808C461.05 735.371 460.821 735.029 460.522 734.784C460.223 734.539 459.882 734.416 459.498 734.416C459.103 734.416 458.757 734.539 458.458 734.784C458.159 735.029 457.925 735.371 457.754 735.808C457.594 736.235 457.514 736.736 457.514 737.312C457.514 737.888 457.594 738.389 457.754 738.816C457.925 739.243 458.159 739.579 458.458 739.824C458.757 740.069 459.103 740.192 459.498 740.192C459.882 740.192 460.218 740.069 460.506 739.824C460.805 739.579 461.039 739.243 461.21 738.816C461.381 738.379 461.466 737.877 461.466 737.312ZM454.512 752.24C454.512 751.547 454.634 750.869 454.88 750.208C455.136 749.536 455.504 748.928 455.984 748.384C456.464 747.829 457.05 747.392 457.744 747.072C458.437 746.741 459.226 746.576 460.112 746.576C461.157 746.576 462.058 746.805 462.816 747.264C463.584 747.723 464.154 748.32 464.528 749.056L462.832 750.224C462.64 749.797 462.389 749.461 462.08 749.216C461.77 748.96 461.44 748.784 461.088 748.688C460.736 748.581 460.389 748.528 460.048 748.528C459.493 748.528 459.008 748.64 458.592 748.864C458.186 749.088 457.845 749.381 457.568 749.744C457.29 750.107 457.082 750.512 456.944 750.96C456.816 751.408 456.752 751.856 456.752 752.304C456.752 752.805 456.832 753.291 456.992 753.76C457.152 754.219 457.376 754.629 457.664 754.992C457.962 755.344 458.314 755.627 458.72 755.84C459.136 756.043 459.589 756.144 460.08 756.144C460.432 756.144 460.789 756.085 461.152 755.968C461.514 755.851 461.85 755.664 462.16 755.408C462.469 755.152 462.709 754.821 462.88 754.416L464.688 755.456C464.464 756.021 464.096 756.501 463.584 756.896C463.082 757.291 462.517 757.589 461.888 757.792C461.258 757.995 460.634 758.096 460.016 758.096C459.205 758.096 458.464 757.931 457.792 757.6C457.12 757.259 456.538 756.811 456.048 756.256C455.568 755.691 455.189 755.061 454.912 754.368C454.645 753.664 454.512 752.955 454.512 752.24ZM458.397 762.64H460.637L464.813 774H462.541L461.485 771.168H457.517L456.477 774H454.205L458.397 762.64ZM461.085 769.616L459.517 764.928L457.885 769.616H461.085ZM459.922 792.032V789.648H455.25V787.744L460.61 780.864H462.066V787.728H463.474V789.648H462.066V792.032H459.922ZM457.394 787.728H460.162V784.112L457.394 787.728ZM463.713 802.208C463.713 801.493 463.537 800.853 463.185 800.288C462.843 799.712 462.374 799.259 461.777 798.928C461.179 798.587 460.502 798.416 459.745 798.416C459.393 798.416 459.062 798.469 458.753 798.576C458.443 798.672 458.171 798.816 457.937 799.008C457.702 799.189 457.51 799.408 457.361 799.664C457.382 798.981 457.489 798.4 457.681 797.92C457.873 797.429 458.145 797.056 458.497 796.8C458.849 796.544 459.265 796.416 459.745 796.416C460.214 796.416 460.651 796.533 461.057 796.768C461.462 796.992 461.793 797.301 462.049 797.696L463.281 796.352C462.865 795.776 462.353 795.333 461.745 795.024C461.147 794.715 460.491 794.56 459.777 794.56C458.881 794.56 458.102 794.805 457.441 795.296C456.779 795.776 456.267 796.496 455.905 797.456C455.553 798.405 455.377 799.568 455.377 800.944C455.377 802.032 455.547 802.965 455.889 803.744C456.23 804.523 456.71 805.12 457.329 805.536C457.958 805.952 458.699 806.16 459.553 806.16C460.342 806.16 461.046 805.984 461.665 805.632C462.294 805.28 462.79 804.805 463.153 804.208C463.526 803.611 463.713 802.944 463.713 802.208ZM459.553 804.352C459.19 804.352 458.849 804.256 458.529 804.064C458.209 803.861 457.953 803.6 457.761 803.28C457.569 802.949 457.473 802.592 457.473 802.208C457.473 801.824 457.563 801.477 457.745 801.168C457.937 800.848 458.193 800.597 458.513 800.416C458.833 800.224 459.185 800.128 459.569 800.128C459.953 800.128 460.299 800.224 460.609 800.416C460.929 800.597 461.185 800.848 461.377 801.168C461.569 801.477 461.665 801.824 461.665 802.208C461.665 802.592 461.569 802.949 461.377 803.28C461.185 803.6 460.929 803.861 460.609 804.064C460.289 804.256 459.937 804.352 459.553 804.352ZM456.09 822V810.64H463.722V812.576H458.298V815.504H462.81V817.296H458.298V822H456.09Z" fill="url(#paint0_linear_103_1084)"/>
</g>
<g filter="url(#filter1_f_103_1084)">
<path d="M60.6728 1.48H62.3528L65.4848 10H63.7808L62.9888 7.876H60.0128L59.2327 10H57.5288L60.6728 1.48ZM62.6888 6.712L61.5128 3.196L60.2888 6.712H62.6888ZM64.5989 19.48C64.5989 20.008 64.4549 20.468 64.1669 20.86C63.8869 21.252 63.5109 21.56 63.0389 21.784C62.5669 22 62.0509 22.108 61.4909 22.108C60.9229 22.108 60.4029 21.992 59.9309 21.76C59.4669 21.528 59.0949 21.212 58.8149 20.812C58.5429 20.404 58.4069 19.94 58.4069 19.42C58.4069 19.1 58.4749 18.812 58.6109 18.556C58.7469 18.292 58.9149 18.068 59.1149 17.884C59.3229 17.692 59.5309 17.544 59.7389 17.44C59.5469 17.344 59.3669 17.216 59.1989 17.056C59.0389 16.896 58.9109 16.712 58.8149 16.504C58.7189 16.296 58.6709 16.076 58.6709 15.844C58.6709 15.468 58.7549 15.132 58.9229 14.836C59.0909 14.54 59.3149 14.292 59.5949 14.092C59.8749 13.884 60.1789 13.732 60.5069 13.636C60.8429 13.532 61.1749 13.48 61.5029 13.48C61.8229 13.48 62.1509 13.532 62.4869 13.636C62.8229 13.732 63.1309 13.88 63.4109 14.08C63.6909 14.28 63.9149 14.528 64.0829 14.824C64.2589 15.112 64.3469 15.448 64.3469 15.832C64.3469 16.056 64.2949 16.276 64.1909 16.492C64.0949 16.7 63.9629 16.888 63.7949 17.056C63.6349 17.216 63.4509 17.344 63.2429 17.44C63.4749 17.56 63.6949 17.716 63.9029 17.908C64.1109 18.1 64.2789 18.328 64.4069 18.592C64.5349 18.856 64.5989 19.152 64.5989 19.48ZM62.9669 19.384C62.9669 19.176 62.9269 18.996 62.8469 18.844C62.7669 18.684 62.6549 18.552 62.5109 18.448C62.3669 18.336 62.2069 18.252 62.0309 18.196C61.8549 18.14 61.6749 18.112 61.4909 18.112C61.2349 18.112 60.9949 18.164 60.7709 18.268C60.5549 18.372 60.3789 18.52 60.2429 18.712C60.1069 18.904 60.0389 19.128 60.0389 19.384C60.0389 19.576 60.0789 19.752 60.1589 19.912C60.2469 20.064 60.3589 20.196 60.4949 20.308C60.6389 20.42 60.7949 20.508 60.9629 20.572C61.1389 20.628 61.3189 20.656 61.5029 20.656C61.7589 20.656 61.9989 20.6 62.2229 20.488C62.4469 20.376 62.6269 20.224 62.7629 20.032C62.8989 19.84 62.9669 19.624 62.9669 19.384ZM60.3029 15.892C60.3029 16.108 60.3629 16.292 60.4829 16.444C60.6029 16.596 60.7549 16.712 60.9389 16.792C61.1309 16.864 61.3189 16.9 61.5029 16.9C61.6949 16.9 61.8789 16.86 62.0549 16.78C62.2389 16.7 62.3909 16.588 62.5109 16.444C62.6389 16.292 62.7029 16.104 62.7029 15.88C62.7029 15.68 62.6469 15.508 62.5349 15.364C62.4229 15.22 62.2749 15.108 62.0909 15.028C61.9149 14.948 61.7149 14.908 61.4909 14.908C61.2829 14.908 61.0869 14.948 60.9029 15.028C60.7189 15.108 60.5709 15.224 60.4589 15.376C60.3549 15.52 60.3029 15.692 60.3029 15.892ZM62.7263 31.168C63.0623 31.224 63.3543 31.352 63.6023 31.552C63.8503 31.744 64.0423 31.992 64.1783 32.296C64.3223 32.6 64.3943 32.936 64.3943 33.304C64.3943 33.8 64.2663 34.232 64.0103 34.6C63.7543 34.968 63.3903 35.252 62.9183 35.452C62.4543 35.66 61.9063 35.764 61.2743 35.764C60.6663 35.764 60.1263 35.664 59.6543 35.464C59.1903 35.272 58.8023 34.988 58.4903 34.612L59.4023 33.472C59.6103 33.728 59.8583 33.928 60.1463 34.072C60.4423 34.224 60.8023 34.3 61.2263 34.3C61.7143 34.3 62.0863 34.2 62.3423 34C62.5983 33.808 62.7263 33.516 62.7263 33.124C62.7263 32.708 62.5783 32.388 62.2823 32.164C61.9863 31.94 61.5383 31.828 60.9383 31.828H60.6023V30.628H60.9743C61.4623 30.628 61.8423 30.516 62.1143 30.292C62.3943 30.068 62.5343 29.788 62.5343 29.452C62.5343 29.236 62.4823 29.056 62.3783 28.912C62.2743 28.768 62.1303 28.66 61.9463 28.588C61.7703 28.516 61.5623 28.48 61.3223 28.48C60.9623 28.48 60.6343 28.564 60.3383 28.732C60.0423 28.9 59.8023 29.136 59.6183 29.44L58.6103 28.312C58.7783 28.064 59.0063 27.852 59.2943 27.676C59.5903 27.492 59.9263 27.348 60.3023 27.244C60.6863 27.14 61.0863 27.088 61.5023 27.088C62.0463 27.088 62.5223 27.176 62.9303 27.352C63.3463 27.528 63.6703 27.776 63.9023 28.096C64.1343 28.416 64.2503 28.788 64.2503 29.212C64.2503 29.524 64.1863 29.82 64.0583 30.1C63.9303 30.38 63.7503 30.616 63.5183 30.808C63.2943 30.992 63.0303 31.112 62.7263 31.168ZM61.3217 47.788C60.7057 47.788 60.1497 47.656 59.6537 47.392C59.1577 47.128 58.7817 46.768 58.5257 46.312L59.4497 45.352C59.6737 45.664 59.9537 45.912 60.2897 46.096C60.6257 46.28 60.9737 46.372 61.3337 46.372C61.6217 46.372 61.8737 46.312 62.0897 46.192C62.3137 46.072 62.4897 45.904 62.6177 45.688C62.7457 45.472 62.8097 45.224 62.8097 44.944C62.8097 44.664 62.7497 44.42 62.6297 44.212C62.5097 44.004 62.3457 43.844 62.1377 43.732C61.9297 43.612 61.6937 43.552 61.4297 43.552C61.1657 43.552 60.9177 43.612 60.6857 43.732C60.4617 43.844 60.2817 44.008 60.1457 44.224H58.7417L59.7257 39.148H63.9257V40.612H60.8897L60.5417 42.52C60.6457 42.424 60.7897 42.344 60.9737 42.28C61.1577 42.208 61.3857 42.172 61.6577 42.172C62.1937 42.172 62.6737 42.288 63.0977 42.52C63.5217 42.752 63.8537 43.076 64.0937 43.492C64.3337 43.9 64.4537 44.372 64.4537 44.908C64.4537 45.476 64.3177 45.976 64.0457 46.408C63.7737 46.848 63.4017 47.188 62.9297 47.428C62.4577 47.668 61.9217 47.788 61.3217 47.788ZM57.7587 53.68C57.7587 53.16 57.8507 52.652 58.0347 52.156C58.2267 51.652 58.5027 51.196 58.8627 50.788C59.2227 50.372 59.6627 50.044 60.1827 49.804C60.7027 49.556 61.2947 49.432 61.9587 49.432C62.7427 49.432 63.4187 49.604 63.9867 49.948C64.5627 50.292 64.9907 50.74 65.2707 51.292L63.9987 52.168C63.8547 51.848 63.6667 51.596 63.4347 51.412C63.2027 51.22 62.9547 51.088 62.6907 51.016C62.4267 50.936 62.1667 50.896 61.9107 50.896C61.4947 50.896 61.1307 50.98 60.8187 51.148C60.5147 51.316 60.2587 51.536 60.0507 51.808C59.8427 52.08 59.6867 52.384 59.5827 52.72C59.4867 53.056 59.4387 53.392 59.4387 53.728C59.4387 54.104 59.4987 54.468 59.6187 54.82C59.7387 55.164 59.9067 55.472 60.1227 55.744C60.3467 56.008 60.6107 56.22 60.9147 56.38C61.2267 56.532 61.5667 56.608 61.9347 56.608C62.1987 56.608 62.4667 56.564 62.7387 56.476C63.0107 56.388 63.2627 56.248 63.4947 56.056C63.7267 55.864 63.9067 55.616 64.0347 55.312L65.3907 56.092C65.2227 56.516 64.9467 56.876 64.5627 57.172C64.1867 57.468 63.7627 57.692 63.2907 57.844C62.8187 57.996 62.3507 58.072 61.8867 58.072C61.2787 58.072 60.7227 57.948 60.2187 57.7C59.7147 57.444 59.2787 57.108 58.9107 56.692C58.5507 56.268 58.2667 55.796 58.0587 55.276C57.8587 54.748 57.7587 54.216 57.7587 53.68ZM64.7005 68.548V70H58.7845V61.48H64.5925V62.932H60.4405V64.984H64.0285V66.328H60.4405V68.548H64.7005ZM61.8163 83.524V81.736H58.3123V80.308L62.3323 75.148H63.4243V80.296H64.4803V81.736H63.4243V83.524H61.8163ZM59.9203 80.296H61.9963V77.584L59.9203 80.296ZM60.6728 85.48H62.3528L65.4848 94H63.7808L62.9888 91.876H60.0128L59.2327 94H57.5288L60.6728 85.48ZM62.6888 90.712L61.5128 87.196L60.2888 90.712H62.6888ZM64.6595 103.156C64.6595 102.62 64.5275 102.14 64.2635 101.716C64.0075 101.284 63.6555 100.944 63.2075 100.696C62.7595 100.44 62.2515 100.312 61.6835 100.312C61.4195 100.312 61.1715 100.352 60.9395 100.432C60.7075 100.504 60.5035 100.612 60.3275 100.756C60.1515 100.892 60.0075 101.056 59.8955 101.248C59.9115 100.736 59.9915 100.3 60.1355 99.94C60.2795 99.572 60.4835 99.292 60.7475 99.1C61.0115 98.908 61.3235 98.812 61.6835 98.812C62.0355 98.812 62.3635 98.9 62.6675 99.076C62.9715 99.244 63.2195 99.476 63.4115 99.772L64.3355 98.764C64.0235 98.332 63.6395 98 63.1835 97.768C62.7355 97.536 62.2435 97.42 61.7075 97.42C61.0355 97.42 60.4515 97.604 59.9555 97.972C59.4595 98.332 59.0755 98.872 58.8035 99.592C58.5395 100.304 58.4075 101.176 58.4075 102.208C58.4075 103.024 58.5355 103.724 58.7915 104.308C59.0475 104.892 59.4075 105.34 59.8715 105.652C60.3435 105.964 60.8995 106.12 61.5395 106.12C62.1315 106.12 62.6595 105.988 63.1235 105.724C63.5955 105.46 63.9675 105.104 64.2395 104.656C64.5195 104.208 64.6595 103.708 64.6595 103.156ZM61.5395 104.764C61.2675 104.764 61.0115 104.692 60.7715 104.548C60.5315 104.396 60.3395 104.2 60.1955 103.96C60.0515 103.712 59.9795 103.444 59.9795 103.156C59.9795 102.868 60.0475 102.608 60.1835 102.376C60.3275 102.136 60.5195 101.948 60.7595 101.812C60.9995 101.668 61.2635 101.596 61.5515 101.596C61.8395 101.596 62.0995 101.668 62.3315 101.812C62.5715 101.948 62.7635 102.136 62.9075 102.376C63.0515 102.608 63.1235 102.868 63.1235 103.156C63.1235 103.444 63.0515 103.712 62.9075 103.96C62.7635 104.2 62.5715 104.396 62.3315 104.548C62.0915 104.692 61.8275 104.764 61.5395 104.764ZM65.1739 115.804C65.1739 116.284 65.0499 116.688 64.8019 117.016C64.5539 117.336 64.2179 117.58 63.7939 117.748C63.3779 117.916 62.9219 118 62.4259 118H58.3099V109.48H62.8699C63.2699 109.48 63.6139 109.588 63.9019 109.804C64.1979 110.012 64.4219 110.284 64.5739 110.62C64.7339 110.948 64.8139 111.292 64.8139 111.652C64.8139 112.06 64.7099 112.448 64.5019 112.816C64.2939 113.184 63.9899 113.456 63.5899 113.632C64.0779 113.776 64.4619 114.036 64.7419 114.412C65.0299 114.788 65.1739 115.252 65.1739 115.804ZM63.5059 115.492C63.5059 115.276 63.4619 115.084 63.3739 114.916C63.2859 114.74 63.1659 114.604 63.0139 114.508C62.8699 114.404 62.7019 114.352 62.5099 114.352H59.9659V116.596H62.4259C62.6259 116.596 62.8059 116.548 62.9659 116.452C63.1339 116.348 63.2659 116.212 63.3619 116.044C63.4579 115.876 63.5059 115.692 63.5059 115.492ZM59.9659 110.896V113.044H62.1739C62.3579 113.044 62.5259 113 62.6779 112.912C62.8299 112.824 62.9499 112.7 63.0379 112.54C63.1339 112.38 63.1819 112.188 63.1819 111.964C63.1819 111.748 63.1379 111.56 63.0499 111.4C62.9699 111.24 62.8579 111.116 62.7139 111.028C62.5779 110.94 62.4219 110.896 62.2459 110.896H59.9659Z" fill="url(#paint1_linear_103_1084)"/>
</g>
<g filter="url(#filter2_f_103_1084)">
<path d="M374.351 60.112C374.351 60.648 374.479 61.132 374.735 61.564C374.999 61.988 375.355 62.328 375.803 62.584C376.259 62.832 376.763 62.956 377.315 62.956C377.587 62.956 377.835 62.92 378.059 62.848C378.291 62.768 378.495 62.656 378.671 62.512C378.855 62.368 378.999 62.204 379.103 62.02C379.095 62.532 379.015 62.972 378.863 63.34C378.719 63.7 378.515 63.976 378.251 64.168C377.995 64.36 377.687 64.456 377.327 64.456C376.975 64.456 376.643 64.368 376.331 64.192C376.027 64.024 375.779 63.792 375.587 63.496L374.663 64.504C374.975 64.936 375.359 65.268 375.815 65.5C376.271 65.732 376.767 65.848 377.303 65.848C377.975 65.848 378.559 65.664 379.055 65.296C379.551 64.928 379.931 64.388 380.195 63.676C380.467 62.964 380.603 62.092 380.603 61.06C380.603 60.236 380.475 59.536 380.219 58.96C379.963 58.376 379.599 57.928 379.127 57.616C378.663 57.304 378.107 57.148 377.459 57.148C376.875 57.148 376.347 57.28 375.875 57.544C375.403 57.808 375.031 58.164 374.759 58.612C374.487 59.06 374.351 59.56 374.351 60.112ZM377.459 58.504C377.739 58.504 377.999 58.58 378.239 58.732C378.479 58.876 378.671 59.072 378.815 59.32C378.959 59.56 379.031 59.824 379.031 60.112C379.031 60.4 378.959 60.664 378.815 60.904C378.671 61.136 378.479 61.324 378.239 61.468C378.007 61.604 377.747 61.672 377.459 61.672C377.171 61.672 376.907 61.604 376.667 61.468C376.427 61.324 376.235 61.136 376.091 60.904C375.955 60.664 375.887 60.4 375.887 60.112C375.887 59.816 375.959 59.548 376.103 59.308C376.247 59.068 376.439 58.876 376.679 58.732C376.919 58.58 377.179 58.504 377.459 58.504ZM380.599 73.48C380.599 74.008 380.455 74.468 380.167 74.86C379.887 75.252 379.511 75.56 379.039 75.784C378.567 76 378.051 76.108 377.491 76.108C376.923 76.108 376.403 75.992 375.931 75.76C375.467 75.528 375.095 75.212 374.815 74.812C374.543 74.404 374.407 73.94 374.407 73.42C374.407 73.1 374.475 72.812 374.611 72.556C374.747 72.292 374.915 72.068 375.115 71.884C375.323 71.692 375.531 71.544 375.739 71.44C375.547 71.344 375.367 71.216 375.199 71.056C375.039 70.896 374.911 70.712 374.815 70.504C374.719 70.296 374.671 70.076 374.671 69.844C374.671 69.468 374.755 69.132 374.923 68.836C375.091 68.54 375.315 68.292 375.595 68.092C375.875 67.884 376.179 67.732 376.507 67.636C376.843 67.532 377.175 67.48 377.503 67.48C377.823 67.48 378.151 67.532 378.487 67.636C378.823 67.732 379.131 67.88 379.411 68.08C379.691 68.28 379.915 68.528 380.083 68.824C380.259 69.112 380.347 69.448 380.347 69.832C380.347 70.056 380.295 70.276 380.191 70.492C380.095 70.7 379.963 70.888 379.795 71.056C379.635 71.216 379.451 71.344 379.243 71.44C379.475 71.56 379.695 71.716 379.903 71.908C380.111 72.1 380.279 72.328 380.407 72.592C380.535 72.856 380.599 73.152 380.599 73.48ZM378.967 73.384C378.967 73.176 378.927 72.996 378.847 72.844C378.767 72.684 378.655 72.552 378.511 72.448C378.367 72.336 378.207 72.252 378.031 72.196C377.855 72.14 377.675 72.112 377.491 72.112C377.235 72.112 376.995 72.164 376.771 72.268C376.555 72.372 376.379 72.52 376.243 72.712C376.107 72.904 376.039 73.128 376.039 73.384C376.039 73.576 376.079 73.752 376.159 73.912C376.247 74.064 376.359 74.196 376.495 74.308C376.639 74.42 376.795 74.508 376.963 74.572C377.139 74.628 377.319 74.656 377.503 74.656C377.759 74.656 377.999 74.6 378.223 74.488C378.447 74.376 378.627 74.224 378.763 74.032C378.899 73.84 378.967 73.624 378.967 73.384ZM376.303 69.892C376.303 70.108 376.363 70.292 376.483 70.444C376.603 70.596 376.755 70.712 376.939 70.792C377.131 70.864 377.319 70.9 377.503 70.9C377.695 70.9 377.879 70.86 378.055 70.78C378.239 70.7 378.391 70.588 378.511 70.444C378.639 70.292 378.703 70.104 378.703 69.88C378.703 69.68 378.647 69.508 378.535 69.364C378.423 69.22 378.275 69.108 378.091 69.028C377.915 68.948 377.715 68.908 377.491 68.908C377.283 68.908 377.087 68.948 376.903 69.028C376.719 69.108 376.571 69.224 376.459 69.376C376.355 69.52 376.303 69.692 376.303 69.892ZM378.726 85.168C379.062 85.224 379.354 85.352 379.602 85.552C379.85 85.744 380.042 85.992 380.178 86.296C380.322 86.6 380.394 86.936 380.394 87.304C380.394 87.8 380.266 88.232 380.01 88.6C379.754 88.968 379.39 89.252 378.918 89.452C378.454 89.66 377.906 89.764 377.274 89.764C376.666 89.764 376.126 89.664 375.654 89.464C375.19 89.272 374.802 88.988 374.49 88.612L375.402 87.472C375.61 87.728 375.858 87.928 376.146 88.072C376.442 88.224 376.802 88.3 377.226 88.3C377.714 88.3 378.086 88.2 378.342 88C378.598 87.808 378.726 87.516 378.726 87.124C378.726 86.708 378.578 86.388 378.282 86.164C377.986 85.94 377.538 85.828 376.938 85.828H376.602V84.628H376.974C377.462 84.628 377.842 84.516 378.114 84.292C378.394 84.068 378.534 83.788 378.534 83.452C378.534 83.236 378.482 83.056 378.378 82.912C378.274 82.768 378.13 82.66 377.946 82.588C377.77 82.516 377.562 82.48 377.322 82.48C376.962 82.48 376.634 82.564 376.338 82.732C376.042 82.9 375.802 83.136 375.618 83.44L374.61 82.312C374.778 82.064 375.006 81.852 375.294 81.676C375.59 81.492 375.926 81.348 376.302 81.244C376.686 81.14 377.086 81.088 377.502 81.088C378.046 81.088 378.522 81.176 378.93 81.352C379.346 81.528 379.67 81.776 379.902 82.096C380.134 82.416 380.25 82.788 380.25 83.212C380.25 83.524 380.186 83.82 380.058 84.1C379.93 84.38 379.75 84.616 379.518 84.808C379.294 84.992 379.03 85.112 378.726 85.168ZM377.322 101.788C376.706 101.788 376.15 101.656 375.654 101.392C375.158 101.128 374.782 100.768 374.526 100.312L375.45 99.352C375.674 99.664 375.954 99.912 376.29 100.096C376.626 100.28 376.974 100.372 377.334 100.372C377.622 100.372 377.874 100.312 378.09 100.192C378.314 100.072 378.49 99.904 378.618 99.688C378.746 99.472 378.81 99.224 378.81 98.944C378.81 98.664 378.75 98.42 378.63 98.212C378.51 98.004 378.346 97.844 378.138 97.732C377.93 97.612 377.694 97.552 377.43 97.552C377.166 97.552 376.918 97.612 376.686 97.732C376.462 97.844 376.282 98.008 376.146 98.224H374.742L375.726 93.148H379.926V94.612H376.89L376.542 96.52C376.646 96.424 376.79 96.344 376.974 96.28C377.158 96.208 377.386 96.172 377.658 96.172C378.194 96.172 378.674 96.288 379.098 96.52C379.522 96.752 379.854 97.076 380.094 97.492C380.334 97.9 380.454 98.372 380.454 98.908C380.454 99.476 380.318 99.976 380.046 100.408C379.774 100.848 379.402 101.188 378.93 101.428C378.458 101.668 377.922 101.788 377.322 101.788ZM373.759 107.68C373.759 107.16 373.851 106.652 374.035 106.156C374.227 105.652 374.503 105.196 374.863 104.788C375.223 104.372 375.663 104.044 376.183 103.804C376.703 103.556 377.295 103.432 377.959 103.432C378.743 103.432 379.419 103.604 379.987 103.948C380.563 104.292 380.991 104.74 381.271 105.292L379.999 106.168C379.855 105.848 379.667 105.596 379.435 105.412C379.203 105.22 378.955 105.088 378.691 105.016C378.427 104.936 378.167 104.896 377.911 104.896C377.495 104.896 377.131 104.98 376.819 105.148C376.515 105.316 376.259 105.536 376.051 105.808C375.843 106.08 375.687 106.384 375.583 106.72C375.487 107.056 375.439 107.392 375.439 107.728C375.439 108.104 375.499 108.468 375.619 108.82C375.739 109.164 375.907 109.472 376.123 109.744C376.347 110.008 376.611 110.22 376.915 110.38C377.227 110.532 377.567 110.608 377.935 110.608C378.199 110.608 378.467 110.564 378.739 110.476C379.011 110.388 379.263 110.248 379.495 110.056C379.727 109.864 379.907 109.616 380.035 109.312L381.391 110.092C381.223 110.516 380.947 110.876 380.563 111.172C380.187 111.468 379.763 111.692 379.291 111.844C378.819 111.996 378.351 112.072 377.887 112.072C377.279 112.072 376.723 111.948 376.219 111.7C375.715 111.444 375.279 111.108 374.911 110.692C374.551 110.268 374.267 109.796 374.059 109.276C373.859 108.748 373.759 108.216 373.759 107.68ZM380.7 122.548V124H374.784V115.48H380.592V116.932H376.44V118.984H380.028V120.328H376.44V122.548H380.7ZM377.816 137.524V135.736H374.312V134.308L378.332 129.148H379.424V134.296H380.48V135.736H379.424V137.524H377.816ZM375.92 134.296H377.996V131.584L375.92 134.296ZM376.673 139.48H378.353L381.485 148H379.781L378.989 145.876H376.013L375.233 148H373.529L376.673 139.48ZM378.689 144.712L377.513 141.196L376.289 144.712H378.689ZM380.659 157.156C380.659 156.62 380.527 156.14 380.263 155.716C380.007 155.284 379.655 154.944 379.207 154.696C378.759 154.44 378.251 154.312 377.683 154.312C377.419 154.312 377.171 154.352 376.939 154.432C376.707 154.504 376.503 154.612 376.327 154.756C376.151 154.892 376.007 155.056 375.895 155.248C375.911 154.736 375.991 154.3 376.135 153.94C376.279 153.572 376.483 153.292 376.747 153.1C377.011 152.908 377.323 152.812 377.683 152.812C378.035 152.812 378.363 152.9 378.667 153.076C378.971 153.244 379.219 153.476 379.411 153.772L380.335 152.764C380.023 152.332 379.639 152 379.183 151.768C378.735 151.536 378.243 151.42 377.707 151.42C377.035 151.42 376.451 151.604 375.955 151.972C375.459 152.332 375.075 152.872 374.803 153.592C374.539 154.304 374.407 155.176 374.407 156.208C374.407 157.024 374.535 157.724 374.791 158.308C375.047 158.892 375.407 159.34 375.871 159.652C376.343 159.964 376.899 160.12 377.539 160.12C378.131 160.12 378.659 159.988 379.123 159.724C379.595 159.46 379.967 159.104 380.239 158.656C380.519 158.208 380.659 157.708 380.659 157.156ZM377.539 158.764C377.267 158.764 377.011 158.692 376.771 158.548C376.531 158.396 376.339 158.2 376.195 157.96C376.051 157.712 375.979 157.444 375.979 157.156C375.979 156.868 376.047 156.608 376.183 156.376C376.327 156.136 376.519 155.948 376.759 155.812C376.999 155.668 377.263 155.596 377.551 155.596C377.839 155.596 378.099 155.668 378.331 155.812C378.571 155.948 378.763 156.136 378.907 156.376C379.051 156.608 379.123 156.868 379.123 157.156C379.123 157.444 379.051 157.712 378.907 157.96C378.763 158.2 378.571 158.396 378.331 158.548C378.091 158.692 377.827 158.764 377.539 158.764ZM381.174 169.804C381.174 170.284 381.05 170.688 380.802 171.016C380.554 171.336 380.218 171.58 379.794 171.748C379.378 171.916 378.922 172 378.426 172H374.31V163.48H378.87C379.27 163.48 379.614 163.588 379.902 163.804C380.198 164.012 380.422 164.284 380.574 164.62C380.734 164.948 380.814 165.292 380.814 165.652C380.814 166.06 380.71 166.448 380.502 166.816C380.294 167.184 379.99 167.456 379.59 167.632C380.078 167.776 380.462 168.036 380.742 168.412C381.03 168.788 381.174 169.252 381.174 169.804ZM379.506 169.492C379.506 169.276 379.462 169.084 379.374 168.916C379.286 168.74 379.166 168.604 379.014 168.508C378.87 168.404 378.702 168.352 378.51 168.352H375.966V170.596H378.426C378.626 170.596 378.806 170.548 378.966 170.452C379.134 170.348 379.266 170.212 379.362 170.044C379.458 169.876 379.506 169.692 379.506 169.492ZM375.966 164.896V167.044H378.174C378.358 167.044 378.526 167 378.678 166.912C378.83 166.824 378.95 166.7 379.038 166.54C379.134 166.38 379.182 166.188 379.182 165.964C379.182 165.748 379.138 165.56 379.05 165.4C378.97 165.24 378.858 165.116 378.714 165.028C378.578 164.94 378.422 164.896 378.246 164.896H375.966Z" fill="url(#paint2_linear_103_1084)"/>
</g>
<g filter="url(#filter3_f_103_1084)">
<path d="M180.351 -35.888C180.351 -35.352 180.479 -34.868 180.735 -34.436C180.999 -34.012 181.355 -33.672 181.803 -33.416C182.259 -33.168 182.763 -33.044 183.315 -33.044C183.587 -33.044 183.835 -33.08 184.059 -33.152C184.291 -33.232 184.495 -33.344 184.671 -33.488C184.855 -33.632 184.999 -33.796 185.103 -33.98C185.095 -33.468 185.015 -33.028 184.863 -32.66C184.719 -32.3 184.515 -32.024 184.251 -31.832C183.995 -31.64 183.687 -31.544 183.327 -31.544C182.975 -31.544 182.643 -31.632 182.331 -31.808C182.027 -31.976 181.779 -32.208 181.587 -32.504L180.663 -31.496C180.975 -31.064 181.359 -30.732 181.815 -30.5C182.271 -30.268 182.767 -30.152 183.303 -30.152C183.975 -30.152 184.559 -30.336 185.055 -30.704C185.551 -31.072 185.931 -31.612 186.195 -32.324C186.467 -33.036 186.603 -33.908 186.603 -34.94C186.603 -35.764 186.475 -36.464 186.219 -37.04C185.963 -37.624 185.599 -38.072 185.127 -38.384C184.663 -38.696 184.107 -38.852 183.459 -38.852C182.875 -38.852 182.347 -38.72 181.875 -38.456C181.403 -38.192 181.031 -37.836 180.759 -37.388C180.487 -36.94 180.351 -36.44 180.351 -35.888ZM183.459 -37.496C183.739 -37.496 183.999 -37.42 184.239 -37.268C184.479 -37.124 184.671 -36.928 184.815 -36.68C184.959 -36.44 185.031 -36.176 185.031 -35.888C185.031 -35.6 184.959 -35.336 184.815 -35.096C184.671 -34.864 184.479 -34.676 184.239 -34.532C184.007 -34.396 183.747 -34.328 183.459 -34.328C183.171 -34.328 182.907 -34.396 182.667 -34.532C182.427 -34.676 182.235 -34.864 182.091 -35.096C181.955 -35.336 181.887 -35.6 181.887 -35.888C181.887 -36.184 181.959 -36.452 182.103 -36.692C182.247 -36.932 182.439 -37.124 182.679 -37.268C182.919 -37.42 183.179 -37.496 183.459 -37.496ZM186.599 -22.52C186.599 -21.992 186.455 -21.532 186.167 -21.14C185.887 -20.748 185.511 -20.44 185.039 -20.216C184.567 -20 184.051 -19.892 183.491 -19.892C182.923 -19.892 182.403 -20.008 181.931 -20.24C181.467 -20.472 181.095 -20.788 180.815 -21.188C180.543 -21.596 180.407 -22.06 180.407 -22.58C180.407 -22.9 180.475 -23.188 180.611 -23.444C180.747 -23.708 180.915 -23.932 181.115 -24.116C181.323 -24.308 181.531 -24.456 181.739 -24.56C181.547 -24.656 181.367 -24.784 181.199 -24.944C181.039 -25.104 180.911 -25.288 180.815 -25.496C180.719 -25.704 180.671 -25.924 180.671 -26.156C180.671 -26.532 180.755 -26.868 180.923 -27.164C181.091 -27.46 181.315 -27.708 181.595 -27.908C181.875 -28.116 182.179 -28.268 182.507 -28.364C182.843 -28.468 183.175 -28.52 183.503 -28.52C183.823 -28.52 184.151 -28.468 184.487 -28.364C184.823 -28.268 185.131 -28.12 185.411 -27.92C185.691 -27.72 185.915 -27.472 186.083 -27.176C186.259 -26.888 186.347 -26.552 186.347 -26.168C186.347 -25.944 186.295 -25.724 186.191 -25.508C186.095 -25.3 185.963 -25.112 185.795 -24.944C185.635 -24.784 185.451 -24.656 185.243 -24.56C185.475 -24.44 185.695 -24.284 185.903 -24.092C186.111 -23.9 186.279 -23.672 186.407 -23.408C186.535 -23.144 186.599 -22.848 186.599 -22.52ZM184.967 -22.616C184.967 -22.824 184.927 -23.004 184.847 -23.156C184.767 -23.316 184.655 -23.448 184.511 -23.552C184.367 -23.664 184.207 -23.748 184.031 -23.804C183.855 -23.86 183.675 -23.888 183.491 -23.888C183.235 -23.888 182.995 -23.836 182.771 -23.732C182.555 -23.628 182.379 -23.48 182.243 -23.288C182.107 -23.096 182.039 -22.872 182.039 -22.616C182.039 -22.424 182.079 -22.248 182.159 -22.088C182.247 -21.936 182.359 -21.804 182.495 -21.692C182.639 -21.58 182.795 -21.492 182.963 -21.428C183.139 -21.372 183.319 -21.344 183.503 -21.344C183.759 -21.344 183.999 -21.4 184.223 -21.512C184.447 -21.624 184.627 -21.776 184.763 -21.968C184.899 -22.16 184.967 -22.376 184.967 -22.616ZM182.303 -26.108C182.303 -25.892 182.363 -25.708 182.483 -25.556C182.603 -25.404 182.755 -25.288 182.939 -25.208C183.131 -25.136 183.319 -25.1 183.503 -25.1C183.695 -25.1 183.879 -25.14 184.055 -25.22C184.239 -25.3 184.391 -25.412 184.511 -25.556C184.639 -25.708 184.703 -25.896 184.703 -26.12C184.703 -26.32 184.647 -26.492 184.535 -26.636C184.423 -26.78 184.275 -26.892 184.091 -26.972C183.915 -27.052 183.715 -27.092 183.491 -27.092C183.283 -27.092 183.087 -27.052 182.903 -26.972C182.719 -26.892 182.571 -26.776 182.459 -26.624C182.355 -26.48 182.303 -26.308 182.303 -26.108ZM184.726 -10.832C185.062 -10.776 185.354 -10.648 185.602 -10.448C185.85 -10.256 186.042 -10.008 186.178 -9.704C186.322 -9.4 186.394 -9.064 186.394 -8.696C186.394 -8.2 186.266 -7.768 186.01 -7.4C185.754 -7.032 185.39 -6.748 184.918 -6.548C184.454 -6.34 183.906 -6.236 183.274 -6.236C182.666 -6.236 182.126 -6.336 181.654 -6.536C181.19 -6.728 180.802 -7.012 180.49 -7.388L181.402 -8.528C181.61 -8.272 181.858 -8.072 182.146 -7.928C182.442 -7.776 182.802 -7.7 183.226 -7.7C183.714 -7.7 184.086 -7.8 184.342 -8C184.598 -8.192 184.726 -8.484 184.726 -8.876C184.726 -9.292 184.578 -9.612 184.282 -9.836C183.986 -10.06 183.538 -10.172 182.938 -10.172H182.602V-11.372H182.974C183.462 -11.372 183.842 -11.484 184.114 -11.708C184.394 -11.932 184.534 -12.212 184.534 -12.548C184.534 -12.764 184.482 -12.944 184.378 -13.088C184.274 -13.232 184.13 -13.34 183.946 -13.412C183.77 -13.484 183.562 -13.52 183.322 -13.52C182.962 -13.52 182.634 -13.436 182.338 -13.268C182.042 -13.1 181.802 -12.864 181.618 -12.56L180.61 -13.688C180.778 -13.936 181.006 -14.148 181.294 -14.324C181.59 -14.508 181.926 -14.652 182.302 -14.756C182.686 -14.86 183.086 -14.912 183.502 -14.912C184.046 -14.912 184.522 -14.824 184.93 -14.648C185.346 -14.472 185.67 -14.224 185.902 -13.904C186.134 -13.584 186.25 -13.212 186.25 -12.788C186.25 -12.476 186.186 -12.18 186.058 -11.9C185.93 -11.62 185.75 -11.384 185.518 -11.192C185.294 -11.008 185.03 -10.888 184.726 -10.832ZM183.322 5.788C182.706 5.788 182.15 5.656 181.654 5.392C181.158 5.128 180.782 4.768 180.526 4.312L181.45 3.352C181.674 3.664 181.954 3.912 182.29 4.096C182.626 4.28 182.974 4.372 183.334 4.372C183.622 4.372 183.874 4.312 184.09 4.192C184.314 4.072 184.49 3.904 184.618 3.688C184.746 3.472 184.81 3.224 184.81 2.944C184.81 2.664 184.75 2.42 184.63 2.212C184.51 2.004 184.346 1.844 184.138 1.732C183.93 1.612 183.694 1.552 183.43 1.552C183.166 1.552 182.918 1.612 182.686 1.732C182.462 1.844 182.282 2.008 182.146 2.224H180.742L181.726 -2.852H185.926V-1.388H182.89L182.542 0.52C182.646 0.424 182.79 0.344 182.974 0.28C183.158 0.208 183.386 0.172 183.658 0.172C184.194 0.172 184.674 0.288 185.098 0.52C185.522 0.752 185.854 1.076 186.094 1.492C186.334 1.9 186.454 2.372 186.454 2.908C186.454 3.476 186.318 3.976 186.046 4.408C185.774 4.848 185.402 5.188 184.93 5.428C184.458 5.668 183.922 5.788 183.322 5.788ZM179.759 11.68C179.759 11.16 179.851 10.652 180.035 10.156C180.227 9.652 180.503 9.196 180.863 8.788C181.223 8.372 181.663 8.044 182.183 7.804C182.703 7.556 183.295 7.432 183.959 7.432C184.743 7.432 185.419 7.604 185.987 7.948C186.563 8.292 186.991 8.74 187.271 9.292L185.999 10.168C185.855 9.848 185.667 9.596 185.435 9.412C185.203 9.22 184.955 9.088 184.691 9.016C184.427 8.936 184.167 8.896 183.911 8.896C183.495 8.896 183.131 8.98 182.819 9.148C182.515 9.316 182.259 9.536 182.051 9.808C181.843 10.08 181.687 10.384 181.583 10.72C181.487 11.056 181.439 11.392 181.439 11.728C181.439 12.104 181.499 12.468 181.619 12.82C181.739 13.164 181.907 13.472 182.123 13.744C182.347 14.008 182.611 14.22 182.915 14.38C183.227 14.532 183.567 14.608 183.935 14.608C184.199 14.608 184.467 14.564 184.739 14.476C185.011 14.388 185.263 14.248 185.495 14.056C185.727 13.864 185.907 13.616 186.035 13.312L187.391 14.092C187.223 14.516 186.947 14.876 186.563 15.172C186.187 15.468 185.763 15.692 185.291 15.844C184.819 15.996 184.351 16.072 183.887 16.072C183.279 16.072 182.723 15.948 182.219 15.7C181.715 15.444 181.279 15.108 180.911 14.692C180.551 14.268 180.267 13.796 180.059 13.276C179.859 12.748 179.759 12.216 179.759 11.68ZM186.7 26.548V28H180.784V19.48H186.592V20.932H182.44V22.984H186.028V24.328H182.44V26.548H186.7ZM183.816 41.524V39.736H180.312V38.308L184.332 33.148H185.424V38.296H186.48V39.736H185.424V41.524H183.816ZM181.92 38.296H183.996V35.584L181.92 38.296ZM182.673 43.48H184.353L187.485 52H185.781L184.989 49.876H182.013L181.233 52H179.529L182.673 43.48ZM184.689 48.712L183.513 45.196L182.289 48.712H184.689ZM186.659 61.156C186.659 60.62 186.527 60.14 186.263 59.716C186.007 59.284 185.655 58.944 185.207 58.696C184.759 58.44 184.251 58.312 183.683 58.312C183.419 58.312 183.171 58.352 182.939 58.432C182.707 58.504 182.503 58.612 182.327 58.756C182.151 58.892 182.007 59.056 181.895 59.248C181.911 58.736 181.991 58.3 182.135 57.94C182.279 57.572 182.483 57.292 182.747 57.1C183.011 56.908 183.323 56.812 183.683 56.812C184.035 56.812 184.363 56.9 184.667 57.076C184.971 57.244 185.219 57.476 185.411 57.772L186.335 56.764C186.023 56.332 185.639 56 185.183 55.768C184.735 55.536 184.243 55.42 183.707 55.42C183.035 55.42 182.451 55.604 181.955 55.972C181.459 56.332 181.075 56.872 180.803 57.592C180.539 58.304 180.407 59.176 180.407 60.208C180.407 61.024 180.535 61.724 180.791 62.308C181.047 62.892 181.407 63.34 181.871 63.652C182.343 63.964 182.899 64.12 183.539 64.12C184.131 64.12 184.659 63.988 185.123 63.724C185.595 63.46 185.967 63.104 186.239 62.656C186.519 62.208 186.659 61.708 186.659 61.156ZM183.539 62.764C183.267 62.764 183.011 62.692 182.771 62.548C182.531 62.396 182.339 62.2 182.195 61.96C182.051 61.712 181.979 61.444 181.979 61.156C181.979 60.868 182.047 60.608 182.183 60.376C182.327 60.136 182.519 59.948 182.759 59.812C182.999 59.668 183.263 59.596 183.551 59.596C183.839 59.596 184.099 59.668 184.331 59.812C184.571 59.948 184.763 60.136 184.907 60.376C185.051 60.608 185.123 60.868 185.123 61.156C185.123 61.444 185.051 61.712 184.907 61.96C184.763 62.2 184.571 62.396 184.331 62.548C184.091 62.692 183.827 62.764 183.539 62.764ZM187.174 73.804C187.174 74.284 187.05 74.688 186.802 75.016C186.554 75.336 186.218 75.58 185.794 75.748C185.378 75.916 184.922 76 184.426 76H180.31V67.48H184.87C185.27 67.48 185.614 67.588 185.902 67.804C186.198 68.012 186.422 68.284 186.574 68.62C186.734 68.948 186.814 69.292 186.814 69.652C186.814 70.06 186.71 70.448 186.502 70.816C186.294 71.184 185.99 71.456 185.59 71.632C186.078 71.776 186.462 72.036 186.742 72.412C187.03 72.788 187.174 73.252 187.174 73.804ZM185.506 73.492C185.506 73.276 185.462 73.084 185.374 72.916C185.286 72.74 185.166 72.604 185.014 72.508C184.87 72.404 184.702 72.352 184.51 72.352H181.966V74.596H184.426C184.626 74.596 184.806 74.548 184.966 74.452C185.134 74.348 185.266 74.212 185.362 74.044C185.458 73.876 185.506 73.692 185.506 73.492ZM181.966 68.896V71.044H184.174C184.358 71.044 184.526 71 184.678 70.912C184.83 70.824 184.95 70.7 185.038 70.54C185.134 70.38 185.182 70.188 185.182 69.964C185.182 69.748 185.138 69.56 185.05 69.4C184.97 69.24 184.858 69.116 184.714 69.028C184.578 68.94 184.422 68.896 184.246 68.896H181.966Z" fill="url(#paint3_linear_103_1084)"/>
</g>
</g>
<defs>
<filter id="filter0_f_103_1084" x="450.205" y="-89.36" width="18.6079" height="915.36" filterUnits="userSpaceOnUse" color-interpolation-filters="sRGB">
<feFlood flood-opacity="0" result="BackgroundImageFix"/>
<feBlend mode="normal" in="SourceGraphic" in2="BackgroundImageFix" result="shape"/>
<feGaussianBlur stdDeviation="2" result="effect1_foregroundBlur_103_1084"/>
</filter>
<filter id="filter1_f_103_1084" x="55.5288" y="-0.519989" width="11.9561" height="120.52" filterUnits="userSpaceOnUse" color-interpolation-filters="sRGB">
<feFlood flood-opacity="0" result="BackgroundImageFix"/>
<feBlend mode="normal" in="SourceGraphic" in2="BackgroundImageFix" result="shape"/>
<feGaussianBlur stdDeviation="1" result="effect1_foregroundBlur_103_1084"/>
</filter>
<filter id="filter2_f_103_1084" x="371.529" y="55.148" width="11.9561" height="118.852" filterUnits="userSpaceOnUse" color-interpolation-filters="sRGB">
<feFlood flood-opacity="0" result="BackgroundImageFix"/>
<feBlend mode="normal" in="SourceGraphic" in2="BackgroundImageFix" result="shape"/>
<feGaussianBlur stdDeviation="1" result="effect1_foregroundBlur_103_1084"/>
</filter>
<filter id="filter3_f_103_1084" x="177.529" y="-40.852" width="11.9561" height="118.852" filterUnits="userSpaceOnUse" color-interpolation-filters="sRGB">
<feFlood flood-opacity="0" result="BackgroundImageFix"/>
<feBlend mode="normal" in="SourceGraphic" in2="BackgroundImageFix" result="shape"/>
<feGaussianBlur stdDeviation="1" result="effect1_foregroundBlur_103_1084"/>
</filter>
<linearGradient id="paint0_linear_103_1084" x1="459.5" y1="-88" x2="459.5" y2="840" gradientUnits="userSpaceOnUse">
<stop stop-color="#1AFFB3"/>
<stop offset="0.614583" stop-color="#0EE37D" stop-opacity="0"/>
<stop offset="0.614683" stop-color="#0EE37D" stop-opacity="0"/>
<stop offset="1" stop-color="#1AFFB3"/>
</linearGradient>
<linearGradient id="paint1_linear_103_1084" x1="61.5" y1="0" x2="61.5" y2="120" gradientUnits="userSpaceOnUse">
<stop stop-color="#1AFFB3"/>
<stop offset="1" stop-color="#0EE37D" stop-opacity="0"/>
</linearGradient>
<linearGradient id="paint2_linear_103_1084" x1="377.5" y1="54" x2="377.5" y2="174" gradientUnits="userSpaceOnUse">
<stop stop-color="#1AFFB3"/>
<stop offset="1" stop-color="#0EE37D" stop-opacity="0"/>
</linearGradient>
<linearGradient id="paint3_linear_103_1084" x1="183.5" y1="-42" x2="183.5" y2="78" gradientUnits="userSpaceOnUse">
<stop stop-color="#1AFFB3"/>
<stop offset="1" stop-color="#0EE37D" stop-opacity="0"/>
</linearGradient>
<clipPath id="clip0_103_1084">
<rect width="560" height="586" fill="white"/>
</clipPath>
</defs>
</svg>
