<svg width="1917" height="208" viewBox="0 0 1917 208" fill="none" xmlns="http://www.w3.org/2000/svg">
<g clip-path="url(#clip0_108_118)">
<mask id="path-1-inside-1_108_118" fill="white">
<path d="M0 0H1920V208H0V0Z"/>
</mask>
<path d="M0 0H1920V208H0V0Z" fill="black"/>
<g style="mix-blend-mode:hard-light" clip-path="url(#clip1_108_118)">
<g opacity="0.8">
<mask id="mask0_108_118" style="mask-type:alpha" maskUnits="userSpaceOnUse" x="2" y="3" width="1918" height="456">
<path d="M2.85645 3.56787H1919.49V458.703H2.85645V3.56787Z" fill="#AAB2B0"/>
</mask>
<g mask="url(#mask0_108_118)">
<path d="M769.505 3.55762H951.587V19.8282H769.505V3.55762Z" fill="#AAB2B0" fill-opacity="0.2"/>
<path d="M769.505 36.1035H951.587V52.374H769.505V36.1035Z" fill="#AAB2B0" fill-opacity="0.2"/>
<path d="M769.505 68.6392H951.587V84.9097H769.505V68.6392Z" fill="#AAB2B0" fill-opacity="0.2"/>
<path d="M903.664 133.729H836.585V149.999H827V133.729V117.458H903.664V133.729Z" fill="#AAB2B0" fill-opacity="0.2"/>
<path d="M807.831 101.185H827V117.456H807.831V101.185Z" fill="#AAB2B0" fill-opacity="0.2"/>
<path d="M807.831 133.729H779.078V149.999H769.499V133.729V117.458H807.831V133.729Z" fill="#AAB2B0" fill-opacity="0.2"/>
<path d="M903.67 101.185H932.418V117.456H903.67V101.185Z" fill="#AAB2B0" fill-opacity="0.2"/>
<path d="M932.424 117.458H961.171V133.729H932.424V117.458Z" fill="#AAB2B0" fill-opacity="0.2"/>
<path d="M913.255 149.994H951.587V166.265H913.255V149.994Z" fill="#AAB2B0" fill-opacity="0.2"/>
<path d="M903.664 133.721H913.249V149.992H903.664V133.721Z" fill="#AAB2B0" fill-opacity="0.2"/>
<path d="M836.585 149.994H903.664V166.265H836.585V149.994Z" fill="#AAB2B0" fill-opacity="0.2"/>
<path d="M788.668 149.994H827V166.265H788.668V149.994Z" fill="#AAB2B0" fill-opacity="0.2"/>
<path d="M807.831 198.803H827V215.074H807.831V198.803Z" fill="#AAB2B0" fill-opacity="0.2"/>
<path d="M769.499 182.53H807.831V198.8H769.499V182.53Z" fill="#AAB2B0" fill-opacity="0.2"/>
<path d="M827.013 182.53H836.597V198.8H827.013V182.53Z" fill="#AAB2B0" fill-opacity="0.2"/>
<path d="M865.339 215.074V231.343H846.176V215.074H836.591V198.803H874.923V215.074H865.339Z" fill="#AAB2B0" fill-opacity="0.2"/>
<path d="M874.917 182.53H903.664V198.8H874.917V182.53Z" fill="#AAB2B0" fill-opacity="0.2"/>
<path d="M903.664 166.267H913.249V182.538H903.664V166.267Z" fill="#AAB2B0" fill-opacity="0.2"/>
<path d="M903.664 198.803H913.249V215.074H903.664V198.803Z" fill="#AAB2B0" fill-opacity="0.2"/>
<path d="M1737.4 19.8306H1775.73V36.1011H1737.4V19.8306Z" fill="#AAB2B0" fill-opacity="0.2"/>
<path d="M1737.4 52.3662H1775.73V68.6368H1737.4V52.3662Z" fill="#AAB2B0" fill-opacity="0.2"/>
<path d="M1737.4 84.9124H1775.73V101.183H1737.4V84.9124Z" fill="#AAB2B0" fill-opacity="0.2"/>
<path d="M1737.4 117.458H1775.73V133.729H1737.4V117.458Z" fill="#AAB2B0" fill-opacity="0.2"/>
<path d="M1737.4 149.994H1775.73V166.265H1737.4V149.994Z" fill="#AAB2B0" fill-opacity="0.2"/>
<path d="M1737.4 182.53H1775.73V198.8H1737.4V182.53Z" fill="#AAB2B0" fill-opacity="0.2"/>
<path d="M1823.66 68.6392H1833.24V182.533H1823.66V68.6392Z" fill="#AAB2B0" fill-opacity="0.2"/>
<path d="M1842.83 68.6392H1852.41V182.533H1842.83V68.6392Z" fill="#AAB2B0" fill-opacity="0.2"/>
<path d="M1861.98 68.6392H1871.57V312.697H1861.98V68.6392Z" fill="#AAB2B0" fill-opacity="0.2"/>
<path d="M1881.15 3.55762H1890.74V312.698H1881.15V3.55762Z" fill="#AAB2B0" fill-opacity="0.2"/>
<path d="M1900.32 19.8306H1909.9V52.3716H1900.32V19.8306Z" fill="#AAB2B0" fill-opacity="0.2"/>
<path d="M1909.91 52.3662H1919.49V101.178H1909.91V52.3662Z" fill="#AAB2B0" fill-opacity="0.2"/>
<path d="M1900.32 101.185H1909.9V117.456H1900.32V101.185Z" fill="#AAB2B0" fill-opacity="0.2"/>
<path d="M1909.91 117.458H1919.49V198.811H1909.91V117.458Z" fill="#AAB2B0" fill-opacity="0.2"/>
<path d="M1900.32 198.803H1909.9V231.343H1900.32V198.803Z" fill="#AAB2B0" fill-opacity="0.2"/>
<path d="M1909.91 3.55688H1919.49V19.8275H1909.91V3.55688Z" fill="#AAB2B0" fill-opacity="0.2"/>
<path d="M1775.74 166.267H1814.07V182.538H1775.74V166.267Z" fill="#AAB2B0" fill-opacity="0.2"/>
<path d="M1775.74 133.721H1814.07V149.992H1775.74V133.721Z" fill="#AAB2B0" fill-opacity="0.2"/>
<path d="M1775.73 101.185H1785.32V117.456H1775.73V101.185Z" fill="#AAB2B0" fill-opacity="0.2"/>
<path d="M1785.32 68.6392H1794.9V101.18H1785.32V68.6392Z" fill="#AAB2B0" fill-opacity="0.2"/>
<path d="M1794.9 52.3662H1804.49V68.6368H1794.9V52.3662Z" fill="#AAB2B0" fill-opacity="0.2"/>
<path d="M1785.32 3.55762H1794.9V52.3693H1785.32V3.55762Z" fill="#AAB2B0" fill-opacity="0.2"/>
<path d="M1804.49 84.9124H1814.07V101.183H1804.49V84.9124Z" fill="#AAB2B0" fill-opacity="0.2"/>
<path d="M1794.9 101.185H1804.49V117.456H1794.9V101.185Z" fill="#AAB2B0" fill-opacity="0.2"/>
<path d="M1814.07 52.3662H1823.65V68.6368H1814.07V52.3662Z" fill="#AAB2B0" fill-opacity="0.2"/>
<path d="M1804.49 19.8306H1852.41V36.1011H1804.49V19.8306Z" fill="#AAB2B0" fill-opacity="0.2"/>
<path d="M1852.41 36.1035H1861.99V52.374H1852.41V36.1035Z" fill="#AAB2B0" fill-opacity="0.2"/>
<path d="M1814.08 198.803H1852.41V215.074H1814.08V198.803Z" fill="#AAB2B0" fill-opacity="0.2"/>
<path d="M1363.66 36.1035H1382.82V68.6446H1363.66V36.1035Z" fill="#AAB2B0" fill-opacity="0.2"/>
<path d="M1421.16 101.185H1517V133.726H1421.16V101.185Z" fill="#AAB2B0" fill-opacity="0.2"/>
<path d="M1382.83 101.185H1402V166.268H1440.33V198.808H1402V231.35H1382.83V101.185Z" fill="#AAB2B0" fill-opacity="0.2"/>
<path d="M1478.66 166.267H1497.83V328.972H1478.66V166.267Z" fill="#AAB2B0" fill-opacity="0.2"/>
<path d="M1478.66 3.55762H1497.83V36.0987H1478.66V3.55762Z" fill="#AAB2B0" fill-opacity="0.2"/>
<path d="M1344.5 3.55762H1363.67V36.0987H1344.5V3.55762Z" fill="#AAB2B0" fill-opacity="0.2"/>
<path d="M60.3498 19.8306H69.9342V36.1011H60.3498V19.8306Z" fill="#AAB2B0" fill-opacity="0.2"/>
<path d="M69.9342 36.1035H79.5188V52.374H69.9342V36.1035Z" fill="#AAB2B0" fill-opacity="0.2"/>
<path d="M79.5186 19.8306H89.103V36.1011H79.5186V19.8306Z" fill="#AAB2B0" fill-opacity="0.2"/>
<path d="M2.84878 3.55762H60.3497V19.8282H2.84878V3.55762Z" fill="#AAB2B0" fill-opacity="0.2"/>
<path d="M89.1032 3.55762H156.182V19.8282H89.1032V3.55762Z" fill="#AAB2B0" fill-opacity="0.2"/>
<path d="M60.3498 52.3662H69.9342V68.6368H60.3498V52.3662Z" fill="#AAB2B0" fill-opacity="0.2"/>
<path d="M79.5186 52.3662H89.103V68.6368H79.5186V52.3662Z" fill="#AAB2B0" fill-opacity="0.2"/>
<path d="M89.1032 68.6392H156.182V84.9097H89.1032V68.6392Z" fill="#AAB2B0" fill-opacity="0.2"/>
<path d="M2.84878 68.6392H60.3497V84.9097H2.84878V68.6392Z" fill="#AAB2B0" fill-opacity="0.2"/>
<path d="M60.3498 117.458H69.9342V133.729H60.3498V117.458Z" fill="#AAB2B0" fill-opacity="0.2"/>
<path d="M69.9342 133.721H79.5188V149.992H69.9342V133.721Z" fill="#AAB2B0" fill-opacity="0.2"/>
<path d="M79.5186 117.458H89.103V133.729H79.5186V117.458Z" fill="#AAB2B0" fill-opacity="0.2"/>
<path d="M2.84878 101.185H60.3497V117.456H2.84878V101.185Z" fill="#AAB2B0" fill-opacity="0.2"/>
<path d="M89.1032 101.185H156.182V117.456H89.1032V101.185Z" fill="#AAB2B0" fill-opacity="0.2"/>
<path d="M60.3498 149.994H69.9342V166.265H60.3498V149.994Z" fill="#AAB2B0" fill-opacity="0.2"/>
<path d="M79.5186 149.994H89.103V166.265H79.5186V149.994Z" fill="#AAB2B0" fill-opacity="0.2"/>
<path d="M89.1032 166.267H156.182V182.538H89.1032V166.267Z" fill="#AAB2B0" fill-opacity="0.2"/>
<path d="M2.84878 166.267H60.3497V182.538H2.84878V166.267Z" fill="#AAB2B0" fill-opacity="0.2"/>
<path d="M2.84878 198.803H60.3497V215.074H2.84878V198.803Z" fill="#AAB2B0" fill-opacity="0.2"/>
<path d="M89.1032 198.803H156.182V215.074H89.1032V198.803Z" fill="#AAB2B0" fill-opacity="0.2"/>
<path d="M2.84878 36.1035H60.3497V52.374H2.84878V36.1035Z" fill="#AAB2B0" fill-opacity="0.2"/>
<path d="M89.1032 133.721H156.182V149.992H89.1032V133.721Z" fill="#AAB2B0" fill-opacity="0.2"/>
<path d="M156.189 19.8306H194.521V36.1011H156.189V19.8306Z" fill="#AAB2B0" fill-opacity="0.2"/>
<path d="M156.189 84.9124H194.521V101.183H156.189V84.9124Z" fill="#AAB2B0" fill-opacity="0.2"/>
<path d="M156.189 182.53H194.521V198.8H156.189V182.53Z" fill="#AAB2B0" fill-opacity="0.2"/>
<path d="M194.521 198.803H328.685V215.074H194.521V198.803Z" fill="#AAB2B0" fill-opacity="0.2"/>
<path d="M338.257 198.803H347.842V280.156H338.257V198.803Z" fill="#AAB2B0" fill-opacity="0.2"/>
<path d="M357.439 198.803H367.024V280.156H357.439V198.803Z" fill="#AAB2B0" fill-opacity="0.2"/>
<path d="M376.596 198.803H386.18V280.156H376.596V198.803Z" fill="#AAB2B0" fill-opacity="0.2"/>
<path d="M232.847 166.267H386.18V182.538H232.847V166.267Z" fill="#AAB2B0" fill-opacity="0.2"/>
<path d="M213.683 117.458H223.261V182.541H213.683V117.458Z" fill="#AAB2B0" fill-opacity="0.2"/>
<path d="M194.514 117.458H204.093V182.541H194.514V117.458Z" fill="#AAB2B0" fill-opacity="0.2"/>
<path d="M232.847 133.721H386.18V149.992H232.847V133.721Z" fill="#AAB2B0" fill-opacity="0.2"/>
<path d="M232.847 101.185H386.18V117.456H232.847V101.185Z" fill="#AAB2B0" fill-opacity="0.2"/>
<path d="M204.099 101.185H213.677V117.456H204.099V101.185Z" fill="#AAB2B0" fill-opacity="0.2"/>
<path d="M204.099 3.55762H213.677V84.9104H204.099V3.55762Z" fill="#AAB2B0" fill-opacity="0.2"/>
<path d="M223.268 3.55762H232.852V84.9104H223.268V3.55762Z" fill="#AAB2B0" fill-opacity="0.2"/>
<path d="M242.437 68.6392H252.022V84.9097H242.437V68.6392Z" fill="#AAB2B0" fill-opacity="0.2"/>
<path d="M242.437 36.1035H252.022V52.374H242.437V36.1035Z" fill="#AAB2B0" fill-opacity="0.2"/>
<path d="M242.437 3.55762H252.022V19.8282H242.437V3.55762Z" fill="#AAB2B0" fill-opacity="0.2"/>
<path d="M252.022 19.8306H261.606V36.1011H252.022V19.8306Z" fill="#AAB2B0" fill-opacity="0.2"/>
<path d="M252.022 52.3662H261.606V68.6368H252.022V52.3662Z" fill="#AAB2B0" fill-opacity="0.2"/>
<path d="M261.606 68.6392H271.191V84.9097H261.606V68.6392Z" fill="#AAB2B0" fill-opacity="0.2"/>
<path d="M261.606 36.1035H271.191V52.374H261.606V36.1035Z" fill="#AAB2B0" fill-opacity="0.2"/>
<path d="M261.606 3.55762H271.191V19.8282H261.606V3.55762Z" fill="#AAB2B0" fill-opacity="0.2"/>
<path d="M271.178 19.8306H386.18V36.1011H271.178V19.8306Z" fill="#AAB2B0" fill-opacity="0.2"/>
<path d="M328.679 68.6368H271.178V52.3662H328.679V68.6368H386.18V84.9074H328.679V68.6368Z" fill="#AAB2B0" fill-opacity="0.2"/>
<path d="M1555.32 328.968V296.426H1574.49V328.968H1593.66V296.426H1612.82H1631.99V263.885H1651.16H1670.32V231.345H1651.16H1631.99V198.803H1651.16V166.263H1670.32V133.721H1689.49V166.263H1670.32V198.803H1689.49V231.345H1708.65H1727.82V263.885H1708.65V296.426H1689.49H1670.32V328.968H1651.16H1631.99H1612.82V361.508H1631.99H1651.16H1670.32V394.05H1689.49V426.591H1670.32H1651.16V394.05H1631.99H1612.82V361.508H1593.66H1574.49H1555.32H1536.16V328.968H1555.32Z" fill="#AAB2B0" fill-opacity="0.2"/>
<path d="M1593.66 263.885H1574.5V231.343V198.803H1593.66H1612.83V231.343H1593.66V263.885Z" fill="#AAB2B0" fill-opacity="0.2"/>
<path d="M1574.49 166.263V133.721H1593.66V166.263H1574.49V198.803H1555.33H1536.16V166.263H1555.33H1574.49Z" fill="#AAB2B0" fill-opacity="0.2"/>
<path d="M1708.65 166.267H1727.82V198.808H1708.65V166.267Z" fill="#AAB2B0" fill-opacity="0.2"/>
<path d="M1593.66 101.185H1612.83V133.726H1593.66V101.185Z" fill="#AAB2B0" fill-opacity="0.2"/>
<path d="M1651.17 101.185H1670.34V133.726H1651.17V101.185Z" fill="#AAB2B0" fill-opacity="0.2"/>
<path d="M1708.65 133.721H1689.49V101.18H1670.32V68.6392H1689.49H1708.65V101.18H1727.82V133.721H1708.65Z" fill="#AAB2B0" fill-opacity="0.2"/>
<path d="M1555.33 36.0987H1574.5V3.55762H1593.66H1612.83V36.0987H1593.66V68.6398H1574.5H1555.33V101.181H1536.16V68.6398V36.0987H1555.33Z" fill="#AAB2B0" fill-opacity="0.2"/>
<path d="M1670.32 3.55762H1689.48V36.0987H1670.32V3.55762Z" fill="#AAB2B0" fill-opacity="0.2"/>
<path d="M1009.09 328.969H999.503V263.886H989.919V198.804H980.334V68.6398H989.919V3.55762H999.503V68.6398H989.919V198.804H999.503V263.886H1009.09V198.804H999.503V68.6398H1009.09V198.804H1018.67V263.886H1028.25V328.969H1018.67V263.886H1009.09V328.969Z" fill="#AAB2B0" fill-opacity="0.2"/>
<path d="M1037.84 198.804H1047.42V263.886H1037.84V198.804H1028.26V68.6392H1037.84V198.804Z" fill="#AAB2B0" fill-opacity="0.2"/>
<path d="M1085.75 68.6398V198.804H1076.17V68.6398H1066.58V3.55762H1076.17V68.6398H1085.75Z" fill="#AAB2B0" fill-opacity="0.2"/>
<path d="M1114.5 68.6398V198.804V215.075H1104.92V231.346H1095.34V215.075H1104.92V198.804V68.6398H1095.34V3.55762H1104.92V68.6398H1114.5Z" fill="#AAB2B0" fill-opacity="0.2"/>
<path d="M1143.25 68.6398V198.804H1133.67V215.075H1124.09V198.804H1133.67V68.6398H1124.09V3.55762H1133.67V68.6398H1143.25Z" fill="#AAB2B0" fill-opacity="0.2"/>
<path d="M970.756 68.6398V84.9104H961.178V68.6398H970.756V3.55762H980.341V68.6398H970.756Z" fill="#AAB2B0" fill-opacity="0.2"/>
<path d="M1219.92 3.55762H1229.51V68.6398H1219.92V3.55762Z" fill="#AAB2B0" fill-opacity="0.2"/>
<path d="M1248.68 3.55762H1258.26V68.6398H1248.68V3.55762Z" fill="#AAB2B0" fill-opacity="0.2"/>
<path d="M1296.57 68.6398V166.263H1286.99V68.6398V3.55762H1296.57V68.6398Z" fill="#AAB2B0" fill-opacity="0.2"/>
<path d="M1152.83 231.346V215.075H1162.42V198.804H1152.83V68.6398H1143.25V3.55762H1152.83V68.6398H1162.42V198.804H1172V68.6398H1162.42V3.55762H1172V68.6398H1181.58V198.804H1172V215.075H1162.42V231.346H1152.83V328.969H1143.25V231.346H1152.83Z" fill="#AAB2B0" fill-opacity="0.2"/>
<path d="M1200.74 198.804V68.6398H1191.16V3.55762H1200.74V68.6398H1210.33V198.804H1200.74V328.969H1191.16V198.804H1200.74Z" fill="#AAB2B0" fill-opacity="0.2"/>
<path d="M1219.92 198.808V101.185H1229.51V198.808H1219.92V328.973H1210.34V198.808H1219.92Z" fill="#AAB2B0" fill-opacity="0.2"/>
<path d="M1248.68 198.808V101.185H1258.26V198.808H1248.68V328.973H1239.09V198.808H1248.68Z" fill="#AAB2B0" fill-opacity="0.2"/>
<path d="M1267.83 198.808V101.185H1277.42V198.808H1267.83V328.973H1258.25V198.808H1267.83Z" fill="#AAB2B0" fill-opacity="0.2"/>
<path d="M1306.16 198.808V166.267H1315.74V198.808H1306.16V328.972H1296.57V198.808H1306.16Z" fill="#AAB2B0" fill-opacity="0.2"/>
<path d="M1325.33 68.6392H1334.91V166.263H1325.33V68.6392Z" fill="#AAB2B0" fill-opacity="0.2"/>
<path d="M1286.99 182.53H1296.57V198.8H1286.99V182.53Z" fill="#AAB2B0" fill-opacity="0.2"/>
<path d="M1334.91 166.267H1344.5V182.538H1334.91V166.267Z" fill="#AAB2B0" fill-opacity="0.2"/>
<path d="M1334.91 36.1035H1344.5V68.6446H1334.91V36.1035Z" fill="#AAB2B0" fill-opacity="0.2"/>
<path d="M1018.67 52.3662H1028.25V68.6368H1018.67V52.3662Z" fill="#AAB2B0" fill-opacity="0.2"/>
<path d="M961.171 182.53H970.756V198.8H961.171V182.53Z" fill="#AAB2B0" fill-opacity="0.2"/>
<path d="M482.013 149.994H654.51V166.265H482.013V149.994Z" fill="#AAB2B0" fill-opacity="0.2"/>
<path d="M482.007 101.185H692.842V133.726H482.007V101.185Z" fill="#AAB2B0" fill-opacity="0.2"/>
<path d="M616.184 68.6392H769.518V84.9097H616.184V68.6392Z" fill="#AAB2B0" fill-opacity="0.2"/>
<path d="M654.516 166.267H769.518V182.538V198.808H654.516V182.538V166.267Z" fill="#AAB2B0" fill-opacity="0.2"/>
<path d="M482.007 36.1035H616.172V52.374H482.007V36.1035Z" fill="#AAB2B0" fill-opacity="0.2"/>
<path d="M616.184 19.8306H769.518V36.1011H616.184V19.8306Z" fill="#AAB2B0" fill-opacity="0.2"/>
<path d="M443.681 52.3662H482.013V68.6368H443.681V52.3662Z" fill="#AAB2B0" fill-opacity="0.2"/>
<path d="M443.681 84.9124H482.013V101.183H443.681V84.9124Z" fill="#AAB2B0" fill-opacity="0.2"/>
<path d="M434.09 68.6392H443.675V84.9097H434.09V68.6392Z" fill="#AAB2B0" fill-opacity="0.2"/>
<path d="M405.343 84.9124H434.09V101.183H405.343V84.9124Z" fill="#AAB2B0" fill-opacity="0.2"/>
<path d="M386.18 101.185H405.349V117.456H386.18V101.185Z" fill="#AAB2B0" fill-opacity="0.2"/>
<path d="M405.343 52.3662H434.09V68.6368H405.343V52.3662Z" fill="#AAB2B0" fill-opacity="0.2"/>
<path d="M395.765 36.1035H405.349V52.374H395.765V36.1035Z" fill="#AAB2B0" fill-opacity="0.2"/>
<path d="M386.18 52.3662H395.765V68.6368H386.18V52.3662Z" fill="#AAB2B0" fill-opacity="0.2"/>
<path d="M405.343 19.8306H462.844V36.1011H405.343V19.8306Z" fill="#AAB2B0" fill-opacity="0.2"/>
<path d="M462.844 3.55762H482.013V19.8282H462.844V3.55762Z" fill="#AAB2B0" fill-opacity="0.2"/>
<path d="M577.846 198.803H654.51V215.074H577.846V198.803Z" fill="#AAB2B0" fill-opacity="0.2"/>
<path d="M386.18 133.721H405.349V149.992H386.18V133.721Z" fill="#AAB2B0" fill-opacity="0.2"/>
<path d="M405.343 149.994H462.844V166.265H405.343V149.994Z" fill="#AAB2B0" fill-opacity="0.2"/>
<path d="M462.844 133.721H482.013V149.992H462.844V133.721Z" fill="#AAB2B0" fill-opacity="0.2"/>
<path d="M405.343 117.458H462.844V133.729H405.343V117.458Z" fill="#AAB2B0" fill-opacity="0.2"/>
</g>
</g>
</g>
<rect width="1920" height="208" transform="matrix(-1 0 0 1 1920 0)" fill="url(#paint0_linear_108_118)"/>
</g>
<path d="M0 1H1920V-1H0V1Z" fill="#0EE37D" mask="url(#path-1-inside-1_108_118)"/>
<defs>
<linearGradient id="paint0_linear_108_118" x1="1.40988e-05" y1="104" x2="1920" y2="134" gradientUnits="userSpaceOnUse">
<stop stop-color="#0B0D0C"/>
<stop offset="0.705978" stop-color="#0B0D0C" stop-opacity="0"/>
<stop offset="1" stop-color="#008C5E" stop-opacity="0.54"/>
</linearGradient>
<clipPath id="clip0_108_118">
<path d="M0 0H1920V208H0V0Z" fill="white"/>
</clipPath>
<clipPath id="clip1_108_118">
<rect width="1920" height="208" fill="white" transform="matrix(-1 0 0 1 1920 0)"/>
</clipPath>
</defs>
</svg>
