<svg width="1920" height="127" viewBox="0 0 1920 127" fill="none" xmlns="http://www.w3.org/2000/svg">
<g clip-path="url(#clip0_96_23)">
<mask id="path-1-inside-1_96_23" fill="white">
<path d="M0 0H1920V127H0V0Z"/>
</mask>
<path d="M0 0H1920V127H0V0Z" fill="black"/>
<g style="mix-blend-mode:hard-light" opacity="0.6" clip-path="url(#clip1_96_23)">
<g opacity="0.8">
<mask id="mask0_96_23" style="mask-type:alpha" maskUnits="userSpaceOnUse" x="5" y="-79" width="1985" height="443">
<path d="M5.14624 -78.559H1989.35V363.345H5.14624V-78.559Z" fill="#AAB2B0"/>
</mask>
<g mask="url(#mask0_96_23)">
<path d="M798.825 -15.3792H987.325V0.41833H798.825V-15.3792Z" fill="#AAB2B0" fill-opacity="0.2"/>
<path d="M937.713 47.8179H868.269V63.6156H858.347V47.8179V32.0201H937.713V47.8179Z" fill="#AAB2B0" fill-opacity="0.2"/>
<path d="M838.502 16.2207H858.346V32.0181H838.502V16.2207Z" fill="#AAB2B0" fill-opacity="0.2"/>
<path d="M838.502 47.8179H808.734V63.6156H798.818V47.8179V32.0201H838.502V47.8179Z" fill="#AAB2B0" fill-opacity="0.2"/>
<path d="M937.72 16.2207H967.48V32.0181H937.72V16.2207Z" fill="#AAB2B0" fill-opacity="0.2"/>
<path d="M967.487 32.0201H997.248V47.8179H967.487V32.0201Z" fill="#AAB2B0" fill-opacity="0.2"/>
<path d="M947.642 63.6106H987.325V79.4083H947.642V63.6106Z" fill="#AAB2B0" fill-opacity="0.2"/>
<path d="M937.713 47.8107H947.636V63.6085H937.713V47.8107Z" fill="#AAB2B0" fill-opacity="0.2"/>
<path d="M868.269 63.6106H937.713V79.4083H868.269V63.6106Z" fill="#AAB2B0" fill-opacity="0.2"/>
<path d="M818.663 63.6106H858.346V79.4083H818.663V63.6106Z" fill="#AAB2B0" fill-opacity="0.2"/>
<path d="M838.502 111.001H858.346V126.798H838.502V111.001Z" fill="#AAB2B0" fill-opacity="0.2"/>
<path d="M798.818 95.2009H838.502V110.998H798.818V95.2009Z" fill="#AAB2B0" fill-opacity="0.2"/>
<path d="M858.359 95.2009H868.282V110.998H858.359V95.2009Z" fill="#AAB2B0" fill-opacity="0.2"/>
<path d="M898.036 126.798V142.595H878.198V126.798H868.276V111.001H907.959V126.798H898.036Z" fill="#AAB2B0" fill-opacity="0.2"/>
<path d="M907.953 95.2009H937.713V110.998H907.953V95.2009Z" fill="#AAB2B0" fill-opacity="0.2"/>
<path d="M937.713 79.4103H947.636V95.2081H937.713V79.4103Z" fill="#AAB2B0" fill-opacity="0.2"/>
<path d="M937.713 111.001H947.636V126.798H937.713V111.001Z" fill="#AAB2B0" fill-opacity="0.2"/>
<path d="M947.642 126.79H987.325V142.588H947.642V126.79Z" fill="#AAB2B0" fill-opacity="0.2"/>
<path d="M798.825 126.79H818.67V142.588H798.825V126.79Z" fill="#AAB2B0" fill-opacity="0.2"/>
<path d="M1800.84 0.420776H1840.53V16.2183H1800.84V0.420776Z" fill="#AAB2B0" fill-opacity="0.2"/>
<path d="M1800.84 32.0201H1840.53V47.8179H1800.84V32.0201Z" fill="#AAB2B0" fill-opacity="0.2"/>
<path d="M1800.84 63.6106H1840.53V79.4083H1800.84V63.6106Z" fill="#AAB2B0" fill-opacity="0.2"/>
<path d="M1800.84 95.2009H1840.53V110.998H1800.84V95.2009Z" fill="#AAB2B0" fill-opacity="0.2"/>
<path d="M1800.85 126.79H1880.22V142.588H1800.85V126.79Z" fill="#AAB2B0" fill-opacity="0.2"/>
<path d="M1890.14 -15.3792H1900.06V95.204H1890.14V-15.3792Z" fill="#AAB2B0" fill-opacity="0.2"/>
<path d="M1909.99 -15.3792H1919.91V95.204H1909.99V-15.3792Z" fill="#AAB2B0" fill-opacity="0.2"/>
<path d="M1840.53 79.4103H1880.22V95.2081H1840.53V79.4103Z" fill="#AAB2B0" fill-opacity="0.2"/>
<path d="M1840.53 47.8107H1880.22V63.6085H1840.53V47.8107Z" fill="#AAB2B0" fill-opacity="0.2"/>
<path d="M1840.53 16.2207H1850.45V32.0181H1840.53V16.2207Z" fill="#AAB2B0" fill-opacity="0.2"/>
<path d="M1850.45 -15.3792H1860.37V16.216H1850.45V-15.3792Z" fill="#AAB2B0" fill-opacity="0.2"/>
<path d="M1870.3 0.420776H1880.22V16.2183H1870.3V0.420776Z" fill="#AAB2B0" fill-opacity="0.2"/>
<path d="M1860.37 16.2207H1870.29V32.0181H1860.37V16.2207Z" fill="#AAB2B0" fill-opacity="0.2"/>
<path d="M1880.22 111.001H1919.91V126.798H1880.22V111.001Z" fill="#AAB2B0" fill-opacity="0.2"/>
<path d="M1473.46 16.2207H1572.67V47.8159H1473.46V16.2207Z" fill="#AAB2B0" fill-opacity="0.2"/>
<path d="M1433.77 16.2207H1453.62V79.4114H1493.3V111.006H1453.62V142.601H1433.77V16.2207Z" fill="#AAB2B0" fill-opacity="0.2"/>
<path d="M1532.98 79.4103H1552.82V237.386H1532.98V79.4103Z" fill="#AAB2B0" fill-opacity="0.2"/>
<path d="M94.4338 -15.3792H163.878V0.41833H94.4338V-15.3792Z" fill="#AAB2B0" fill-opacity="0.2"/>
<path d="M5.13828 -15.3792H64.6665V0.41833H5.13828V-15.3792Z" fill="#AAB2B0" fill-opacity="0.2"/>
<path d="M64.6666 32.0201H74.589V47.8179H64.6666V32.0201Z" fill="#AAB2B0" fill-opacity="0.2"/>
<path d="M74.5889 47.8107H84.5115V63.6085H74.5889V47.8107Z" fill="#AAB2B0" fill-opacity="0.2"/>
<path d="M84.5112 32.0201H94.4336V47.8179H84.5112V32.0201Z" fill="#AAB2B0" fill-opacity="0.2"/>
<path d="M5.13828 16.2207H64.6665V32.0181H5.13828V16.2207Z" fill="#AAB2B0" fill-opacity="0.2"/>
<path d="M94.4338 16.2207H163.878V32.0181H94.4338V16.2207Z" fill="#AAB2B0" fill-opacity="0.2"/>
<path d="M64.6666 63.6106H74.589V79.4083H64.6666V63.6106Z" fill="#AAB2B0" fill-opacity="0.2"/>
<path d="M84.5112 63.6106H94.4336V79.4083H84.5112V63.6106Z" fill="#AAB2B0" fill-opacity="0.2"/>
<path d="M94.4338 79.4103H163.878V95.2081H94.4338V79.4103Z" fill="#AAB2B0" fill-opacity="0.2"/>
<path d="M5.13828 79.4103H64.6665V95.2081H5.13828V79.4103Z" fill="#AAB2B0" fill-opacity="0.2"/>
<path d="M64.6666 126.79H74.589V142.588H64.6666V126.79Z" fill="#AAB2B0" fill-opacity="0.2"/>
<path d="M84.5112 126.79H94.4336V142.588H84.5112V126.79Z" fill="#AAB2B0" fill-opacity="0.2"/>
<path d="M5.13828 111.001H64.6665V126.798H5.13828V111.001Z" fill="#AAB2B0" fill-opacity="0.2"/>
<path d="M94.4338 111.001H163.878V126.798H94.4338V111.001Z" fill="#AAB2B0" fill-opacity="0.2"/>
<path d="M94.4338 47.8107H163.878V63.6085H94.4338V47.8107Z" fill="#AAB2B0" fill-opacity="0.2"/>
<path d="M163.885 0.420776H203.568V16.2183H163.885V0.420776Z" fill="#AAB2B0" fill-opacity="0.2"/>
<path d="M163.885 95.2009H203.568V110.998H163.885V95.2009Z" fill="#AAB2B0" fill-opacity="0.2"/>
<path d="M203.568 111.001H342.463V126.798H203.568V111.001Z" fill="#AAB2B0" fill-opacity="0.2"/>
<path d="M352.372 111.001H362.295V189.988H352.372V111.001Z" fill="#AAB2B0" fill-opacity="0.2"/>
<path d="M372.23 111.001H382.153V189.988H372.23V111.001Z" fill="#AAB2B0" fill-opacity="0.2"/>
<path d="M392.062 111.001H401.985V189.988H392.062V111.001Z" fill="#AAB2B0" fill-opacity="0.2"/>
<path d="M243.245 79.4103H401.985V95.2081H243.245V79.4103Z" fill="#AAB2B0" fill-opacity="0.2"/>
<path d="M223.406 32.0201H233.322V95.2111H223.406V32.0201Z" fill="#AAB2B0" fill-opacity="0.2"/>
<path d="M203.561 32.0201H213.477V95.2111H203.561V32.0201Z" fill="#AAB2B0" fill-opacity="0.2"/>
<path d="M243.245 47.8107H401.985V63.6085H243.245V47.8107Z" fill="#AAB2B0" fill-opacity="0.2"/>
<path d="M243.245 16.2207H401.985V32.0181H243.245V16.2207Z" fill="#AAB2B0" fill-opacity="0.2"/>
<path d="M213.484 16.2207H223.4V32.0181H213.484V16.2207Z" fill="#AAB2B0" fill-opacity="0.2"/>
<path d="M213.484 -78.5693H223.4V0.418617H213.484V-78.5693Z" fill="#AAB2B0" fill-opacity="0.2"/>
<path d="M233.329 -78.5693H243.251V0.418617H233.329V-78.5693Z" fill="#AAB2B0" fill-opacity="0.2"/>
<path d="M253.174 -15.3792H263.096V0.41833H253.174V-15.3792Z" fill="#AAB2B0" fill-opacity="0.2"/>
<path d="M273.019 -15.3792H282.941V0.41833H273.019V-15.3792Z" fill="#AAB2B0" fill-opacity="0.2"/>
<path d="M342.456 -15.3816H282.928V-31.1793H342.456V-15.3816H401.985V0.415936H342.456V-15.3816Z" fill="#AAB2B0" fill-opacity="0.2"/>
<path d="M1612.35 237.382V205.786H1632.19V237.382H1652.03V205.786H1671.87H1691.72V174.191H1711.56H1731.4V142.596H1711.56H1691.72V111.001H1711.56V79.4062H1731.4V47.8107H1751.24V79.4062H1731.4V111.001H1751.24V142.596H1771.08H1790.93V174.191H1771.08V205.786H1751.24H1731.4V237.382H1711.56H1691.72H1671.87V268.976H1691.72H1711.56H1731.4V300.572H1751.24V332.167H1731.4H1711.56V300.572H1691.72H1671.87V268.976H1652.03H1632.19H1612.35H1592.51V237.382H1612.35Z" fill="#AAB2B0" fill-opacity="0.2"/>
<path d="M1652.04 174.191H1632.2V142.595V111.001H1652.04H1671.88V142.595H1652.04V174.191Z" fill="#AAB2B0" fill-opacity="0.2"/>
<path d="M1632.19 79.4062V47.8107H1652.04V79.4062H1632.19V111.001H1612.35H1592.51V79.4062H1612.35H1632.19Z" fill="#AAB2B0" fill-opacity="0.2"/>
<path d="M1771.08 79.4103H1790.93V111.006H1771.08V79.4103Z" fill="#AAB2B0" fill-opacity="0.2"/>
<path d="M1652.04 16.2207H1671.88V47.8159H1652.04V16.2207Z" fill="#AAB2B0" fill-opacity="0.2"/>
<path d="M1711.57 16.2207H1731.42V47.8159H1711.57V16.2207Z" fill="#AAB2B0" fill-opacity="0.2"/>
<path d="M1771.08 47.8108H1751.24V16.216H1731.4V-15.3792H1751.24H1771.08V16.216H1790.93V47.8108H1771.08Z" fill="#AAB2B0" fill-opacity="0.2"/>
<path d="M1612.36 -46.9741H1632.2V-78.5693H1652.04H1671.88V-46.9741H1652.04V-15.379H1632.2H1612.36V16.2161H1592.51V-15.379V-46.9741H1612.36Z" fill="#AAB2B0" fill-opacity="0.2"/>
<path d="M1046.85 237.383H1036.93V174.192H1027.01V111.002H1017.09V-15.379H1027.01V-78.5693H1036.93V-15.379H1027.01V111.002H1036.93V174.192H1046.85V111.002H1036.93V-15.379H1046.85V111.002H1056.77V174.192H1066.69V237.383H1056.77V174.192H1046.85V237.383Z" fill="#AAB2B0" fill-opacity="0.2"/>
<path d="M1076.62 111.002H1086.54V174.192H1076.62V111.002H1066.7V-15.3792H1076.62V111.002Z" fill="#AAB2B0" fill-opacity="0.2"/>
<path d="M1126.21 -15.379V111.002H1116.3V-15.379H1106.38V-78.5693H1116.3V-15.379H1126.21Z" fill="#AAB2B0" fill-opacity="0.2"/>
<path d="M1155.98 -15.379V111.002V126.799H1146.07V142.597H1136.14V126.799H1146.07V111.002V-15.379H1136.14V-78.5693H1146.07V-15.379H1155.98Z" fill="#AAB2B0" fill-opacity="0.2"/>
<path d="M1185.75 -15.379V111.002H1175.83V126.799H1165.91V111.002H1175.83V-15.379H1165.91V-78.5693H1175.83V-15.379H1185.75Z" fill="#AAB2B0" fill-opacity="0.2"/>
<path d="M1007.17 -15.379V0.418617H997.254V-15.379H1007.17V-78.5693H1017.09V-15.379H1007.17Z" fill="#AAB2B0" fill-opacity="0.2"/>
<path d="M1344.48 -15.379V79.406H1334.55V-15.379V-78.5693H1344.48V-15.379Z" fill="#AAB2B0" fill-opacity="0.2"/>
<path d="M1195.66 142.597V126.799H1205.59V111.002H1195.66V-15.379H1185.74V-78.5693H1195.66V-15.379H1205.59V111.002H1215.51V-15.379H1205.59V-78.5693H1215.51V-15.379H1225.43V111.002H1215.51V126.799H1205.59V142.597H1195.66V237.383H1185.74V142.597H1195.66Z" fill="#AAB2B0" fill-opacity="0.2"/>
<path d="M1245.26 111.002V-15.379H1235.34V-78.5693H1245.26V-15.379H1255.19V111.002H1245.26V237.383H1235.34V111.002H1245.26Z" fill="#AAB2B0" fill-opacity="0.2"/>
<path d="M1265.12 111.006V16.2207H1275.04V111.006H1265.12V237.387H1255.2V111.006H1265.12Z" fill="#AAB2B0" fill-opacity="0.2"/>
<path d="M1294.89 111.006V16.2207H1304.81V111.006H1294.89V237.387H1284.97V111.006H1294.89Z" fill="#AAB2B0" fill-opacity="0.2"/>
<path d="M1314.72 111.006V16.2207H1324.64V111.006H1314.72V237.387H1304.8V111.006H1314.72Z" fill="#AAB2B0" fill-opacity="0.2"/>
<path d="M1354.4 111.006V79.4103H1364.32V111.006H1354.4V237.386H1344.48V111.006H1354.4Z" fill="#AAB2B0" fill-opacity="0.2"/>
<path d="M1374.24 -15.3792H1384.17V79.4063H1374.24V-15.3792Z" fill="#AAB2B0" fill-opacity="0.2"/>
<path d="M1096.47 126.79H1106.38V142.588H1096.47V126.79Z" fill="#AAB2B0" fill-opacity="0.2"/>
<path d="M1116.3 126.79H1126.21V142.588H1116.3V126.79Z" fill="#AAB2B0" fill-opacity="0.2"/>
<path d="M1334.55 95.2009H1344.48V110.998H1334.55V95.2009Z" fill="#AAB2B0" fill-opacity="0.2"/>
<path d="M1384.17 79.4103H1394.09V95.2081H1384.17V79.4103Z" fill="#AAB2B0" fill-opacity="0.2"/>
<path d="M997.248 95.2009H1007.17V110.998H997.248V95.2009Z" fill="#AAB2B0" fill-opacity="0.2"/>
<path d="M401.991 126.79H600.408V142.588H401.991V126.79Z" fill="#AAB2B0" fill-opacity="0.2"/>
<path d="M501.196 63.6106H679.775V79.4083H501.196V63.6106Z" fill="#AAB2B0" fill-opacity="0.2"/>
<path d="M501.19 16.2207H719.458V47.8159H501.19V16.2207Z" fill="#AAB2B0" fill-opacity="0.2"/>
<path d="M640.098 -15.3792H798.838V0.41833H640.098V-15.3792Z" fill="#AAB2B0" fill-opacity="0.2"/>
<path d="M679.781 79.4103H798.838V95.2081V111.006H679.781V95.2081V79.4103Z" fill="#AAB2B0" fill-opacity="0.2"/>
<path d="M461.513 0.420776H501.196V16.2183H461.513V0.420776Z" fill="#AAB2B0" fill-opacity="0.2"/>
<path d="M451.584 -15.3792H461.506V0.41833H451.584V-15.3792Z" fill="#AAB2B0" fill-opacity="0.2"/>
<path d="M421.823 0.420776H451.584V16.2183H421.823V0.420776Z" fill="#AAB2B0" fill-opacity="0.2"/>
<path d="M401.984 16.2207H421.829V32.0181H401.984V16.2207Z" fill="#AAB2B0" fill-opacity="0.2"/>
<path d="M600.408 111.001H679.775V126.798H600.408V111.001Z" fill="#AAB2B0" fill-opacity="0.2"/>
<path d="M679.781 126.79H798.838V142.588H679.781V126.79Z" fill="#AAB2B0" fill-opacity="0.2"/>
<path d="M401.984 47.8107H421.829V63.6085H401.984V47.8107Z" fill="#AAB2B0" fill-opacity="0.2"/>
<path d="M421.823 63.6106H481.351V79.4083H421.823V63.6106Z" fill="#AAB2B0" fill-opacity="0.2"/>
<path d="M481.351 47.8107H501.196V63.6085H481.351V47.8107Z" fill="#AAB2B0" fill-opacity="0.2"/>
<path d="M421.823 32.0201H481.351V47.8179H421.823V32.0201Z" fill="#AAB2B0" fill-opacity="0.2"/>
</g>
</g>
</g>
<rect y="-16" width="1920" height="172" fill="url(#paint0_linear_96_23)"/>
</g>
<path d="M0 2H1920V-2H0V2Z" fill="url(#paint1_linear_96_23)" mask="url(#path-1-inside-1_96_23)"/>
<defs>
<linearGradient id="paint0_linear_96_23" x1="1.01217e-05" y1="70.0004" x2="1920" y2="70.0003" gradientUnits="userSpaceOnUse">
<stop stop-color="#008C5E" stop-opacity="0.21"/>
<stop offset="0.786979" stop-color="#0F563F" stop-opacity="0.106422"/>
<stop offset="1" stop-color="#1F1F1F" stop-opacity="0"/>
</linearGradient>
<linearGradient id="paint1_linear_96_23" x1="0" y1="0" x2="1920" y2="-7.41914e-06" gradientUnits="userSpaceOnUse">
<stop stop-color="#0EE37D"/>
<stop offset="1" stop-color="#0EE37D" stop-opacity="0"/>
</linearGradient>
<clipPath id="clip0_96_23">
<path d="M0 0H1920V127H0V0Z" fill="white"/>
</clipPath>
<clipPath id="clip1_96_23">
<rect width="2088" height="190.302" fill="white" transform="matrix(-1 0 0 1 1920 -16)"/>
</clipPath>
</defs>
</svg>
