<svg width="40" height="40" viewBox="0 0 40 40" fill="none" xmlns="http://www.w3.org/2000/svg">
<path d="M30.8334 40H9.16664C4.10633 39.9945 0.00554688 35.8937 0 30.8334V9.16664C0.00554688 4.10633 4.10633 0.00554688 9.16664 0H30.8333C35.8937 0.00554688 39.9945 4.10633 40 9.16664V30.8333C39.9945 35.8937 35.8937 39.9945 30.8334 40ZM9.16664 5C6.86547 5 5 6.86547 5 9.16664V30.8333C5 33.1345 6.86547 35 9.16664 35H30.8333C33.1345 35 35 33.1345 35 30.8334V9.16664C35 6.86547 33.1345 5 30.8334 5H9.16664Z" fill="#1AFFB3"/>
<path d="M16.1116 29.645C15.0599 29.6457 14.0516 29.2256 13.3116 28.4783L8.33326 23.5083C7.35662 22.5323 7.35615 20.9494 8.33216 19.9728C8.33255 19.9724 8.33294 19.972 8.33326 19.9716C9.30951 18.9957 10.892 18.9957 11.8683 19.9716L16.1116 24.2133L28.1316 12.1933C29.1079 11.2173 30.6904 11.2173 31.6666 12.1933C32.6433 13.1693 32.6437 14.7522 31.6677 15.7288C31.6673 15.7292 31.6669 15.7296 31.6666 15.7299L18.91 28.4866C18.1692 29.2308 17.1616 29.6479 16.1116 29.645Z" fill="#1AFFB3"/>
</svg>
