<svg width="40" height="40" viewBox="0 0 40 40" fill="none" xmlns="http://www.w3.org/2000/svg">
<path d="M40 32.7273V5.45455C40 4.00791 39.4732 2.62053 38.5355 1.5976C37.5979 0.574674 36.3261 0 35 0H5C3.67392 0 2.40215 0.574674 1.46447 1.5976C0.526784 2.62053 0 4.00791 0 5.45455L0 32.7273H18.3333V36.3636H10V40H30V36.3636H21.6667V32.7273H40ZM5 3.63636H35C35.442 3.63636 35.866 3.82792 36.1785 4.1689C36.4911 4.50987 36.6667 4.97233 36.6667 5.45455V21.8182H3.33333V5.45455C3.33333 4.97233 3.50893 4.50987 3.82149 4.1689C4.13405 3.82792 4.55797 3.63636 5 3.63636ZM3.33333 25.4545H36.6667V29.0909H3.33333V25.4545Z" fill="#1AFFB3"/>
</svg>
