<svg width="1030" height="200" viewBox="0 0 1030 200" fill="none" xmlns="http://www.w3.org/2000/svg">
<g opacity="0.7" clip-path="url(#clip0_65_47)">
<mask id="mask0_65_47" style="mask-type:alpha" maskUnits="userSpaceOnUse" x="-119" y="3" width="1642" height="439">
<path d="M-118.622 3.43066H1522.31V441.06H-118.622V3.43066Z" fill="#AAB2B0"/>
</mask>
<g mask="url(#mask0_65_47)">
<path d="M537.746 3.42075H693.636V19.0655H537.746V3.42075Z" fill="#AAB2B0" fill-opacity="0.25"/>
<path d="M537.746 34.7151H693.636V50.3598H537.746V34.7151Z" fill="#AAB2B0" fill-opacity="0.25"/>
<path d="M537.746 65.9993H693.636V81.6441H537.746V65.9993Z" fill="#AAB2B0" fill-opacity="0.25"/>
<path d="M652.607 128.585H595.177V144.23H586.971V128.585V112.94H652.607V128.585Z" fill="#AAB2B0" fill-opacity="0.25"/>
<path d="M570.559 97.2936H586.971V112.938H570.559V97.2936Z" fill="#AAB2B0" fill-opacity="0.25"/>
<path d="M570.559 128.585H545.942V144.23H537.741V128.585V112.94H570.559V128.585Z" fill="#AAB2B0" fill-opacity="0.25"/>
<path d="M652.612 97.2936H677.224V112.938H652.612V97.2936Z" fill="#AAB2B0" fill-opacity="0.25"/>
<path d="M677.229 112.94H701.841V128.585H677.229V112.94Z" fill="#AAB2B0" fill-opacity="0.25"/>
<path d="M660.818 144.225H693.636V159.87H660.818V144.225Z" fill="#AAB2B0" fill-opacity="0.25"/>
<path d="M652.607 128.578H660.812V144.223H652.607V128.578Z" fill="#AAB2B0" fill-opacity="0.25"/>
<path d="M595.177 144.225H652.607V159.87H595.177V144.225Z" fill="#AAB2B0" fill-opacity="0.25"/>
<path d="M554.153 144.225H586.971V159.87H554.153V144.225Z" fill="#AAB2B0" fill-opacity="0.25"/>
<path d="M570.559 191.157H586.971V206.802H570.559V191.157Z" fill="#AAB2B0" fill-opacity="0.25"/>
<path d="M537.741 175.51H570.559V191.154H537.741V175.51Z" fill="#AAB2B0" fill-opacity="0.25"/>
<path d="M586.981 175.51H595.187V191.154H586.981V175.51Z" fill="#AAB2B0" fill-opacity="0.25"/>
<path d="M619.794 206.802V222.446H603.388V206.802H595.182V191.157H628V206.802H619.794Z" fill="#AAB2B0" fill-opacity="0.25"/>
<path d="M627.995 175.51H652.607V191.154H627.995V175.51Z" fill="#AAB2B0" fill-opacity="0.25"/>
<path d="M652.607 159.872H660.812V175.517H652.607V159.872Z" fill="#AAB2B0" fill-opacity="0.25"/>
<path d="M652.607 191.157H660.812V206.802H652.607V191.157Z" fill="#AAB2B0" fill-opacity="0.25"/>
<path d="M-44.7819 3.42075H12.6482V19.0655H-44.7819V3.42075Z" fill="#AAB2B0" fill-opacity="0.25"/>
<path d="M-44.7819 65.9993H12.6482V81.6441H-44.7819V65.9993Z" fill="#AAB2B0" fill-opacity="0.25"/>
<path d="M-44.7819 97.2936H12.6482V112.938H-44.7819V97.2936Z" fill="#AAB2B0" fill-opacity="0.25"/>
<path d="M-44.7819 159.872H12.6482V175.517H-44.7819V159.872Z" fill="#AAB2B0" fill-opacity="0.25"/>
<path d="M-44.7819 191.157H12.6482V206.802H-44.7819V191.157Z" fill="#AAB2B0" fill-opacity="0.25"/>
<path d="M-44.7819 128.578H12.6482V144.223H-44.7819V128.578Z" fill="#AAB2B0" fill-opacity="0.25"/>
<path d="M12.6537 19.0679H45.4717V34.7126H12.6537V19.0679Z" fill="#AAB2B0" fill-opacity="0.25"/>
<path d="M12.6537 81.6465H45.4717V97.2912H12.6537V81.6465Z" fill="#AAB2B0" fill-opacity="0.25"/>
<path d="M12.6537 175.51H45.4717V191.154H12.6537V175.51Z" fill="#AAB2B0" fill-opacity="0.25"/>
<path d="M45.4713 191.157H160.337V206.802H45.4713V191.157Z" fill="#AAB2B0" fill-opacity="0.25"/>
<path d="M168.532 191.157H176.738V269.38H168.532V191.157Z" fill="#AAB2B0" fill-opacity="0.25"/>
<path d="M184.955 191.157H193.16V269.38H184.955V191.157Z" fill="#AAB2B0" fill-opacity="0.25"/>
<path d="M201.356 191.157H209.562V269.38H201.356V191.157Z" fill="#AAB2B0" fill-opacity="0.25"/>
<path d="M78.2844 159.872H209.562V175.517H78.2844V159.872Z" fill="#AAB2B0" fill-opacity="0.25"/>
<path d="M61.8776 112.94H70.0781V175.52H61.8776V112.94Z" fill="#AAB2B0" fill-opacity="0.25"/>
<path d="M45.466 112.94H53.6665V175.52H45.466V112.94Z" fill="#AAB2B0" fill-opacity="0.25"/>
<path d="M78.2844 128.578H209.562V144.223H78.2844V128.578Z" fill="#AAB2B0" fill-opacity="0.25"/>
<path d="M78.2844 97.2936H209.562V112.938H78.2844V97.2936Z" fill="#AAB2B0" fill-opacity="0.25"/>
<path d="M53.672 97.2936H61.8726V112.938H53.672V97.2936Z" fill="#AAB2B0" fill-opacity="0.25"/>
<path d="M53.672 3.42075H61.8726V81.6446H53.672V3.42075Z" fill="#AAB2B0" fill-opacity="0.25"/>
<path d="M70.0836 3.42075H78.2893V81.6446H70.0836V3.42075Z" fill="#AAB2B0" fill-opacity="0.25"/>
<path d="M86.4954 65.9993H94.7012V81.6441H86.4954V65.9993Z" fill="#AAB2B0" fill-opacity="0.25"/>
<path d="M86.4954 34.7151H94.7012V50.3598H86.4954V34.7151Z" fill="#AAB2B0" fill-opacity="0.25"/>
<path d="M86.4954 3.42075H94.7012V19.0655H86.4954V3.42075Z" fill="#AAB2B0" fill-opacity="0.25"/>
<path d="M94.7013 19.0679H102.907V34.7126H94.7013V19.0679Z" fill="#AAB2B0" fill-opacity="0.25"/>
<path d="M94.7013 50.3522H102.907V65.997H94.7013V50.3522Z" fill="#AAB2B0" fill-opacity="0.25"/>
<path d="M102.907 65.9993H111.113V81.6441H102.907V65.9993Z" fill="#AAB2B0" fill-opacity="0.25"/>
<path d="M102.907 34.7151H111.113V50.3598H102.907V34.7151Z" fill="#AAB2B0" fill-opacity="0.25"/>
<path d="M102.907 3.42075H111.113V19.0655H102.907V3.42075Z" fill="#AAB2B0" fill-opacity="0.25"/>
<path d="M111.102 19.0679H209.562V34.7126H111.102V19.0679Z" fill="#AAB2B0" fill-opacity="0.25"/>
<path d="M160.332 65.997H111.102V50.3522H160.332V65.997H209.562V81.6418H160.332V65.997Z" fill="#AAB2B0" fill-opacity="0.25"/>
<path d="M742.865 316.316H734.66V253.737H726.454V191.158H718.248V65.9998H726.454V3.42075H734.66V65.9998H726.454V191.158H734.66V253.737H742.865V191.158H734.66V65.9998H742.865V191.158H751.066V253.737H759.272V316.316H751.066V253.737H742.865V316.316Z" fill="#AAB2B0" fill-opacity="0.25"/>
<path d="M767.483 191.158H775.683V253.737H767.483V191.158H759.277V65.9993H767.483V191.158Z" fill="#AAB2B0" fill-opacity="0.25"/>
<path d="M808.496 65.9997V191.158H800.296V65.9997H792.09V3.42075H800.296V65.9997H808.496Z" fill="#AAB2B0" fill-opacity="0.25"/>
<path d="M833.114 65.9997V191.158V206.803H824.913V222.448H816.707V206.803H824.913V191.158V65.9997H816.707V3.42075H824.913V65.9997H833.114Z" fill="#AAB2B0" fill-opacity="0.25"/>
<path d="M857.731 65.9998V191.158H849.53V206.803H841.325V191.158H849.53V65.9998H841.325V3.42075H849.53V65.9998H857.731Z" fill="#AAB2B0" fill-opacity="0.25"/>
<path d="M710.048 65.9998V81.6446H701.847V65.9998H710.048V3.42075H718.253V65.9998H710.048Z" fill="#AAB2B0" fill-opacity="0.25"/>
<path d="M923.372 3.42075H931.578V65.9997H923.372V3.42075Z" fill="#AAB2B0" fill-opacity="0.25"/>
<path d="M947.99 3.42075H956.195V65.9997H947.99V3.42075Z" fill="#AAB2B0" fill-opacity="0.25"/>
<path d="M988.997 65.9997V159.868H980.792V65.9997V3.42075H988.997V65.9997Z" fill="#AAB2B0" fill-opacity="0.25"/>
<path d="M865.931 222.448V206.803H874.137V191.158H865.931V65.9998H857.726V3.42075H865.931V65.9998H874.137V191.158H882.343V65.9998H874.137V3.42075H882.343V65.9998H890.549V191.158H882.343V206.803H874.137V222.448H865.931V316.316H857.726V222.448H865.931Z" fill="#AAB2B0" fill-opacity="0.25"/>
<path d="M906.95 191.158V65.9998H898.744V3.42075H906.95V65.9998H915.156V191.158H906.95V316.316H898.744V191.158H906.95Z" fill="#AAB2B0" fill-opacity="0.25"/>
<path d="M923.372 191.162V97.2936H931.578V191.162H923.372V316.32H915.166V191.162H923.372Z" fill="#AAB2B0" fill-opacity="0.25"/>
<path d="M947.99 191.162V97.2936H956.195V191.162H947.99V316.32H939.784V191.162H947.99Z" fill="#AAB2B0" fill-opacity="0.25"/>
<path d="M964.391 191.162V97.2936H972.597V191.162H964.391V316.32H956.185V191.162H964.391Z" fill="#AAB2B0" fill-opacity="0.25"/>
<path d="M997.204 191.162V159.872H1005.41V191.162H997.204V316.319H988.998V191.162H997.204Z" fill="#AAB2B0" fill-opacity="0.25"/>
<path d="M1013.62 65.9993H1021.82V159.868H1013.62V65.9993Z" fill="#AAB2B0" fill-opacity="0.25"/>
<path d="M980.792 175.51H988.997V191.154H980.792V175.51Z" fill="#AAB2B0" fill-opacity="0.25"/>
<path d="M1021.82 159.872H1030.03V175.517H1021.82V159.872Z" fill="#AAB2B0" fill-opacity="0.25"/>
<path d="M1021.82 34.7151H1030.03V66.0045H1021.82V34.7151Z" fill="#AAB2B0" fill-opacity="0.25"/>
<path d="M751.066 50.3522H759.272V65.997H751.066V50.3522Z" fill="#AAB2B0" fill-opacity="0.25"/>
<path d="M701.842 175.51H710.047V191.154H701.842V175.51Z" fill="#AAB2B0" fill-opacity="0.25"/>
<path d="M291.609 144.225H439.292V159.87H291.609V144.225Z" fill="#AAB2B0" fill-opacity="0.25"/>
<path d="M291.603 97.2936H472.11V128.583H291.603V97.2936Z" fill="#AAB2B0" fill-opacity="0.25"/>
<path d="M406.48 65.9993H537.757V81.6441H406.48V65.9993Z" fill="#AAB2B0" fill-opacity="0.25"/>
<path d="M439.298 159.872H537.757V175.517V191.162H439.298V175.517V159.872Z" fill="#AAB2B0" fill-opacity="0.25"/>
<path d="M291.604 34.7151H406.469V50.3598H291.604V34.7151Z" fill="#AAB2B0" fill-opacity="0.25"/>
<path d="M406.48 19.0679H537.757V34.7126H406.48V19.0679Z" fill="#AAB2B0" fill-opacity="0.25"/>
<path d="M258.791 50.3522H291.609V65.997H258.791V50.3522Z" fill="#AAB2B0" fill-opacity="0.25"/>
<path d="M258.791 81.6465H291.609V97.2912H258.791V81.6465Z" fill="#AAB2B0" fill-opacity="0.25"/>
<path d="M250.58 65.9993H258.786V81.6441H250.58V65.9993Z" fill="#AAB2B0" fill-opacity="0.25"/>
<path d="M225.968 81.6465H250.58V97.2912H225.968V81.6465Z" fill="#AAB2B0" fill-opacity="0.25"/>
<path d="M209.561 97.2936H225.973V112.938H209.561V97.2936Z" fill="#AAB2B0" fill-opacity="0.25"/>
<path d="M225.968 50.3522H250.58V65.997H225.968V50.3522Z" fill="#AAB2B0" fill-opacity="0.25"/>
<path d="M217.767 34.7151H225.973V50.3598H217.767V34.7151Z" fill="#AAB2B0" fill-opacity="0.25"/>
<path d="M209.562 50.3522H217.767V65.997H209.562V50.3522Z" fill="#AAB2B0" fill-opacity="0.25"/>
<path d="M225.968 19.0679H275.198V34.7126H225.968V19.0679Z" fill="#AAB2B0" fill-opacity="0.25"/>
<path d="M275.197 3.42075H291.609V19.0655H275.197V3.42075Z" fill="#AAB2B0" fill-opacity="0.25"/>
<path d="M373.657 191.157H439.292V206.802H373.657V191.157Z" fill="#AAB2B0" fill-opacity="0.25"/>
<path d="M209.561 128.578H225.973V144.223H209.561V128.578Z" fill="#AAB2B0" fill-opacity="0.25"/>
<path d="M225.968 144.225H275.198V159.87H225.968V144.225Z" fill="#AAB2B0" fill-opacity="0.25"/>
<path d="M275.197 128.578H291.609V144.223H275.197V128.578Z" fill="#AAB2B0" fill-opacity="0.25"/>
<path d="M225.968 112.94H275.198V128.585H225.968V112.94Z" fill="#AAB2B0" fill-opacity="0.25"/>
</g>
</g>
<defs>
<clipPath id="clip0_65_47">
<rect width="1030" height="200" fill="white" transform="matrix(-1 0 0 1 1030 0)"/>
</clipPath>
</defs>
</svg>
