<svg width="500" height="1083" viewBox="0 0 500 1083" fill="none" xmlns="http://www.w3.org/2000/svg">
<g opacity="0.4">
<circle opacity="0.5" cx="-478" cy="190.01" r="992" fill="url(#paint0_radial_198_202)"/>
<g filter="url(#filter0_f_198_202)">
<path d="M146.897 54.64H149.137L153.313 66H151.041L149.985 63.168H146.017L144.977 66H142.705L146.897 54.64ZM149.585 61.616L148.017 56.928L146.385 61.616H149.585ZM152.124 78.64C152.124 79.344 151.932 79.9573 151.548 80.48C151.175 81.0027 150.673 81.4133 150.044 81.712C149.415 82 148.727 82.144 147.98 82.144C147.223 82.144 146.529 81.9893 145.9 81.68C145.281 81.3707 144.785 80.9493 144.412 80.416C144.049 79.872 143.868 79.2533 143.868 78.56C143.868 78.1333 143.959 77.7493 144.14 77.408C144.321 77.056 144.545 76.7573 144.812 76.512C145.089 76.256 145.367 76.0587 145.644 75.92C145.388 75.792 145.148 75.6213 144.924 75.408C144.711 75.1947 144.54 74.9493 144.412 74.672C144.284 74.3947 144.22 74.1013 144.22 73.792C144.22 73.2907 144.332 72.8427 144.556 72.448C144.78 72.0533 145.079 71.7227 145.452 71.456C145.825 71.1787 146.231 70.976 146.668 70.848C147.116 70.7093 147.559 70.64 147.996 70.64C148.423 70.64 148.86 70.7093 149.308 70.848C149.756 70.976 150.167 71.1733 150.54 71.44C150.913 71.7067 151.212 72.0373 151.436 72.432C151.671 72.816 151.788 73.264 151.788 73.776C151.788 74.0747 151.719 74.368 151.58 74.656C151.452 74.9333 151.276 75.184 151.052 75.408C150.839 75.6213 150.593 75.792 150.316 75.92C150.625 76.08 150.919 76.288 151.196 76.544C151.473 76.8 151.697 77.104 151.868 77.456C152.039 77.808 152.124 78.2027 152.124 78.64ZM149.948 78.512C149.948 78.2347 149.895 77.9947 149.788 77.792C149.681 77.5787 149.532 77.4027 149.34 77.264C149.148 77.1147 148.935 77.0027 148.7 76.928C148.465 76.8533 148.225 76.816 147.98 76.816C147.639 76.816 147.319 76.8853 147.02 77.024C146.732 77.1627 146.497 77.36 146.316 77.616C146.135 77.872 146.044 78.1707 146.044 78.512C146.044 78.768 146.097 79.0027 146.204 79.216C146.321 79.4187 146.471 79.5947 146.652 79.744C146.844 79.8933 147.052 80.0107 147.276 80.096C147.511 80.1707 147.751 80.208 147.996 80.208C148.337 80.208 148.657 80.1333 148.956 79.984C149.255 79.8347 149.495 79.632 149.676 79.376C149.857 79.12 149.948 78.832 149.948 78.512ZM146.396 73.856C146.396 74.144 146.476 74.3893 146.636 74.592C146.796 74.7947 146.999 74.9493 147.244 75.056C147.5 75.152 147.751 75.2 147.996 75.2C148.252 75.2 148.497 75.1467 148.732 75.04C148.977 74.9333 149.18 74.784 149.34 74.592C149.511 74.3893 149.596 74.1387 149.596 73.84C149.596 73.5733 149.521 73.344 149.372 73.152C149.223 72.96 149.025 72.8107 148.78 72.704C148.545 72.5973 148.279 72.544 147.98 72.544C147.703 72.544 147.441 72.5973 147.196 72.704C146.951 72.8107 146.753 72.9653 146.604 73.168C146.465 73.36 146.396 73.5893 146.396 73.856ZM149.635 94.224C150.083 94.2987 150.472 94.4693 150.803 94.736C151.134 94.992 151.39 95.3227 151.571 95.728C151.763 96.1333 151.859 96.5813 151.859 97.072C151.859 97.7333 151.688 98.3093 151.347 98.8C151.006 99.2907 150.52 99.6693 149.891 99.936C149.272 100.213 148.542 100.352 147.699 100.352C146.888 100.352 146.168 100.219 145.539 99.952C144.92 99.696 144.403 99.3173 143.987 98.816L145.203 97.296C145.48 97.6373 145.811 97.904 146.195 98.096C146.59 98.2987 147.07 98.4 147.635 98.4C148.286 98.4 148.782 98.2667 149.123 98C149.464 97.744 149.635 97.3547 149.635 96.832C149.635 96.2773 149.438 95.8507 149.043 95.552C148.648 95.2533 148.051 95.104 147.251 95.104H146.803V93.504H147.299C147.95 93.504 148.456 93.3547 148.819 93.056C149.192 92.7573 149.379 92.384 149.379 91.936C149.379 91.648 149.31 91.408 149.171 91.216C149.032 91.024 148.84 90.88 148.595 90.784C148.36 90.688 148.083 90.64 147.763 90.64C147.283 90.64 146.846 90.752 146.451 90.976C146.056 91.2 145.736 91.5147 145.491 91.92L144.147 90.416C144.371 90.0853 144.675 89.8027 145.059 89.568C145.454 89.3227 145.902 89.1307 146.403 88.992C146.915 88.8533 147.448 88.784 148.003 88.784C148.728 88.784 149.363 88.9013 149.907 89.136C150.462 89.3707 150.894 89.7013 151.203 90.128C151.512 90.5547 151.667 91.0507 151.667 91.616C151.667 92.032 151.582 92.4267 151.411 92.8C151.24 93.1733 151 93.488 150.691 93.744C150.392 93.9893 150.04 94.1493 149.635 94.224ZM147.762 116.384C146.941 116.384 146.2 116.208 145.538 115.856C144.877 115.504 144.376 115.024 144.034 114.416L145.266 113.136C145.565 113.552 145.938 113.883 146.386 114.128C146.834 114.373 147.298 114.496 147.778 114.496C148.162 114.496 148.498 114.416 148.786 114.256C149.085 114.096 149.32 113.872 149.49 113.584C149.661 113.296 149.746 112.965 149.746 112.592C149.746 112.219 149.666 111.893 149.506 111.616C149.346 111.339 149.128 111.125 148.85 110.976C148.573 110.816 148.258 110.736 147.906 110.736C147.554 110.736 147.224 110.816 146.914 110.976C146.616 111.125 146.376 111.344 146.194 111.632H144.322L145.634 104.864H151.234V106.816H147.186L146.722 109.36C146.861 109.232 147.053 109.125 147.298 109.04C147.544 108.944 147.848 108.896 148.21 108.896C148.925 108.896 149.565 109.051 150.13 109.36C150.696 109.669 151.138 110.101 151.458 110.656C151.778 111.2 151.938 111.829 151.938 112.544C151.938 113.301 151.757 113.968 151.394 114.544C151.032 115.131 150.536 115.584 149.906 115.904C149.277 116.224 148.562 116.384 147.762 116.384ZM143.012 124.24C143.012 123.547 143.134 122.869 143.38 122.208C143.636 121.536 144.004 120.928 144.484 120.384C144.964 119.829 145.55 119.392 146.244 119.072C146.937 118.741 147.726 118.576 148.612 118.576C149.657 118.576 150.558 118.805 151.316 119.264C152.084 119.723 152.654 120.32 153.028 121.056L151.332 122.224C151.14 121.797 150.889 121.461 150.58 121.216C150.27 120.96 149.94 120.784 149.588 120.688C149.236 120.581 148.889 120.528 148.548 120.528C147.993 120.528 147.508 120.64 147.092 120.864C146.686 121.088 146.345 121.381 146.068 121.744C145.79 122.107 145.582 122.512 145.444 122.96C145.316 123.408 145.252 123.856 145.252 124.304C145.252 124.805 145.332 125.291 145.492 125.76C145.652 126.219 145.876 126.629 146.164 126.992C146.462 127.344 146.814 127.627 147.22 127.84C147.636 128.043 148.089 128.144 148.58 128.144C148.932 128.144 149.289 128.085 149.652 127.968C150.014 127.851 150.35 127.664 150.66 127.408C150.969 127.152 151.209 126.821 151.38 126.416L153.188 127.456C152.964 128.021 152.596 128.501 152.084 128.896C151.582 129.291 151.017 129.589 150.388 129.792C149.758 129.995 149.134 130.096 148.516 130.096C147.705 130.096 146.964 129.931 146.292 129.6C145.62 129.259 145.038 128.811 144.548 128.256C144.068 127.691 143.689 127.061 143.412 126.368C143.145 125.664 143.012 124.955 143.012 124.24ZM152.267 144.064V146H144.379V134.64H152.123V136.576H146.587V139.312H151.371V141.104H146.587V144.064H152.267ZM148.422 164.032V161.648H143.75V159.744L149.11 152.864H150.566V159.728H151.974V161.648H150.566V164.032H148.422ZM145.894 159.728H148.662V156.112L145.894 159.728ZM146.897 166.64H149.137L153.313 178H151.041L149.985 175.168H146.017L144.977 178H142.705L146.897 166.64ZM149.585 173.616L148.017 168.928L146.385 173.616H149.585ZM152.213 190.208C152.213 189.493 152.037 188.853 151.685 188.288C151.343 187.712 150.874 187.259 150.277 186.928C149.679 186.587 149.002 186.416 148.245 186.416C147.893 186.416 147.562 186.469 147.253 186.576C146.943 186.672 146.671 186.816 146.437 187.008C146.202 187.189 146.01 187.408 145.861 187.664C145.882 186.981 145.989 186.4 146.181 185.92C146.373 185.429 146.645 185.056 146.997 184.8C147.349 184.544 147.765 184.416 148.245 184.416C148.714 184.416 149.151 184.533 149.557 184.768C149.962 184.992 150.293 185.301 150.549 185.696L151.781 184.352C151.365 183.776 150.853 183.333 150.245 183.024C149.647 182.715 148.991 182.56 148.277 182.56C147.381 182.56 146.602 182.805 145.941 183.296C145.279 183.776 144.767 184.496 144.405 185.456C144.053 186.405 143.877 187.568 143.877 188.944C143.877 190.032 144.047 190.965 144.389 191.744C144.73 192.523 145.21 193.12 145.829 193.536C146.458 193.952 147.199 194.16 148.053 194.16C148.842 194.16 149.546 193.984 150.165 193.632C150.794 193.28 151.29 192.805 151.653 192.208C152.026 191.611 152.213 190.944 152.213 190.208ZM148.053 192.352C147.69 192.352 147.349 192.256 147.029 192.064C146.709 191.861 146.453 191.6 146.261 191.28C146.069 190.949 145.973 190.592 145.973 190.208C145.973 189.824 146.063 189.477 146.245 189.168C146.437 188.848 146.693 188.597 147.013 188.416C147.333 188.224 147.685 188.128 148.069 188.128C148.453 188.128 148.799 188.224 149.109 188.416C149.429 188.597 149.685 188.848 149.877 189.168C150.069 189.477 150.165 189.824 150.165 190.208C150.165 190.592 150.069 190.949 149.877 191.28C149.685 191.6 149.429 191.861 149.109 192.064C148.789 192.256 148.437 192.352 148.053 192.352ZM152.899 207.072C152.899 207.712 152.733 208.251 152.403 208.688C152.072 209.115 151.624 209.44 151.059 209.664C150.504 209.888 149.896 210 149.235 210H143.747V198.64H149.827C150.36 198.64 150.819 198.784 151.203 199.072C151.597 199.349 151.896 199.712 152.099 200.16C152.312 200.597 152.419 201.056 152.419 201.536C152.419 202.08 152.28 202.597 152.003 203.088C151.725 203.579 151.32 203.941 150.786 204.176C151.437 204.368 151.949 204.715 152.323 205.216C152.707 205.717 152.899 206.336 152.899 207.072ZM150.675 206.656C150.675 206.368 150.616 206.112 150.499 205.888C150.381 205.653 150.221 205.472 150.019 205.344C149.827 205.205 149.603 205.136 149.347 205.136H145.955V208.128H149.235C149.501 208.128 149.741 208.064 149.955 207.936C150.179 207.797 150.355 207.616 150.483 207.392C150.611 207.168 150.675 206.923 150.675 206.656ZM145.955 200.528V203.392H148.899C149.144 203.392 149.368 203.333 149.571 203.216C149.773 203.099 149.933 202.933 150.051 202.72C150.179 202.507 150.243 202.251 150.243 201.952C150.243 201.664 150.184 201.413 150.067 201.2C149.96 200.987 149.811 200.821 149.619 200.704C149.437 200.587 149.229 200.528 148.995 200.528H145.955ZM143.012 220.24C143.012 219.547 143.134 218.869 143.38 218.208C143.636 217.536 144.004 216.928 144.484 216.384C144.964 215.829 145.55 215.392 146.244 215.072C146.937 214.741 147.726 214.576 148.612 214.576C149.657 214.576 150.558 214.805 151.316 215.264C152.084 215.723 152.654 216.32 153.028 217.056L151.332 218.224C151.14 217.797 150.889 217.461 150.58 217.216C150.27 216.96 149.94 216.784 149.588 216.688C149.236 216.581 148.889 216.528 148.548 216.528C147.993 216.528 147.508 216.64 147.092 216.864C146.686 217.088 146.345 217.381 146.068 217.744C145.79 218.107 145.582 218.512 145.444 218.96C145.316 219.408 145.252 219.856 145.252 220.304C145.252 220.805 145.332 221.291 145.492 221.76C145.652 222.219 145.876 222.629 146.164 222.992C146.462 223.344 146.814 223.627 147.22 223.84C147.636 224.043 148.089 224.144 148.58 224.144C148.932 224.144 149.289 224.085 149.652 223.968C150.014 223.851 150.35 223.664 150.66 223.408C150.969 223.152 151.209 222.821 151.38 222.416L153.188 223.456C152.964 224.021 152.596 224.501 152.084 224.896C151.582 225.291 151.017 225.589 150.388 225.792C149.758 225.995 149.134 226.096 148.516 226.096C147.705 226.096 146.964 225.931 146.292 225.6C145.62 225.259 145.038 224.811 144.548 224.256C144.068 223.691 143.689 223.061 143.412 222.368C143.145 221.664 143.012 220.955 143.012 220.24ZM152.124 238.64C152.124 239.344 151.932 239.957 151.548 240.48C151.175 241.003 150.673 241.413 150.044 241.712C149.415 242 148.727 242.144 147.98 242.144C147.223 242.144 146.529 241.989 145.9 241.68C145.281 241.371 144.785 240.949 144.412 240.416C144.049 239.872 143.868 239.253 143.868 238.56C143.868 238.133 143.959 237.749 144.14 237.408C144.321 237.056 144.545 236.757 144.812 236.512C145.089 236.256 145.367 236.059 145.644 235.92C145.388 235.792 145.148 235.621 144.924 235.408C144.711 235.195 144.54 234.949 144.412 234.672C144.284 234.395 144.22 234.101 144.22 233.792C144.22 233.291 144.332 232.843 144.556 232.448C144.78 232.053 145.079 231.723 145.452 231.456C145.825 231.179 146.231 230.976 146.668 230.848C147.116 230.709 147.559 230.64 147.996 230.64C148.423 230.64 148.86 230.709 149.308 230.848C149.756 230.976 150.167 231.173 150.54 231.44C150.913 231.707 151.212 232.037 151.436 232.432C151.671 232.816 151.788 233.264 151.788 233.776C151.788 234.075 151.719 234.368 151.58 234.656C151.452 234.933 151.276 235.184 151.052 235.408C150.839 235.621 150.593 235.792 150.316 235.92C150.625 236.08 150.919 236.288 151.196 236.544C151.473 236.8 151.697 237.104 151.868 237.456C152.039 237.808 152.124 238.203 152.124 238.64ZM149.948 238.512C149.948 238.235 149.895 237.995 149.788 237.792C149.681 237.579 149.532 237.403 149.34 237.264C149.148 237.115 148.935 237.003 148.7 236.928C148.465 236.853 148.225 236.816 147.98 236.816C147.639 236.816 147.319 236.885 147.02 237.024C146.732 237.163 146.497 237.36 146.316 237.616C146.135 237.872 146.044 238.171 146.044 238.512C146.044 238.768 146.097 239.003 146.204 239.216C146.321 239.419 146.471 239.595 146.652 239.744C146.844 239.893 147.052 240.011 147.276 240.096C147.511 240.171 147.751 240.208 147.996 240.208C148.337 240.208 148.657 240.133 148.956 239.984C149.255 239.835 149.495 239.632 149.676 239.376C149.857 239.12 149.948 238.832 149.948 238.512ZM146.396 233.856C146.396 234.144 146.476 234.389 146.636 234.592C146.796 234.795 146.999 234.949 147.244 235.056C147.5 235.152 147.751 235.2 147.996 235.2C148.252 235.2 148.497 235.147 148.732 235.04C148.977 234.933 149.18 234.784 149.34 234.592C149.511 234.389 149.596 234.139 149.596 233.84C149.596 233.573 149.521 233.344 149.372 233.152C149.223 232.96 149.025 232.811 148.78 232.704C148.545 232.597 148.279 232.544 147.98 232.544C147.703 232.544 147.441 232.597 147.196 232.704C146.951 232.811 146.753 232.965 146.604 233.168C146.465 233.36 146.396 233.589 146.396 233.856ZM151.567 256.064V258H145.071V256.064H147.343V251.216C147.247 251.344 147.098 251.477 146.895 251.616C146.692 251.744 146.463 251.867 146.207 251.984C145.951 252.101 145.695 252.197 145.439 252.272C145.183 252.347 144.954 252.384 144.751 252.384V250.384C144.943 250.384 145.172 250.325 145.439 250.208C145.716 250.08 145.988 249.931 146.255 249.76C146.532 249.589 146.767 249.424 146.959 249.264C147.162 249.093 147.29 248.96 147.343 248.864H149.535V256.064H151.567ZM152.126 269.312C152.126 270.251 151.945 271.088 151.582 271.824C151.23 272.549 150.739 273.12 150.11 273.536C149.491 273.952 148.787 274.16 147.998 274.16C147.209 274.16 146.499 273.952 145.87 273.536C145.251 273.12 144.761 272.549 144.398 271.824C144.046 271.088 143.87 270.251 143.87 269.312C143.87 268.373 144.046 267.541 144.398 266.816C144.761 266.08 145.251 265.504 145.87 265.088C146.499 264.661 147.209 264.448 147.998 264.448C148.787 264.448 149.491 264.661 150.11 265.088C150.739 265.504 151.23 266.08 151.582 266.816C151.945 267.541 152.126 268.373 152.126 269.312ZM149.966 269.312C149.966 268.736 149.881 268.235 149.71 267.808C149.55 267.371 149.321 267.029 149.022 266.784C148.723 266.539 148.382 266.416 147.998 266.416C147.603 266.416 147.257 266.539 146.958 266.784C146.659 267.029 146.425 267.371 146.254 267.808C146.094 268.235 146.014 268.736 146.014 269.312C146.014 269.888 146.094 270.389 146.254 270.816C146.425 271.243 146.659 271.579 146.958 271.824C147.257 272.069 147.603 272.192 147.998 272.192C148.382 272.192 148.718 272.069 149.006 271.824C149.305 271.579 149.539 271.243 149.71 270.816C149.881 270.379 149.966 269.877 149.966 269.312ZM143.012 284.24C143.012 283.547 143.134 282.869 143.38 282.208C143.636 281.536 144.004 280.928 144.484 280.384C144.964 279.829 145.55 279.392 146.244 279.072C146.937 278.741 147.726 278.576 148.612 278.576C149.657 278.576 150.558 278.805 151.316 279.264C152.084 279.723 152.654 280.32 153.028 281.056L151.332 282.224C151.14 281.797 150.889 281.461 150.58 281.216C150.27 280.96 149.94 280.784 149.588 280.688C149.236 280.581 148.889 280.528 148.548 280.528C147.993 280.528 147.508 280.64 147.092 280.864C146.686 281.088 146.345 281.381 146.068 281.744C145.79 282.107 145.582 282.512 145.444 282.96C145.316 283.408 145.252 283.856 145.252 284.304C145.252 284.805 145.332 285.291 145.492 285.76C145.652 286.219 145.876 286.629 146.164 286.992C146.462 287.344 146.814 287.627 147.22 287.84C147.636 288.043 148.089 288.144 148.58 288.144C148.932 288.144 149.289 288.085 149.652 287.968C150.014 287.851 150.35 287.664 150.66 287.408C150.969 287.152 151.209 286.821 151.38 286.416L153.188 287.456C152.964 288.021 152.596 288.501 152.084 288.896C151.582 289.291 151.017 289.589 150.388 289.792C149.758 289.995 149.134 290.096 148.516 290.096C147.705 290.096 146.964 289.931 146.292 289.6C145.62 289.259 145.038 288.811 144.548 288.256C144.068 287.691 143.689 287.061 143.412 286.368C143.145 285.664 143.012 284.955 143.012 284.24ZM146.897 294.64H149.137L153.313 306H151.041L149.985 303.168H146.017L144.977 306H142.705L146.897 294.64ZM149.585 301.616L148.017 296.928L146.385 301.616H149.585ZM148.422 324.032V321.648H143.75V319.744L149.11 312.864H150.566V319.728H151.974V321.648H150.566V324.032H148.422ZM145.894 319.728H148.662V316.112L145.894 319.728ZM152.213 334.208C152.213 333.493 152.037 332.853 151.685 332.288C151.343 331.712 150.874 331.259 150.277 330.928C149.679 330.587 149.002 330.416 148.245 330.416C147.893 330.416 147.562 330.469 147.253 330.576C146.943 330.672 146.671 330.816 146.437 331.008C146.202 331.189 146.01 331.408 145.861 331.664C145.882 330.981 145.989 330.4 146.181 329.92C146.373 329.429 146.645 329.056 146.997 328.8C147.349 328.544 147.765 328.416 148.245 328.416C148.714 328.416 149.151 328.533 149.557 328.768C149.962 328.992 150.293 329.301 150.549 329.696L151.781 328.352C151.365 327.776 150.853 327.333 150.245 327.024C149.647 326.715 148.991 326.56 148.277 326.56C147.381 326.56 146.602 326.805 145.941 327.296C145.279 327.776 144.767 328.496 144.405 329.456C144.053 330.405 143.877 331.568 143.877 332.944C143.877 334.032 144.047 334.965 144.389 335.744C144.73 336.523 145.21 337.12 145.829 337.536C146.458 337.952 147.199 338.16 148.053 338.16C148.842 338.16 149.546 337.984 150.165 337.632C150.794 337.28 151.29 336.805 151.653 336.208C152.026 335.611 152.213 334.944 152.213 334.208ZM148.053 336.352C147.69 336.352 147.349 336.256 147.029 336.064C146.709 335.861 146.453 335.6 146.261 335.28C146.069 334.949 145.973 334.592 145.973 334.208C145.973 333.824 146.063 333.477 146.245 333.168C146.437 332.848 146.693 332.597 147.013 332.416C147.333 332.224 147.685 332.128 148.069 332.128C148.453 332.128 148.799 332.224 149.109 332.416C149.429 332.597 149.685 332.848 149.877 333.168C150.069 333.477 150.165 333.824 150.165 334.208C150.165 334.592 150.069 334.949 149.877 335.28C149.685 335.6 149.429 335.861 149.109 336.064C148.789 336.256 148.437 336.352 148.053 336.352ZM144.59 354V342.64H152.222V344.576H146.798V347.504H151.31V349.296H146.798V354H144.59Z" fill="url(#paint1_linear_198_202)"/>
</g>
<g filter="url(#filter1_f_198_202)">
<path d="M230.035 362.06H231.995L235.649 372H233.661L232.737 369.522H229.265L228.355 372H226.367L230.035 362.06ZM232.387 368.164L231.015 364.062L229.587 368.164H232.387ZM234.609 383.06C234.609 383.676 234.441 384.213 234.105 384.67C233.778 385.127 233.339 385.487 232.789 385.748C232.238 386 231.636 386.126 230.983 386.126C230.32 386.126 229.713 385.991 229.163 385.72C228.621 385.449 228.187 385.081 227.861 384.614C227.543 384.138 227.385 383.597 227.385 382.99C227.385 382.617 227.464 382.281 227.623 381.982C227.781 381.674 227.977 381.413 228.211 381.198C228.453 380.974 228.696 380.801 228.939 380.68C228.715 380.568 228.505 380.419 228.309 380.232C228.122 380.045 227.973 379.831 227.861 379.588C227.749 379.345 227.693 379.089 227.693 378.818C227.693 378.379 227.791 377.987 227.987 377.642C228.183 377.297 228.444 377.007 228.771 376.774C229.097 376.531 229.452 376.354 229.835 376.242C230.227 376.121 230.614 376.06 230.997 376.06C231.37 376.06 231.753 376.121 232.145 376.242C232.537 376.354 232.896 376.527 233.223 376.76C233.549 376.993 233.811 377.283 234.007 377.628C234.212 377.964 234.315 378.356 234.315 378.804C234.315 379.065 234.254 379.322 234.133 379.574C234.021 379.817 233.867 380.036 233.671 380.232C233.484 380.419 233.269 380.568 233.027 380.68C233.297 380.82 233.554 381.002 233.797 381.226C234.039 381.45 234.235 381.716 234.385 382.024C234.534 382.332 234.609 382.677 234.609 383.06ZM232.705 382.948C232.705 382.705 232.658 382.495 232.565 382.318C232.471 382.131 232.341 381.977 232.173 381.856C232.005 381.725 231.818 381.627 231.613 381.562C231.407 381.497 231.197 381.464 230.983 381.464C230.684 381.464 230.404 381.525 230.143 381.646C229.891 381.767 229.685 381.94 229.527 382.164C229.368 382.388 229.289 382.649 229.289 382.948C229.289 383.172 229.335 383.377 229.429 383.564C229.531 383.741 229.662 383.895 229.821 384.026C229.989 384.157 230.171 384.259 230.367 384.334C230.572 384.399 230.782 384.432 230.997 384.432C231.295 384.432 231.575 384.367 231.837 384.236C232.098 384.105 232.308 383.928 232.467 383.704C232.625 383.48 232.705 383.228 232.705 382.948ZM229.597 378.874C229.597 379.126 229.667 379.341 229.807 379.518C229.947 379.695 230.124 379.831 230.339 379.924C230.563 380.008 230.782 380.05 230.997 380.05C231.221 380.05 231.435 380.003 231.641 379.91C231.855 379.817 232.033 379.686 232.173 379.518C232.322 379.341 232.397 379.121 232.397 378.86C232.397 378.627 232.331 378.426 232.201 378.258C232.07 378.09 231.897 377.959 231.683 377.866C231.477 377.773 231.244 377.726 230.983 377.726C230.74 377.726 230.511 377.773 230.297 377.866C230.082 377.959 229.909 378.095 229.779 378.272C229.657 378.44 229.597 378.641 229.597 378.874ZM232.431 396.696C232.823 396.761 233.163 396.911 233.453 397.144C233.742 397.368 233.966 397.657 234.125 398.012C234.293 398.367 234.377 398.759 234.377 399.188C234.377 399.767 234.227 400.271 233.929 400.7C233.63 401.129 233.205 401.461 232.655 401.694C232.113 401.937 231.474 402.058 230.737 402.058C230.027 402.058 229.397 401.941 228.847 401.708C228.305 401.484 227.853 401.153 227.489 400.714L228.553 399.384C228.795 399.683 229.085 399.916 229.421 400.084C229.766 400.261 230.186 400.35 230.681 400.35C231.25 400.35 231.684 400.233 231.983 400C232.281 399.776 232.431 399.435 232.431 398.978C232.431 398.493 232.258 398.119 231.913 397.858C231.567 397.597 231.045 397.466 230.345 397.466H229.953V396.066H230.387C230.956 396.066 231.399 395.935 231.717 395.674C232.043 395.413 232.207 395.086 232.207 394.694C232.207 394.442 232.146 394.232 232.025 394.064C231.903 393.896 231.735 393.77 231.521 393.686C231.315 393.602 231.073 393.56 230.793 393.56C230.373 393.56 229.99 393.658 229.645 393.854C229.299 394.05 229.019 394.325 228.805 394.68L227.629 393.364C227.825 393.075 228.091 392.827 228.427 392.622C228.772 392.407 229.164 392.239 229.603 392.118C230.051 391.997 230.517 391.936 231.003 391.936C231.637 391.936 232.193 392.039 232.669 392.244C233.154 392.449 233.532 392.739 233.803 393.112C234.073 393.485 234.209 393.919 234.209 394.414C234.209 394.778 234.134 395.123 233.985 395.45C233.835 395.777 233.625 396.052 233.355 396.276C233.093 396.491 232.785 396.631 232.431 396.696ZM230.792 416.086C230.073 416.086 229.425 415.932 228.846 415.624C228.267 415.316 227.829 414.896 227.53 414.364L228.608 413.244C228.869 413.608 229.196 413.897 229.588 414.112C229.98 414.327 230.386 414.434 230.806 414.434C231.142 414.434 231.436 414.364 231.688 414.224C231.949 414.084 232.155 413.888 232.304 413.636C232.453 413.384 232.528 413.095 232.528 412.768C232.528 412.441 232.458 412.157 232.318 411.914C232.178 411.671 231.987 411.485 231.744 411.354C231.501 411.214 231.226 411.144 230.918 411.144C230.61 411.144 230.321 411.214 230.05 411.354C229.789 411.485 229.579 411.676 229.42 411.928H227.782L228.93 406.006H233.83V407.714H230.288L229.882 409.94C230.003 409.828 230.171 409.735 230.386 409.66C230.601 409.576 230.867 409.534 231.184 409.534C231.809 409.534 232.369 409.669 232.864 409.94C233.359 410.211 233.746 410.589 234.026 411.074C234.306 411.55 234.446 412.101 234.446 412.726C234.446 413.389 234.287 413.972 233.97 414.476C233.653 414.989 233.219 415.386 232.668 415.666C232.117 415.946 231.492 416.086 230.792 416.086ZM226.635 422.96C226.635 422.353 226.743 421.761 226.957 421.182C227.181 420.594 227.503 420.062 227.923 419.586C228.343 419.101 228.857 418.718 229.463 418.438C230.07 418.149 230.761 418.004 231.535 418.004C232.45 418.004 233.239 418.205 233.901 418.606C234.573 419.007 235.073 419.53 235.399 420.174L233.915 421.196C233.747 420.823 233.528 420.529 233.257 420.314C232.987 420.09 232.697 419.936 232.389 419.852C232.081 419.759 231.778 419.712 231.479 419.712C230.994 419.712 230.569 419.81 230.205 420.006C229.851 420.202 229.552 420.459 229.309 420.776C229.067 421.093 228.885 421.448 228.763 421.84C228.651 422.232 228.595 422.624 228.595 423.016C228.595 423.455 228.665 423.879 228.805 424.29C228.945 424.691 229.141 425.051 229.393 425.368C229.655 425.676 229.963 425.923 230.317 426.11C230.681 426.287 231.078 426.376 231.507 426.376C231.815 426.376 232.128 426.325 232.445 426.222C232.763 426.119 233.057 425.956 233.327 425.732C233.598 425.508 233.808 425.219 233.957 424.864L235.539 425.774C235.343 426.269 235.021 426.689 234.573 427.034C234.135 427.379 233.64 427.641 233.089 427.818C232.539 427.995 231.993 428.084 231.451 428.084C230.742 428.084 230.093 427.939 229.505 427.65C228.917 427.351 228.409 426.959 227.979 426.474C227.559 425.979 227.228 425.429 226.985 424.822C226.752 424.206 226.635 423.585 226.635 422.96ZM234.734 440.306V442H227.832V432.06H234.608V433.754H229.764V436.148H233.95V437.716H229.764V440.306H234.734ZM231.369 457.778V455.692H227.281V454.026L231.971 448.006H233.245V454.012H234.477V455.692H233.245V457.778H231.369ZM229.157 454.012H231.579V450.848L229.157 454.012ZM230.035 460.06H231.995L235.649 470H233.661L232.737 467.522H229.265L228.355 470H226.367L230.035 460.06ZM232.387 466.164L231.015 462.062L229.587 466.164H232.387ZM234.686 480.682C234.686 480.057 234.532 479.497 234.224 479.002C233.925 478.498 233.515 478.101 232.992 477.812C232.469 477.513 231.877 477.364 231.214 477.364C230.906 477.364 230.617 477.411 230.346 477.504C230.075 477.588 229.837 477.714 229.632 477.882C229.427 478.041 229.259 478.232 229.128 478.456C229.147 477.859 229.24 477.35 229.408 476.93C229.576 476.501 229.814 476.174 230.122 475.95C230.43 475.726 230.794 475.614 231.214 475.614C231.625 475.614 232.007 475.717 232.362 475.922C232.717 476.118 233.006 476.389 233.23 476.734L234.308 475.558C233.944 475.054 233.496 474.667 232.964 474.396C232.441 474.125 231.867 473.99 231.242 473.99C230.458 473.99 229.777 474.205 229.198 474.634C228.619 475.054 228.171 475.684 227.854 476.524C227.546 477.355 227.392 478.372 227.392 479.576C227.392 480.528 227.541 481.345 227.84 482.026C228.139 482.707 228.559 483.23 229.1 483.594C229.651 483.958 230.299 484.14 231.046 484.14C231.737 484.14 232.353 483.986 232.894 483.678C233.445 483.37 233.879 482.955 234.196 482.432C234.523 481.909 234.686 481.326 234.686 480.682ZM231.046 482.558C230.729 482.558 230.43 482.474 230.15 482.306C229.87 482.129 229.646 481.9 229.478 481.62C229.31 481.331 229.226 481.018 229.226 480.682C229.226 480.346 229.305 480.043 229.464 479.772C229.632 479.492 229.856 479.273 230.136 479.114C230.416 478.946 230.724 478.862 231.06 478.862C231.396 478.862 231.699 478.946 231.97 479.114C232.25 479.273 232.474 479.492 232.642 479.772C232.81 480.043 232.894 480.346 232.894 480.682C232.894 481.018 232.81 481.331 232.642 481.62C232.474 481.9 232.25 482.129 231.97 482.306C231.69 482.474 231.382 482.558 231.046 482.558ZM235.286 495.438C235.286 495.998 235.142 496.469 234.852 496.852C234.563 497.225 234.171 497.51 233.676 497.706C233.191 497.902 232.659 498 232.08 498H227.278V488.06H232.598C233.065 488.06 233.466 488.186 233.802 488.438C234.148 488.681 234.409 488.998 234.586 489.39C234.773 489.773 234.866 490.174 234.866 490.594C234.866 491.07 234.745 491.523 234.502 491.952C234.26 492.381 233.905 492.699 233.438 492.904C234.008 493.072 234.456 493.375 234.782 493.814C235.118 494.253 235.286 494.794 235.286 495.438ZM233.34 495.074C233.34 494.822 233.289 494.598 233.186 494.402C233.084 494.197 232.944 494.038 232.766 493.926C232.598 493.805 232.402 493.744 232.178 493.744H229.21V496.362H232.08C232.314 496.362 232.524 496.306 232.71 496.194C232.906 496.073 233.06 495.914 233.172 495.718C233.284 495.522 233.34 495.307 233.34 495.074ZM229.21 489.712V492.218H231.786C232.001 492.218 232.197 492.167 232.374 492.064C232.552 491.961 232.692 491.817 232.794 491.63C232.906 491.443 232.962 491.219 232.962 490.958C232.962 490.706 232.911 490.487 232.808 490.3C232.715 490.113 232.584 489.969 232.416 489.866C232.258 489.763 232.076 489.712 231.87 489.712H229.21ZM226.635 506.96C226.635 506.353 226.743 505.761 226.957 505.182C227.181 504.594 227.503 504.062 227.923 503.586C228.343 503.101 228.857 502.718 229.463 502.438C230.07 502.149 230.761 502.004 231.535 502.004C232.45 502.004 233.239 502.205 233.901 502.606C234.573 503.007 235.073 503.53 235.399 504.174L233.915 505.196C233.747 504.823 233.528 504.529 233.257 504.314C232.987 504.09 232.697 503.936 232.389 503.852C232.081 503.759 231.778 503.712 231.479 503.712C230.994 503.712 230.569 503.81 230.205 504.006C229.851 504.202 229.552 504.459 229.309 504.776C229.067 505.093 228.885 505.448 228.763 505.84C228.651 506.232 228.595 506.624 228.595 507.016C228.595 507.455 228.665 507.879 228.805 508.29C228.945 508.691 229.141 509.051 229.393 509.368C229.655 509.676 229.963 509.923 230.317 510.11C230.681 510.287 231.078 510.376 231.507 510.376C231.815 510.376 232.128 510.325 232.445 510.222C232.763 510.119 233.057 509.956 233.327 509.732C233.598 509.508 233.808 509.219 233.957 508.864L235.539 509.774C235.343 510.269 235.021 510.689 234.573 511.034C234.135 511.379 233.64 511.641 233.089 511.818C232.539 511.995 231.993 512.084 231.451 512.084C230.742 512.084 230.093 511.939 229.505 511.65C228.917 511.351 228.409 510.959 227.979 510.474C227.559 509.979 227.228 509.429 226.985 508.822C226.752 508.206 226.635 507.585 226.635 506.96ZM234.609 523.06C234.609 523.676 234.441 524.213 234.105 524.67C233.778 525.127 233.339 525.487 232.789 525.748C232.238 526 231.636 526.126 230.983 526.126C230.32 526.126 229.713 525.991 229.163 525.72C228.621 525.449 228.187 525.081 227.861 524.614C227.543 524.138 227.385 523.597 227.385 522.99C227.385 522.617 227.464 522.281 227.623 521.982C227.781 521.674 227.977 521.413 228.211 521.198C228.453 520.974 228.696 520.801 228.939 520.68C228.715 520.568 228.505 520.419 228.309 520.232C228.122 520.045 227.973 519.831 227.861 519.588C227.749 519.345 227.693 519.089 227.693 518.818C227.693 518.379 227.791 517.987 227.987 517.642C228.183 517.297 228.444 517.007 228.771 516.774C229.097 516.531 229.452 516.354 229.835 516.242C230.227 516.121 230.614 516.06 230.997 516.06C231.37 516.06 231.753 516.121 232.145 516.242C232.537 516.354 232.896 516.527 233.223 516.76C233.549 516.993 233.811 517.283 234.007 517.628C234.212 517.964 234.315 518.356 234.315 518.804C234.315 519.065 234.254 519.322 234.133 519.574C234.021 519.817 233.867 520.036 233.671 520.232C233.484 520.419 233.269 520.568 233.027 520.68C233.297 520.82 233.554 521.002 233.797 521.226C234.039 521.45 234.235 521.716 234.385 522.024C234.534 522.332 234.609 522.677 234.609 523.06ZM232.705 522.948C232.705 522.705 232.658 522.495 232.565 522.318C232.471 522.131 232.341 521.977 232.173 521.856C232.005 521.725 231.818 521.627 231.613 521.562C231.407 521.497 231.197 521.464 230.983 521.464C230.684 521.464 230.404 521.525 230.143 521.646C229.891 521.767 229.685 521.94 229.527 522.164C229.368 522.388 229.289 522.649 229.289 522.948C229.289 523.172 229.335 523.377 229.429 523.564C229.531 523.741 229.662 523.895 229.821 524.026C229.989 524.157 230.171 524.259 230.367 524.334C230.572 524.399 230.782 524.432 230.997 524.432C231.295 524.432 231.575 524.367 231.837 524.236C232.098 524.105 232.308 523.928 232.467 523.704C232.625 523.48 232.705 523.228 232.705 522.948ZM229.597 518.874C229.597 519.126 229.667 519.341 229.807 519.518C229.947 519.695 230.124 519.831 230.339 519.924C230.563 520.008 230.782 520.05 230.997 520.05C231.221 520.05 231.435 520.003 231.641 519.91C231.855 519.817 232.033 519.686 232.173 519.518C232.322 519.341 232.397 519.121 232.397 518.86C232.397 518.627 232.331 518.426 232.201 518.258C232.07 518.09 231.897 517.959 231.683 517.866C231.477 517.773 231.244 517.726 230.983 517.726C230.74 517.726 230.511 517.773 230.297 517.866C230.082 517.959 229.909 518.095 229.779 518.272C229.657 518.44 229.597 518.641 229.597 518.874ZM234.121 538.306V540H228.437V538.306H230.425V534.064C230.341 534.176 230.21 534.293 230.033 534.414C229.856 534.526 229.655 534.633 229.431 534.736C229.207 534.839 228.983 534.923 228.759 534.988C228.535 535.053 228.334 535.086 228.157 535.086V533.336C228.325 533.336 228.526 533.285 228.759 533.182C229.002 533.07 229.24 532.939 229.473 532.79C229.716 532.641 229.921 532.496 230.089 532.356C230.266 532.207 230.378 532.09 230.425 532.006H232.343V538.306H234.121ZM234.61 549.898C234.61 550.719 234.452 551.452 234.134 552.096C233.826 552.731 233.397 553.23 232.846 553.594C232.305 553.958 231.689 554.14 230.998 554.14C230.308 554.14 229.687 553.958 229.136 553.594C228.595 553.23 228.166 552.731 227.848 552.096C227.54 551.452 227.386 550.719 227.386 549.898C227.386 549.077 227.54 548.349 227.848 547.714C228.166 547.07 228.595 546.566 229.136 546.202C229.687 545.829 230.308 545.642 230.998 545.642C231.689 545.642 232.305 545.829 232.846 546.202C233.397 546.566 233.826 547.07 234.134 547.714C234.452 548.349 234.61 549.077 234.61 549.898ZM232.72 549.898C232.72 549.394 232.646 548.955 232.496 548.582C232.356 548.199 232.156 547.901 231.894 547.686C231.633 547.471 231.334 547.364 230.998 547.364C230.653 547.364 230.35 547.471 230.088 547.686C229.827 547.901 229.622 548.199 229.472 548.582C229.332 548.955 229.262 549.394 229.262 549.898C229.262 550.402 229.332 550.841 229.472 551.214C229.622 551.587 229.827 551.881 230.088 552.096C230.35 552.311 230.653 552.418 230.998 552.418C231.334 552.418 231.628 552.311 231.88 552.096C232.142 551.881 232.347 551.587 232.496 551.214C232.646 550.831 232.72 550.393 232.72 549.898ZM226.635 562.96C226.635 562.353 226.743 561.761 226.957 561.182C227.181 560.594 227.503 560.062 227.923 559.586C228.343 559.101 228.857 558.718 229.463 558.438C230.07 558.149 230.761 558.004 231.535 558.004C232.45 558.004 233.239 558.205 233.901 558.606C234.573 559.007 235.073 559.53 235.399 560.174L233.915 561.196C233.747 560.823 233.528 560.529 233.257 560.314C232.987 560.09 232.697 559.936 232.389 559.852C232.081 559.759 231.778 559.712 231.479 559.712C230.994 559.712 230.569 559.81 230.205 560.006C229.851 560.202 229.552 560.459 229.309 560.776C229.067 561.093 228.885 561.448 228.763 561.84C228.651 562.232 228.595 562.624 228.595 563.016C228.595 563.455 228.665 563.879 228.805 564.29C228.945 564.691 229.141 565.051 229.393 565.368C229.655 565.676 229.963 565.923 230.317 566.11C230.681 566.287 231.078 566.376 231.507 566.376C231.815 566.376 232.128 566.325 232.445 566.222C232.763 566.119 233.057 565.956 233.327 565.732C233.598 565.508 233.808 565.219 233.957 564.864L235.539 565.774C235.343 566.269 235.021 566.689 234.573 567.034C234.135 567.379 233.64 567.641 233.089 567.818C232.539 567.995 231.993 568.084 231.451 568.084C230.742 568.084 230.093 567.939 229.505 567.65C228.917 567.351 228.409 566.959 227.979 566.474C227.559 565.979 227.228 565.429 226.985 564.822C226.752 564.206 226.635 563.585 226.635 562.96ZM230.035 572.06H231.995L235.649 582H233.661L232.737 579.522H229.265L228.355 582H226.367L230.035 572.06ZM232.387 578.164L231.015 574.062L229.587 578.164H232.387ZM231.369 597.778V595.692H227.281V594.026L231.971 588.006H233.245V594.012H234.477V595.692H233.245V597.778H231.369ZM229.157 594.012H231.579V590.848L229.157 594.012ZM234.686 606.682C234.686 606.057 234.532 605.497 234.224 605.002C233.925 604.498 233.515 604.101 232.992 603.812C232.469 603.513 231.877 603.364 231.214 603.364C230.906 603.364 230.617 603.411 230.346 603.504C230.075 603.588 229.837 603.714 229.632 603.882C229.427 604.041 229.259 604.232 229.128 604.456C229.147 603.859 229.24 603.35 229.408 602.93C229.576 602.501 229.814 602.174 230.122 601.95C230.43 601.726 230.794 601.614 231.214 601.614C231.625 601.614 232.007 601.717 232.362 601.922C232.717 602.118 233.006 602.389 233.23 602.734L234.308 601.558C233.944 601.054 233.496 600.667 232.964 600.396C232.441 600.125 231.867 599.99 231.242 599.99C230.458 599.99 229.777 600.205 229.198 600.634C228.619 601.054 228.171 601.684 227.854 602.524C227.546 603.355 227.392 604.372 227.392 605.576C227.392 606.528 227.541 607.345 227.84 608.026C228.139 608.707 228.559 609.23 229.1 609.594C229.651 609.958 230.299 610.14 231.046 610.14C231.737 610.14 232.353 609.986 232.894 609.678C233.445 609.37 233.879 608.955 234.196 608.432C234.523 607.909 234.686 607.326 234.686 606.682ZM231.046 608.558C230.729 608.558 230.43 608.474 230.15 608.306C229.87 608.129 229.646 607.9 229.478 607.62C229.31 607.331 229.226 607.018 229.226 606.682C229.226 606.346 229.305 606.043 229.464 605.772C229.632 605.492 229.856 605.273 230.136 605.114C230.416 604.946 230.724 604.862 231.06 604.862C231.396 604.862 231.699 604.946 231.97 605.114C232.25 605.273 232.474 605.492 232.642 605.772C232.81 606.043 232.894 606.346 232.894 606.682C232.894 607.018 232.81 607.331 232.642 607.62C232.474 607.9 232.25 608.129 231.97 608.306C231.69 608.474 231.382 608.558 231.046 608.558ZM228.016 624V614.06H234.694V615.754H229.948V618.316H233.896V619.884H229.948V624H228.016Z" fill="url(#paint2_linear_198_202)"/>
</g>
<g filter="url(#filter2_f_198_202)">
<path d="M67.6861 298.96C67.6861 300.016 67.3981 300.936 66.8221 301.72C66.2621 302.504 65.5101 303.12 64.5661 303.568C63.6221 304 62.5901 304.216 61.4701 304.216C60.3341 304.216 59.2941 303.984 58.3501 303.52C57.4221 303.056 56.6781 302.424 56.1181 301.624C55.5741 300.808 55.3021 299.88 55.3021 298.84C55.3021 298.2 55.4381 297.624 55.7101 297.112C55.9821 296.584 56.3181 296.136 56.7181 295.768C57.1341 295.384 57.5501 295.088 57.9661 294.88C57.5821 294.688 57.2221 294.432 56.8861 294.112C56.5661 293.792 56.3101 293.424 56.1181 293.008C55.9261 292.592 55.8301 292.152 55.8301 291.688C55.8301 290.936 55.9981 290.264 56.3341 289.672C56.6701 289.08 57.1181 288.584 57.6781 288.184C58.2381 287.768 58.8461 287.464 59.5021 287.272C60.1741 287.064 60.8381 286.96 61.4941 286.96C62.1341 286.96 62.7901 287.064 63.4621 287.272C64.1341 287.464 64.7501 287.76 65.3101 288.16C65.8701 288.56 66.3181 289.056 66.6541 289.648C67.0061 290.224 67.1821 290.896 67.1821 291.664C67.1821 292.112 67.0781 292.552 66.8701 292.984C66.6781 293.4 66.4141 293.776 66.0781 294.112C65.7581 294.432 65.3901 294.688 64.9741 294.88C65.4381 295.12 65.8781 295.432 66.2941 295.816C66.7101 296.2 67.0461 296.656 67.3021 297.184C67.5581 297.712 67.6861 298.304 67.6861 298.96ZM64.4221 298.768C64.4221 298.352 64.3421 297.992 64.1821 297.688C64.0221 297.368 63.7981 297.104 63.5101 296.896C63.2221 296.672 62.9021 296.504 62.5501 296.392C62.1981 296.28 61.8381 296.224 61.4701 296.224C60.9581 296.224 60.4781 296.328 60.0301 296.536C59.5981 296.744 59.2461 297.04 58.9741 297.424C58.7021 297.808 58.5661 298.256 58.5661 298.768C58.5661 299.152 58.6461 299.504 58.8061 299.824C58.9821 300.128 59.2061 300.392 59.4781 300.616C59.7661 300.84 60.0781 301.016 60.4141 301.144C60.7661 301.256 61.1261 301.312 61.4941 301.312C62.0061 301.312 62.4861 301.2 62.9341 300.976C63.3821 300.752 63.7421 300.448 64.0141 300.064C64.2861 299.68 64.4221 299.248 64.4221 298.768ZM59.0941 291.784C59.0941 292.216 59.2141 292.584 59.4541 292.888C59.6941 293.192 59.9981 293.424 60.3661 293.584C60.7501 293.728 61.1261 293.8 61.4941 293.8C61.8781 293.8 62.2461 293.72 62.5981 293.56C62.9661 293.4 63.2701 293.176 63.5101 292.888C63.7661 292.584 63.8941 292.208 63.8941 291.76C63.8941 291.36 63.7821 291.016 63.5581 290.728C63.3341 290.44 63.0381 290.216 62.6701 290.056C62.3181 289.896 61.9181 289.816 61.4701 289.816C61.0541 289.816 60.6621 289.896 60.2941 290.056C59.9261 290.216 59.6301 290.448 59.4061 290.752C59.1981 291.04 59.0941 291.384 59.0941 291.784ZM63.9526 322.336C64.6246 322.448 65.2086 322.704 65.7046 323.104C66.2006 323.488 66.5846 323.984 66.8566 324.592C67.1446 325.2 67.2886 325.872 67.2886 326.608C67.2886 327.6 67.0326 328.464 66.5206 329.2C66.0086 329.936 65.2806 330.504 64.3366 330.904C63.4086 331.32 62.3126 331.528 61.0486 331.528C59.8326 331.528 58.7526 331.328 57.8086 330.928C56.8806 330.544 56.1046 329.976 55.4806 329.224L57.3046 326.944C57.7206 327.456 58.2166 327.856 58.7926 328.144C59.3846 328.448 60.1046 328.6 60.9526 328.6C61.9286 328.6 62.6726 328.4 63.1846 328C63.6966 327.616 63.9526 327.032 63.9526 326.248C63.9526 325.416 63.6566 324.776 63.0646 324.328C62.4726 323.88 61.5766 323.656 60.3766 323.656H59.7046V321.256H60.4486C61.4246 321.256 62.1846 321.032 62.7286 320.584C63.2886 320.136 63.5686 319.576 63.5686 318.904C63.5686 318.472 63.4646 318.112 63.2566 317.824C63.0486 317.536 62.7606 317.32 62.3926 317.176C62.0406 317.032 61.6246 316.96 61.1446 316.96C60.4246 316.96 59.7686 317.128 59.1766 317.464C58.5846 317.8 58.1046 318.272 57.7366 318.88L55.7206 316.624C56.0566 316.128 56.5126 315.704 57.0886 315.352C57.6806 314.984 58.3526 314.696 59.1046 314.488C59.8726 314.28 60.6726 314.176 61.5046 314.176C62.5926 314.176 63.5446 314.352 64.3606 314.704C65.1926 315.056 65.8406 315.552 66.3046 316.192C66.7686 316.832 67.0006 317.576 67.0006 318.424C67.0006 319.048 66.8726 319.64 66.6166 320.2C66.3606 320.76 66.0006 321.232 65.5366 321.616C65.0886 321.984 64.5606 322.224 63.9526 322.336ZM61.1435 355.576C59.9115 355.576 58.7995 355.312 57.8075 354.784C56.8155 354.256 56.0635 353.536 55.5515 352.624L57.3995 350.704C57.8475 351.328 58.4075 351.824 59.0795 352.192C59.7515 352.56 60.4475 352.744 61.1675 352.744C61.7435 352.744 62.2475 352.624 62.6795 352.384C63.1275 352.144 63.4795 351.808 63.7355 351.376C63.9915 350.944 64.1195 350.448 64.1195 349.888C64.1195 349.328 63.9995 348.84 63.7595 348.424C63.5195 348.008 63.1915 347.688 62.7755 347.464C62.3595 347.224 61.8875 347.104 61.3595 347.104C60.8315 347.104 60.3355 347.224 59.8715 347.464C59.4235 347.688 59.0635 348.016 58.7915 348.448H55.9835L57.9515 338.296H66.3515V341.224H60.2795L59.5835 345.04C59.7915 344.848 60.0795 344.688 60.4475 344.56C60.8155 344.416 61.2715 344.344 61.8155 344.344C62.8875 344.344 63.8475 344.576 64.6955 345.04C65.5435 345.504 66.2075 346.152 66.6875 346.984C67.1675 347.8 67.4075 348.744 67.4075 349.816C67.4075 350.952 67.1355 351.952 66.5915 352.816C66.0475 353.696 65.3035 354.376 64.3595 354.856C63.4155 355.336 62.3435 355.576 61.1435 355.576ZM54.0174 367.36C54.0174 366.32 54.2014 365.304 54.5694 364.312C54.9534 363.304 55.5054 362.392 56.2254 361.576C56.9454 360.744 57.8254 360.088 58.8654 359.608C59.9054 359.112 61.0894 358.864 62.4174 358.864C63.9854 358.864 65.3374 359.208 66.4734 359.896C67.6254 360.584 68.4814 361.48 69.0414 362.584L66.4974 364.336C66.2094 363.696 65.8334 363.192 65.3694 362.824C64.9054 362.44 64.4094 362.176 63.8814 362.032C63.3534 361.872 62.8334 361.792 62.3214 361.792C61.4894 361.792 60.7614 361.96 60.1374 362.296C59.5294 362.632 59.0174 363.072 58.6014 363.616C58.1854 364.16 57.8734 364.768 57.6654 365.44C57.4734 366.112 57.3774 366.784 57.3774 367.456C57.3774 368.208 57.4974 368.936 57.7374 369.64C57.9774 370.328 58.3134 370.944 58.7454 371.488C59.1934 372.016 59.7214 372.44 60.3294 372.76C60.9534 373.064 61.6334 373.216 62.3694 373.216C62.8974 373.216 63.4334 373.128 63.9774 372.952C64.5214 372.776 65.0254 372.496 65.4894 372.112C65.9534 371.728 66.3134 371.232 66.5694 370.624L69.2814 372.184C68.9454 373.032 68.3934 373.752 67.6254 374.344C66.8734 374.936 66.0254 375.384 65.0814 375.688C64.1374 375.992 63.2014 376.144 62.2734 376.144C61.0574 376.144 59.9454 375.896 58.9374 375.4C57.9294 374.888 57.0574 374.216 56.3214 373.384C55.6014 372.536 55.0334 371.592 54.6174 370.552C54.2174 369.496 54.0174 368.432 54.0174 367.36ZM67.901 397.096V400H56.069V382.96H67.685V385.864H59.381V389.968H66.557V392.656H59.381V397.096H67.901ZM62.1325 427.048V423.472H55.1245V420.616L63.1645 410.296H65.3485V420.592H67.4605V423.472H65.3485V427.048H62.1325ZM58.3405 420.592H62.4925V415.168L58.3405 420.592ZM59.8455 430.96H63.2055L69.4695 448H66.0615L64.4775 443.752H58.5255L56.9655 448H53.5575L59.8455 430.96ZM63.8775 441.424L61.5255 434.392L59.0775 441.424H63.8775ZM67.8189 466.312C67.8189 465.24 67.5549 464.28 67.0269 463.432C66.5149 462.568 65.8109 461.888 64.9149 461.392C64.0189 460.88 63.0029 460.624 61.8669 460.624C61.3389 460.624 60.8429 460.704 60.3789 460.864C59.9149 461.008 59.5069 461.224 59.1549 461.512C58.8029 461.784 58.5149 462.112 58.2909 462.496C58.3229 461.472 58.4829 460.6 58.7709 459.88C59.0589 459.144 59.4669 458.584 59.9949 458.2C60.5229 457.816 61.1469 457.624 61.8669 457.624C62.5709 457.624 63.2269 457.8 63.8349 458.152C64.4429 458.488 64.9389 458.952 65.3229 459.544L67.1709 457.528C66.5469 456.664 65.7789 456 64.8669 455.536C63.9709 455.072 62.9869 454.84 61.9149 454.84C60.5709 454.84 59.4029 455.208 58.4109 455.944C57.4189 456.664 56.6509 457.744 56.1069 459.184C55.5789 460.608 55.3149 462.352 55.3149 464.416C55.3149 466.048 55.5709 467.448 56.0829 468.616C56.5949 469.784 57.3149 470.68 58.2429 471.304C59.1869 471.928 60.2989 472.24 61.5789 472.24C62.7629 472.24 63.8189 471.976 64.7469 471.448C65.6909 470.92 66.4349 470.208 66.9789 469.312C67.5389 468.416 67.8189 467.416 67.8189 466.312ZM61.5789 469.528C61.0349 469.528 60.5229 469.384 60.0429 469.096C59.5629 468.792 59.1789 468.4 58.8909 467.92C58.6029 467.424 58.4589 466.888 58.4589 466.312C58.4589 465.736 58.5949 465.216 58.8669 464.752C59.1549 464.272 59.5389 463.896 60.0189 463.624C60.4989 463.336 61.0269 463.192 61.6029 463.192C62.1789 463.192 62.6989 463.336 63.1629 463.624C63.6429 463.896 64.0269 464.272 64.3149 464.752C64.6029 465.216 64.7469 465.736 64.7469 466.312C64.7469 466.888 64.6029 467.424 64.3149 467.92C64.0269 468.4 63.6429 468.792 63.1629 469.096C62.6829 469.384 62.1549 469.528 61.5789 469.528ZM68.8478 491.608C68.8478 492.568 68.5998 493.376 68.1038 494.032C67.6078 494.672 66.9358 495.16 66.0878 495.496C65.2558 495.832 64.3438 496 63.3518 496H55.1198V478.96H64.2398C65.0398 478.96 65.7278 479.176 66.3038 479.608C66.8958 480.024 67.3438 480.568 67.6478 481.24C67.9678 481.896 68.1278 482.584 68.1278 483.304C68.1278 484.12 67.9198 484.896 67.5038 485.632C67.0878 486.368 66.4798 486.912 65.6797 487.264C66.6558 487.552 67.4238 488.072 67.9838 488.824C68.5598 489.576 68.8478 490.504 68.8478 491.608ZM65.5118 490.984C65.5118 490.552 65.4238 490.168 65.2478 489.832C65.0718 489.48 64.8318 489.208 64.5278 489.016C64.2398 488.808 63.9038 488.704 63.5198 488.704H58.4318V493.192H63.3518C63.7518 493.192 64.1118 493.096 64.4318 492.904C64.7678 492.696 65.0318 492.424 65.2238 492.088C65.4158 491.752 65.5118 491.384 65.5118 490.984ZM58.4318 481.792V486.088H62.8478C63.2158 486.088 63.5518 486 63.8558 485.824C64.1598 485.648 64.3998 485.4 64.5758 485.08C64.7678 484.76 64.8638 484.376 64.8638 483.928C64.8638 483.496 64.7758 483.12 64.5998 482.8C64.4398 482.48 64.2158 482.232 63.9278 482.056C63.6558 481.88 63.3438 481.792 62.9918 481.792H58.4318ZM54.0174 511.36C54.0174 510.32 54.2014 509.304 54.5694 508.312C54.9534 507.304 55.5054 506.392 56.2254 505.576C56.9454 504.744 57.8254 504.088 58.8654 503.608C59.9054 503.112 61.0894 502.864 62.4174 502.864C63.9854 502.864 65.3374 503.208 66.4734 503.896C67.6254 504.584 68.4814 505.48 69.0414 506.584L66.4974 508.336C66.2094 507.696 65.8334 507.192 65.3694 506.824C64.9054 506.44 64.4094 506.176 63.8814 506.032C63.3534 505.872 62.8334 505.792 62.3214 505.792C61.4894 505.792 60.7614 505.96 60.1374 506.296C59.5294 506.632 59.0174 507.072 58.6014 507.616C58.1854 508.16 57.8734 508.768 57.6654 509.44C57.4734 510.112 57.3774 510.784 57.3774 511.456C57.3774 512.208 57.4974 512.936 57.7374 513.64C57.9774 514.328 58.3134 514.944 58.7454 515.488C59.1934 516.016 59.7214 516.44 60.3294 516.76C60.9534 517.064 61.6334 517.216 62.3694 517.216C62.8974 517.216 63.4334 517.128 63.9774 516.952C64.5214 516.776 65.0254 516.496 65.4894 516.112C65.9534 515.728 66.3134 515.232 66.5694 514.624L69.2814 516.184C68.9454 517.032 68.3934 517.752 67.6254 518.344C66.8734 518.936 66.0254 519.384 65.0814 519.688C64.1374 519.992 63.2014 520.144 62.2734 520.144C61.0574 520.144 59.9454 519.896 58.9374 519.4C57.9294 518.888 57.0574 518.216 56.3214 517.384C55.6014 516.536 55.0334 515.592 54.6174 514.552C54.2174 513.496 54.0174 512.432 54.0174 511.36ZM67.6861 538.96C67.6861 540.016 67.3981 540.936 66.8221 541.72C66.2621 542.504 65.5101 543.12 64.5661 543.568C63.6221 544 62.5901 544.216 61.4701 544.216C60.3341 544.216 59.2941 543.984 58.3501 543.52C57.4221 543.056 56.6781 542.424 56.1181 541.624C55.5741 540.808 55.3021 539.88 55.3021 538.84C55.3021 538.2 55.4381 537.624 55.7101 537.112C55.9821 536.584 56.3181 536.136 56.7181 535.768C57.1341 535.384 57.5501 535.088 57.9661 534.88C57.5821 534.688 57.2221 534.432 56.8861 534.112C56.5661 533.792 56.3101 533.424 56.1181 533.008C55.9261 532.592 55.8301 532.152 55.8301 531.688C55.8301 530.936 55.9981 530.264 56.3341 529.672C56.6701 529.08 57.1181 528.584 57.6781 528.184C58.2381 527.768 58.8461 527.464 59.5021 527.272C60.1741 527.064 60.8381 526.96 61.4941 526.96C62.1341 526.96 62.7901 527.064 63.4621 527.272C64.1341 527.464 64.7501 527.76 65.3101 528.16C65.8701 528.56 66.3181 529.056 66.6541 529.648C67.0061 530.224 67.1821 530.896 67.1821 531.664C67.1821 532.112 67.0781 532.552 66.8701 532.984C66.6781 533.4 66.4141 533.776 66.0781 534.112C65.7581 534.432 65.3901 534.688 64.9741 534.88C65.4381 535.12 65.8781 535.432 66.2941 535.816C66.7101 536.2 67.0461 536.656 67.3021 537.184C67.5581 537.712 67.6861 538.304 67.6861 538.96ZM64.4221 538.768C64.4221 538.352 64.3421 537.992 64.1821 537.688C64.0221 537.368 63.7981 537.104 63.5101 536.896C63.2221 536.672 62.9021 536.504 62.5501 536.392C62.1981 536.28 61.8381 536.224 61.4701 536.224C60.9581 536.224 60.4781 536.328 60.0301 536.536C59.5981 536.744 59.2461 537.04 58.9741 537.424C58.7021 537.808 58.5661 538.256 58.5661 538.768C58.5661 539.152 58.6461 539.504 58.8061 539.824C58.9821 540.128 59.2061 540.392 59.4781 540.616C59.7661 540.84 60.0781 541.016 60.4141 541.144C60.7661 541.256 61.1261 541.312 61.4941 541.312C62.0061 541.312 62.4861 541.2 62.9341 540.976C63.3821 540.752 63.7421 540.448 64.0141 540.064C64.2861 539.68 64.4221 539.248 64.4221 538.768ZM59.0941 531.784C59.0941 532.216 59.2141 532.584 59.4541 532.888C59.6941 533.192 59.9981 533.424 60.3661 533.584C60.7501 533.728 61.1261 533.8 61.4941 533.8C61.8781 533.8 62.2461 533.72 62.5981 533.56C62.9661 533.4 63.2701 533.176 63.5101 532.888C63.7661 532.584 63.8941 532.208 63.8941 531.76C63.8941 531.36 63.7821 531.016 63.5581 530.728C63.3341 530.44 63.0381 530.216 62.6701 530.056C62.3181 529.896 61.9181 529.816 61.4701 529.816C61.0541 529.816 60.6621 529.896 60.2941 530.056C59.9261 530.216 59.6301 530.448 59.4061 530.752C59.1981 531.04 59.0941 531.384 59.0941 531.784ZM66.8503 565.096V568H57.1063V565.096H60.5143V557.824C60.3703 558.016 60.1463 558.216 59.8423 558.424C59.5383 558.616 59.1943 558.8 58.8103 558.976C58.4263 559.152 58.0423 559.296 57.6583 559.408C57.2743 559.52 56.9303 559.576 56.6263 559.576V556.576C56.9143 556.576 57.2583 556.488 57.6583 556.312C58.0743 556.12 58.4823 555.896 58.8823 555.64C59.2983 555.384 59.6503 555.136 59.9383 554.896C60.2423 554.64 60.4343 554.44 60.5143 554.296H63.8023V565.096H66.8503ZM67.6889 584.968C67.6889 586.376 67.4169 587.632 66.8729 588.736C66.3449 589.824 65.6089 590.68 64.6649 591.304C63.7369 591.928 62.6809 592.24 61.4969 592.24C60.3129 592.24 59.2489 591.928 58.3049 591.304C57.3769 590.68 56.6409 589.824 56.0969 588.736C55.5689 587.632 55.3049 586.376 55.3049 584.968C55.3049 583.56 55.5689 582.312 56.0969 581.224C56.6409 580.12 57.3769 579.256 58.3049 578.632C59.2489 577.992 60.3129 577.672 61.4969 577.672C62.6809 577.672 63.7369 577.992 64.6649 578.632C65.6089 579.256 66.3449 580.12 66.8729 581.224C67.4169 582.312 67.6889 583.56 67.6889 584.968ZM64.4489 584.968C64.4489 584.104 64.3209 583.352 64.0649 582.712C63.8249 582.056 63.4809 581.544 63.0329 581.176C62.5849 580.808 62.0729 580.624 61.4969 580.624C60.9049 580.624 60.3849 580.808 59.9369 581.176C59.4889 581.544 59.1369 582.056 58.8809 582.712C58.6409 583.352 58.5209 584.104 58.5209 584.968C58.5209 585.832 58.6409 586.584 58.8809 587.224C59.1369 587.864 59.4889 588.368 59.9369 588.736C60.3849 589.104 60.9049 589.288 61.4969 589.288C62.0729 589.288 62.5769 589.104 63.0089 588.736C63.4569 588.368 63.8089 587.864 64.0649 587.224C64.3209 586.568 64.4489 585.816 64.4489 584.968ZM54.0174 607.36C54.0174 606.32 54.2014 605.304 54.5694 604.312C54.9534 603.304 55.5054 602.392 56.2254 601.576C56.9454 600.744 57.8254 600.088 58.8654 599.608C59.9054 599.112 61.0894 598.864 62.4174 598.864C63.9854 598.864 65.3374 599.208 66.4734 599.896C67.6254 600.584 68.4814 601.48 69.0414 602.584L66.4974 604.336C66.2094 603.696 65.8334 603.192 65.3694 602.824C64.9054 602.44 64.4094 602.176 63.8814 602.032C63.3534 601.872 62.8334 601.792 62.3214 601.792C61.4894 601.792 60.7614 601.96 60.1374 602.296C59.5294 602.632 59.0174 603.072 58.6014 603.616C58.1854 604.16 57.8734 604.768 57.6654 605.44C57.4734 606.112 57.3774 606.784 57.3774 607.456C57.3774 608.208 57.4974 608.936 57.7374 609.64C57.9774 610.328 58.3134 610.944 58.7454 611.488C59.1934 612.016 59.7214 612.44 60.3294 612.76C60.9534 613.064 61.6334 613.216 62.3694 613.216C62.8974 613.216 63.4334 613.128 63.9774 612.952C64.5214 612.776 65.0254 612.496 65.4894 612.112C65.9534 611.728 66.3134 611.232 66.5694 610.624L69.2814 612.184C68.9454 613.032 68.3934 613.752 67.6254 614.344C66.8734 614.936 66.0254 615.384 65.0814 615.688C64.1374 615.992 63.2014 616.144 62.2734 616.144C61.0574 616.144 59.9454 615.896 58.9374 615.4C57.9294 614.888 57.0574 614.216 56.3214 613.384C55.6014 612.536 55.0334 611.592 54.6174 610.552C54.2174 609.496 54.0174 608.432 54.0174 607.36ZM59.8455 622.96H63.2055L69.4695 640H66.0615L64.4775 635.752H58.5255L56.9655 640H53.5575L59.8455 622.96ZM63.8775 633.424L61.5255 626.392L59.0775 633.424H63.8775ZM62.1325 667.048V663.472H55.1245V660.616L63.1645 650.296H65.3485V660.592H67.4605V663.472H65.3485V667.048H62.1325ZM58.3405 660.592H62.4925V655.168L58.3405 660.592ZM67.8189 682.312C67.8189 681.24 67.5549 680.28 67.0269 679.432C66.5149 678.568 65.8109 677.888 64.9149 677.392C64.0189 676.88 63.0029 676.624 61.8669 676.624C61.3389 676.624 60.8429 676.704 60.3789 676.864C59.9149 677.008 59.5069 677.224 59.1549 677.512C58.8029 677.784 58.5149 678.112 58.2909 678.496C58.3229 677.472 58.4829 676.6 58.7709 675.88C59.0589 675.144 59.4669 674.584 59.9949 674.2C60.5229 673.816 61.1469 673.624 61.8669 673.624C62.5709 673.624 63.2269 673.8 63.8349 674.152C64.4429 674.488 64.9389 674.952 65.3229 675.544L67.1709 673.528C66.5469 672.664 65.7789 672 64.8669 671.536C63.9709 671.072 62.9869 670.84 61.9149 670.84C60.5709 670.84 59.4029 671.208 58.4109 671.944C57.4189 672.664 56.6509 673.744 56.1069 675.184C55.5789 676.608 55.3149 678.352 55.3149 680.416C55.3149 682.048 55.5709 683.448 56.0829 684.616C56.5949 685.784 57.3149 686.68 58.2429 687.304C59.1869 687.928 60.2989 688.24 61.5789 688.24C62.7629 688.24 63.8189 687.976 64.7469 687.448C65.6909 686.92 66.4349 686.208 66.9789 685.312C67.5389 684.416 67.8189 683.416 67.8189 682.312ZM61.5789 685.528C61.0349 685.528 60.5229 685.384 60.0429 685.096C59.5629 684.792 59.1789 684.4 58.8909 683.92C58.6029 683.424 58.4589 682.888 58.4589 682.312C58.4589 681.736 58.5949 681.216 58.8669 680.752C59.1549 680.272 59.5389 679.896 60.0189 679.624C60.4989 679.336 61.0269 679.192 61.6029 679.192C62.1789 679.192 62.6989 679.336 63.1629 679.624C63.6429 679.896 64.0269 680.272 64.3149 680.752C64.6029 681.216 64.7469 681.736 64.7469 682.312C64.7469 682.888 64.6029 683.424 64.3149 683.92C64.0269 684.4 63.6429 684.792 63.1629 685.096C62.6829 685.384 62.1549 685.528 61.5789 685.528ZM56.3854 712V694.96H67.8334V697.864H59.6974V702.256H66.4654V704.944H59.6974V712H56.3854Z" fill="url(#paint3_linear_198_202)"/>
</g>
</g>
<defs>
<filter id="filter0_f_198_202" x="140.705" y="52.64" width="14.6079" height="303.36" filterUnits="userSpaceOnUse" color-interpolation-filters="sRGB">
<feFlood flood-opacity="0" result="BackgroundImageFix"/>
<feBlend mode="normal" in="SourceGraphic" in2="BackgroundImageFix" result="shape"/>
<feGaussianBlur stdDeviation="1" result="effect1_foregroundBlur_198_202"/>
</filter>
<filter id="filter1_f_198_202" x="222.367" y="358.06" width="17.282" height="269.94" filterUnits="userSpaceOnUse" color-interpolation-filters="sRGB">
<feFlood flood-opacity="0" result="BackgroundImageFix"/>
<feBlend mode="normal" in="SourceGraphic" in2="BackgroundImageFix" result="shape"/>
<feGaussianBlur stdDeviation="2" result="effect1_foregroundBlur_198_202"/>
</filter>
<filter id="filter2_f_198_202" x="49.5576" y="282.96" width="23.9119" height="433.04" filterUnits="userSpaceOnUse" color-interpolation-filters="sRGB">
<feFlood flood-opacity="0" result="BackgroundImageFix"/>
<feBlend mode="normal" in="SourceGraphic" in2="BackgroundImageFix" result="shape"/>
<feGaussianBlur stdDeviation="2" result="effect1_foregroundBlur_198_202"/>
</filter>
<radialGradient id="paint0_radial_198_202" cx="0" cy="0" r="1" gradientUnits="userSpaceOnUse" gradientTransform="translate(-439.561 124.596) rotate(141.189) scale(1023.38)">
<stop stop-color="#1AFFB3"/>
<stop offset="1" stop-color="#142E46" stop-opacity="0"/>
</radialGradient>
<linearGradient id="paint1_linear_198_202" x1="148" y1="52" x2="148" y2="372" gradientUnits="userSpaceOnUse">
<stop stop-color="#1AFFB3"/>
<stop offset="1" stop-color="#0EE37D" stop-opacity="0"/>
</linearGradient>
<linearGradient id="paint2_linear_198_202" x1="231" y1="360" x2="231" y2="640" gradientUnits="userSpaceOnUse">
<stop stop-color="#1AFFB3"/>
<stop offset="1" stop-color="#0EE37D" stop-opacity="0"/>
</linearGradient>
<linearGradient id="paint3_linear_198_202" x1="61.5" y1="284" x2="61.5" y2="740" gradientUnits="userSpaceOnUse">
<stop stop-color="#1AFFB3"/>
<stop offset="1" stop-color="#0EE37D" stop-opacity="0"/>
</linearGradient>
</defs>
</svg>
