<svg width="1920" height="1318" viewBox="0 0 1920 1318" fill="none" xmlns="http://www.w3.org/2000/svg">
<circle opacity="0.8" cx="2227" cy="1202.01" r="992" fill="url(#paint0_radial_92_74)"/>
<circle opacity="0.8" cx="-479" cy="170.01" r="992" fill="url(#paint1_radial_92_74)"/>
<g filter="url(#filter0_f_92_74)">
<path d="M145.897 34.64H148.137L152.313 46H150.041L148.985 43.168H145.017L143.977 46H141.705L145.897 34.64ZM148.585 41.616L147.017 36.928L145.385 41.616H148.585ZM151.132 58.64C151.132 59.344 150.94 59.9573 150.556 60.48C150.183 61.0027 149.681 61.4133 149.052 61.712C148.423 62 147.735 62.144 146.988 62.144C146.231 62.144 145.537 61.9893 144.908 61.68C144.289 61.3707 143.793 60.9493 143.42 60.416C143.057 59.872 142.876 59.2533 142.876 58.56C142.876 58.1333 142.967 57.7493 143.148 57.408C143.329 57.056 143.553 56.7573 143.82 56.512C144.097 56.256 144.375 56.0587 144.652 55.92C144.396 55.792 144.156 55.6213 143.932 55.408C143.719 55.1947 143.548 54.9493 143.42 54.672C143.292 54.3947 143.228 54.1013 143.228 53.792C143.228 53.2907 143.34 52.8427 143.564 52.448C143.788 52.0533 144.087 51.7227 144.46 51.456C144.833 51.1787 145.239 50.976 145.676 50.848C146.124 50.7093 146.567 50.64 147.004 50.64C147.431 50.64 147.868 50.7093 148.316 50.848C148.764 50.976 149.175 51.1733 149.548 51.44C149.921 51.7067 150.22 52.0373 150.444 52.432C150.679 52.816 150.796 53.264 150.796 53.776C150.796 54.0747 150.727 54.368 150.588 54.656C150.46 54.9333 150.284 55.184 150.06 55.408C149.847 55.6213 149.601 55.792 149.324 55.92C149.633 56.08 149.927 56.288 150.204 56.544C150.481 56.8 150.705 57.104 150.876 57.456C151.047 57.808 151.132 58.2027 151.132 58.64ZM148.956 58.512C148.956 58.2347 148.903 57.9947 148.796 57.792C148.689 57.5787 148.54 57.4027 148.348 57.264C148.156 57.1147 147.943 57.0027 147.708 56.928C147.473 56.8533 147.233 56.816 146.988 56.816C146.647 56.816 146.327 56.8853 146.028 57.024C145.74 57.1627 145.505 57.36 145.324 57.616C145.143 57.872 145.052 58.1707 145.052 58.512C145.052 58.768 145.105 59.0027 145.212 59.216C145.329 59.4187 145.479 59.5947 145.66 59.744C145.852 59.8933 146.06 60.0107 146.284 60.096C146.519 60.1707 146.759 60.208 147.004 60.208C147.345 60.208 147.665 60.1333 147.964 59.984C148.263 59.8347 148.503 59.632 148.684 59.376C148.865 59.12 148.956 58.832 148.956 58.512ZM145.404 53.856C145.404 54.144 145.484 54.3893 145.644 54.592C145.804 54.7947 146.007 54.9493 146.252 55.056C146.508 55.152 146.759 55.2 147.004 55.2C147.26 55.2 147.505 55.1467 147.74 55.04C147.985 54.9333 148.188 54.784 148.348 54.592C148.519 54.3893 148.604 54.1387 148.604 53.84C148.604 53.5733 148.529 53.344 148.38 53.152C148.231 52.96 148.033 52.8107 147.788 52.704C147.553 52.5973 147.287 52.544 146.988 52.544C146.711 52.544 146.449 52.5973 146.204 52.704C145.959 52.8107 145.761 52.9653 145.612 53.168C145.473 53.36 145.404 53.5893 145.404 53.856ZM148.635 74.224C149.083 74.2987 149.472 74.4693 149.803 74.736C150.134 74.992 150.39 75.3227 150.571 75.728C150.763 76.1333 150.859 76.5813 150.859 77.072C150.859 77.7333 150.688 78.3093 150.347 78.8C150.006 79.2907 149.52 79.6693 148.891 79.936C148.272 80.2133 147.542 80.352 146.699 80.352C145.888 80.352 145.168 80.2187 144.539 79.952C143.92 79.696 143.403 79.3173 142.987 78.816L144.203 77.296C144.48 77.6373 144.811 77.904 145.195 78.096C145.59 78.2987 146.07 78.4 146.635 78.4C147.286 78.4 147.782 78.2667 148.123 78C148.464 77.744 148.635 77.3547 148.635 76.832C148.635 76.2773 148.438 75.8507 148.043 75.552C147.648 75.2533 147.051 75.104 146.251 75.104H145.803V73.504H146.299C146.95 73.504 147.456 73.3547 147.819 73.056C148.192 72.7573 148.379 72.384 148.379 71.936C148.379 71.648 148.31 71.408 148.171 71.216C148.032 71.024 147.84 70.88 147.595 70.784C147.36 70.688 147.083 70.64 146.763 70.64C146.283 70.64 145.846 70.752 145.451 70.976C145.056 71.2 144.736 71.5147 144.491 71.92L143.147 70.416C143.371 70.0853 143.675 69.8027 144.059 69.568C144.454 69.3227 144.902 69.1307 145.403 68.992C145.915 68.8533 146.448 68.784 147.003 68.784C147.728 68.784 148.363 68.9013 148.907 69.136C149.462 69.3707 149.894 69.7013 150.203 70.128C150.512 70.5547 150.667 71.0507 150.667 71.616C150.667 72.032 150.582 72.4267 150.411 72.8C150.24 73.1733 150 73.488 149.691 73.744C149.392 73.9893 149.04 74.1493 148.635 74.224ZM146.762 96.384C145.941 96.384 145.2 96.208 144.538 95.856C143.877 95.504 143.376 95.024 143.034 94.416L144.266 93.136C144.565 93.552 144.938 93.8827 145.386 94.128C145.834 94.3733 146.298 94.496 146.778 94.496C147.162 94.496 147.498 94.416 147.786 94.256C148.085 94.096 148.32 93.872 148.49 93.584C148.661 93.296 148.746 92.9653 148.746 92.592C148.746 92.2187 148.666 91.8933 148.506 91.616C148.346 91.3387 148.128 91.1253 147.85 90.976C147.573 90.816 147.258 90.736 146.906 90.736C146.554 90.736 146.224 90.816 145.914 90.976C145.616 91.1253 145.376 91.344 145.194 91.632H143.322L144.634 84.864H150.234V86.816H146.186L145.722 89.36C145.861 89.232 146.053 89.1253 146.298 89.04C146.544 88.944 146.848 88.896 147.21 88.896C147.925 88.896 148.565 89.0507 149.13 89.36C149.696 89.6693 150.138 90.1013 150.458 90.656C150.778 91.2 150.938 91.8293 150.938 92.544C150.938 93.3013 150.757 93.968 150.394 94.544C150.032 95.1307 149.536 95.584 148.906 95.904C148.277 96.224 147.562 96.384 146.762 96.384ZM142.012 104.24C142.012 103.547 142.134 102.869 142.38 102.208C142.636 101.536 143.004 100.928 143.484 100.384C143.964 99.8293 144.55 99.392 145.244 99.072C145.937 98.7413 146.726 98.576 147.612 98.576C148.657 98.576 149.558 98.8053 150.316 99.264C151.084 99.7227 151.654 100.32 152.028 101.056L150.332 102.224C150.14 101.797 149.889 101.461 149.58 101.216C149.27 100.96 148.94 100.784 148.588 100.688C148.236 100.581 147.889 100.528 147.548 100.528C146.993 100.528 146.508 100.64 146.092 100.864C145.686 101.088 145.345 101.381 145.068 101.744C144.79 102.107 144.582 102.512 144.444 102.96C144.316 103.408 144.252 103.856 144.252 104.304C144.252 104.805 144.332 105.291 144.492 105.76C144.652 106.219 144.876 106.629 145.164 106.992C145.462 107.344 145.814 107.627 146.22 107.84C146.636 108.043 147.089 108.144 147.58 108.144C147.932 108.144 148.289 108.085 148.652 107.968C149.014 107.851 149.35 107.664 149.66 107.408C149.969 107.152 150.209 106.821 150.38 106.416L152.188 107.456C151.964 108.021 151.596 108.501 151.084 108.896C150.582 109.291 150.017 109.589 149.388 109.792C148.758 109.995 148.134 110.096 147.516 110.096C146.705 110.096 145.964 109.931 145.292 109.6C144.62 109.259 144.038 108.811 143.548 108.256C143.068 107.691 142.689 107.061 142.412 106.368C142.145 105.664 142.012 104.955 142.012 104.24ZM151.267 124.064V126H143.379V114.64H151.123V116.576H145.587V119.312H150.371V121.104H145.587V124.064H151.267ZM147.422 144.032V141.648H142.75V139.744L148.11 132.864H149.566V139.728H150.974V141.648H149.566V144.032H147.422ZM144.894 139.728H147.662V136.112L144.894 139.728ZM145.897 146.64H148.137L152.313 158H150.041L148.985 155.168H145.017L143.977 158H141.705L145.897 146.64ZM148.585 153.616L147.017 148.928L145.385 153.616H148.585ZM151.213 170.208C151.213 169.493 151.037 168.853 150.685 168.288C150.343 167.712 149.874 167.259 149.277 166.928C148.679 166.587 148.002 166.416 147.245 166.416C146.893 166.416 146.562 166.469 146.253 166.576C145.943 166.672 145.671 166.816 145.437 167.008C145.202 167.189 145.01 167.408 144.861 167.664C144.882 166.981 144.989 166.4 145.181 165.92C145.373 165.429 145.645 165.056 145.997 164.8C146.349 164.544 146.765 164.416 147.245 164.416C147.714 164.416 148.151 164.533 148.557 164.768C148.962 164.992 149.293 165.301 149.549 165.696L150.781 164.352C150.365 163.776 149.853 163.333 149.245 163.024C148.647 162.715 147.991 162.56 147.277 162.56C146.381 162.56 145.602 162.805 144.941 163.296C144.279 163.776 143.767 164.496 143.405 165.456C143.053 166.405 142.877 167.568 142.877 168.944C142.877 170.032 143.047 170.965 143.389 171.744C143.73 172.523 144.21 173.12 144.829 173.536C145.458 173.952 146.199 174.16 147.053 174.16C147.842 174.16 148.546 173.984 149.165 173.632C149.794 173.28 150.29 172.805 150.653 172.208C151.026 171.611 151.213 170.944 151.213 170.208ZM147.053 172.352C146.69 172.352 146.349 172.256 146.029 172.064C145.709 171.861 145.453 171.6 145.261 171.28C145.069 170.949 144.973 170.592 144.973 170.208C144.973 169.824 145.063 169.477 145.245 169.168C145.437 168.848 145.693 168.597 146.013 168.416C146.333 168.224 146.685 168.128 147.069 168.128C147.453 168.128 147.799 168.224 148.109 168.416C148.429 168.597 148.685 168.848 148.877 169.168C149.069 169.477 149.165 169.824 149.165 170.208C149.165 170.592 149.069 170.949 148.877 171.28C148.685 171.6 148.429 171.861 148.109 172.064C147.789 172.256 147.437 172.352 147.053 172.352ZM151.899 187.072C151.899 187.712 151.733 188.251 151.403 188.688C151.072 189.115 150.624 189.44 150.059 189.664C149.504 189.888 148.896 190 148.235 190H142.747V178.64H148.827C149.36 178.64 149.819 178.784 150.203 179.072C150.597 179.349 150.896 179.712 151.099 180.16C151.312 180.597 151.419 181.056 151.419 181.536C151.419 182.08 151.28 182.597 151.003 183.088C150.725 183.579 150.32 183.941 149.786 184.176C150.437 184.368 150.949 184.715 151.323 185.216C151.707 185.717 151.899 186.336 151.899 187.072ZM149.675 186.656C149.675 186.368 149.616 186.112 149.499 185.888C149.381 185.653 149.221 185.472 149.019 185.344C148.827 185.205 148.603 185.136 148.347 185.136H144.955V188.128H148.235C148.501 188.128 148.741 188.064 148.955 187.936C149.179 187.797 149.355 187.616 149.483 187.392C149.611 187.168 149.675 186.923 149.675 186.656ZM144.955 180.528V183.392H147.899C148.144 183.392 148.368 183.333 148.571 183.216C148.773 183.099 148.933 182.933 149.051 182.72C149.179 182.507 149.243 182.251 149.243 181.952C149.243 181.664 149.184 181.413 149.067 181.2C148.96 180.987 148.811 180.821 148.619 180.704C148.437 180.587 148.229 180.528 147.995 180.528H144.955ZM142.012 200.24C142.012 199.547 142.134 198.869 142.38 198.208C142.636 197.536 143.004 196.928 143.484 196.384C143.964 195.829 144.55 195.392 145.244 195.072C145.937 194.741 146.726 194.576 147.612 194.576C148.657 194.576 149.558 194.805 150.316 195.264C151.084 195.723 151.654 196.32 152.028 197.056L150.332 198.224C150.14 197.797 149.889 197.461 149.58 197.216C149.27 196.96 148.94 196.784 148.588 196.688C148.236 196.581 147.889 196.528 147.548 196.528C146.993 196.528 146.508 196.64 146.092 196.864C145.686 197.088 145.345 197.381 145.068 197.744C144.79 198.107 144.582 198.512 144.444 198.96C144.316 199.408 144.252 199.856 144.252 200.304C144.252 200.805 144.332 201.291 144.492 201.76C144.652 202.219 144.876 202.629 145.164 202.992C145.462 203.344 145.814 203.627 146.22 203.84C146.636 204.043 147.089 204.144 147.58 204.144C147.932 204.144 148.289 204.085 148.652 203.968C149.014 203.851 149.35 203.664 149.66 203.408C149.969 203.152 150.209 202.821 150.38 202.416L152.188 203.456C151.964 204.021 151.596 204.501 151.084 204.896C150.582 205.291 150.017 205.589 149.388 205.792C148.758 205.995 148.134 206.096 147.516 206.096C146.705 206.096 145.964 205.931 145.292 205.6C144.62 205.259 144.038 204.811 143.548 204.256C143.068 203.691 142.689 203.061 142.412 202.368C142.145 201.664 142.012 200.955 142.012 200.24ZM151.132 218.64C151.132 219.344 150.94 219.957 150.556 220.48C150.183 221.003 149.681 221.413 149.052 221.712C148.423 222 147.735 222.144 146.988 222.144C146.231 222.144 145.537 221.989 144.908 221.68C144.289 221.371 143.793 220.949 143.42 220.416C143.057 219.872 142.876 219.253 142.876 218.56C142.876 218.133 142.967 217.749 143.148 217.408C143.329 217.056 143.553 216.757 143.82 216.512C144.097 216.256 144.375 216.059 144.652 215.92C144.396 215.792 144.156 215.621 143.932 215.408C143.719 215.195 143.548 214.949 143.42 214.672C143.292 214.395 143.228 214.101 143.228 213.792C143.228 213.291 143.34 212.843 143.564 212.448C143.788 212.053 144.087 211.723 144.46 211.456C144.833 211.179 145.239 210.976 145.676 210.848C146.124 210.709 146.567 210.64 147.004 210.64C147.431 210.64 147.868 210.709 148.316 210.848C148.764 210.976 149.175 211.173 149.548 211.44C149.921 211.707 150.22 212.037 150.444 212.432C150.679 212.816 150.796 213.264 150.796 213.776C150.796 214.075 150.727 214.368 150.588 214.656C150.46 214.933 150.284 215.184 150.06 215.408C149.847 215.621 149.601 215.792 149.324 215.92C149.633 216.08 149.927 216.288 150.204 216.544C150.481 216.8 150.705 217.104 150.876 217.456C151.047 217.808 151.132 218.203 151.132 218.64ZM148.956 218.512C148.956 218.235 148.903 217.995 148.796 217.792C148.689 217.579 148.54 217.403 148.348 217.264C148.156 217.115 147.943 217.003 147.708 216.928C147.473 216.853 147.233 216.816 146.988 216.816C146.647 216.816 146.327 216.885 146.028 217.024C145.74 217.163 145.505 217.36 145.324 217.616C145.143 217.872 145.052 218.171 145.052 218.512C145.052 218.768 145.105 219.003 145.212 219.216C145.329 219.419 145.479 219.595 145.66 219.744C145.852 219.893 146.06 220.011 146.284 220.096C146.519 220.171 146.759 220.208 147.004 220.208C147.345 220.208 147.665 220.133 147.964 219.984C148.263 219.835 148.503 219.632 148.684 219.376C148.865 219.12 148.956 218.832 148.956 218.512ZM145.404 213.856C145.404 214.144 145.484 214.389 145.644 214.592C145.804 214.795 146.007 214.949 146.252 215.056C146.508 215.152 146.759 215.2 147.004 215.2C147.26 215.2 147.505 215.147 147.74 215.04C147.985 214.933 148.188 214.784 148.348 214.592C148.519 214.389 148.604 214.139 148.604 213.84C148.604 213.573 148.529 213.344 148.38 213.152C148.231 212.96 148.033 212.811 147.788 212.704C147.553 212.597 147.287 212.544 146.988 212.544C146.711 212.544 146.449 212.597 146.204 212.704C145.959 212.811 145.761 212.965 145.612 213.168C145.473 213.36 145.404 213.589 145.404 213.856ZM150.567 236.064V238H144.071V236.064H146.343V231.216C146.247 231.344 146.098 231.477 145.895 231.616C145.692 231.744 145.463 231.867 145.207 231.984C144.951 232.101 144.695 232.197 144.439 232.272C144.183 232.347 143.954 232.384 143.751 232.384V230.384C143.943 230.384 144.172 230.325 144.439 230.208C144.716 230.08 144.988 229.931 145.255 229.76C145.532 229.589 145.767 229.424 145.959 229.264C146.162 229.093 146.29 228.96 146.343 228.864H148.535V236.064H150.567ZM151.126 249.312C151.126 250.251 150.945 251.088 150.582 251.824C150.23 252.549 149.739 253.12 149.11 253.536C148.491 253.952 147.787 254.16 146.998 254.16C146.209 254.16 145.499 253.952 144.87 253.536C144.251 253.12 143.761 252.549 143.398 251.824C143.046 251.088 142.87 250.251 142.87 249.312C142.87 248.373 143.046 247.541 143.398 246.816C143.761 246.08 144.251 245.504 144.87 245.088C145.499 244.661 146.209 244.448 146.998 244.448C147.787 244.448 148.491 244.661 149.11 245.088C149.739 245.504 150.23 246.08 150.582 246.816C150.945 247.541 151.126 248.373 151.126 249.312ZM148.966 249.312C148.966 248.736 148.881 248.235 148.71 247.808C148.55 247.371 148.321 247.029 148.022 246.784C147.723 246.539 147.382 246.416 146.998 246.416C146.603 246.416 146.257 246.539 145.958 246.784C145.659 247.029 145.425 247.371 145.254 247.808C145.094 248.235 145.014 248.736 145.014 249.312C145.014 249.888 145.094 250.389 145.254 250.816C145.425 251.243 145.659 251.579 145.958 251.824C146.257 252.069 146.603 252.192 146.998 252.192C147.382 252.192 147.718 252.069 148.006 251.824C148.305 251.579 148.539 251.243 148.71 250.816C148.881 250.379 148.966 249.877 148.966 249.312ZM142.012 264.24C142.012 263.547 142.134 262.869 142.38 262.208C142.636 261.536 143.004 260.928 143.484 260.384C143.964 259.829 144.55 259.392 145.244 259.072C145.937 258.741 146.726 258.576 147.612 258.576C148.657 258.576 149.558 258.805 150.316 259.264C151.084 259.723 151.654 260.32 152.028 261.056L150.332 262.224C150.14 261.797 149.889 261.461 149.58 261.216C149.27 260.96 148.94 260.784 148.588 260.688C148.236 260.581 147.889 260.528 147.548 260.528C146.993 260.528 146.508 260.64 146.092 260.864C145.686 261.088 145.345 261.381 145.068 261.744C144.79 262.107 144.582 262.512 144.444 262.96C144.316 263.408 144.252 263.856 144.252 264.304C144.252 264.805 144.332 265.291 144.492 265.76C144.652 266.219 144.876 266.629 145.164 266.992C145.462 267.344 145.814 267.627 146.22 267.84C146.636 268.043 147.089 268.144 147.58 268.144C147.932 268.144 148.289 268.085 148.652 267.968C149.014 267.851 149.35 267.664 149.66 267.408C149.969 267.152 150.209 266.821 150.38 266.416L152.188 267.456C151.964 268.021 151.596 268.501 151.084 268.896C150.582 269.291 150.017 269.589 149.388 269.792C148.758 269.995 148.134 270.096 147.516 270.096C146.705 270.096 145.964 269.931 145.292 269.6C144.62 269.259 144.038 268.811 143.548 268.256C143.068 267.691 142.689 267.061 142.412 266.368C142.145 265.664 142.012 264.955 142.012 264.24ZM145.897 274.64H148.137L152.313 286H150.041L148.985 283.168H145.017L143.977 286H141.705L145.897 274.64ZM148.585 281.616L147.017 276.928L145.385 281.616H148.585ZM147.422 304.032V301.648H142.75V299.744L148.11 292.864H149.566V299.728H150.974V301.648H149.566V304.032H147.422ZM144.894 299.728H147.662V296.112L144.894 299.728ZM151.213 314.208C151.213 313.493 151.037 312.853 150.685 312.288C150.343 311.712 149.874 311.259 149.277 310.928C148.679 310.587 148.002 310.416 147.245 310.416C146.893 310.416 146.562 310.469 146.253 310.576C145.943 310.672 145.671 310.816 145.437 311.008C145.202 311.189 145.01 311.408 144.861 311.664C144.882 310.981 144.989 310.4 145.181 309.92C145.373 309.429 145.645 309.056 145.997 308.8C146.349 308.544 146.765 308.416 147.245 308.416C147.714 308.416 148.151 308.533 148.557 308.768C148.962 308.992 149.293 309.301 149.549 309.696L150.781 308.352C150.365 307.776 149.853 307.333 149.245 307.024C148.647 306.715 147.991 306.56 147.277 306.56C146.381 306.56 145.602 306.805 144.941 307.296C144.279 307.776 143.767 308.496 143.405 309.456C143.053 310.405 142.877 311.568 142.877 312.944C142.877 314.032 143.047 314.965 143.389 315.744C143.73 316.523 144.21 317.12 144.829 317.536C145.458 317.952 146.199 318.16 147.053 318.16C147.842 318.16 148.546 317.984 149.165 317.632C149.794 317.28 150.29 316.805 150.653 316.208C151.026 315.611 151.213 314.944 151.213 314.208ZM147.053 316.352C146.69 316.352 146.349 316.256 146.029 316.064C145.709 315.861 145.453 315.6 145.261 315.28C145.069 314.949 144.973 314.592 144.973 314.208C144.973 313.824 145.063 313.477 145.245 313.168C145.437 312.848 145.693 312.597 146.013 312.416C146.333 312.224 146.685 312.128 147.069 312.128C147.453 312.128 147.799 312.224 148.109 312.416C148.429 312.597 148.685 312.848 148.877 313.168C149.069 313.477 149.165 313.824 149.165 314.208C149.165 314.592 149.069 314.949 148.877 315.28C148.685 315.6 148.429 315.861 148.109 316.064C147.789 316.256 147.437 316.352 147.053 316.352ZM143.59 334V322.64H151.222V324.576H145.798V327.504H150.31V329.296H145.798V334H143.59Z" fill="url(#paint2_linear_92_74)"/>
</g>
<g filter="url(#filter1_f_92_74)">
<path d="M229.035 342.06H230.995L234.649 352H232.661L231.737 349.522H228.265L227.355 352H225.367L229.035 342.06ZM231.387 348.164L230.015 344.062L228.587 348.164H231.387ZM233.615 363.06C233.615 363.676 233.447 364.213 233.111 364.67C232.785 365.127 232.346 365.487 231.795 365.748C231.245 366 230.643 366.126 229.989 366.126C229.327 366.126 228.72 365.991 228.169 365.72C227.628 365.449 227.194 365.081 226.867 364.614C226.55 364.138 226.391 363.597 226.391 362.99C226.391 362.617 226.471 362.281 226.629 361.982C226.788 361.674 226.984 361.413 227.217 361.198C227.46 360.974 227.703 360.801 227.945 360.68C227.721 360.568 227.511 360.419 227.315 360.232C227.129 360.045 226.979 359.831 226.867 359.588C226.755 359.345 226.699 359.089 226.699 358.818C226.699 358.379 226.797 357.987 226.993 357.642C227.189 357.297 227.451 357.007 227.777 356.774C228.104 356.531 228.459 356.354 228.841 356.242C229.233 356.121 229.621 356.06 230.003 356.06C230.377 356.06 230.759 356.121 231.151 356.242C231.543 356.354 231.903 356.527 232.229 356.76C232.556 356.993 232.817 357.283 233.013 357.628C233.219 357.964 233.321 358.356 233.321 358.804C233.321 359.065 233.261 359.322 233.139 359.574C233.027 359.817 232.873 360.036 232.677 360.232C232.491 360.419 232.276 360.568 232.033 360.68C232.304 360.82 232.561 361.002 232.803 361.226C233.046 361.45 233.242 361.716 233.391 362.024C233.541 362.332 233.615 362.677 233.615 363.06ZM231.711 362.948C231.711 362.705 231.665 362.495 231.571 362.318C231.478 362.131 231.347 361.977 231.179 361.856C231.011 361.725 230.825 361.627 230.619 361.562C230.414 361.497 230.204 361.464 229.989 361.464C229.691 361.464 229.411 361.525 229.149 361.646C228.897 361.767 228.692 361.94 228.533 362.164C228.375 362.388 228.295 362.649 228.295 362.948C228.295 363.172 228.342 363.377 228.435 363.564C228.538 363.741 228.669 363.895 228.827 364.026C228.995 364.157 229.177 364.259 229.373 364.334C229.579 364.399 229.789 364.432 230.003 364.432C230.302 364.432 230.582 364.367 230.843 364.236C231.105 364.105 231.315 363.928 231.473 363.704C231.632 363.48 231.711 363.228 231.711 362.948ZM228.603 358.874C228.603 359.126 228.673 359.341 228.813 359.518C228.953 359.695 229.131 359.831 229.345 359.924C229.569 360.008 229.789 360.05 230.003 360.05C230.227 360.05 230.442 360.003 230.647 359.91C230.862 359.817 231.039 359.686 231.179 359.518C231.329 359.341 231.403 359.121 231.403 358.86C231.403 358.627 231.338 358.426 231.207 358.258C231.077 358.09 230.904 357.959 230.689 357.866C230.484 357.773 230.251 357.726 229.989 357.726C229.747 357.726 229.518 357.773 229.303 357.866C229.089 357.959 228.916 358.095 228.785 358.272C228.664 358.44 228.603 358.641 228.603 358.874ZM231.431 376.696C231.823 376.761 232.163 376.911 232.453 377.144C232.742 377.368 232.966 377.657 233.125 378.012C233.293 378.367 233.377 378.759 233.377 379.188C233.377 379.767 233.227 380.271 232.929 380.7C232.63 381.129 232.205 381.461 231.655 381.694C231.113 381.937 230.474 382.058 229.737 382.058C229.027 382.058 228.397 381.941 227.847 381.708C227.305 381.484 226.853 381.153 226.489 380.714L227.553 379.384C227.795 379.683 228.085 379.916 228.421 380.084C228.766 380.261 229.186 380.35 229.681 380.35C230.25 380.35 230.684 380.233 230.983 380C231.281 379.776 231.431 379.435 231.431 378.978C231.431 378.493 231.258 378.119 230.913 377.858C230.567 377.597 230.045 377.466 229.345 377.466H228.953V376.066H229.387C229.956 376.066 230.399 375.935 230.717 375.674C231.043 375.413 231.207 375.086 231.207 374.694C231.207 374.442 231.146 374.232 231.025 374.064C230.903 373.896 230.735 373.77 230.521 373.686C230.315 373.602 230.073 373.56 229.793 373.56C229.373 373.56 228.99 373.658 228.645 373.854C228.299 374.05 228.019 374.325 227.805 374.68L226.629 373.364C226.825 373.075 227.091 372.827 227.427 372.622C227.772 372.407 228.164 372.239 228.603 372.118C229.051 371.997 229.517 371.936 230.003 371.936C230.637 371.936 231.193 372.039 231.669 372.244C232.154 372.449 232.532 372.739 232.803 373.112C233.073 373.485 233.209 373.919 233.209 374.414C233.209 374.778 233.134 375.123 232.985 375.45C232.835 375.777 232.625 376.052 232.355 376.276C232.093 376.491 231.785 376.631 231.431 376.696ZM229.792 396.086C229.073 396.086 228.425 395.932 227.846 395.624C227.267 395.316 226.829 394.896 226.53 394.364L227.608 393.244C227.869 393.608 228.196 393.897 228.588 394.112C228.98 394.327 229.386 394.434 229.806 394.434C230.142 394.434 230.436 394.364 230.688 394.224C230.949 394.084 231.155 393.888 231.304 393.636C231.453 393.384 231.528 393.095 231.528 392.768C231.528 392.441 231.458 392.157 231.318 391.914C231.178 391.671 230.987 391.485 230.744 391.354C230.501 391.214 230.226 391.144 229.918 391.144C229.61 391.144 229.321 391.214 229.05 391.354C228.789 391.485 228.579 391.676 228.42 391.928H226.782L227.93 386.006H232.83V387.714H229.288L228.882 389.94C229.003 389.828 229.171 389.735 229.386 389.66C229.601 389.576 229.867 389.534 230.184 389.534C230.809 389.534 231.369 389.669 231.864 389.94C232.359 390.211 232.746 390.589 233.026 391.074C233.306 391.55 233.446 392.101 233.446 392.726C233.446 393.389 233.287 393.972 232.97 394.476C232.653 394.989 232.219 395.386 231.668 395.666C231.117 395.946 230.492 396.086 229.792 396.086ZM225.635 402.96C225.635 402.353 225.743 401.761 225.957 401.182C226.181 400.594 226.503 400.062 226.923 399.586C227.343 399.101 227.857 398.718 228.463 398.438C229.07 398.149 229.761 398.004 230.535 398.004C231.45 398.004 232.239 398.205 232.901 398.606C233.573 399.007 234.073 399.53 234.399 400.174L232.915 401.196C232.747 400.823 232.528 400.529 232.257 400.314C231.987 400.09 231.697 399.936 231.389 399.852C231.081 399.759 230.778 399.712 230.479 399.712C229.994 399.712 229.569 399.81 229.205 400.006C228.851 400.202 228.552 400.459 228.309 400.776C228.067 401.093 227.885 401.448 227.763 401.84C227.651 402.232 227.595 402.624 227.595 403.016C227.595 403.455 227.665 403.879 227.805 404.29C227.945 404.691 228.141 405.051 228.393 405.368C228.655 405.676 228.963 405.923 229.317 406.11C229.681 406.287 230.078 406.376 230.507 406.376C230.815 406.376 231.128 406.325 231.445 406.222C231.763 406.119 232.057 405.956 232.327 405.732C232.598 405.508 232.808 405.219 232.957 404.864L234.539 405.774C234.343 406.269 234.021 406.689 233.573 407.034C233.135 407.379 232.64 407.641 232.089 407.818C231.539 407.995 230.993 408.084 230.451 408.084C229.742 408.084 229.093 407.939 228.505 407.65C227.917 407.351 227.409 406.959 226.979 406.474C226.559 405.979 226.228 405.429 225.985 404.822C225.752 404.206 225.635 403.585 225.635 402.96ZM233.734 420.306V422H226.832V412.06H233.608V413.754H228.764V416.148H232.95V417.716H228.764V420.306H233.734ZM230.369 437.778V435.692H226.281V434.026L230.971 428.006H232.245V434.012H233.477V435.692H232.245V437.778H230.369ZM228.157 434.012H230.579V430.848L228.157 434.012ZM229.035 440.06H230.995L234.649 450H232.661L231.737 447.522H228.265L227.355 450H225.367L229.035 440.06ZM231.387 446.164L230.015 442.062L228.587 446.164H231.387ZM233.686 460.682C233.686 460.057 233.532 459.497 233.224 459.002C232.925 458.498 232.515 458.101 231.992 457.812C231.469 457.513 230.877 457.364 230.214 457.364C229.906 457.364 229.617 457.411 229.346 457.504C229.075 457.588 228.837 457.714 228.632 457.882C228.427 458.041 228.259 458.232 228.128 458.456C228.147 457.859 228.24 457.35 228.408 456.93C228.576 456.501 228.814 456.174 229.122 455.95C229.43 455.726 229.794 455.614 230.214 455.614C230.625 455.614 231.007 455.717 231.362 455.922C231.717 456.118 232.006 456.389 232.23 456.734L233.308 455.558C232.944 455.054 232.496 454.667 231.964 454.396C231.441 454.125 230.867 453.99 230.242 453.99C229.458 453.99 228.777 454.205 228.198 454.634C227.619 455.054 227.171 455.684 226.854 456.524C226.546 457.355 226.392 458.372 226.392 459.576C226.392 460.528 226.541 461.345 226.84 462.026C227.139 462.707 227.559 463.23 228.1 463.594C228.651 463.958 229.299 464.14 230.046 464.14C230.737 464.14 231.353 463.986 231.894 463.678C232.445 463.37 232.879 462.955 233.196 462.432C233.523 461.909 233.686 461.326 233.686 460.682ZM230.046 462.558C229.729 462.558 229.43 462.474 229.15 462.306C228.87 462.129 228.646 461.9 228.478 461.62C228.31 461.331 228.226 461.018 228.226 460.682C228.226 460.346 228.305 460.043 228.464 459.772C228.632 459.492 228.856 459.273 229.136 459.114C229.416 458.946 229.724 458.862 230.06 458.862C230.396 458.862 230.699 458.946 230.97 459.114C231.25 459.273 231.474 459.492 231.642 459.772C231.81 460.043 231.894 460.346 231.894 460.682C231.894 461.018 231.81 461.331 231.642 461.62C231.474 461.9 231.25 462.129 230.97 462.306C230.69 462.474 230.382 462.558 230.046 462.558ZM234.286 475.438C234.286 475.998 234.142 476.469 233.852 476.852C233.563 477.225 233.171 477.51 232.676 477.706C232.191 477.902 231.659 478 231.08 478H226.278V468.06H231.598C232.065 468.06 232.466 468.186 232.802 468.438C233.148 468.681 233.409 468.998 233.586 469.39C233.773 469.773 233.866 470.174 233.866 470.594C233.866 471.07 233.745 471.523 233.502 471.952C233.26 472.381 232.905 472.699 232.438 472.904C233.008 473.072 233.456 473.375 233.782 473.814C234.118 474.253 234.286 474.794 234.286 475.438ZM232.34 475.074C232.34 474.822 232.289 474.598 232.186 474.402C232.084 474.197 231.944 474.038 231.766 473.926C231.598 473.805 231.402 473.744 231.178 473.744H228.21V476.362H231.08C231.314 476.362 231.524 476.306 231.71 476.194C231.906 476.073 232.06 475.914 232.172 475.718C232.284 475.522 232.34 475.307 232.34 475.074ZM228.21 469.712V472.218H230.786C231.001 472.218 231.197 472.167 231.374 472.064C231.552 471.961 231.692 471.817 231.794 471.63C231.906 471.443 231.962 471.219 231.962 470.958C231.962 470.706 231.911 470.487 231.808 470.3C231.715 470.113 231.584 469.969 231.416 469.866C231.258 469.763 231.076 469.712 230.87 469.712H228.21ZM225.635 486.96C225.635 486.353 225.743 485.761 225.957 485.182C226.181 484.594 226.503 484.062 226.923 483.586C227.343 483.101 227.857 482.718 228.463 482.438C229.07 482.149 229.761 482.004 230.535 482.004C231.45 482.004 232.239 482.205 232.901 482.606C233.573 483.007 234.073 483.53 234.399 484.174L232.915 485.196C232.747 484.823 232.528 484.529 232.257 484.314C231.987 484.09 231.697 483.936 231.389 483.852C231.081 483.759 230.778 483.712 230.479 483.712C229.994 483.712 229.569 483.81 229.205 484.006C228.851 484.202 228.552 484.459 228.309 484.776C228.067 485.093 227.885 485.448 227.763 485.84C227.651 486.232 227.595 486.624 227.595 487.016C227.595 487.455 227.665 487.879 227.805 488.29C227.945 488.691 228.141 489.051 228.393 489.368C228.655 489.676 228.963 489.923 229.317 490.11C229.681 490.287 230.078 490.376 230.507 490.376C230.815 490.376 231.128 490.325 231.445 490.222C231.763 490.119 232.057 489.956 232.327 489.732C232.598 489.508 232.808 489.219 232.957 488.864L234.539 489.774C234.343 490.269 234.021 490.689 233.573 491.034C233.135 491.379 232.64 491.641 232.089 491.818C231.539 491.995 230.993 492.084 230.451 492.084C229.742 492.084 229.093 491.939 228.505 491.65C227.917 491.351 227.409 490.959 226.979 490.474C226.559 489.979 226.228 489.429 225.985 488.822C225.752 488.206 225.635 487.585 225.635 486.96ZM233.615 503.06C233.615 503.676 233.447 504.213 233.111 504.67C232.785 505.127 232.346 505.487 231.795 505.748C231.245 506 230.643 506.126 229.989 506.126C229.327 506.126 228.72 505.991 228.169 505.72C227.628 505.449 227.194 505.081 226.867 504.614C226.55 504.138 226.391 503.597 226.391 502.99C226.391 502.617 226.471 502.281 226.629 501.982C226.788 501.674 226.984 501.413 227.217 501.198C227.46 500.974 227.703 500.801 227.945 500.68C227.721 500.568 227.511 500.419 227.315 500.232C227.129 500.045 226.979 499.831 226.867 499.588C226.755 499.345 226.699 499.089 226.699 498.818C226.699 498.379 226.797 497.987 226.993 497.642C227.189 497.297 227.451 497.007 227.777 496.774C228.104 496.531 228.459 496.354 228.841 496.242C229.233 496.121 229.621 496.06 230.003 496.06C230.377 496.06 230.759 496.121 231.151 496.242C231.543 496.354 231.903 496.527 232.229 496.76C232.556 496.993 232.817 497.283 233.013 497.628C233.219 497.964 233.321 498.356 233.321 498.804C233.321 499.065 233.261 499.322 233.139 499.574C233.027 499.817 232.873 500.036 232.677 500.232C232.491 500.419 232.276 500.568 232.033 500.68C232.304 500.82 232.561 501.002 232.803 501.226C233.046 501.45 233.242 501.716 233.391 502.024C233.541 502.332 233.615 502.677 233.615 503.06ZM231.711 502.948C231.711 502.705 231.665 502.495 231.571 502.318C231.478 502.131 231.347 501.977 231.179 501.856C231.011 501.725 230.825 501.627 230.619 501.562C230.414 501.497 230.204 501.464 229.989 501.464C229.691 501.464 229.411 501.525 229.149 501.646C228.897 501.767 228.692 501.94 228.533 502.164C228.375 502.388 228.295 502.649 228.295 502.948C228.295 503.172 228.342 503.377 228.435 503.564C228.538 503.741 228.669 503.895 228.827 504.026C228.995 504.157 229.177 504.259 229.373 504.334C229.579 504.399 229.789 504.432 230.003 504.432C230.302 504.432 230.582 504.367 230.843 504.236C231.105 504.105 231.315 503.928 231.473 503.704C231.632 503.48 231.711 503.228 231.711 502.948ZM228.603 498.874C228.603 499.126 228.673 499.341 228.813 499.518C228.953 499.695 229.131 499.831 229.345 499.924C229.569 500.008 229.789 500.05 230.003 500.05C230.227 500.05 230.442 500.003 230.647 499.91C230.862 499.817 231.039 499.686 231.179 499.518C231.329 499.341 231.403 499.121 231.403 498.86C231.403 498.627 231.338 498.426 231.207 498.258C231.077 498.09 230.904 497.959 230.689 497.866C230.484 497.773 230.251 497.726 229.989 497.726C229.747 497.726 229.518 497.773 229.303 497.866C229.089 497.959 228.916 498.095 228.785 498.272C228.664 498.44 228.603 498.641 228.603 498.874ZM233.121 518.306V520H227.437V518.306H229.425V514.064C229.341 514.176 229.21 514.293 229.033 514.414C228.856 514.526 228.655 514.633 228.431 514.736C228.207 514.839 227.983 514.923 227.759 514.988C227.535 515.053 227.334 515.086 227.157 515.086V513.336C227.325 513.336 227.526 513.285 227.759 513.182C228.002 513.07 228.24 512.939 228.473 512.79C228.716 512.641 228.921 512.496 229.089 512.356C229.266 512.207 229.378 512.09 229.425 512.006H231.343V518.306H233.121ZM233.61 529.898C233.61 530.719 233.452 531.452 233.134 532.096C232.826 532.731 232.397 533.23 231.846 533.594C231.305 533.958 230.689 534.14 229.998 534.14C229.308 534.14 228.687 533.958 228.136 533.594C227.595 533.23 227.166 532.731 226.848 532.096C226.54 531.452 226.386 530.719 226.386 529.898C226.386 529.077 226.54 528.349 226.848 527.714C227.166 527.07 227.595 526.566 228.136 526.202C228.687 525.829 229.308 525.642 229.998 525.642C230.689 525.642 231.305 525.829 231.846 526.202C232.397 526.566 232.826 527.07 233.134 527.714C233.452 528.349 233.61 529.077 233.61 529.898ZM231.72 529.898C231.72 529.394 231.646 528.955 231.496 528.582C231.356 528.199 231.156 527.901 230.894 527.686C230.633 527.471 230.334 527.364 229.998 527.364C229.653 527.364 229.35 527.471 229.088 527.686C228.827 527.901 228.622 528.199 228.472 528.582C228.332 528.955 228.262 529.394 228.262 529.898C228.262 530.402 228.332 530.841 228.472 531.214C228.622 531.587 228.827 531.881 229.088 532.096C229.35 532.311 229.653 532.418 229.998 532.418C230.334 532.418 230.628 532.311 230.88 532.096C231.142 531.881 231.347 531.587 231.496 531.214C231.646 530.831 231.72 530.393 231.72 529.898ZM225.635 542.96C225.635 542.353 225.743 541.761 225.957 541.182C226.181 540.594 226.503 540.062 226.923 539.586C227.343 539.101 227.857 538.718 228.463 538.438C229.07 538.149 229.761 538.004 230.535 538.004C231.45 538.004 232.239 538.205 232.901 538.606C233.573 539.007 234.073 539.53 234.399 540.174L232.915 541.196C232.747 540.823 232.528 540.529 232.257 540.314C231.987 540.09 231.697 539.936 231.389 539.852C231.081 539.759 230.778 539.712 230.479 539.712C229.994 539.712 229.569 539.81 229.205 540.006C228.851 540.202 228.552 540.459 228.309 540.776C228.067 541.093 227.885 541.448 227.763 541.84C227.651 542.232 227.595 542.624 227.595 543.016C227.595 543.455 227.665 543.879 227.805 544.29C227.945 544.691 228.141 545.051 228.393 545.368C228.655 545.676 228.963 545.923 229.317 546.11C229.681 546.287 230.078 546.376 230.507 546.376C230.815 546.376 231.128 546.325 231.445 546.222C231.763 546.119 232.057 545.956 232.327 545.732C232.598 545.508 232.808 545.219 232.957 544.864L234.539 545.774C234.343 546.269 234.021 546.689 233.573 547.034C233.135 547.379 232.64 547.641 232.089 547.818C231.539 547.995 230.993 548.084 230.451 548.084C229.742 548.084 229.093 547.939 228.505 547.65C227.917 547.351 227.409 546.959 226.979 546.474C226.559 545.979 226.228 545.429 225.985 544.822C225.752 544.206 225.635 543.585 225.635 542.96ZM229.035 552.06H230.995L234.649 562H232.661L231.737 559.522H228.265L227.355 562H225.367L229.035 552.06ZM231.387 558.164L230.015 554.062L228.587 558.164H231.387ZM230.369 577.778V575.692H226.281V574.026L230.971 568.006H232.245V574.012H233.477V575.692H232.245V577.778H230.369ZM228.157 574.012H230.579V570.848L228.157 574.012ZM233.686 586.682C233.686 586.057 233.532 585.497 233.224 585.002C232.925 584.498 232.515 584.101 231.992 583.812C231.469 583.513 230.877 583.364 230.214 583.364C229.906 583.364 229.617 583.411 229.346 583.504C229.075 583.588 228.837 583.714 228.632 583.882C228.427 584.041 228.259 584.232 228.128 584.456C228.147 583.859 228.24 583.35 228.408 582.93C228.576 582.501 228.814 582.174 229.122 581.95C229.43 581.726 229.794 581.614 230.214 581.614C230.625 581.614 231.007 581.717 231.362 581.922C231.717 582.118 232.006 582.389 232.23 582.734L233.308 581.558C232.944 581.054 232.496 580.667 231.964 580.396C231.441 580.125 230.867 579.99 230.242 579.99C229.458 579.99 228.777 580.205 228.198 580.634C227.619 581.054 227.171 581.684 226.854 582.524C226.546 583.355 226.392 584.372 226.392 585.576C226.392 586.528 226.541 587.345 226.84 588.026C227.139 588.707 227.559 589.23 228.1 589.594C228.651 589.958 229.299 590.14 230.046 590.14C230.737 590.14 231.353 589.986 231.894 589.678C232.445 589.37 232.879 588.955 233.196 588.432C233.523 587.909 233.686 587.326 233.686 586.682ZM230.046 588.558C229.729 588.558 229.43 588.474 229.15 588.306C228.87 588.129 228.646 587.9 228.478 587.62C228.31 587.331 228.226 587.018 228.226 586.682C228.226 586.346 228.305 586.043 228.464 585.772C228.632 585.492 228.856 585.273 229.136 585.114C229.416 584.946 229.724 584.862 230.06 584.862C230.396 584.862 230.699 584.946 230.97 585.114C231.25 585.273 231.474 585.492 231.642 585.772C231.81 586.043 231.894 586.346 231.894 586.682C231.894 587.018 231.81 587.331 231.642 587.62C231.474 587.9 231.25 588.129 230.97 588.306C230.69 588.474 230.382 588.558 230.046 588.558ZM227.016 604V594.06H233.694V595.754H228.948V598.316H232.896V599.884H228.948V604H227.016Z" fill="url(#paint3_linear_92_74)"/>
</g>
<g filter="url(#filter2_f_92_74)">
<path d="M66.6978 278.96C66.6978 280.016 66.4098 280.936 65.8338 281.72C65.2738 282.504 64.5218 283.12 63.5778 283.568C62.6338 284 61.6018 284.216 60.4818 284.216C59.3458 284.216 58.3058 283.984 57.3618 283.52C56.4338 283.056 55.6898 282.424 55.1298 281.624C54.5858 280.808 54.3138 279.88 54.3138 278.84C54.3138 278.2 54.4498 277.624 54.7218 277.112C54.9938 276.584 55.3298 276.136 55.7298 275.768C56.1458 275.384 56.5618 275.088 56.9778 274.88C56.5938 274.688 56.2338 274.432 55.8978 274.112C55.5778 273.792 55.3218 273.424 55.1298 273.008C54.9378 272.592 54.8418 272.152 54.8418 271.688C54.8418 270.936 55.0098 270.264 55.3458 269.672C55.6818 269.08 56.1298 268.584 56.6898 268.184C57.2498 267.768 57.8578 267.464 58.5138 267.272C59.1858 267.064 59.8498 266.96 60.5058 266.96C61.1458 266.96 61.8018 267.064 62.4738 267.272C63.1458 267.464 63.7618 267.76 64.3218 268.16C64.8818 268.56 65.3298 269.056 65.6658 269.648C66.0178 270.224 66.1938 270.896 66.1938 271.664C66.1938 272.112 66.0898 272.552 65.8818 272.984C65.6898 273.4 65.4258 273.776 65.0898 274.112C64.7698 274.432 64.4018 274.688 63.9858 274.88C64.4498 275.12 64.8898 275.432 65.3058 275.816C65.7218 276.2 66.0578 276.656 66.3138 277.184C66.5698 277.712 66.6978 278.304 66.6978 278.96ZM63.4338 278.768C63.4338 278.352 63.3538 277.992 63.1938 277.688C63.0338 277.368 62.8098 277.104 62.5218 276.896C62.2338 276.672 61.9138 276.504 61.5618 276.392C61.2098 276.28 60.8498 276.224 60.4818 276.224C59.9698 276.224 59.4898 276.328 59.0418 276.536C58.6098 276.744 58.2578 277.04 57.9858 277.424C57.7138 277.808 57.5778 278.256 57.5778 278.768C57.5778 279.152 57.6578 279.504 57.8178 279.824C57.9938 280.128 58.2178 280.392 58.4898 280.616C58.7778 280.84 59.0898 281.016 59.4258 281.144C59.7778 281.256 60.1378 281.312 60.5058 281.312C61.0178 281.312 61.4978 281.2 61.9458 280.976C62.3938 280.752 62.7538 280.448 63.0258 280.064C63.2978 279.68 63.4338 279.248 63.4338 278.768ZM58.1058 271.784C58.1058 272.216 58.2258 272.584 58.4658 272.888C58.7058 273.192 59.0098 273.424 59.3778 273.584C59.7618 273.728 60.1378 273.8 60.5058 273.8C60.8898 273.8 61.2578 273.72 61.6098 273.56C61.9778 273.4 62.2818 273.176 62.5218 272.888C62.7778 272.584 62.9058 272.208 62.9058 271.76C62.9058 271.36 62.7938 271.016 62.5698 270.728C62.3458 270.44 62.0498 270.216 61.6818 270.056C61.3298 269.896 60.9298 269.816 60.4818 269.816C60.0658 269.816 59.6738 269.896 59.3058 270.056C58.9378 270.216 58.6418 270.448 58.4178 270.752C58.2098 271.04 58.1058 271.384 58.1058 271.784ZM62.9526 302.336C63.6246 302.448 64.2086 302.704 64.7046 303.104C65.2006 303.488 65.5846 303.984 65.8566 304.592C66.1446 305.2 66.2886 305.872 66.2886 306.608C66.2886 307.6 66.0326 308.464 65.5206 309.2C65.0086 309.936 64.2806 310.504 63.3366 310.904C62.4086 311.32 61.3126 311.528 60.0486 311.528C58.8326 311.528 57.7526 311.328 56.8086 310.928C55.8806 310.544 55.1046 309.976 54.4806 309.224L56.3046 306.944C56.7206 307.456 57.2166 307.856 57.7926 308.144C58.3846 308.448 59.1046 308.6 59.9526 308.6C60.9286 308.6 61.6726 308.4 62.1846 308C62.6966 307.616 62.9526 307.032 62.9526 306.248C62.9526 305.416 62.6566 304.776 62.0646 304.328C61.4726 303.88 60.5766 303.656 59.3766 303.656H58.7046V301.256H59.4486C60.4246 301.256 61.1846 301.032 61.7286 300.584C62.2886 300.136 62.5686 299.576 62.5686 298.904C62.5686 298.472 62.4646 298.112 62.2566 297.824C62.0486 297.536 61.7606 297.32 61.3926 297.176C61.0406 297.032 60.6246 296.96 60.1446 296.96C59.4246 296.96 58.7686 297.128 58.1766 297.464C57.5846 297.8 57.1046 298.272 56.7366 298.88L54.7206 296.624C55.0566 296.128 55.5126 295.704 56.0886 295.352C56.6806 294.984 57.3526 294.696 58.1046 294.488C58.8726 294.28 59.6726 294.176 60.5046 294.176C61.5926 294.176 62.5446 294.352 63.3606 294.704C64.1926 295.056 64.8406 295.552 65.3046 296.192C65.7686 296.832 66.0006 297.576 66.0006 298.424C66.0006 299.048 65.8726 299.64 65.6166 300.2C65.3606 300.76 65.0006 301.232 64.5366 301.616C64.0886 301.984 63.5606 302.224 62.9526 302.336ZM60.1435 335.576C58.9115 335.576 57.7995 335.312 56.8075 334.784C55.8155 334.256 55.0635 333.536 54.5515 332.624L56.3995 330.704C56.8475 331.328 57.4075 331.824 58.0795 332.192C58.7515 332.56 59.4475 332.744 60.1675 332.744C60.7435 332.744 61.2475 332.624 61.6795 332.384C62.1275 332.144 62.4795 331.808 62.7355 331.376C62.9915 330.944 63.1195 330.448 63.1195 329.888C63.1195 329.328 62.9995 328.84 62.7595 328.424C62.5195 328.008 62.1915 327.688 61.7755 327.464C61.3595 327.224 60.8875 327.104 60.3595 327.104C59.8315 327.104 59.3355 327.224 58.8715 327.464C58.4235 327.688 58.0635 328.016 57.7915 328.448H54.9835L56.9515 318.296H65.3515V321.224H59.2795L58.5835 325.04C58.7915 324.848 59.0795 324.688 59.4475 324.56C59.8155 324.416 60.2715 324.344 60.8155 324.344C61.8875 324.344 62.8475 324.576 63.6955 325.04C64.5435 325.504 65.2075 326.152 65.6875 326.984C66.1675 327.8 66.4075 328.744 66.4075 329.816C66.4075 330.952 66.1355 331.952 65.5915 332.816C65.0475 333.696 64.3035 334.376 63.3595 334.856C62.4155 335.336 61.3435 335.576 60.1435 335.576ZM53.0174 347.36C53.0174 346.32 53.2014 345.304 53.5694 344.312C53.9534 343.304 54.5054 342.392 55.2254 341.576C55.9454 340.744 56.8254 340.088 57.8654 339.608C58.9054 339.112 60.0894 338.864 61.4174 338.864C62.9854 338.864 64.3374 339.208 65.4734 339.896C66.6254 340.584 67.4814 341.48 68.0414 342.584L65.4974 344.336C65.2094 343.696 64.8334 343.192 64.3694 342.824C63.9054 342.44 63.4094 342.176 62.8814 342.032C62.3534 341.872 61.8334 341.792 61.3214 341.792C60.4894 341.792 59.7614 341.96 59.1374 342.296C58.5294 342.632 58.0174 343.072 57.6014 343.616C57.1854 344.16 56.8734 344.768 56.6654 345.44C56.4734 346.112 56.3774 346.784 56.3774 347.456C56.3774 348.208 56.4974 348.936 56.7374 349.64C56.9774 350.328 57.3134 350.944 57.7454 351.488C58.1934 352.016 58.7214 352.44 59.3294 352.76C59.9534 353.064 60.6334 353.216 61.3694 353.216C61.8974 353.216 62.4334 353.128 62.9774 352.952C63.5214 352.776 64.0254 352.496 64.4894 352.112C64.9534 351.728 65.3134 351.232 65.5694 350.624L68.2814 352.184C67.9454 353.032 67.3934 353.752 66.6254 354.344C65.8734 354.936 65.0254 355.384 64.0814 355.688C63.1374 355.992 62.2014 356.144 61.2734 356.144C60.0574 356.144 58.9454 355.896 57.9374 355.4C56.9294 354.888 56.0574 354.216 55.3214 353.384C54.6014 352.536 54.0334 351.592 53.6174 350.552C53.2174 349.496 53.0174 348.432 53.0174 347.36ZM66.901 377.096V380H55.069V362.96H66.685V365.864H58.381V369.968H65.557V372.656H58.381V377.096H66.901ZM61.1325 407.048V403.472H54.1245V400.616L62.1645 390.296H64.3485V400.592H66.4605V403.472H64.3485V407.048H61.1325ZM57.3405 400.592H61.4925V395.168L57.3405 400.592ZM58.8455 410.96H62.2055L68.4695 428H65.0615L63.4775 423.752H57.5255L55.9655 428H52.5575L58.8455 410.96ZM62.8775 421.424L60.5255 414.392L58.0775 421.424H62.8775ZM66.8189 446.312C66.8189 445.24 66.5549 444.28 66.0269 443.432C65.5149 442.568 64.8109 441.888 63.9149 441.392C63.0189 440.88 62.0029 440.624 60.8669 440.624C60.3389 440.624 59.8429 440.704 59.3789 440.864C58.9149 441.008 58.5069 441.224 58.1549 441.512C57.8029 441.784 57.5149 442.112 57.2909 442.496C57.3229 441.472 57.4829 440.6 57.7709 439.88C58.0589 439.144 58.4669 438.584 58.9949 438.2C59.5229 437.816 60.1469 437.624 60.8669 437.624C61.5709 437.624 62.2269 437.8 62.8349 438.152C63.4429 438.488 63.9389 438.952 64.3229 439.544L66.1709 437.528C65.5469 436.664 64.7789 436 63.8669 435.536C62.9709 435.072 61.9869 434.84 60.9149 434.84C59.5709 434.84 58.4029 435.208 57.4109 435.944C56.4189 436.664 55.6509 437.744 55.1069 439.184C54.5789 440.608 54.3149 442.352 54.3149 444.416C54.3149 446.048 54.5709 447.448 55.0829 448.616C55.5949 449.784 56.3149 450.68 57.2429 451.304C58.1869 451.928 59.2989 452.24 60.5789 452.24C61.7629 452.24 62.8189 451.976 63.7469 451.448C64.6909 450.92 65.4349 450.208 65.9789 449.312C66.5389 448.416 66.8189 447.416 66.8189 446.312ZM60.5789 449.528C60.0349 449.528 59.5229 449.384 59.0429 449.096C58.5629 448.792 58.1789 448.4 57.8909 447.92C57.6029 447.424 57.4589 446.888 57.4589 446.312C57.4589 445.736 57.5949 445.216 57.8669 444.752C58.1549 444.272 58.5389 443.896 59.0189 443.624C59.4989 443.336 60.0269 443.192 60.6029 443.192C61.1789 443.192 61.6989 443.336 62.1629 443.624C62.6429 443.896 63.0269 444.272 63.3149 444.752C63.6029 445.216 63.7469 445.736 63.7469 446.312C63.7469 446.888 63.6029 447.424 63.3149 447.92C63.0269 448.4 62.6429 448.792 62.1629 449.096C61.6829 449.384 61.1549 449.528 60.5789 449.528ZM67.8478 471.608C67.8478 472.568 67.5998 473.376 67.1038 474.032C66.6078 474.672 65.9358 475.16 65.0878 475.496C64.2558 475.832 63.3438 476 62.3518 476H54.1198V458.96H63.2398C64.0398 458.96 64.7278 459.176 65.3038 459.608C65.8958 460.024 66.3438 460.568 66.6478 461.24C66.9678 461.896 67.1278 462.584 67.1278 463.304C67.1278 464.12 66.9198 464.896 66.5038 465.632C66.0878 466.368 65.4798 466.912 64.6797 467.264C65.6558 467.552 66.4238 468.072 66.9838 468.824C67.5598 469.576 67.8478 470.504 67.8478 471.608ZM64.5118 470.984C64.5118 470.552 64.4238 470.168 64.2478 469.832C64.0718 469.48 63.8318 469.208 63.5278 469.016C63.2398 468.808 62.9038 468.704 62.5198 468.704H57.4318V473.192H62.3518C62.7518 473.192 63.1118 473.096 63.4318 472.904C63.7678 472.696 64.0318 472.424 64.2238 472.088C64.4158 471.752 64.5118 471.384 64.5118 470.984ZM57.4318 461.792V466.088H61.8478C62.2158 466.088 62.5518 466 62.8558 465.824C63.1598 465.648 63.3998 465.4 63.5758 465.08C63.7678 464.76 63.8638 464.376 63.8638 463.928C63.8638 463.496 63.7758 463.12 63.5998 462.8C63.4398 462.48 63.2158 462.232 62.9278 462.056C62.6558 461.88 62.3438 461.792 61.9918 461.792H57.4318ZM53.0174 491.36C53.0174 490.32 53.2014 489.304 53.5694 488.312C53.9534 487.304 54.5054 486.392 55.2254 485.576C55.9454 484.744 56.8254 484.088 57.8654 483.608C58.9054 483.112 60.0894 482.864 61.4174 482.864C62.9854 482.864 64.3374 483.208 65.4734 483.896C66.6254 484.584 67.4814 485.48 68.0414 486.584L65.4974 488.336C65.2094 487.696 64.8334 487.192 64.3694 486.824C63.9054 486.44 63.4094 486.176 62.8814 486.032C62.3534 485.872 61.8334 485.792 61.3214 485.792C60.4894 485.792 59.7614 485.96 59.1374 486.296C58.5294 486.632 58.0174 487.072 57.6014 487.616C57.1854 488.16 56.8734 488.768 56.6654 489.44C56.4734 490.112 56.3774 490.784 56.3774 491.456C56.3774 492.208 56.4974 492.936 56.7374 493.64C56.9774 494.328 57.3134 494.944 57.7454 495.488C58.1934 496.016 58.7214 496.44 59.3294 496.76C59.9534 497.064 60.6334 497.216 61.3694 497.216C61.8974 497.216 62.4334 497.128 62.9774 496.952C63.5214 496.776 64.0254 496.496 64.4894 496.112C64.9534 495.728 65.3134 495.232 65.5694 494.624L68.2814 496.184C67.9454 497.032 67.3934 497.752 66.6254 498.344C65.8734 498.936 65.0254 499.384 64.0814 499.688C63.1374 499.992 62.2014 500.144 61.2734 500.144C60.0574 500.144 58.9454 499.896 57.9374 499.4C56.9294 498.888 56.0574 498.216 55.3214 497.384C54.6014 496.536 54.0334 495.592 53.6174 494.552C53.2174 493.496 53.0174 492.432 53.0174 491.36ZM66.6978 518.96C66.6978 520.016 66.4098 520.936 65.8338 521.72C65.2738 522.504 64.5218 523.12 63.5778 523.568C62.6338 524 61.6018 524.216 60.4818 524.216C59.3458 524.216 58.3058 523.984 57.3618 523.52C56.4338 523.056 55.6898 522.424 55.1298 521.624C54.5858 520.808 54.3138 519.88 54.3138 518.84C54.3138 518.2 54.4498 517.624 54.7218 517.112C54.9938 516.584 55.3298 516.136 55.7298 515.768C56.1458 515.384 56.5618 515.088 56.9778 514.88C56.5938 514.688 56.2338 514.432 55.8978 514.112C55.5778 513.792 55.3218 513.424 55.1298 513.008C54.9378 512.592 54.8418 512.152 54.8418 511.688C54.8418 510.936 55.0098 510.264 55.3458 509.672C55.6818 509.08 56.1298 508.584 56.6898 508.184C57.2498 507.768 57.8578 507.464 58.5138 507.272C59.1858 507.064 59.8498 506.96 60.5058 506.96C61.1458 506.96 61.8018 507.064 62.4738 507.272C63.1458 507.464 63.7618 507.76 64.3218 508.16C64.8818 508.56 65.3298 509.056 65.6658 509.648C66.0178 510.224 66.1938 510.896 66.1938 511.664C66.1938 512.112 66.0898 512.552 65.8818 512.984C65.6898 513.4 65.4258 513.776 65.0898 514.112C64.7698 514.432 64.4018 514.688 63.9858 514.88C64.4498 515.12 64.8898 515.432 65.3058 515.816C65.7218 516.2 66.0578 516.656 66.3138 517.184C66.5698 517.712 66.6978 518.304 66.6978 518.96ZM63.4338 518.768C63.4338 518.352 63.3538 517.992 63.1938 517.688C63.0338 517.368 62.8098 517.104 62.5218 516.896C62.2338 516.672 61.9138 516.504 61.5618 516.392C61.2098 516.28 60.8498 516.224 60.4818 516.224C59.9698 516.224 59.4898 516.328 59.0418 516.536C58.6098 516.744 58.2578 517.04 57.9858 517.424C57.7138 517.808 57.5778 518.256 57.5778 518.768C57.5778 519.152 57.6578 519.504 57.8178 519.824C57.9938 520.128 58.2178 520.392 58.4898 520.616C58.7778 520.84 59.0898 521.016 59.4258 521.144C59.7778 521.256 60.1378 521.312 60.5058 521.312C61.0178 521.312 61.4978 521.2 61.9458 520.976C62.3938 520.752 62.7538 520.448 63.0258 520.064C63.2978 519.68 63.4338 519.248 63.4338 518.768ZM58.1058 511.784C58.1058 512.216 58.2258 512.584 58.4658 512.888C58.7058 513.192 59.0098 513.424 59.3778 513.584C59.7618 513.728 60.1378 513.8 60.5058 513.8C60.8898 513.8 61.2578 513.72 61.6098 513.56C61.9778 513.4 62.2818 513.176 62.5218 512.888C62.7778 512.584 62.9058 512.208 62.9058 511.76C62.9058 511.36 62.7938 511.016 62.5698 510.728C62.3458 510.44 62.0498 510.216 61.6818 510.056C61.3298 509.896 60.9298 509.816 60.4818 509.816C60.0658 509.816 59.6738 509.896 59.3058 510.056C58.9378 510.216 58.6418 510.448 58.4178 510.752C58.2098 511.04 58.1058 511.384 58.1058 511.784ZM65.8503 545.096V548H56.1063V545.096H59.5143V537.824C59.3703 538.016 59.1463 538.216 58.8423 538.424C58.5383 538.616 58.1943 538.8 57.8103 538.976C57.4263 539.152 57.0423 539.296 56.6583 539.408C56.2743 539.52 55.9303 539.576 55.6263 539.576V536.576C55.9143 536.576 56.2583 536.488 56.6583 536.312C57.0743 536.12 57.4823 535.896 57.8823 535.64C58.2983 535.384 58.6503 535.136 58.9383 534.896C59.2423 534.64 59.4343 534.44 59.5143 534.296H62.8023V545.096H65.8503ZM66.6889 564.968C66.6889 566.376 66.4169 567.632 65.8729 568.736C65.3449 569.824 64.6089 570.68 63.6649 571.304C62.7369 571.928 61.6809 572.24 60.4969 572.24C59.3129 572.24 58.2489 571.928 57.3049 571.304C56.3769 570.68 55.6409 569.824 55.0969 568.736C54.5689 567.632 54.3049 566.376 54.3049 564.968C54.3049 563.56 54.5689 562.312 55.0969 561.224C55.6409 560.12 56.3769 559.256 57.3049 558.632C58.2489 557.992 59.3129 557.672 60.4969 557.672C61.6809 557.672 62.7369 557.992 63.6649 558.632C64.6089 559.256 65.3449 560.12 65.8729 561.224C66.4169 562.312 66.6889 563.56 66.6889 564.968ZM63.4489 564.968C63.4489 564.104 63.3209 563.352 63.0649 562.712C62.8249 562.056 62.4809 561.544 62.0329 561.176C61.5849 560.808 61.0729 560.624 60.4969 560.624C59.9049 560.624 59.3849 560.808 58.9369 561.176C58.4889 561.544 58.1369 562.056 57.8809 562.712C57.6409 563.352 57.5209 564.104 57.5209 564.968C57.5209 565.832 57.6409 566.584 57.8809 567.224C58.1369 567.864 58.4889 568.368 58.9369 568.736C59.3849 569.104 59.9049 569.288 60.4969 569.288C61.0729 569.288 61.5769 569.104 62.0089 568.736C62.4569 568.368 62.8089 567.864 63.0649 567.224C63.3209 566.568 63.4489 565.816 63.4489 564.968ZM53.0174 587.36C53.0174 586.32 53.2014 585.304 53.5694 584.312C53.9534 583.304 54.5054 582.392 55.2254 581.576C55.9454 580.744 56.8254 580.088 57.8654 579.608C58.9054 579.112 60.0894 578.864 61.4174 578.864C62.9854 578.864 64.3374 579.208 65.4734 579.896C66.6254 580.584 67.4814 581.48 68.0414 582.584L65.4974 584.336C65.2094 583.696 64.8334 583.192 64.3694 582.824C63.9054 582.44 63.4094 582.176 62.8814 582.032C62.3534 581.872 61.8334 581.792 61.3214 581.792C60.4894 581.792 59.7614 581.96 59.1374 582.296C58.5294 582.632 58.0174 583.072 57.6014 583.616C57.1854 584.16 56.8734 584.768 56.6654 585.44C56.4734 586.112 56.3774 586.784 56.3774 587.456C56.3774 588.208 56.4974 588.936 56.7374 589.64C56.9774 590.328 57.3134 590.944 57.7454 591.488C58.1934 592.016 58.7214 592.44 59.3294 592.76C59.9534 593.064 60.6334 593.216 61.3694 593.216C61.8974 593.216 62.4334 593.128 62.9774 592.952C63.5214 592.776 64.0254 592.496 64.4894 592.112C64.9534 591.728 65.3134 591.232 65.5694 590.624L68.2814 592.184C67.9454 593.032 67.3934 593.752 66.6254 594.344C65.8734 594.936 65.0254 595.384 64.0814 595.688C63.1374 595.992 62.2014 596.144 61.2734 596.144C60.0574 596.144 58.9454 595.896 57.9374 595.4C56.9294 594.888 56.0574 594.216 55.3214 593.384C54.6014 592.536 54.0334 591.592 53.6174 590.552C53.2174 589.496 53.0174 588.432 53.0174 587.36ZM58.8455 602.96H62.2055L68.4695 620H65.0615L63.4775 615.752H57.5255L55.9655 620H52.5575L58.8455 602.96ZM62.8775 613.424L60.5255 606.392L58.0775 613.424H62.8775ZM61.1325 647.048V643.472H54.1245V640.616L62.1645 630.296H64.3485V640.592H66.4605V643.472H64.3485V647.048H61.1325ZM57.3405 640.592H61.4925V635.168L57.3405 640.592ZM66.8189 662.312C66.8189 661.24 66.5549 660.28 66.0269 659.432C65.5149 658.568 64.8109 657.888 63.9149 657.392C63.0189 656.88 62.0029 656.624 60.8669 656.624C60.3389 656.624 59.8429 656.704 59.3789 656.864C58.9149 657.008 58.5069 657.224 58.1549 657.512C57.8029 657.784 57.5149 658.112 57.2909 658.496C57.3229 657.472 57.4829 656.6 57.7709 655.88C58.0589 655.144 58.4669 654.584 58.9949 654.2C59.5229 653.816 60.1469 653.624 60.8669 653.624C61.5709 653.624 62.2269 653.8 62.8349 654.152C63.4429 654.488 63.9389 654.952 64.3229 655.544L66.1709 653.528C65.5469 652.664 64.7789 652 63.8669 651.536C62.9709 651.072 61.9869 650.84 60.9149 650.84C59.5709 650.84 58.4029 651.208 57.4109 651.944C56.4189 652.664 55.6509 653.744 55.1069 655.184C54.5789 656.608 54.3149 658.352 54.3149 660.416C54.3149 662.048 54.5709 663.448 55.0829 664.616C55.5949 665.784 56.3149 666.68 57.2429 667.304C58.1869 667.928 59.2989 668.24 60.5789 668.24C61.7629 668.24 62.8189 667.976 63.7469 667.448C64.6909 666.92 65.4349 666.208 65.9789 665.312C66.5389 664.416 66.8189 663.416 66.8189 662.312ZM60.5789 665.528C60.0349 665.528 59.5229 665.384 59.0429 665.096C58.5629 664.792 58.1789 664.4 57.8909 663.92C57.6029 663.424 57.4589 662.888 57.4589 662.312C57.4589 661.736 57.5949 661.216 57.8669 660.752C58.1549 660.272 58.5389 659.896 59.0189 659.624C59.4989 659.336 60.0269 659.192 60.6029 659.192C61.1789 659.192 61.6989 659.336 62.1629 659.624C62.6429 659.896 63.0269 660.272 63.3149 660.752C63.6029 661.216 63.7469 661.736 63.7469 662.312C63.7469 662.888 63.6029 663.424 63.3149 663.92C63.0269 664.4 62.6429 664.792 62.1629 665.096C61.6829 665.384 61.1549 665.528 60.5789 665.528ZM55.3854 692V674.96H66.8334V677.864H58.6974V682.256H65.4654V684.944H58.6974V692H55.3854Z" fill="url(#paint4_linear_92_74)"/>
</g>
<defs>
<filter id="filter0_f_92_74" x="139.705" y="32.64" width="14.608" height="303.36" filterUnits="userSpaceOnUse" color-interpolation-filters="sRGB">
<feFlood flood-opacity="0" result="BackgroundImageFix"/>
<feBlend mode="normal" in="SourceGraphic" in2="BackgroundImageFix" result="shape"/>
<feGaussianBlur stdDeviation="1" result="effect1_foregroundBlur_92_74"/>
</filter>
<filter id="filter1_f_92_74" x="221.367" y="338.06" width="17.282" height="269.94" filterUnits="userSpaceOnUse" color-interpolation-filters="sRGB">
<feFlood flood-opacity="0" result="BackgroundImageFix"/>
<feBlend mode="normal" in="SourceGraphic" in2="BackgroundImageFix" result="shape"/>
<feGaussianBlur stdDeviation="2" result="effect1_foregroundBlur_92_74"/>
</filter>
<filter id="filter2_f_92_74" x="48.5575" y="262.96" width="23.912" height="433.04" filterUnits="userSpaceOnUse" color-interpolation-filters="sRGB">
<feFlood flood-opacity="0" result="BackgroundImageFix"/>
<feBlend mode="normal" in="SourceGraphic" in2="BackgroundImageFix" result="shape"/>
<feGaussianBlur stdDeviation="2" result="effect1_foregroundBlur_92_74"/>
</filter>
<radialGradient id="paint0_radial_92_74" cx="0" cy="0" r="1" gradientUnits="userSpaceOnUse" gradientTransform="translate(2265.44 1136.6) rotate(89.786) scale(953.41)">
<stop stop-color="#1AFFB3"/>
<stop offset="1" stop-color="#142E46" stop-opacity="0"/>
</radialGradient>
<radialGradient id="paint1_radial_92_74" cx="0" cy="0" r="1" gradientUnits="userSpaceOnUse" gradientTransform="translate(-440.561 104.596) rotate(141.189) scale(1023.38)">
<stop stop-color="#1AFFB3"/>
<stop offset="1" stop-color="#142E46" stop-opacity="0"/>
</radialGradient>
<linearGradient id="paint2_linear_92_74" x1="147" y1="32" x2="147" y2="352" gradientUnits="userSpaceOnUse">
<stop stop-color="#1AFFB3"/>
<stop offset="1" stop-color="#0EE37D" stop-opacity="0"/>
</linearGradient>
<linearGradient id="paint3_linear_92_74" x1="230" y1="340" x2="230" y2="620" gradientUnits="userSpaceOnUse">
<stop stop-color="#1AFFB3"/>
<stop offset="1" stop-color="#0EE37D" stop-opacity="0"/>
</linearGradient>
<linearGradient id="paint4_linear_92_74" x1="60.5" y1="264" x2="60.5" y2="720" gradientUnits="userSpaceOnUse">
<stop stop-color="#1AFFB3"/>
<stop offset="1" stop-color="#0EE37D" stop-opacity="0"/>
</linearGradient>
</defs>
</svg>
