<svg width="1920" height="394" viewBox="0 0 1920 394" fill="none" xmlns="http://www.w3.org/2000/svg">
<g style="mix-blend-mode:hard-light" clip-path="url(#clip0_30_3293)">
<g opacity="0.4">
<mask id="mask0_30_3293" style="mask-type:alpha" maskUnits="userSpaceOnUse" x="2" y="3" width="1918" height="456">
<path d="M2.85645 3.56787H1919.49V458.703H2.85645V3.56787Z" fill="#AAB2B0"/>
</mask>
<g mask="url(#mask0_30_3293)">
<path d="M769.506 3.55762H951.587V19.8282H769.506V3.55762Z" fill="#AAB2B0" fill-opacity="0.2"/>
<path d="M769.506 36.1035H951.587V52.374H769.506V36.1035Z" fill="#AAB2B0" fill-opacity="0.2"/>
<path d="M769.506 68.6392H951.587V84.9097H769.506V68.6392Z" fill="#AAB2B0" fill-opacity="0.2"/>
<path d="M903.664 133.729H836.585V149.999H827V133.729V117.458H903.664V133.729Z" fill="#AAB2B0" fill-opacity="0.2"/>
<path d="M807.831 101.185H827V117.456H807.831V101.185Z" fill="#AAB2B0" fill-opacity="0.2"/>
<path d="M807.831 133.729H779.078V149.999H769.499V133.729V117.458H807.831V133.729Z" fill="#AAB2B0" fill-opacity="0.2"/>
<path d="M903.67 101.185H932.418V117.456H903.67V101.185Z" fill="#AAB2B0" fill-opacity="0.2"/>
<path d="M932.424 117.458H961.171V133.729H932.424V117.458Z" fill="#AAB2B0" fill-opacity="0.2"/>
<path d="M913.255 149.994H951.587V166.265H913.255V149.994Z" fill="#AAB2B0" fill-opacity="0.2"/>
<path d="M903.664 133.721H913.249V149.992H903.664V133.721Z" fill="#AAB2B0" fill-opacity="0.2"/>
<path d="M836.585 149.994H903.664V166.265H836.585V149.994Z" fill="#AAB2B0" fill-opacity="0.2"/>
<path d="M788.668 149.994H827V166.265H788.668V149.994Z" fill="#AAB2B0" fill-opacity="0.2"/>
<path d="M807.831 198.803H827V215.074H807.831V198.803Z" fill="#AAB2B0" fill-opacity="0.2"/>
<path d="M769.499 182.53H807.831V198.8H769.499V182.53Z" fill="#AAB2B0" fill-opacity="0.2"/>
<path d="M827.013 182.53H836.597V198.8H827.013V182.53Z" fill="#AAB2B0" fill-opacity="0.2"/>
<path d="M865.339 215.074V231.343H846.176V215.074H836.591V198.803H874.923V215.074H865.339Z" fill="#AAB2B0" fill-opacity="0.2"/>
<path d="M874.917 182.53H903.664V198.8H874.917V182.53Z" fill="#AAB2B0" fill-opacity="0.2"/>
<path d="M903.664 166.267H913.249V182.538H903.664V166.267Z" fill="#AAB2B0" fill-opacity="0.2"/>
<path d="M903.664 198.803H913.249V215.074H903.664V198.803Z" fill="#AAB2B0" fill-opacity="0.2"/>
<path d="M913.255 215.065H951.587V231.336H913.255V215.065Z" fill="#AAB2B0" fill-opacity="0.2"/>
<path d="M874.917 231.338H903.664V247.609H874.917V231.338Z" fill="#AAB2B0" fill-opacity="0.2"/>
<path d="M788.681 231.338H836.597V247.609H788.681V231.338Z" fill="#AAB2B0" fill-opacity="0.2"/>
<path d="M769.505 215.065H788.675V231.336H769.505V215.065Z" fill="#AAB2B0" fill-opacity="0.2"/>
<path d="M807.831 280.158H827V296.428H807.831V280.158Z" fill="#AAB2B0" fill-opacity="0.2"/>
<path d="M769.499 263.885H807.831V280.154H769.499V263.885Z" fill="#AAB2B0" fill-opacity="0.2"/>
<path d="M846.169 280.158H865.338V328.969H846.169V280.158Z" fill="#AAB2B0" fill-opacity="0.2"/>
<path d="M827 263.885H846.169V280.154H827V263.885Z" fill="#AAB2B0" fill-opacity="0.2"/>
<path d="M865.338 263.885H884.507V280.154H865.338V263.885Z" fill="#AAB2B0" fill-opacity="0.2"/>
<path d="M884.495 280.158H894.08V296.428H884.495V280.158Z" fill="#AAB2B0" fill-opacity="0.2"/>
<path d="M903.671 263.885H913.255V280.154H951.587V296.425H913.255H903.671V280.154H894.086V263.885H903.671Z" fill="#AAB2B0" fill-opacity="0.2"/>
<path d="M913.255 247.611H951.587V263.882H913.255V247.611Z" fill="#AAB2B0" fill-opacity="0.2"/>
<path d="M846.169 361.512H865.338V377.783H846.169V361.512Z" fill="#AAB2B0" fill-opacity="0.2"/>
<path d="M827 345.24H846.169V361.509H827V345.24Z" fill="#AAB2B0" fill-opacity="0.2"/>
<path d="M807.831 312.693H827V345.234H807.831V312.693Z" fill="#AAB2B0" fill-opacity="0.2"/>
<path d="M769.499 345.24H807.831V361.509H769.499V345.24Z" fill="#AAB2B0" fill-opacity="0.2"/>
<path d="M865.338 345.24H884.507V361.509H865.338V345.24Z" fill="#AAB2B0" fill-opacity="0.2"/>
<path d="M884.495 361.512H894.08V377.783H884.495V361.512Z" fill="#AAB2B0" fill-opacity="0.2"/>
<path d="M894.079 345.24H913.249V361.509H894.079V345.24Z" fill="#AAB2B0" fill-opacity="0.2"/>
<path d="M951.587 328.966H961.171V345.236H951.587V328.966Z" fill="#AAB2B0" fill-opacity="0.2"/>
<path d="M942.002 345.24H951.587V361.509V377.78H913.255V361.509H942.002V345.24Z" fill="#AAB2B0" fill-opacity="0.2"/>
<path d="M807.831 377.785H827V394.056H807.831V377.785Z" fill="#AAB2B0" fill-opacity="0.2"/>
<path d="M1344.5 328.966H1363.67V361.507H1344.5V328.966Z" fill="#AAB2B0" fill-opacity="0.2"/>
<path d="M1363.66 361.512H1382.82V394.053H1363.66V361.512Z" fill="#AAB2B0" fill-opacity="0.2"/>
<path d="M1382.83 328.966H1401.99V361.507H1382.83V328.966Z" fill="#AAB2B0" fill-opacity="0.2"/>
<path d="M1402 361.512H1421.16V394.053H1402V361.512Z" fill="#AAB2B0" fill-opacity="0.2"/>
<path d="M1421.16 328.966H1440.33V361.507H1421.16V328.966Z" fill="#AAB2B0" fill-opacity="0.2"/>
<path d="M1440.33 361.512H1459.5V394.053H1440.33V361.512Z" fill="#AAB2B0" fill-opacity="0.2"/>
<path d="M1459.49 328.966H1478.66V361.507H1459.49V328.966Z" fill="#AAB2B0" fill-opacity="0.2"/>
<path d="M1478.66 361.512H1497.83V394.053H1478.66V361.512Z" fill="#AAB2B0" fill-opacity="0.2"/>
<path d="M1497.83 328.966H1517V361.507H1497.83V328.966Z" fill="#AAB2B0" fill-opacity="0.2"/>
<path d="M1517 361.512H1536.17V394.053H1517V361.512Z" fill="#AAB2B0" fill-opacity="0.2"/>
<path d="M1152.84 361.507V328.966H1344.5V361.507H1152.84Z" fill="#AAB2B0" fill-opacity="0.2"/>
<path d="M405.337 654.383H386.174V361.512H405.337H482.007H501.17V394.053H482.007V556.759H462.838H424.506V524.218V426.594H443.669V524.218H462.838V394.053H405.337V556.759H424.506V589.3H405.337V654.383Z" fill="#AAB2B0" fill-opacity="0.2"/>
<path d="M501.176 328.966H520.339V361.507H501.176V328.966Z" fill="#AAB2B0" fill-opacity="0.2"/>
<path d="M539.514 361.512H558.677V394.053H539.514V361.512Z" fill="#AAB2B0" fill-opacity="0.2"/>
<path d="M673.672 328.966H692.842V345.236H673.672V328.966Z" fill="#AAB2B0" fill-opacity="0.2"/>
<path d="M654.516 345.24H673.679V361.509H654.516V345.24Z" fill="#AAB2B0" fill-opacity="0.2"/>
<path d="M616.178 361.512H654.51V377.783H616.178V361.512Z" fill="#AAB2B0" fill-opacity="0.2"/>
<path d="M597.009 345.24H616.172V361.509H597.009V345.24Z" fill="#AAB2B0" fill-opacity="0.2"/>
<path d="M577.84 361.512H597.002V377.783H577.84V361.512Z" fill="#AAB2B0" fill-opacity="0.2"/>
<path d="M616.178 328.966H654.51V345.236H616.178V328.966Z" fill="#AAB2B0" fill-opacity="0.2"/>
<path d="M577.84 328.966H597.002V345.236H577.84V328.966Z" fill="#AAB2B0" fill-opacity="0.2"/>
<path d="M692.848 361.507V345.236H731.186V328.966H769.518V361.507H731.186V377.778H769.518V394.049H750.349V410.319H769.518V459.13H750.349V475.401H769.518V491.672H654.516V507.943H616.184V491.672H597.021V459.13H577.852V426.589H597.021V459.13H654.516V442.86H712.017V426.589H654.516V442.86H616.184V426.589H597.021V394.049H654.516V377.778H692.848V361.507ZM616.184 475.401V491.672H654.516V475.401H616.184ZM673.685 459.13V475.401H692.848V459.13H673.685ZM616.184 410.319V426.589H654.516V410.319H673.685V394.049H654.516V410.319H616.184Z" fill="#AAB2B0" fill-opacity="0.2"/>
<path d="M1737.4 19.8306H1775.73V36.1011H1737.4V19.8306Z" fill="#AAB2B0" fill-opacity="0.2"/>
<path d="M1737.4 52.3662H1775.73V68.6368H1737.4V52.3662Z" fill="#AAB2B0" fill-opacity="0.2"/>
<path d="M1737.4 84.9124H1775.73V101.183H1737.4V84.9124Z" fill="#AAB2B0" fill-opacity="0.2"/>
<path d="M1737.4 117.458H1775.73V133.729H1737.4V117.458Z" fill="#AAB2B0" fill-opacity="0.2"/>
<path d="M1737.4 149.994H1775.73V166.265H1737.4V149.994Z" fill="#AAB2B0" fill-opacity="0.2"/>
<path d="M1737.4 182.53H1775.73V198.8H1737.4V182.53Z" fill="#AAB2B0" fill-opacity="0.2"/>
<path d="M1737.41 215.065H1814.07V231.336H1737.41V215.065Z" fill="#AAB2B0" fill-opacity="0.2"/>
<path d="M1737.41 247.611H1814.07V263.882H1737.41V247.611Z" fill="#AAB2B0" fill-opacity="0.2"/>
<path d="M1737.41 280.158H1814.07V296.428H1737.41V280.158Z" fill="#AAB2B0" fill-opacity="0.2"/>
<path d="M1823.66 68.6392H1833.24V182.533H1823.66V68.6392Z" fill="#AAB2B0" fill-opacity="0.2"/>
<path d="M1842.83 68.6392H1852.41V182.533H1842.83V68.6392Z" fill="#AAB2B0" fill-opacity="0.2"/>
<path d="M1861.98 68.6392H1871.57V312.697H1861.98V68.6392Z" fill="#AAB2B0" fill-opacity="0.2"/>
<path d="M1881.15 3.55762H1890.74V312.698H1881.15V3.55762Z" fill="#AAB2B0" fill-opacity="0.2"/>
<path d="M1900.32 19.8306H1909.9V52.3716H1900.32V19.8306Z" fill="#AAB2B0" fill-opacity="0.2"/>
<path d="M1909.91 52.3662H1919.49V101.178H1909.91V52.3662Z" fill="#AAB2B0" fill-opacity="0.2"/>
<path d="M1900.32 101.185H1909.9V117.456H1900.32V101.185Z" fill="#AAB2B0" fill-opacity="0.2"/>
<path d="M1909.91 117.458H1919.49V198.811H1909.91V117.458Z" fill="#AAB2B0" fill-opacity="0.2"/>
<path d="M1900.32 198.803H1909.9V231.343H1900.32V198.803Z" fill="#AAB2B0" fill-opacity="0.2"/>
<path d="M1909.91 231.338H1919.49V247.609H1909.91V231.338Z" fill="#AAB2B0" fill-opacity="0.2"/>
<path d="M1900.32 247.611H1909.9V280.152H1900.32V247.611Z" fill="#AAB2B0" fill-opacity="0.2"/>
<path d="M1909.91 280.158H1919.49V312.698H1909.91V280.158Z" fill="#AAB2B0" fill-opacity="0.2"/>
<path d="M1900.32 312.693H1909.9V328.964H1900.32V312.693Z" fill="#AAB2B0" fill-opacity="0.2"/>
<path d="M1909.91 3.55688H1919.49V19.8275H1909.91V3.55688Z" fill="#AAB2B0" fill-opacity="0.2"/>
<path d="M1775.74 166.267H1814.07V182.538H1775.74V166.267Z" fill="#AAB2B0" fill-opacity="0.2"/>
<path d="M1775.74 133.721H1814.07V149.992H1775.74V133.721Z" fill="#AAB2B0" fill-opacity="0.2"/>
<path d="M1775.73 101.185H1785.32V117.456H1775.73V101.185Z" fill="#AAB2B0" fill-opacity="0.2"/>
<path d="M1785.32 68.6392H1794.9V101.18H1785.32V68.6392Z" fill="#AAB2B0" fill-opacity="0.2"/>
<path d="M1794.9 52.3662H1804.49V68.6368H1794.9V52.3662Z" fill="#AAB2B0" fill-opacity="0.2"/>
<path d="M1785.32 3.55762H1794.9V52.3693H1785.32V3.55762Z" fill="#AAB2B0" fill-opacity="0.2"/>
<path d="M1804.49 84.9124H1814.07V101.183H1804.49V84.9124Z" fill="#AAB2B0" fill-opacity="0.2"/>
<path d="M1794.9 101.185H1804.49V117.456H1794.9V101.185Z" fill="#AAB2B0" fill-opacity="0.2"/>
<path d="M1814.07 52.3662H1823.65V68.6368H1814.07V52.3662Z" fill="#AAB2B0" fill-opacity="0.2"/>
<path d="M1804.49 19.8306H1852.41V36.1011H1804.49V19.8306Z" fill="#AAB2B0" fill-opacity="0.2"/>
<path d="M1852.41 36.1035H1861.99V52.374H1852.41V36.1035Z" fill="#AAB2B0" fill-opacity="0.2"/>
<path d="M1814.08 198.803H1852.41V215.074H1814.08V198.803Z" fill="#AAB2B0" fill-opacity="0.2"/>
<path d="M1814.08 263.885H1852.41V280.154H1814.08V263.885Z" fill="#AAB2B0" fill-opacity="0.2"/>
<path d="M1852.41 328.972H1814.08H1737.41V312.701H1814.08V296.431H1852.41V328.972Z" fill="#AAB2B0" fill-opacity="0.2"/>
<path d="M1363.66 36.1035H1382.82V68.6446H1363.66V36.1035Z" fill="#AAB2B0" fill-opacity="0.2"/>
<path d="M1421.16 101.185H1517V133.726H1421.16V101.185Z" fill="#AAB2B0" fill-opacity="0.2"/>
<path d="M1382.83 101.185H1402V166.268H1440.33V198.808H1402V231.35H1382.83V101.185Z" fill="#AAB2B0" fill-opacity="0.2"/>
<path d="M1363.66 231.338H1382.82V263.88H1363.66V231.338Z" fill="#AAB2B0" fill-opacity="0.2"/>
<path d="M1402 231.338H1459.5V263.88H1402V231.338Z" fill="#AAB2B0" fill-opacity="0.2"/>
<path d="M1478.66 166.267H1497.83V328.972H1478.66V166.267Z" fill="#AAB2B0" fill-opacity="0.2"/>
<path d="M1478.66 3.55762H1497.83V36.0987H1478.66V3.55762Z" fill="#AAB2B0" fill-opacity="0.2"/>
<path d="M1344.5 3.55762H1363.67V36.0987H1344.5V3.55762Z" fill="#AAB2B0" fill-opacity="0.2"/>
<path d="M1344.5 296.431H1363.67V328.972H1344.5V296.431Z" fill="#AAB2B0" fill-opacity="0.2"/>
<path d="M1382.83 263.885H1401.99V328.967H1382.83V263.885Z" fill="#AAB2B0" fill-opacity="0.2"/>
<path d="M980.334 361.512H999.497V621.841H980.334V361.512Z" fill="#AAB2B0" fill-opacity="0.2"/>
<path d="M1037.84 361.512H1057V426.594H1037.84V361.512Z" fill="#AAB2B0" fill-opacity="0.2"/>
<path d="M1076.17 361.512H1095.33V426.594H1076.17V361.512Z" fill="#AAB2B0" fill-opacity="0.2"/>
<path d="M1114.51 361.512H1133.67V426.594H1114.51V361.512Z" fill="#AAB2B0" fill-opacity="0.2"/>
<path d="M1143.26 328.966H1152.84V345.236H1143.26V328.966Z" fill="#AAB2B0" fill-opacity="0.2"/>
<path d="M961.171 328.966H970.756V345.236H961.171V328.966Z" fill="#AAB2B0" fill-opacity="0.2"/>
<path d="M60.3496 19.8306H69.9341V36.1011H60.3496V19.8306Z" fill="#AAB2B0" fill-opacity="0.2"/>
<path d="M69.9342 36.1035H79.5188V52.374H69.9342V36.1035Z" fill="#AAB2B0" fill-opacity="0.2"/>
<path d="M79.5186 19.8306H89.103V36.1011H79.5186V19.8306Z" fill="#AAB2B0" fill-opacity="0.2"/>
<path d="M2.84866 3.55762H60.3496V19.8282H2.84866V3.55762Z" fill="#AAB2B0" fill-opacity="0.2"/>
<path d="M89.1033 3.55762H156.183V19.8282H89.1033V3.55762Z" fill="#AAB2B0" fill-opacity="0.2"/>
<path d="M60.3496 52.3662H69.9341V68.6368H60.3496V52.3662Z" fill="#AAB2B0" fill-opacity="0.2"/>
<path d="M79.5186 52.3662H89.103V68.6368H79.5186V52.3662Z" fill="#AAB2B0" fill-opacity="0.2"/>
<path d="M89.1033 68.6392H156.183V84.9097H89.1033V68.6392Z" fill="#AAB2B0" fill-opacity="0.2"/>
<path d="M2.84866 68.6392H60.3496V84.9097H2.84866V68.6392Z" fill="#AAB2B0" fill-opacity="0.2"/>
<path d="M60.3496 117.458H69.9341V133.729H60.3496V117.458Z" fill="#AAB2B0" fill-opacity="0.2"/>
<path d="M69.9342 133.721H79.5188V149.992H69.9342V133.721Z" fill="#AAB2B0" fill-opacity="0.2"/>
<path d="M79.5186 117.458H89.103V133.729H79.5186V117.458Z" fill="#AAB2B0" fill-opacity="0.2"/>
<path d="M2.84866 101.185H60.3496V117.456H2.84866V101.185Z" fill="#AAB2B0" fill-opacity="0.2"/>
<path d="M89.1033 101.185H156.183V117.456H89.1033V101.185Z" fill="#AAB2B0" fill-opacity="0.2"/>
<path d="M60.3496 149.994H69.9341V166.265H60.3496V149.994Z" fill="#AAB2B0" fill-opacity="0.2"/>
<path d="M79.5186 149.994H89.103V166.265H79.5186V149.994Z" fill="#AAB2B0" fill-opacity="0.2"/>
<path d="M89.1033 166.267H156.183V182.538H89.1033V166.267Z" fill="#AAB2B0" fill-opacity="0.2"/>
<path d="M2.84866 166.267H60.3496V182.538H2.84866V166.267Z" fill="#AAB2B0" fill-opacity="0.2"/>
<path d="M60.3496 215.065H69.9341V231.336H60.3496V215.065Z" fill="#AAB2B0" fill-opacity="0.2"/>
<path d="M69.9342 231.338H79.5188V247.609H69.9342V231.338Z" fill="#AAB2B0" fill-opacity="0.2"/>
<path d="M79.5186 215.065H89.103V231.336H79.5186V215.065Z" fill="#AAB2B0" fill-opacity="0.2"/>
<path d="M2.84866 198.803H60.3496V215.074H2.84866V198.803Z" fill="#AAB2B0" fill-opacity="0.2"/>
<path d="M89.1033 198.803H156.183V215.074H89.1033V198.803Z" fill="#AAB2B0" fill-opacity="0.2"/>
<path d="M60.3496 247.611H69.9341V263.882H60.3496V247.611Z" fill="#AAB2B0" fill-opacity="0.2"/>
<path d="M79.5186 247.611H89.103V263.882H79.5186V247.611Z" fill="#AAB2B0" fill-opacity="0.2"/>
<path d="M89.1033 263.885H156.183V280.154H89.1033V263.885Z" fill="#AAB2B0" fill-opacity="0.2"/>
<path d="M2.84866 263.885H60.3496V280.154H2.84866V263.885Z" fill="#AAB2B0" fill-opacity="0.2"/>
<path d="M2.84866 36.1035H60.3496V52.374H2.84866V36.1035Z" fill="#AAB2B0" fill-opacity="0.2"/>
<path d="M89.1033 133.721H156.183V149.992H89.1033V133.721Z" fill="#AAB2B0" fill-opacity="0.2"/>
<path d="M2.84866 231.338H60.3496V247.609H2.84866V231.338Z" fill="#AAB2B0" fill-opacity="0.2"/>
<path d="M156.189 19.8306H194.521V36.1011H156.189V19.8306Z" fill="#AAB2B0" fill-opacity="0.2"/>
<path d="M156.189 84.9124H194.521V101.183H156.189V84.9124Z" fill="#AAB2B0" fill-opacity="0.2"/>
<path d="M156.189 182.53H194.521V198.8H156.189V182.53Z" fill="#AAB2B0" fill-opacity="0.2"/>
<path d="M156.189 280.158H194.521V296.428H156.189V280.158Z" fill="#AAB2B0" fill-opacity="0.2"/>
<path d="M156.189 247.611H194.521V263.882H156.189V247.611Z" fill="#AAB2B0" fill-opacity="0.2"/>
<path d="M194.521 263.885H328.686V280.154H194.521V263.885Z" fill="#AAB2B0" fill-opacity="0.2"/>
<path d="M194.521 231.338H328.686V247.609H194.521V231.338Z" fill="#AAB2B0" fill-opacity="0.2"/>
<path d="M194.521 198.803H328.686V215.074H194.521V198.803Z" fill="#AAB2B0" fill-opacity="0.2"/>
<path d="M338.257 198.803H347.842V280.156H338.257V198.803Z" fill="#AAB2B0" fill-opacity="0.2"/>
<path d="M357.439 198.803H367.023V280.156H357.439V198.803Z" fill="#AAB2B0" fill-opacity="0.2"/>
<path d="M376.596 198.803H386.18V280.156H376.596V198.803Z" fill="#AAB2B0" fill-opacity="0.2"/>
<path d="M232.846 166.267H386.18V182.538H232.846V166.267Z" fill="#AAB2B0" fill-opacity="0.2"/>
<path d="M213.683 117.458H223.261V182.541H213.683V117.458Z" fill="#AAB2B0" fill-opacity="0.2"/>
<path d="M194.514 117.458H204.093V182.541H194.514V117.458Z" fill="#AAB2B0" fill-opacity="0.2"/>
<path d="M232.846 133.721H386.18V149.992H232.846V133.721Z" fill="#AAB2B0" fill-opacity="0.2"/>
<path d="M232.846 101.185H386.18V117.456H232.846V101.185Z" fill="#AAB2B0" fill-opacity="0.2"/>
<path d="M204.099 101.185H213.677V117.456H204.099V101.185Z" fill="#AAB2B0" fill-opacity="0.2"/>
<path d="M204.099 3.55762H213.677V84.9104H204.099V3.55762Z" fill="#AAB2B0" fill-opacity="0.2"/>
<path d="M223.268 3.55762H232.853V84.9104H223.268V3.55762Z" fill="#AAB2B0" fill-opacity="0.2"/>
<path d="M242.437 68.6392H252.021V84.9097H242.437V68.6392Z" fill="#AAB2B0" fill-opacity="0.2"/>
<path d="M242.437 36.1035H252.021V52.374H242.437V36.1035Z" fill="#AAB2B0" fill-opacity="0.2"/>
<path d="M242.437 3.55762H252.021V19.8282H242.437V3.55762Z" fill="#AAB2B0" fill-opacity="0.2"/>
<path d="M252.022 19.8306H261.606V36.1011H252.022V19.8306Z" fill="#AAB2B0" fill-opacity="0.2"/>
<path d="M252.022 52.3662H261.606V68.6368H252.022V52.3662Z" fill="#AAB2B0" fill-opacity="0.2"/>
<path d="M261.606 68.6392H271.19V84.9097H261.606V68.6392Z" fill="#AAB2B0" fill-opacity="0.2"/>
<path d="M261.606 36.1035H271.19V52.374H261.606V36.1035Z" fill="#AAB2B0" fill-opacity="0.2"/>
<path d="M261.606 3.55762H271.19V19.8282H261.606V3.55762Z" fill="#AAB2B0" fill-opacity="0.2"/>
<path d="M271.178 19.8306H386.18V36.1011H271.178V19.8306Z" fill="#AAB2B0" fill-opacity="0.2"/>
<path d="M328.679 68.6368H271.178V52.3662H328.679V68.6368H386.18V84.9074H328.679V68.6368Z" fill="#AAB2B0" fill-opacity="0.2"/>
<path d="M347.854 280.158H357.439V296.428H347.854V280.158Z" fill="#AAB2B0" fill-opacity="0.2"/>
<path d="M367.024 280.158H376.608V296.428H367.024V280.158Z" fill="#AAB2B0" fill-opacity="0.2"/>
<path d="M357.439 296.431H367.023V312.701H357.439V296.431Z" fill="#AAB2B0" fill-opacity="0.2"/>
<path d="M367.024 312.693H376.608V328.964H367.024V312.693Z" fill="#AAB2B0" fill-opacity="0.2"/>
<path d="M376.596 296.431H386.18V312.701H376.596V296.431Z" fill="#AAB2B0" fill-opacity="0.2"/>
<path d="M347.854 312.693H357.439V328.964H347.854V312.693Z" fill="#AAB2B0" fill-opacity="0.2"/>
<path d="M338.257 296.431H347.842V312.701H338.257V296.431Z" fill="#AAB2B0" fill-opacity="0.2"/>
<path d="M328.686 312.693H338.27V328.964H328.686V312.693Z" fill="#AAB2B0" fill-opacity="0.2"/>
<path d="M299.932 296.431H328.686V312.701H299.932V296.431Z" fill="#AAB2B0" fill-opacity="0.2"/>
<path d="M280.763 312.693H299.932V328.964H280.763V312.693Z" fill="#AAB2B0" fill-opacity="0.2"/>
<path d="M271.191 296.431H280.775V312.701H271.191V296.431Z" fill="#AAB2B0" fill-opacity="0.2"/>
<path d="M252.021 296.431V312.701H271.19V328.972H252.021V312.701H213.689V296.431H252.021Z" fill="#AAB2B0" fill-opacity="0.2"/>
<path d="M194.514 312.693H213.677V328.964H194.514V312.693Z" fill="#AAB2B0" fill-opacity="0.2"/>
<path d="M1766.16 361.512H1842.82V394.053H1766.16V361.512Z" fill="#AAB2B0" fill-opacity="0.2"/>
<path d="M223.262 426.594V361.512H299.932V426.594V459.136H280.763V426.594H242.431V491.676H223.262V426.594Z" fill="#AAB2B0" fill-opacity="0.2"/>
<path d="M357.439 361.512H376.608V394.053H357.439V361.512Z" fill="#AAB2B0" fill-opacity="0.2"/>
<path d="M194.514 328.966H204.093V654.377H194.514V328.966Z" fill="#AAB2B0" fill-opacity="0.2"/>
<path d="M223.268 328.966H232.853V345.236H223.268V328.966Z" fill="#AAB2B0" fill-opacity="0.2"/>
<path d="M242.437 328.966H252.021V345.236H242.437V328.966Z" fill="#AAB2B0" fill-opacity="0.2"/>
<path d="M280.775 328.966H290.36V345.236H280.775V328.966Z" fill="#AAB2B0" fill-opacity="0.2"/>
<path d="M309.516 328.966H319.101V345.236H309.516V328.966Z" fill="#AAB2B0" fill-opacity="0.2"/>
<path d="M376.596 328.966H386.18V345.236H376.596V328.966Z" fill="#AAB2B0" fill-opacity="0.2"/>
<path d="M22.0179 328.966H41.1807V361.507H22.0179V328.966Z" fill="#AAB2B0" fill-opacity="0.2"/>
<path d="M79.5251 361.507H60.356V328.966H79.5251H98.6942H117.857H137.026H156.189H175.358H194.521V361.507H175.358H156.189H137.026H117.857H98.6942V394.049H79.5251V361.507Z" fill="#AAB2B0" fill-opacity="0.2"/>
<path d="M1708.65 361.513V328.972V296.431H1727.82V328.972V361.513V394.054H1708.65V361.513Z" fill="#AAB2B0" fill-opacity="0.2"/>
<path d="M1555.32 328.968V296.426H1574.49V328.968H1593.66V296.426H1612.82H1631.99V263.885H1651.16H1670.32V231.345H1651.16H1631.99V198.803H1651.16V166.263H1670.32V133.721H1689.49V166.263H1670.32V198.803H1689.49V231.345H1708.65H1727.82V263.885H1708.65V296.426H1689.49H1670.32V328.968H1651.16H1631.99H1612.82V361.508H1631.99H1651.16H1670.32V394.05H1689.49V426.591H1670.32H1651.16V394.05H1631.99H1612.82V361.508H1593.66H1574.49H1555.32H1536.16V328.968H1555.32Z" fill="#AAB2B0" fill-opacity="0.2"/>
<path d="M1555.33 263.88V296.421H1536.17V263.88V231.338H1555.33V263.88Z" fill="#AAB2B0" fill-opacity="0.2"/>
<path d="M1593.66 263.885H1574.5V231.343V198.803H1593.66H1612.83V231.343H1593.66V263.885Z" fill="#AAB2B0" fill-opacity="0.2"/>
<path d="M1612.83 231.338H1632V263.88H1612.83V231.338Z" fill="#AAB2B0" fill-opacity="0.2"/>
<path d="M1574.49 166.263V133.721H1593.66V166.263H1574.49V198.803H1555.33H1536.16V166.263H1555.33H1574.49Z" fill="#AAB2B0" fill-opacity="0.2"/>
<path d="M1708.65 166.267H1727.82V198.808H1708.65V166.267Z" fill="#AAB2B0" fill-opacity="0.2"/>
<path d="M1593.66 101.185H1612.83V133.726H1593.66V101.185Z" fill="#AAB2B0" fill-opacity="0.2"/>
<path d="M1651.17 101.185H1670.34V133.726H1651.17V101.185Z" fill="#AAB2B0" fill-opacity="0.2"/>
<path d="M1708.65 133.721H1689.49V101.18H1670.32V68.6392H1689.49H1708.65V101.18H1727.82V133.721H1708.65Z" fill="#AAB2B0" fill-opacity="0.2"/>
<path d="M1555.33 36.0987H1574.5V3.55762H1593.66H1612.83V36.0987H1593.66V68.6398H1574.5H1555.33V101.181H1536.16V68.6398V36.0987H1555.33Z" fill="#AAB2B0" fill-opacity="0.2"/>
<path d="M1670.32 3.55762H1689.48V36.0987H1670.32V3.55762Z" fill="#AAB2B0" fill-opacity="0.2"/>
<path d="M1009.09 328.969H999.503V263.886H989.919V198.804H980.334V68.6398H989.919V3.55762H999.503V68.6398H989.919V198.804H999.503V263.886H1009.09V198.804H999.503V68.6398H1009.09V198.804H1018.67V263.886H1028.25V328.969H1018.67V263.886H1009.09V328.969Z" fill="#AAB2B0" fill-opacity="0.2"/>
<path d="M1037.84 198.804H1047.42V263.886H1037.84V198.804H1028.26V68.6392H1037.84V198.804Z" fill="#AAB2B0" fill-opacity="0.2"/>
<path d="M1085.75 68.6398V198.804H1076.17V68.6398H1066.58V3.55762H1076.17V68.6398H1085.75Z" fill="#AAB2B0" fill-opacity="0.2"/>
<path d="M1114.5 68.6398V198.804V215.075H1104.92V231.346H1095.34V215.075H1104.92V198.804V68.6398H1095.34V3.55762H1104.92V68.6398H1114.5Z" fill="#AAB2B0" fill-opacity="0.2"/>
<path d="M1143.25 68.6398V198.804H1133.67V215.075H1124.09V198.804H1133.67V68.6398H1124.09V3.55762H1133.67V68.6398H1143.25Z" fill="#AAB2B0" fill-opacity="0.2"/>
<path d="M970.756 68.6398V84.9104H961.178V68.6398H970.756V3.55762H980.341V68.6398H970.756Z" fill="#AAB2B0" fill-opacity="0.2"/>
<path d="M1219.92 3.55762H1229.51V68.6398H1219.92V3.55762Z" fill="#AAB2B0" fill-opacity="0.2"/>
<path d="M1248.68 3.55762H1258.26V68.6398H1248.68V3.55762Z" fill="#AAB2B0" fill-opacity="0.2"/>
<path d="M1296.57 68.6398V166.263H1286.99V68.6398V3.55762H1296.57V68.6398Z" fill="#AAB2B0" fill-opacity="0.2"/>
<path d="M1104.92 231.338H1114.5V328.961H1104.92V231.338Z" fill="#AAB2B0" fill-opacity="0.2"/>
<path d="M1124.09 231.338H1133.67V328.961H1124.09V231.338Z" fill="#AAB2B0" fill-opacity="0.2"/>
<path d="M1152.83 231.346V215.075H1162.42V198.804H1152.83V68.6398H1143.25V3.55762H1152.83V68.6398H1162.42V198.804H1172V68.6398H1162.42V3.55762H1172V68.6398H1181.58V198.804H1172V215.075H1162.42V231.346H1152.83V328.969H1143.25V231.346H1152.83Z" fill="#AAB2B0" fill-opacity="0.2"/>
<path d="M1162.43 231.338H1172.01V328.961H1162.43V231.338Z" fill="#AAB2B0" fill-opacity="0.2"/>
<path d="M1200.74 198.804V68.6398H1191.16V3.55762H1200.74V68.6398H1210.33V198.804H1200.74V328.969H1191.16V198.804H1200.74Z" fill="#AAB2B0" fill-opacity="0.2"/>
<path d="M1219.92 198.808V101.185H1229.51V198.808H1219.92V328.973H1210.34V198.808H1219.92Z" fill="#AAB2B0" fill-opacity="0.2"/>
<path d="M1248.68 198.808V101.185H1258.26V198.808H1248.68V328.973H1239.09V198.808H1248.68Z" fill="#AAB2B0" fill-opacity="0.2"/>
<path d="M1267.83 198.808V101.185H1277.42V198.808H1267.83V328.973H1258.25V198.808H1267.83Z" fill="#AAB2B0" fill-opacity="0.2"/>
<path d="M1306.16 198.808V166.267H1315.74V198.808H1306.16V328.972H1296.57V198.808H1306.16Z" fill="#AAB2B0" fill-opacity="0.2"/>
<path d="M1325.33 68.6392H1334.91V166.263H1325.33V68.6392Z" fill="#AAB2B0" fill-opacity="0.2"/>
<path d="M1057.01 215.065H1066.59V231.336H1057.01V215.065Z" fill="#AAB2B0" fill-opacity="0.2"/>
<path d="M1076.17 215.065H1085.75V231.336H1076.17V215.065Z" fill="#AAB2B0" fill-opacity="0.2"/>
<path d="M1286.99 182.53H1296.57V198.8H1286.99V182.53Z" fill="#AAB2B0" fill-opacity="0.2"/>
<path d="M1334.91 166.267H1344.5V182.538H1334.91V166.267Z" fill="#AAB2B0" fill-opacity="0.2"/>
<path d="M1334.91 36.1035H1344.5V68.6446H1334.91V36.1035Z" fill="#AAB2B0" fill-opacity="0.2"/>
<path d="M1018.67 52.3662H1028.25V68.6368H1018.67V52.3662Z" fill="#AAB2B0" fill-opacity="0.2"/>
<path d="M961.171 182.53H970.756V198.8H961.171V182.53Z" fill="#AAB2B0" fill-opacity="0.2"/>
<path d="M386.187 280.158H577.846V296.428H386.187V280.158Z" fill="#AAB2B0" fill-opacity="0.2"/>
<path d="M386.187 215.065H577.846V231.336H386.187V215.065Z" fill="#AAB2B0" fill-opacity="0.2"/>
<path d="M482.013 149.994H654.51V166.265H482.013V149.994Z" fill="#AAB2B0" fill-opacity="0.2"/>
<path d="M482.007 101.185H692.842V133.726H482.007V101.185Z" fill="#AAB2B0" fill-opacity="0.2"/>
<path d="M616.184 68.6392H769.518V84.9097H616.184V68.6392Z" fill="#AAB2B0" fill-opacity="0.2"/>
<path d="M654.516 166.267H769.518V182.538V198.808H654.516V182.538V166.267Z" fill="#AAB2B0" fill-opacity="0.2"/>
<path d="M482.007 36.1035H616.172V52.374H482.007V36.1035Z" fill="#AAB2B0" fill-opacity="0.2"/>
<path d="M616.184 19.8306H769.518V36.1011H616.184V19.8306Z" fill="#AAB2B0" fill-opacity="0.2"/>
<path d="M443.681 52.3662H482.013V68.6368H443.681V52.3662Z" fill="#AAB2B0" fill-opacity="0.2"/>
<path d="M443.681 84.9124H482.013V101.183H443.681V84.9124Z" fill="#AAB2B0" fill-opacity="0.2"/>
<path d="M434.09 68.6392H443.675V84.9097H434.09V68.6392Z" fill="#AAB2B0" fill-opacity="0.2"/>
<path d="M405.343 84.9124H434.09V101.183H405.343V84.9124Z" fill="#AAB2B0" fill-opacity="0.2"/>
<path d="M386.18 101.185H405.349V117.456H386.18V101.185Z" fill="#AAB2B0" fill-opacity="0.2"/>
<path d="M405.343 52.3662H434.09V68.6368H405.343V52.3662Z" fill="#AAB2B0" fill-opacity="0.2"/>
<path d="M395.765 36.1035H405.349V52.374H395.765V36.1035Z" fill="#AAB2B0" fill-opacity="0.2"/>
<path d="M386.18 52.3662H395.765V68.6368H386.18V52.3662Z" fill="#AAB2B0" fill-opacity="0.2"/>
<path d="M405.343 19.8306H462.844V36.1011H405.343V19.8306Z" fill="#AAB2B0" fill-opacity="0.2"/>
<path d="M462.844 3.55762H482.013V19.8282H462.844V3.55762Z" fill="#AAB2B0" fill-opacity="0.2"/>
<path d="M577.846 198.803H654.51V215.074H577.846V198.803Z" fill="#AAB2B0" fill-opacity="0.2"/>
<path d="M577.846 231.338H654.51V247.609H577.846V231.338Z" fill="#AAB2B0" fill-opacity="0.2"/>
<path d="M577.84 263.885H692.842V280.154H577.84V263.885Z" fill="#AAB2B0" fill-opacity="0.2"/>
<path d="M692.848 280.158H769.518V312.698H692.848V280.158Z" fill="#AAB2B0" fill-opacity="0.2"/>
<path d="M654.516 215.065H769.518V231.336H654.516V215.065Z" fill="#AAB2B0" fill-opacity="0.2"/>
<path d="M577.84 312.693H692.842V328.964H577.84V312.693Z" fill="#AAB2B0" fill-opacity="0.2"/>
<path d="M386.18 133.721H405.349V149.992H386.18V133.721Z" fill="#AAB2B0" fill-opacity="0.2"/>
<path d="M405.343 149.994H462.844V166.265H405.343V149.994Z" fill="#AAB2B0" fill-opacity="0.2"/>
<path d="M462.844 133.721H482.013V149.992H462.844V133.721Z" fill="#AAB2B0" fill-opacity="0.2"/>
<path d="M405.343 117.458H462.844V133.729H405.343V117.458Z" fill="#AAB2B0" fill-opacity="0.2"/>
</g>
</g>
</g>
<defs>
<clipPath id="clip0_30_3293">
<rect width="1920" height="394" fill="white" transform="matrix(-1 0 0 1 1920 0)"/>
</clipPath>
</defs>
</svg>
