<svg viewBox="0 0 399 399" fill="none" xmlns="http://www.w3.org/2000/svg">
<circle cx="199.5" cy="199.5" r="199.5" fill="url(#paint0_radial_258_69)" fill-opacity="0.15"/>
<g filter="url(#filter0_b_258_69)">
<ellipse cx="198" cy="198.5" rx="144" ry="143.5" fill="black" fill-opacity="0.3"/>
<path d="M198 342.5C277.804 342.5 342.5 278.031 342.5 198.5C342.5 118.969 277.804 54.5 198 54.5C118.196 54.5 53.5 118.969 53.5 198.5C53.5 278.031 118.196 342.5 198 342.5Z" stroke="#AAB2B0" stroke-opacity="0.3"/>
</g>
<ellipse cx="198" cy="198.5" rx="101" ry="100.5" fill="#151515"/>
<path d="M298.5 198.5C298.5 253.726 253.507 298.5 198 298.5C142.493 298.5 97.5 253.726 97.5 198.5C97.5 143.274 142.493 98.5 198 98.5C253.507 98.5 298.5 143.274 298.5 198.5Z" stroke="#AAB2B0" stroke-opacity="0.3"/>
<path d="M188.418 312.241L186.566 326.668L181.423 326.008C180.301 325.864 179.397 325.54 178.712 325.037C178.028 324.534 177.548 323.904 177.272 323.148C176.996 322.397 176.915 321.579 177.029 320.696C177.143 319.809 177.431 319.034 177.893 318.373C178.349 317.715 178.975 317.228 179.77 316.91C180.56 316.596 181.514 316.511 182.632 316.654L186.168 317.108L185.931 318.954L182.592 318.525C181.883 318.434 181.292 318.482 180.819 318.67C180.346 318.862 179.978 319.159 179.717 319.559C179.455 319.96 179.289 320.433 179.219 320.978C179.149 321.523 179.191 322.019 179.343 322.469C179.495 322.918 179.779 323.291 180.195 323.588C180.605 323.884 181.172 324.078 181.896 324.171L184.629 324.522L186.242 311.962L188.418 312.241Z" fill="#1AFFB3"/>
<path d="M170.997 309.385L166.918 323.346L161.941 321.892C160.859 321.576 160.016 321.128 159.412 320.546C158.802 319.964 158.417 319.291 158.255 318.529C158.092 317.771 158.135 316.962 158.386 316.103C158.636 315.249 159.035 314.549 159.584 314.004C160.127 313.462 160.81 313.117 161.633 312.968C162.452 312.817 163.402 312.9 164.483 313.216L168.253 314.317L167.724 316.131L164.145 315.085C163.463 314.886 162.88 314.822 162.395 314.892C161.907 314.962 161.508 315.153 161.199 315.468C160.89 315.782 160.659 316.2 160.507 316.723C160.352 317.25 160.321 317.737 160.413 318.183C160.5 318.628 160.73 319.015 161.102 319.346C161.468 319.68 161.998 319.948 162.694 320.151L165.339 320.924L168.89 308.769L170.997 309.385ZM162.264 313.67L160.655 306.363L163.055 307.064L164.596 314.351L162.264 313.67Z" fill="#1AFFB3"/>
<path d="M146.397 316.193L152.2 302.856L154.213 303.731L148.41 317.069L146.397 316.193Z" fill="#1AFFB3"/>
<path d="M136.757 311.673L134.498 310.262L136.56 298.219L136.415 298.129L126.498 305.266L124.239 303.855L131.944 291.518L133.715 292.624L128.14 301.552L128.254 301.623L137.457 294.986L138.927 295.904L136.997 307.092L137.112 307.163L142.691 298.23L144.462 299.336L136.757 311.673Z" fill="#1AFFB3"/>
<path d="M125.797 286.596L116.026 297.371L109.271 291.245L110.54 289.846L115.67 294.498L118.647 291.215L113.87 286.883L115.134 285.488L119.911 289.82L122.902 286.522L117.71 281.813L118.979 280.413L125.797 286.596Z" fill="#1AFFB3"/>
<path d="M100.696 281.969L111.744 272.509L113.172 274.176L102.123 283.637L100.696 281.969Z" fill="#1AFFB3"/>
<path d="M106.409 265.849L94.2583 273.844L91.4084 269.513C90.789 268.572 90.4372 267.684 90.3529 266.85C90.266 266.011 90.4078 265.249 90.7783 264.563C91.1449 263.88 91.702 263.292 92.4495 262.8C93.1932 262.311 93.9506 262.037 94.7218 261.977C95.4865 261.916 96.2307 262.095 96.9543 262.514C97.6754 262.93 98.3457 263.608 98.9651 264.549L101.124 267.83L99.5458 268.869L97.4962 265.754C97.1059 265.161 96.7033 264.734 96.2886 264.474C95.8712 264.21 95.4431 264.098 95.0043 264.138C94.5654 264.177 94.1185 264.346 93.6637 264.646C93.2049 264.947 92.8659 265.298 92.6468 265.697C92.4251 266.093 92.3489 266.537 92.4182 267.029C92.4809 267.521 92.7113 268.069 93.1095 268.675L94.6243 270.977L105.203 264.016L106.409 265.849ZM96.9802 263.458L100.487 256.849L101.861 258.937L98.3153 265.487L96.9802 263.458Z" fill="#1AFFB3"/>
<path d="M96.6923 249.685L97.6352 251.815L82.2158 252.916L81.1896 250.598L92.3716 239.924L93.3145 242.054L84.0942 250.633L84.1402 250.736L96.6923 249.685ZM91.3256 251.634L88.2669 244.723L89.9555 243.976L93.0142 250.886L91.3256 251.634Z" fill="#1AFFB3"/>
<path d="M84.0708 218.868C84.1646 219.433 84.1124 219.972 83.9144 220.485C83.7117 220.998 83.4 221.434 82.9794 221.792C82.5581 222.145 82.0648 222.369 81.4996 222.462C80.9298 222.557 80.3907 222.505 79.8826 222.306C79.369 222.103 78.9356 221.791 78.5825 221.37C78.2247 220.949 77.9989 220.456 77.9051 219.891C77.8105 219.321 77.865 218.782 78.0685 218.273C78.2666 217.76 78.5763 217.327 78.9976 216.974C79.4135 216.617 79.9064 216.391 80.4763 216.297C81.0415 216.203 81.5809 216.257 82.0945 216.46C82.6073 216.658 83.0426 216.967 83.4004 217.388C83.7527 217.805 83.9762 218.298 84.0708 218.868Z" fill="#1AFFB3"/>
<path d="M76.0179 185.084C75.5766 185.183 75.176 185.333 74.8161 185.534C74.4518 185.73 74.1355 185.976 73.8672 186.271C73.5941 186.565 73.3761 186.909 73.213 187.304C73.0504 187.694 72.9479 188.129 72.9056 188.61C72.8338 189.426 72.9789 190.18 73.341 190.873C73.7031 191.565 74.2729 192.138 75.0506 192.592C75.8239 193.04 76.7955 193.316 77.9652 193.419C79.1396 193.522 80.1493 193.418 80.9942 193.108C81.839 192.797 82.5006 192.328 82.9789 191.7C83.4572 191.071 83.7337 190.333 83.8084 189.484C83.8777 188.696 83.7778 187.996 83.5085 187.383C83.2397 186.765 82.8269 186.27 82.2703 185.898C81.7093 185.52 81.0303 185.297 80.2332 185.227L80.3891 184.67L80.0243 188.816L78.2202 188.657L78.7214 182.962L80.3698 183.107C81.5867 183.214 82.6204 183.566 83.4709 184.164C84.3171 184.757 84.9431 185.529 85.3488 186.482C85.7549 187.431 85.9065 188.49 85.8036 189.66C85.6882 190.971 85.285 192.095 84.5942 193.032C83.9037 193.965 82.98 194.659 81.823 195.113C80.6613 195.567 79.3164 195.726 77.7882 195.592C76.6326 195.49 75.6091 195.239 74.7176 194.837C73.826 194.435 73.0851 193.916 72.4947 193.28C71.9 192.638 71.4675 191.908 71.1972 191.091C70.9226 190.268 70.8266 189.387 70.9092 188.449C70.9781 187.666 71.1578 186.947 71.4482 186.293C71.7391 185.634 72.1201 185.059 72.591 184.568C73.0624 184.073 73.6059 183.676 74.2215 183.379C74.8324 183.081 75.4969 182.901 76.2152 182.841L76.0179 185.084Z" fill="#1AFFB3"/>
<path d="M87.7816 175.103L87.1788 177.353L74.4832 168.533L75.1392 166.084L90.5437 164.791L89.941 167.042L77.3789 167.934L77.3495 168.044L87.7816 175.103ZM82.3806 173.251L84.336 165.952L86.1197 166.43L84.1644 173.729L82.3806 173.251Z" fill="#1AFFB3"/>
<path d="M93.2449 157.528L80.0054 151.504L82.1526 146.785C82.6193 145.759 83.1833 144.989 83.8445 144.473C84.5078 143.953 85.2283 143.667 86.0062 143.615C86.7797 143.561 87.5737 143.719 88.3883 144.09C89.1985 144.459 89.8343 144.953 90.2957 145.574C90.7547 146.189 90.9996 146.914 91.0302 147.75C91.0628 148.582 90.8458 149.51 90.3791 150.536L88.7525 154.111L87.033 153.328L88.5772 149.935C88.8713 149.288 89.0179 148.72 89.0169 148.231C89.0178 147.737 88.8848 147.315 88.6176 146.964C88.3505 146.614 87.9692 146.326 87.4735 146.101C86.9736 145.873 86.4964 145.773 86.0418 145.8C85.5892 145.823 85.1728 145.995 84.7926 146.316C84.41 146.631 84.0687 147.119 83.7687 147.778L82.6274 150.286L94.1538 155.531L93.2449 157.528ZM90.2453 148.275L97.7069 147.721L96.6716 149.997L89.2394 150.486L90.2453 148.275Z" fill="#1AFFB3"/>
<path d="M101.748 140.694L100.448 142.627L91.3017 130.164L92.7171 128.06L107.707 131.837L106.407 133.77L94.2351 130.537L94.1717 130.631L101.748 140.694ZM97.2403 137.19L101.459 130.92L102.991 131.951L98.7724 138.221L97.2403 137.19Z" fill="#1AFFB3"/>
<path d="M110.232 107.28L120.713 117.366L119.314 118.82L106.501 116.75L106.408 116.847L114.094 124.244L112.572 125.825L102.092 115.739L103.5 114.276L116.328 116.35L116.422 116.253L108.725 108.846L110.232 107.28Z" fill="#1AFFB3"/>
<path d="M118.597 102.419L117.476 100.898L126.539 94.2211L127.66 95.7421L124.006 98.434L131.513 108.623L129.752 109.921L122.245 99.7315L118.597 102.419Z" fill="#1AFFB3"/>
<path d="M137.074 87.9321L144.105 100.666L142.183 101.726L135.153 88.9929L137.074 87.9321Z" fill="#1AFFB3"/>
<path d="M152.817 96.3063L150.645 97.148L150.27 81.6939L152.634 80.7778L162.77 92.4494L160.598 93.2911L152.463 83.6776L152.357 83.7186L152.817 96.3063ZM151.123 90.8539L158.169 88.1236L158.836 89.8454L151.79 92.5757L151.123 90.8539Z" fill="#1AFFB3"/>
<path d="M184.193 85.1481C183.624 85.2153 183.089 85.1378 182.586 84.9159C182.082 84.6892 181.661 84.3574 181.324 83.9205C180.991 83.483 180.791 82.9797 180.724 82.4108C180.656 81.8371 180.734 81.3011 180.956 80.8029C181.183 80.2994 181.515 79.8812 181.952 79.5483C182.389 79.2107 182.892 79.0083 183.461 78.9412C184.035 78.8735 184.571 78.9533 185.07 79.1805C185.573 79.4024 185.991 79.7322 186.324 80.1697C186.661 80.6019 186.863 81.1049 186.931 81.6785C186.998 82.2475 186.918 82.7838 186.692 83.2873C186.47 83.7902 186.14 84.2105 185.703 84.5481C185.27 84.8804 184.767 85.0805 184.193 85.1481Z" fill="#1AFFB3"/>
<path d="M207.24 87.2791L209.069 72.8492L214.213 73.5013C215.336 73.6437 216.24 73.9659 216.925 74.4681C217.611 74.9703 218.092 75.5992 218.368 76.355C218.646 77.106 218.728 77.9231 218.616 78.8062C218.504 79.6939 218.217 80.4689 217.756 81.1312C217.3 81.7893 216.675 82.278 215.88 82.5973C215.091 82.9124 214.137 82.9991 213.019 82.8574L209.482 82.4089L209.716 80.5629L213.056 80.9863C213.766 81.0763 214.356 81.0271 214.829 80.8388C215.302 80.6459 215.669 80.3487 215.93 79.9475C216.191 79.5463 216.356 79.0732 216.425 78.5283C216.494 77.9834 216.452 77.4865 216.299 77.0376C216.146 76.5886 215.861 76.2161 215.445 75.9199C215.034 75.6244 214.467 75.4307 213.744 75.339L211.01 74.9924L209.417 87.5552L207.24 87.2791Z" fill="#1AFFB3"/>
<path d="M224.666 90.1086L228.723 76.1405L233.702 77.5867C234.784 77.901 235.628 78.3483 236.233 78.9285C236.844 79.51 237.23 80.1819 237.393 80.9442C237.558 81.702 237.515 82.5106 237.266 83.37C237.017 84.2248 236.619 84.9251 236.071 85.471C235.529 86.0136 234.846 86.3602 234.024 86.5108C233.205 86.6626 232.255 86.5814 231.173 86.267L227.401 85.1715L227.928 83.3573L231.509 84.3973C232.191 84.5955 232.774 84.6588 233.258 84.5875C233.747 84.5174 234.146 84.325 234.454 84.0103C234.762 83.6955 234.993 83.2767 235.144 82.7538C235.298 82.2264 235.328 81.7397 235.236 81.2938C235.148 80.8492 234.918 80.4618 234.545 80.1318C234.179 79.7985 233.647 79.5308 232.952 79.3287L230.305 78.56L226.773 90.7208L224.666 90.1086ZM233.392 85.8095L235.012 93.1139L232.611 92.4166L231.059 85.1319L233.392 85.8095Z" fill="#1AFFB3"/>
<path d="M249.254 83.2611L243.472 96.6079L241.459 95.7355L247.241 82.3887L249.254 83.2611Z" fill="#1AFFB3"/>
<path d="M258.902 87.766L261.163 89.1732L259.12 101.22L259.265 101.31L269.171 94.1567L271.432 95.5639L263.747 107.913L261.974 106.81L267.535 97.8736L267.421 97.8023L258.228 104.454L256.757 103.538L258.669 92.3474L258.554 92.2761L252.989 101.219L251.216 100.115L258.902 87.766Z" fill="#1AFFB3"/>
<path d="M269.901 112.825L279.655 102.035L286.42 108.15L285.153 109.552L280.016 104.908L277.044 108.196L281.828 112.52L280.566 113.916L275.782 109.592L272.796 112.895L277.996 117.596L276.73 118.998L269.901 112.825Z" fill="#1AFFB3"/>
<path d="M295.01 117.413L283.976 126.89L282.546 125.226L293.58 115.748L295.01 117.413Z" fill="#1AFFB3"/>
<path d="M289.322 133.542L301.461 125.528L304.317 129.854C304.938 130.795 305.291 131.682 305.377 132.516C305.465 133.354 305.325 134.117 304.955 134.803C304.59 135.487 304.034 136.076 303.287 136.569C302.544 137.059 301.787 137.335 301.016 137.396C300.251 137.458 299.507 137.28 298.782 136.862C298.061 136.448 297.389 135.77 296.768 134.83L294.604 131.552L296.181 130.511L298.235 133.623C298.627 134.216 299.03 134.642 299.445 134.901C299.863 135.164 300.291 135.276 300.73 135.236C301.169 135.195 301.615 135.025 302.07 134.725C302.528 134.423 302.866 134.072 303.085 133.672C303.306 133.276 303.382 132.832 303.311 132.34C303.248 131.848 303.017 131.3 302.618 130.696L301.099 128.396L290.532 135.373L289.322 133.542ZM298.755 135.918L295.259 142.533L293.881 140.447L297.417 133.891L298.755 135.918Z" fill="#1AFFB3"/>
<path d="M299.065 149.691L298.118 147.562L313.536 146.436L314.566 148.753L303.401 159.445L302.455 157.316L311.661 148.723L311.615 148.619L299.065 149.691ZM304.428 147.734L307.498 154.639L305.811 155.389L302.741 148.484L304.428 147.734Z" fill="#1AFFB3"/>
<path d="M311.735 180.488C311.64 179.923 311.692 179.384 311.889 178.871C312.091 178.357 312.402 177.92 312.822 177.562C313.242 177.208 313.735 176.984 314.3 176.889C314.87 176.794 315.409 176.845 315.918 177.043C316.432 177.245 316.865 177.556 317.219 177.977C317.578 178.397 317.804 178.89 317.899 179.455C317.994 180.024 317.941 180.564 317.738 181.073C317.541 181.586 317.232 182.02 316.811 182.374C316.396 182.731 315.903 182.958 315.334 183.053C314.768 183.148 314.229 183.094 313.715 182.892C313.202 182.695 312.766 182.387 312.408 181.967C312.055 181.55 311.83 181.058 311.735 180.488Z" fill="#1AFFB3"/>
<path d="M319.841 214.259C320.282 214.159 320.683 214.008 321.042 213.807C321.406 213.61 321.722 213.364 321.99 213.069C322.263 212.774 322.48 212.429 322.643 212.034C322.805 211.644 322.906 211.209 322.948 210.728C323.018 209.912 322.872 209.158 322.509 208.466C322.146 207.774 321.575 207.202 320.797 206.749C320.023 206.302 319.051 206.028 317.881 205.927C316.706 205.826 315.697 205.931 314.852 206.243C314.008 206.555 313.347 207.025 312.87 207.654C312.392 208.283 312.117 209.022 312.044 209.871C311.976 210.659 312.077 211.359 312.347 211.972C312.617 212.589 313.03 213.083 313.588 213.455C314.149 213.831 314.828 214.054 315.626 214.123L315.471 214.68L315.829 210.533L317.633 210.689L317.141 216.385L315.492 216.243C314.275 216.138 313.241 215.787 312.39 215.191C311.542 214.599 310.915 213.827 310.508 212.875C310.1 211.927 309.947 210.869 310.048 209.699C310.162 208.387 310.563 207.262 311.252 206.324C311.941 205.39 312.864 204.695 314.02 204.239C315.181 203.783 316.526 203.622 318.054 203.754C319.21 203.853 320.234 204.104 321.126 204.504C322.018 204.904 322.76 205.422 323.351 206.058C323.947 206.698 324.381 207.427 324.652 208.245C324.928 209.067 325.026 209.947 324.945 210.886C324.877 211.669 324.698 212.388 324.409 213.043C324.119 213.702 323.739 214.277 323.269 214.769C322.798 215.265 322.255 215.663 321.64 215.961C321.03 216.26 320.366 216.44 319.647 216.502L319.841 214.259Z" fill="#1AFFB3"/>
<path d="M308.093 224.259L308.692 222.008L321.402 230.807L320.75 233.258L305.347 234.574L305.947 232.323L318.507 231.411L318.536 231.301L308.093 224.259ZM313.497 226.101L311.553 233.404L309.769 232.929L311.713 225.626L313.497 226.101Z" fill="#1AFFB3"/>
<path d="M302.657 241.842L315.906 247.845L313.767 252.568C313.302 253.594 312.739 254.366 312.078 254.882C311.416 255.404 310.696 255.691 309.918 255.744C309.145 255.799 308.35 255.642 307.535 255.272C306.724 254.905 306.088 254.411 305.625 253.791C305.165 253.177 304.919 252.452 304.887 251.617C304.854 250.785 305.069 249.856 305.534 248.83L307.155 245.252L308.876 246.032L307.337 249.428C307.044 250.075 306.898 250.643 306.9 251.133C306.9 251.627 307.034 252.048 307.301 252.398C307.569 252.748 307.951 253.036 308.447 253.26C308.947 253.487 309.424 253.587 309.879 253.559C310.332 253.535 310.748 253.362 311.127 253.04C311.509 252.725 311.85 252.237 312.149 251.577L313.286 249.067L301.752 243.841L302.657 241.842ZM305.672 251.091L298.211 251.656L299.243 249.379L306.674 248.878L305.672 251.091Z" fill="#1AFFB3"/>
<path d="M294.181 258.69L295.479 256.755L304.644 269.203L303.232 271.309L288.236 267.556L289.534 265.621L301.71 268.835L301.774 268.74L294.181 258.69ZM298.695 262.186L294.486 268.463L292.952 267.434L297.161 261.158L298.695 262.186Z" fill="#1AFFB3"/>
<path d="M285.75 292.117L275.253 282.047L276.649 280.592L289.466 282.641L289.559 282.544L281.861 275.159L283.381 273.575L293.877 283.645L292.471 285.111L279.639 283.056L279.546 283.154L287.254 290.548L285.75 292.117Z" fill="#1AFFB3"/>
<path d="M277.393 296.991L278.516 298.51L269.464 305.202L268.341 303.682L271.99 300.985L264.467 290.807L266.226 289.507L273.749 299.684L277.393 296.991Z" fill="#1AFFB3"/>
<path d="M258.939 311.507L251.888 298.785L253.808 297.721L260.859 310.443L258.939 311.507Z" fill="#1AFFB3"/>
<path d="M243.183 303.158L245.354 302.313L245.753 317.766L243.39 318.686L233.235 307.03L235.406 306.185L243.556 315.786L243.662 315.745L243.183 303.158ZM244.885 308.607L237.843 311.349L237.173 309.628L244.215 306.887L244.885 308.607Z" fill="#1AFFB3"/>
<path d="M211.824 314.366C212.393 314.298 212.929 314.374 213.432 314.595C213.936 314.821 214.357 315.152 214.695 315.589C215.029 316.026 215.23 316.529 215.298 317.098C215.366 317.671 215.29 318.207 215.068 318.706C214.842 319.21 214.511 319.628 214.074 319.962C213.637 320.3 213.135 320.503 212.566 320.571C211.992 320.64 211.456 320.561 210.957 320.335C210.453 320.114 210.035 319.784 209.701 319.347C209.364 318.916 209.16 318.413 209.092 317.84C209.024 317.271 209.103 316.734 209.329 316.23C209.55 315.727 209.878 315.306 210.315 314.968C210.747 314.635 211.25 314.434 211.824 314.366Z" fill="#1AFFB3"/>
<path d="M179.589 207L209.283 148.227V147.75H174.817V137.182H222.374V147.989L192.714 207H179.589ZM169.559 255H159.701V225.909H169.758C172.646 225.909 175.127 226.491 177.201 227.656C179.285 228.812 180.885 230.473 182.002 232.642C183.12 234.811 183.679 237.405 183.679 240.426C183.679 243.456 183.115 246.061 181.988 248.239C180.871 250.417 179.256 252.088 177.145 253.253C175.042 254.418 172.514 255 169.559 255ZM164.971 250.44H169.304C171.33 250.44 173.02 250.071 174.375 249.332C175.729 248.584 176.747 247.472 177.429 245.994C178.11 244.508 178.451 242.652 178.451 240.426C178.451 238.201 178.11 236.354 177.429 234.886C176.747 233.409 175.738 232.306 174.403 231.577C173.077 230.838 171.43 230.469 169.46 230.469H164.971V250.44ZM188.458 255V233.182H193.6V255H188.458ZM191.044 230.085C190.229 230.085 189.529 229.815 188.941 229.276C188.354 228.726 188.061 228.068 188.061 227.301C188.061 226.525 188.354 225.866 188.941 225.327C189.529 224.777 190.229 224.503 191.044 224.503C191.868 224.503 192.568 224.777 193.146 225.327C193.733 225.866 194.027 226.525 194.027 227.301C194.027 228.068 193.733 228.726 193.146 229.276C192.568 229.815 191.868 230.085 191.044 230.085ZM205.167 255.44C203.784 255.44 202.539 255.194 201.431 254.702C200.332 254.2 199.461 253.461 198.817 252.486C198.183 251.51 197.865 250.308 197.865 248.878C197.865 247.647 198.093 246.629 198.547 245.824C199.002 245.019 199.622 244.375 200.408 243.892C201.194 243.409 202.079 243.045 203.064 242.798C204.059 242.543 205.086 242.358 206.147 242.244C207.425 242.112 208.462 241.993 209.257 241.889C210.053 241.776 210.631 241.605 210.99 241.378C211.36 241.141 211.544 240.777 211.544 240.284V240.199C211.544 239.129 211.227 238.3 210.593 237.713C209.958 237.126 209.044 236.832 207.851 236.832C206.592 236.832 205.593 237.107 204.854 237.656C204.125 238.205 203.632 238.854 203.377 239.602L198.576 238.92C198.954 237.595 199.579 236.487 200.451 235.597C201.322 234.697 202.387 234.025 203.647 233.58C204.906 233.125 206.298 232.898 207.823 232.898C208.874 232.898 209.92 233.021 210.962 233.267C212.004 233.513 212.955 233.92 213.817 234.489C214.679 235.047 215.37 235.81 215.891 236.776C216.421 237.741 216.686 238.949 216.686 240.398V255H211.743V252.003H211.573C211.26 252.609 210.82 253.177 210.252 253.707C209.693 254.228 208.988 254.65 208.135 254.972C207.292 255.284 206.303 255.44 205.167 255.44ZM206.502 251.662C207.534 251.662 208.429 251.458 209.186 251.051C209.944 250.634 210.526 250.085 210.934 249.403C211.35 248.722 211.559 247.978 211.559 247.173V244.602C211.398 244.735 211.123 244.858 210.735 244.972C210.356 245.085 209.93 245.185 209.456 245.27C208.983 245.355 208.514 245.431 208.05 245.497C207.586 245.563 207.184 245.62 206.843 245.668C206.076 245.772 205.389 245.942 204.783 246.179C204.177 246.416 203.699 246.747 203.348 247.173C202.998 247.59 202.823 248.13 202.823 248.793C202.823 249.74 203.168 250.455 203.86 250.938C204.551 251.42 205.432 251.662 206.502 251.662ZM239.101 238.949L234.414 239.46C234.281 238.987 234.049 238.542 233.718 238.125C233.396 237.708 232.96 237.372 232.411 237.116C231.862 236.861 231.189 236.733 230.394 236.733C229.324 236.733 228.424 236.965 227.695 237.429C226.975 237.893 226.62 238.494 226.63 239.233C226.62 239.867 226.852 240.384 227.326 240.781C227.809 241.179 228.604 241.506 229.712 241.761L233.434 242.557C235.498 243.002 237.032 243.707 238.036 244.673C239.049 245.639 239.56 246.903 239.57 248.466C239.56 249.839 239.158 251.051 238.363 252.102C237.577 253.144 236.483 253.958 235.081 254.545C233.68 255.133 232.07 255.426 230.252 255.426C227.581 255.426 225.432 254.867 223.803 253.75C222.174 252.623 221.203 251.056 220.891 249.048L225.905 248.565C226.132 249.55 226.615 250.294 227.354 250.795C228.093 251.297 229.054 251.548 230.238 251.548C231.459 251.548 232.439 251.297 233.178 250.795C233.926 250.294 234.3 249.673 234.3 248.935C234.3 248.31 234.059 247.794 233.576 247.386C233.102 246.979 232.364 246.667 231.36 246.449L227.638 245.668C225.545 245.232 223.997 244.498 222.993 243.466C221.989 242.424 221.492 241.108 221.502 239.517C221.492 238.172 221.857 237.008 222.596 236.023C223.344 235.028 224.381 234.261 225.706 233.722C227.042 233.172 228.58 232.898 230.323 232.898C232.88 232.898 234.892 233.442 236.36 234.531C237.837 235.62 238.751 237.093 239.101 238.949Z" fill="#F2FFFB"/>
<defs>
<filter id="filter0_b_258_69" x="38" y="39" width="320" height="319" filterUnits="userSpaceOnUse" color-interpolation-filters="sRGB">
<feFlood flood-opacity="0" result="BackgroundImageFix"/>
<feGaussianBlur in="BackgroundImageFix" stdDeviation="7.5"/>
<feComposite in2="SourceAlpha" operator="in" result="effect1_backgroundBlur_258_69"/>
<feBlend mode="normal" in="SourceGraphic" in2="effect1_backgroundBlur_258_69" result="shape"/>
</filter>
<radialGradient id="paint0_radial_258_69" cx="0" cy="0" r="1" gradientUnits="userSpaceOnUse" gradientTransform="translate(199.5 199.5) rotate(90) scale(231.977)">
<stop stop-color="#1AFFB3" stop-opacity="0.8"/>
<stop offset="0.824" stop-color="#1AFFB3" stop-opacity="0"/>
</radialGradient>
</defs>
</svg>
