<?xml version="1.0" encoding="utf-8"?>
<!-- Generator: Adobe Illustrator 26.0.3, SVG Export Plug-In . SVG Version: 6.00 Build 0)  -->
<svg version="1.1" id="Camada_1" xmlns="http://www.w3.org/2000/svg" xmlns:xlink="http://www.w3.org/1999/xlink" x="0px" y="0px"
	 viewBox="0 0 395 24.8" style="enable-background:new 0 0 395 24.8;" xml:space="preserve">
<style type="text/css">
	.st0{fill:#D9D9D9;}
</style>
<g id="Grupo_4723" transform="translate(-713.001 -1256)">
	<g id="Grupo_454" transform="translate(713.001 1260.324)">
		<path id="Caminho_182" class="st0" d="M17.1,15.3L19.6,1h3.9L21,15.3H17.1z M35.2,1.3c-1.1-0.4-2.3-0.6-3.5-0.6
			c-3.9,0-6.6,1.9-6.6,4.7c0,2.1,1.9,3.2,3.4,3.9c1.5,0.7,2,1.2,2,1.8c0,1-1.2,1.4-2.3,1.4c-1.3,0-2.5-0.2-3.7-0.8L24,11.5l-0.6,3.2
			c1.4,0.5,2.9,0.8,4.4,0.8c4.1,0,6.8-1.9,6.8-4.9c0-1.6-1-2.9-3.3-3.9C30,6,29.1,5.6,29.1,4.9c0-0.6,0.7-1.2,2.2-1.2
			c1,0,2,0.2,2.9,0.6l0.4,0.2L35.2,1.3 M45.3,1h-3c-0.9-0.1-1.7,0.4-2.1,1.2l-5.8,13.2h4.1c0,0,0.7-1.8,0.8-2.2l5,0
			c0.1,0.5,0.5,2.2,0.5,2.2h3.6L45.3,1L45.3,1z M40.5,10.2c0.3-0.8,1.6-4,1.6-4c0,0,0.3-0.8,0.5-1.4l0.3,1.2c0,0,0.8,3.4,0.9,4.2
			H40.5z M13.8,1L10,10.8l-0.4-2c-1-2.6-2.9-4.8-5.4-6l3.5,12.6h4.1L17.9,1L13.8,1"/>
		<path id="Caminho_183" class="st0" d="M6.4,0H0.1L0,0.3c4.9,1.2,8.2,4.1,9.5,7.5L8.1,1.2C7.9,0.4,7.2-0.1,6.4,0"/>
	</g>
	<g id="Grupo_455" transform="translate(775.501 1256)">
		<path id="Caminho_184" class="st0" d="M15,14.7c0-0.5,0.1-0.9,0.2-1.4c0.1-0.5,0.6-3.6,0.6-3.6h0.9c0.5-2.6,1.8-5,3.8-6.8
			C18.2,1,15.3,0,12.4,0C5.6,0,0,5.6,0,12.4c0,6.9,5.6,12.4,12.4,12.4c2.9,0,5.8-1,8-2.9c-1.7-1.7-3-3.8-3.6-6.2
			c-0.2,0.1-0.5,0.1-0.7,0.1c-0.5,0.1-1-0.4-1.1-0.9C15,14.8,15,14.8,15,14.7z M5.2,15.7L6,10.8l-1.8,4.9H3.3l-0.1-4.9l-0.8,4.9H1.1
			l1.1-6.4h2l0.1,4l1.3-4h2.1l-1.1,6.4H5.2z M9.9,15.7l0-0.5c-0.3,0.4-0.9,0.7-1.4,0.6c-0.7,0-1.3-0.6-1.3-1.3c0,0,0-0.1,0-0.1
			c0-1.3,0.9-2,2.4-2c0.2,0,0.4,0,0.6,0c0-0.1,0.1-0.2,0.1-0.3c0-0.3-0.2-0.5-0.9-0.5c-0.5,0-1,0.1-1.5,0.2c0-0.1,0.2-1.2,0.2-1.2
			c0.5-0.2,1.1-0.3,1.6-0.3c1.2,0,1.8,0.5,1.8,1.5c0,0.3,0,0.7-0.1,1c-0.1,0.8-0.4,2.4-0.4,2.8L9.9,15.7z M13.9,12.6
			c0.6,0.2,1,0.8,1,1.5c0,1.2-0.7,1.7-2.1,1.7c-0.5,0-1,0-1.4-0.2c0-0.1,0.2-1.2,0.2-1.2c0.4,0.1,0.8,0.2,1.2,0.2
			c0.5,0,0.8-0.1,0.8-0.5c0-0.2-0.1-0.3-0.6-0.6c-0.6-0.2-1-0.8-1-1.5c0-1,0.5-1.8,2.1-1.8c0.4,0,0.8,0,1.2,0.1l-0.2,1.2
			c-0.3,0-0.7-0.1-1-0.1c-0.4,0-0.7,0.1-0.7,0.4C13.2,12.3,13.3,12.4,13.9,12.6L13.9,12.6z"/>
		<path id="Caminho_185" class="st0" d="M8.5,14.2c0,0.3,0.2,0.5,0.4,0.5c0,0,0,0,0.1,0c0.6,0,1-0.5,1-1.3c-0.1,0-0.2,0-0.3,0
			C8.9,13.4,8.5,13.7,8.5,14.2z"/>
		<path id="Caminho_186" class="st0" d="M31.3,13.4c-0.8,0-1.2,0.3-1.2,0.8c0,0.3,0.2,0.5,0.4,0.5c0,0,0,0,0.1,0c0.6,0,1-0.5,1-1.3
			C31.5,13.4,31.4,13.4,31.3,13.4z"/>
		<path id="Caminho_187" class="st0" d="M29.6,0c-2.9,0-5.8,1-8,2.9c2.1,2,3.4,4.7,3.9,7.5c0.5-0.8,1.4-1.3,2.4-1.3
			c0.5,0,1,0.1,1.5,0.3l-0.2,1.4c-0.4-0.2-0.8-0.3-1.2-0.3c-1,0-1.7,1-1.7,2.4c0,1,0.5,1.6,1.3,1.6c0.4,0,0.8-0.1,1.2-0.3l-0.2,1.5
			c-0.4,0.1-0.8,0.2-1.2,0.2c-0.7,0-1.4-0.3-1.8-0.8c-0.5,2.6-1.8,5-3.8,6.9c2.2,1.9,5.1,2.9,8,2.9c6.9,0,12.4-5.6,12.4-12.4
			C42,5.6,36.5,0,29.6,0z M32.6,15.7h-1.1l0-0.5c-0.3,0.4-0.9,0.7-1.4,0.6c-0.7,0-1.3-0.6-1.3-1.3c0,0,0-0.1,0-0.1
			c0-1.3,0.9-2,2.4-2c0.2,0,0.4,0,0.6,0c0-0.1,0.1-0.2,0.1-0.3c0-0.3-0.2-0.5-0.9-0.5c-0.5,0-1,0.1-1.5,0.2c0-0.1,0.2-1.2,0.2-1.2
			c0.5-0.2,1.1-0.3,1.6-0.3c1.2,0,1.8,0.5,1.8,1.5c0,0.3,0,0.7-0.1,1C32.9,13.7,32.6,15.3,32.6,15.7L32.6,15.7z M34.4,15.7H33
			l0.1-0.4c0.2-1.6,0.5-3.2,0.7-4.9h1.3c0,0.3,0,0.5-0.1,0.8c0.4-0.6,0.7-0.9,1.3-0.8c-0.3,0.5-0.4,1-0.5,1.5
			C35,11.9,34.9,12.6,34.4,15.7L34.4,15.7z M38.5,15.7l0.1-0.5c-0.3,0.4-0.8,0.6-1.3,0.6c-1,0-1.7-0.9-1.7-2.2c0-1.7,1-3.2,2.2-3.2
			c0.5,0,1,0.3,1.3,0.7l0.3-1.9h1.4l-1,6.4L38.5,15.7z"/>
		<path id="Caminho_188" class="st0" d="M38.2,11.8c-0.6,0-1.1,0.7-1.1,1.8c0,0.7,0.2,1,0.7,1c0.6,0,1.1-0.7,1.1-1.8
			C38.9,12.1,38.6,11.8,38.2,11.8z"/>
		<path id="Caminho_189" class="st0" d="M19.9,11.6c-0.4,0-0.7,0.3-0.9,0.9h1.5C20.5,12.4,20.6,11.6,19.9,11.6z"/>
		<path id="Caminho_190" class="st0" d="M24.8,12.3c0-0.4,0-0.8-0.1-1.2c-0.1,0.3-0.2,0.6-0.3,0.9c-0.8-0.1-0.9,0.5-1.4,3.7h-1.4
			l0.1-0.4c0.2-1.6,0.5-3.2,0.7-4.9h1.3c0,0.3,0,0.5-0.1,0.8c0.3-0.5,0.6-0.8,1-0.8c-0.4-2.7-1.7-5.1-3.7-7c-2,1.9-3.3,4.4-3.7,7.1
			h0.4l-0.2,1.3h-0.3c0,0.2,0,0.4,0,0.6c0,3.4,1.4,6.6,3.8,8.9c2.2-2.1,3.5-4.9,3.8-8c0-0.1,0-0.2,0-0.3
			C24.8,12.8,24.8,12.6,24.8,12.3z M20.1,14.7c0.5,0,1-0.1,1.4-0.3l-0.2,1.3c-0.5,0.1-0.9,0.2-1.4,0.2c-1.1,0.1-2.2-0.7-2.3-1.8
			c0-0.2,0-0.4,0-0.5c0-1.8,1-3.1,2.4-3.1c1-0.1,1.8,0.7,1.8,1.6c0,0.1,0,0.2,0,0.3c0,0.4-0.1,0.9-0.2,1.3h-2.7
			C18.8,14.3,19.3,14.7,20.1,14.7L20.1,14.7z"/>
	</g>
	<path id="Caminho_191" class="st0" d="M992,1264h0.2l0.2-0.1l0.2-0.1l0.1-0.1l0.1-0.1l0.1-0.2l0.1-0.2v-0.3v-0.3l-0.1-0.1l-0.1-0.1
		l-0.1-0.1l-0.1-0.1h-0.5l-0.2,0.1l-0.2,0.1l-0.1,0.1l-0.1,0.1l-0.1,0.2l-0.1,0.2l0,0.3l0,0.3l0.1,0.1l0.1,0.1l0.1,0.1l0.1,0.1
		L992,1264z M1022.4,1271.6h0.7v-0.4l0.1-0.5c0-0.3,0.1-0.7,0.2-1s0.1-0.6,0.1-0.8s0.1-0.5,0.1-0.7s0.1-0.5,0.1-0.6
		c0-0.1,0-0.1,0-0.2c0-0.1,0.1-0.2,0.1-0.3l0.1-0.3l0.2-0.2l0.2-0.2l0.2-0.1c0.1-0.1,0.2-0.2,0.4-0.2l0.2-0.1h0.4h0.4l0.2,0l0.2,0
		l0,0l0,0v-0.1c0-0.2,0-0.3,0.1-0.5l0.1-0.4l-0.1,0c-0.1,0-0.2-0.1-0.2-0.1l-0.2,0h-0.6l-0.2,0.1l-0.2,0.1l-0.2,0.1l-0.2,0.1
		l-0.2,0.2l-0.2,0.2l-0.1,0.2c0,0.1-0.1,0.1-0.1,0.2c0,0,0-0.2,0.1-0.5s0.1-0.5,0.1-0.5v-0.1h-1.2v0c0,0,0,0.2-0.1,0.4
		s-0.1,0.7-0.2,1c-0.1,0.4-0.1,0.8-0.2,1.1c-0.1,0.3-0.1,0.7-0.2,1c0,0.2-0.1,0.6-0.2,0.9s-0.1,0.7-0.2,1l-0.2,0.8l-0.1,0.3
		L1022.4,1271.6z M1006.5,1271.6h0.7l0-0.3c0-0.2,0-0.5,0.1-0.7s0.1-0.7,0.2-1c0.1-0.4,0.1-0.8,0.2-1.2c0.1-0.3,0.1-0.7,0.2-0.8
		c0-0.1,0-0.1,0-0.2c0-0.1,0.1-0.2,0.1-0.3c0.1-0.2,0.2-0.3,0.3-0.5l0.1-0.2l0.2-0.2l0.2-0.2l0.2-0.1l0.2-0.1h0.4h0.4l0.2,0.1
		c0.1,0,0.2,0.1,0.2,0.1s0,0,0-0.1s0-0.2,0.1-0.5s0.1-0.4,0.1-0.4c-0.1,0-0.1-0.1-0.2-0.1c-0.1,0-0.3-0.1-0.4-0.1l-0.2,0l-0.2,0
		c-0.1,0-0.2,0.1-0.4,0.1c-0.1,0-0.2,0.1-0.3,0.2c-0.1,0.1-0.2,0.2-0.3,0.3c-0.1,0.1-0.2,0.2-0.3,0.4c-0.1,0.1-0.1,0.2-0.2,0.3
		l0,0.1l0-0.1c0-0.1,0.1-0.3,0.1-0.5s0.1-0.4,0.1-0.4l0-0.1h-1.2v0.1c0,0,0,0.3-0.1,0.6s-0.1,0.7-0.2,1s-0.1,0.8-0.2,1.1
		c-0.1,0.3-0.1,0.7-0.2,1c-0.1,0.6-0.2,1.3-0.4,1.9c-0.1,0.3-0.1,0.6-0.1,0.7s0,0.2,0,0.2v0L1006.5,1271.6z M990.7,1271.6h0.7l0-0.1
		c0-0.1,0-0.1,0-0.2c0-0.1,0-0.4,0.1-0.7c0.1-0.7,0.2-1.5,0.4-2.2c0.1-0.3,0.1-0.6,0.2-0.9c0-0.3,0.1-0.7,0.2-0.9s0.1-0.7,0.2-1
		s0.1-0.6,0.1-0.6l0,0l-0.7,0l-0.7,0l-0.1,0.4c0,0.2-0.1,0.7-0.2,1s-0.1,0.8-0.2,1.1c-0.1,0.3-0.1,0.7-0.2,1c0,0.3-0.1,0.7-0.2,0.9
		s-0.1,0.6-0.2,0.9s-0.1,0.6-0.2,0.8s-0.1,0.3-0.1,0.4l0,0.1L990.7,1271.6z M982.2,1271.6h0.8l0.1-0.3c0-0.2,0.1-0.5,0.1-0.8l0.2-1
		c0.1-0.3,0.1-0.8,0.2-1.1s0.1-0.7,0.2-0.9c0-0.1,0.1-0.3,0.1-0.4l0,0h4.1l0,0l0,0l0,0.2c0,0.1-0.1,0.4-0.1,0.7s-0.1,0.7-0.2,1
		c-0.1,0.3-0.1,0.6-0.2,0.9c0,0.2-0.1,0.7-0.2,1s-0.1,0.6-0.1,0.7v0h1.5l0-0.2c0-0.1,0-0.3,0.1-0.4s0.1-0.4,0.1-0.6s0.1-0.6,0.2-0.9
		s0.1-0.8,0.2-1.1s0.1-0.8,0.2-1c0.1-0.3,0.1-0.6,0.2-0.9c0.1-0.3,0.1-0.7,0.2-1s0.1-0.7,0.2-1s0.1-0.7,0.2-1s0.1-0.6,0.2-0.8
		l0.1-0.2h-1.6l0,0.1c0,0.1,0,0.3-0.1,0.5s-0.1,0.6-0.1,0.8s-0.1,0.7-0.2,1s-0.1,0.6-0.1,0.9l-0.1,0.4l-1.1,0l-1.1,0l-1,0
		c-0.5,0-1,0-1,0c0-0.1,0-0.2,0-0.3c0-0.2,0.1-0.4,0.1-0.6c0-0.2,0.1-0.5,0.1-0.7c0-0.2,0.1-0.5,0.1-0.6s0.1-0.3,0.1-0.4
		s0.1-0.4,0.1-0.6s0.1-0.4,0.1-0.4l0-0.1h-1.5l0,0.3c0,0.2-0.1,0.4-0.1,0.5s-0.1,0.5-0.1,0.8s-0.1,0.8-0.2,1.1l-0.2,1.1
		c-0.1,0.4-0.1,0.8-0.2,1.1c-0.1,0.3-0.1,0.6-0.2,0.9c0,0.2-0.1,0.6-0.2,0.9s-0.1,0.6-0.2,0.9c0,0.2-0.1,0.4-0.1,0.5
		s-0.1,0.3-0.1,0.6s-0.1,0.4-0.1,0.4v0.1L982.2,1271.6L982.2,1271.6z M1027.9,1271.8h0.3l0.3,0c0.2,0,0.4-0.1,0.4-0.1
		c0.1,0,0.2-0.1,0.3-0.1l0.2-0.1l0.2-0.1l0.2-0.1l0.2-0.2c0.1-0.1,0.1-0.2,0.2-0.3l0,0l0,0.2c0,0.1,0,0.2,0,0.3c0,0.1,0,0.3,0,0.4
		l0,0.2h1.2v-0.4l0.1-0.8c0.1-0.4,0.1-1,0.2-1.3s0.1-0.7,0.1-0.9s0.1-0.6,0.1-0.8s0.1-0.7,0.2-1s0.1-0.7,0.2-1s0.1-0.7,0.2-0.9
		s0.1-0.7,0.2-0.9s0.1-0.6,0.2-0.9c0-0.2,0.1-0.4,0.1-0.4v0h-1.3l0,0.2c0,0.1-0.1,0.5-0.1,0.8c-0.1,0.4-0.1,0.8-0.2,1.2
		c0,0.2-0.1,0.4-0.1,0.7l0,0.1l-0.1,0c0,0-0.2-0.1-0.4-0.1l-0.3-0.1l-0.4,0l-0.4,0l-0.3,0l-0.3,0l-0.3,0.1l-0.3,0.1l-0.3,0.1
		l-0.3,0.1l-0.2,0.2l-0.2,0.2l-0.2,0.2c-0.1,0.1-0.2,0.3-0.3,0.4l-0.1,0.2l-0.2,0.4c-0.1,0.2-0.2,0.5-0.3,0.6s-0.1,0.4-0.2,0.6
		l-0.1,0.4l0,0.5l0,0.5l0,0.4l0,0.4l0,0.1c0,0.1,0.1,0.2,0.1,0.3l0.1,0.2l0.1,0.2l0.1,0.2l0.1,0.1l0.1,0.1l0.2,0.1
		c0.1,0.1,0.3,0.1,0.4,0.1c0.1,0,0.3,0.1,0.4,0.1C1027.5,1271.8,1027.8,1271.8,1027.9,1271.8L1027.9,1271.8z M1028.5,1270.9l-0.2,0
		l-0.2,0c-0.1,0-0.2-0.1-0.3-0.1l-0.2-0.1l-0.1-0.1l-0.1-0.1l-0.2-0.4l0-0.2l0-0.2v-0.4v-0.4l0-0.4l0.1-0.4l0.1-0.3
		c0-0.1,0.1-0.2,0.1-0.3c0-0.1,0.1-0.2,0.1-0.3c0.1-0.1,0.1-0.3,0.2-0.4c0.1-0.1,0.1-0.2,0.2-0.4c0.1-0.1,0.2-0.2,0.3-0.3
		c0.1-0.1,0.2-0.2,0.3-0.2l0.1-0.1l0.2-0.1l0.2-0.1h1l0.3,0.1c0.2,0,0.3,0.1,0.4,0.1l0.1,0l0,0.1c0,0,0,0.3-0.1,0.5
		s-0.1,0.6-0.2,0.9s-0.1,0.7-0.2,0.9s-0.1,0.5-0.1,0.7s-0.1,0.3-0.1,0.4c0,0.1-0.1,0.2-0.1,0.3c-0.1,0.1-0.1,0.2-0.2,0.3
		c-0.1,0.1-0.1,0.2-0.2,0.2c-0.1,0.1-0.2,0.1-0.3,0.2l-0.2,0.1l-0.5,0.2L1028.5,1270.9L1028.5,1270.9z M1017.3,1271.8l0.4,0l0.3-0.1
		l0.3-0.1l0.2-0.1c0.1-0.1,0.2-0.1,0.3-0.2c0.1-0.1,0.2-0.2,0.3-0.3c0.1-0.1,0.2-0.2,0.3-0.3c0-0.1,0.1-0.1,0.1-0.2
		c0,0.1,0,0.2,0,0.3c0,0.2,0,0.3,0,0.5v0.2h1.2l0-0.4l0-0.4l0.1-0.6c0-0.3,0.1-0.8,0.2-1.1s0.1-0.7,0.2-1s0.1-0.7,0.2-1l0.1-0.5
		v-0.4v-0.4l-0.1-0.2l-0.1-0.2l-0.1-0.1l-0.1-0.1l-0.2-0.1l-0.2-0.1l-0.6-0.1l-0.4,0l-0.4,0l-0.5,0c-0.3,0-0.7,0.1-0.9,0.1l-0.4,0
		h-0.5l0,0.2c0,0.1-0.1,0.3-0.1,0.5c0,0.1-0.1,0.2-0.1,0.4c0.1,0,0.2,0,0.3-0.1c0.2,0,0.5-0.1,0.8-0.2l0.5-0.1l0.4,0l0.4,0l0.5,0.1
		l0.2,0.1l0.2,0.1l0.1,0.2l0.1,0.2v0.2v0.2l-0.1,0.3l-0.1,0.3h-1.1h-1.1l-0.4,0.1c-0.2,0-0.3,0.1-0.5,0.2c-0.1,0-0.1,0-0.2,0.1
		c-0.1,0-0.2,0.1-0.3,0.1l-0.2,0.1l-0.2,0.2c-0.1,0.1-0.2,0.2-0.3,0.3c-0.1,0.1-0.2,0.3-0.2,0.4l-0.1,0.2l0,0.3l0,0.3v0.6l0,0.2
		l0,0.2l0.1,0.2c0.1,0.1,0.1,0.2,0.2,0.3l0.1,0.1l0.2,0.1l0.2,0.1l0.2,0.1c0.1,0,0.3,0.1,0.4,0.1l0.2,0L1017.3,1271.8L1017.3,1271.8
		z M1017.7,1270.9l-0.3,0l-0.2,0c-0.1,0-0.2-0.1-0.3-0.1l-0.1-0.1l-0.1-0.1c-0.1-0.1-0.1-0.1-0.1-0.2l-0.1-0.1l0-0.3l0-0.3l0.1-0.2
		c0-0.1,0.1-0.3,0.2-0.4l0.1-0.2l0.2-0.2l0.2-0.2l0.2-0.1l0.2-0.1l0.3-0.1l0.3-0.1h1.6l0,0l0,0l0,0.2c0,0.1-0.1,0.4-0.1,0.5
		s-0.1,0.4-0.2,0.5s-0.1,0.2-0.1,0.3c0,0.1-0.1,0.1-0.1,0.2l-0.1,0.2l-0.2,0.2c-0.1,0.1-0.1,0.1-0.2,0.2c-0.1,0-0.1,0-0.1,0.1
		l-0.1,0.1l-0.3,0.1l-0.3,0.1L1017.7,1270.9L1017.7,1270.9z M1012.1,1271.8h0.3l0.4,0c0.2,0,0.5-0.1,0.6-0.1c0.2,0,0.3-0.1,0.5-0.1
		c0.1,0,0.2-0.1,0.3-0.1c0-0.1,0.1-0.2,0.1-0.3c0-0.2,0.1-0.4,0.1-0.5c0-0.1,0-0.1,0-0.2c0,0,0,0-0.1,0c-0.1,0.1-0.2,0.1-0.3,0.1
		l-0.3,0.1l-0.4,0.1l-0.4,0.1l-0.4,0l-0.4,0l-0.2-0.1l-0.2-0.1l-0.2-0.1l-0.2-0.1l-0.1-0.2l-0.1-0.2l-0.1-0.3l-0.1-0.3v-0.7l0.1-0.4
		l0.1-0.4l0.1-0.2c0-0.1,0.1-0.3,0.1-0.3c0-0.1,0.1-0.2,0.1-0.3c0.1-0.1,0.2-0.3,0.2-0.4l0.1-0.2l0.1-0.2l0.1-0.2l0.2-0.1l0.2-0.1
		l0.2-0.1c0.1,0,0.3-0.1,0.4-0.1l0.2,0l0.3,0l0.3,0l0.4,0.1l0.4,0.1l0.2,0.1c0.1,0,0.2,0.1,0.2,0.1c0-0.1,0-0.2,0-0.3
		c0-0.1,0.1-0.4,0.1-0.5c0-0.1,0-0.2,0-0.3c-0.1,0-0.2,0-0.3,0c-0.1,0-0.5,0-0.9-0.1l-0.6,0l-0.4,0l-0.4,0l-0.3,0.1l-0.3,0.1
		l-0.2,0.1c-0.1,0.1-0.2,0.1-0.4,0.2c-0.1,0.1-0.2,0.1-0.2,0.2c-0.1,0.1-0.2,0.2-0.3,0.3l-0.2,0.2l-0.1,0.2
		c-0.1,0.2-0.2,0.3-0.3,0.5l-0.1,0.3l-0.1,0.3c-0.1,0.2-0.2,0.5-0.2,0.7l-0.1,0.3l0,0.3l0,0.3v0.8l0,0.2l0,0.2l0.1,0.2l0.1,0.2
		l0.1,0.2l0.1,0.2l0.2,0.2l0.2,0.2l0.2,0.1l0.2,0.1l0.2,0.1c0.1,0,0.3,0.1,0.4,0.1C1011.8,1271.8,1012,1271.8,1012.1,1271.8
		L1012.1,1271.8z M1002.1,1271.8h0.3l0.3,0c0.2,0,0.5-0.1,0.7-0.1s0.5-0.1,0.7-0.1l0.4-0.1l0-0.1c0-0.1,0.1-0.3,0.1-0.5l0.1-0.4l0,0
		l0,0l-0.1,0.1c-0.1,0-0.3,0.1-0.4,0.2l-0.3,0.1l-0.3,0.1l-0.3,0.1h-0.6h-0.5l-0.2-0.1c-0.1,0-0.2-0.1-0.3-0.1l-0.1-0.1l-0.2-0.2
		l-0.1-0.2l-0.1-0.2l-0.1-0.2l-0.1-0.2v-0.8l0.1-0.4l0.1-0.4l0.9,0l1.7,0l1.7,0l0.1-0.2c0-0.1,0.1-0.4,0.1-0.6l0-0.3v-0.6l0-0.2
		l0-0.2l-0.1-0.1c-0.1-0.1-0.1-0.2-0.2-0.3c-0.1-0.1-0.1-0.1-0.2-0.2c-0.1,0-0.2-0.1-0.3-0.2l-0.2-0.1l-0.3-0.1l-0.3-0.1l-0.3,0
		l-0.3,0l-0.3,0l-0.3,0l-0.4,0.1l-0.4,0.1l-0.2,0.1c-0.2,0.1-0.3,0.1-0.4,0.2c-0.1,0.1-0.2,0.1-0.3,0.2c-0.1,0.1-0.2,0.2-0.3,0.3
		c-0.1,0.1-0.2,0.2-0.3,0.3c-0.1,0.1-0.2,0.3-0.2,0.4s-0.1,0.3-0.2,0.4s-0.1,0.3-0.1,0.4s-0.1,0.4-0.2,0.6c0,0.2-0.1,0.4-0.1,0.6
		l0,0.3v0.9l0,0.2c0,0.1,0.1,0.3,0.1,0.4c0,0.1,0.1,0.2,0.1,0.3c0.1,0.1,0.1,0.2,0.2,0.3c0.1,0.1,0.2,0.2,0.3,0.3
		c0.1,0.1,0.2,0.1,0.3,0.2l0.2,0.1l0.3,0.1c0.1,0,0.4,0.1,0.5,0.1S1001.9,1271.8,1002.1,1271.8L1002.1,1271.8z M1002.7,1267.4
		c-0.9,0-1.6,0-1.6,0s0-0.1,0.1-0.2s0.1-0.3,0.2-0.4l0.1-0.2l0.2-0.2l0.2-0.2l0.2-0.1c0.1-0.1,0.2-0.1,0.3-0.1c0.1,0,0.3,0,0.4-0.1
		l0.3,0l0.2,0l0.2,0l0.2,0.1l0.2,0.1l0.1,0.1c0.1,0.1,0.1,0.1,0.1,0.2l0,0.1l0,0.2l0,0.2l0,0.3l0,0.3L1002.7,1267.4z M993.4,1274.6
		L993.4,1274.6c0-0.1,0-0.1,0-0.2c0-0.1,0-0.2,0-0.4s0.1-0.6,0.1-0.9s0.1-0.8,0.2-1.1s0.1-0.5,0.1-0.8c0-0.1,0-0.2,0.1-0.3
		c0,0,0.1,0.1,0.1,0.1l0.1,0.1l0.2,0.2l0.2,0.2l0.2,0.1l0.2,0.1l0.3,0l0.3,0l0.3,0l0.3,0l0.4-0.1l0.4-0.1l0.2-0.1
		c0.1-0.1,0.3-0.1,0.4-0.2l0.2-0.1l0.2-0.2c0.1-0.1,0.2-0.3,0.4-0.4c0.1-0.1,0.1-0.1,0.1-0.2c0-0.1,0.1-0.1,0.1-0.1
		c0.1-0.1,0.2-0.3,0.2-0.4c0.1-0.2,0.2-0.5,0.3-0.7l0.1-0.4l0.1-0.3c0-0.2,0.1-0.5,0.1-0.7l0-0.3l0-0.3l0-0.3l-0.1-0.3l-0.1-0.3
		l-0.1-0.2l-0.1-0.2l-0.2-0.2l-0.2-0.2l-0.5-0.3l-0.3-0.1l-0.3-0.1l-0.3,0l-0.3,0l-0.3,0l-0.3,0l-0.2,0.1l-0.2,0.1l-0.2,0.1
		c-0.1,0.1-0.3,0.1-0.4,0.2c-0.1,0-0.1,0.1-0.2,0.1c0,0-0.1,0.1-0.1,0.1l-0.1,0.1l0.1-0.3c0-0.2,0.1-0.3,0.1-0.3v0h-1.2l-0.1,0.6
		c-0.1,0.4-0.1,0.9-0.2,1.2c-0.1,0.7-0.2,1.4-0.3,2.1c-0.1,0.3-0.1,0.8-0.2,1.1s-0.1,0.7-0.2,0.9s-0.1,0.6-0.2,0.9
		c-0.1,0.3-0.1,0.7-0.2,1c-0.1,0.3-0.1,0.6-0.2,1c-0.1,0.3-0.1,0.5-0.1,0.5l0,0.1L993.4,1274.6L993.4,1274.6z M995.4,1270.9l-0.2,0
		l-0.2,0l-0.2-0.1l-0.2-0.1l-0.1-0.1l-0.1-0.1l-0.1-0.2c0-0.1-0.1-0.2-0.1-0.3l0-0.2l0-0.3l0-0.3l0.1-0.4c0.1-0.3,0.1-0.6,0.2-1
		c0.1-0.3,0.1-0.7,0.2-1l0.1-0.4l0.2-0.1c0.1-0.1,0.2-0.2,0.3-0.2l0.2-0.1l0.2-0.1l0.2-0.1l0.6,0l0.2,0l0.2,0l0.2,0.1l0.2,0.1
		l0.1,0.1l0.1,0.1l0.1,0.1c0.1,0.1,0.1,0.2,0.1,0.3l0.1,0.2l0,0.6l0,0.6l-0.1,0.4c0,0.2-0.1,0.5-0.2,0.7l-0.1,0.3l-0.1,0.2
		c-0.1,0.1-0.2,0.3-0.2,0.4c-0.1,0.1-0.1,0.2-0.2,0.3c-0.1,0.1-0.1,0.1-0.2,0.2l-0.1,0.1l-0.5,0.2L995.4,1270.9L995.4,1270.9z"/>
	<g id="Grupo_456" transform="translate(903.747 1257.02)">
		<path id="Caminho_192" class="st0" d="M9.3,5c0.7-0.2,1.4-0.3,2.1-0.3c3.2,0,5.9,2.2,6.6,5.4l4.6-0.9C21.5,3.8,16.8,0,11.4,0
			c-1.2,0-2.4,0.2-3.6,0.6L9.3,5L9.3,5z"/>
		<path id="Caminho_193" class="st0" d="M3.8,19.9L7,16.4c-1.4-1.3-2.3-3.1-2.3-5c0-1.9,0.8-3.7,2.3-5L3.8,2.9C1.4,5,0,8.1,0,11.4
			C0,14.7,1.4,17.8,3.8,19.9z"/>
		<path id="Caminho_194" class="st0" d="M18,12.7c-0.6,3.1-3.4,5.4-6.6,5.4c-0.7,0-1.4-0.1-2.1-0.3l-1.5,4.4
			c1.2,0.4,2.4,0.6,3.6,0.6c5.4,0,10.1-3.8,11.2-9.1L18,12.7L18,12.7z"/>
		<path id="Caminho_195" class="st0" d="M37.9,15.9c-0.8,0.8-1.8,1.2-2.9,1.2c-0.8,0-1.5-0.2-2.1-0.6l-1.5,2.4
			c1.1,0.7,2.3,1,3.6,1.1c1.9,0,3.6-0.7,5-2L37.9,15.9L37.9,15.9z M35.1,6c-3.8-0.1-7,3-7.1,6.8c0,1.4,0.4,2.7,1.1,3.9l12.6-5.4
			C41,8.3,38.3,6.1,35.1,6 M30.9,13.4c0-0.2,0-0.3,0-0.5c0-2.3,1.9-4.1,4.2-4c1.2,0,2.3,0.5,3.1,1.5L30.9,13.4z M45.7,2.9v13.4
			l2.3,1L47,19.9l-2.3-1c-0.5-0.2-0.9-0.5-1.1-1c-0.3-0.5-0.5-1.1-0.5-1.7V2.9L45.7,2.9z M54.1,9.1c0.4-0.1,0.9-0.2,1.3-0.2
			c1.9,0,3.6,1.4,4,3.3l2.8-0.6C61.6,8.3,58.7,6,55.4,6c-0.7,0-1.5,0.1-2.2,0.4L54.1,9.1L54.1,9.1z M50.8,18.2l1.9-2.1
			c-0.9-0.8-1.4-1.9-1.4-3.1c0-1.2,0.5-2.3,1.4-3.1l-1.9-2.1c-1.5,1.3-2.3,3.2-2.3,5.2C48.5,15,49.3,16.8,50.8,18.2L50.8,18.2z
			 M59.4,13.8c-0.4,1.9-2.1,3.3-4,3.3c-0.4,0-0.9-0.1-1.3-0.2l-0.9,2.7c0.7,0.2,1.5,0.4,2.2,0.4c3.3,0,6.2-2.3,6.8-5.6L59.4,13.8
			L59.4,13.8z"/>
	</g>
	<g id="Grupo_457" transform="translate(1042.477 1256.888)">
		<path id="Caminho_196" class="st0" d="M17,0h-5.4C5.3-0.1,0.1,4.8,0,11.1c0,0.2,0,0.3,0,0.5C0.1,18,5.2,23.1,11.6,23.1H17
			c6.3,0,12-5.1,12-11.4C29,5.1,23.7-0.1,17.2,0C17.1,0,17.1,0,17,0z M11.6,22.1c-5.8,0-10.5-4.7-10.5-10.6C1.1,5.7,5.8,1,11.6,1
			c5.8,0,10.5,4.7,10.5,10.6C22.2,17.4,17.5,22.1,11.6,22.1z"/>
		<path id="Caminho_197" class="st0" d="M5,11.5L5,11.5c0,2.8,1.7,5.2,4.3,6.2V5.3C6.7,6.3,5,8.7,5,11.5z"/>
		<path id="Caminho_198" class="st0" d="M14,5.3v12.5l0,0c2.6-1,4.3-3.5,4.3-6.2C18.3,8.7,16.6,6.3,14,5.3z"/>
	</g>
	<g id="Grupo_458" transform="translate(831.86 1258.695)">
		<path id="Caminho_199" class="st0" d="M40.9,2.3l-1.1,2.5h2.1L40.9,2.3z M28.5,3.8c0.2-0.1,0.3-0.4,0.3-0.6c0-0.2-0.1-0.5-0.3-0.6
			c-0.2-0.1-0.5-0.1-0.7-0.1h-1.9v1.4h1.9C28,4,28.3,3.9,28.5,3.8L28.5,3.8z M3.9,2.3L2.9,4.8H5L3.9,2.3z M53.3,18.2h-3v-1.3h3
			c0.2,0,0.4,0,0.6-0.2c0.1-0.1,0.2-0.3,0.2-0.4c0-0.2-0.1-0.3-0.2-0.4c-0.2-0.1-0.4-0.2-0.5-0.1c-1.5,0-3.3,0-3.3-1.9
			c0-0.9,0.6-1.9,2.2-1.9h3.1v-1.2h-2.9c-0.7,0-1.4,0.1-1.9,0.5v-0.5h-4.3c-0.7,0-1.3,0.1-1.9,0.5v-0.5h-7.6v0.5
			c-0.6-0.4-1.4-0.5-2.1-0.5h-5v0.5c-0.7-0.4-1.4-0.6-2.2-0.5h-5.6l-1.3,1.3l-1.2-1.3H11v8.7h8.2l1.3-1.4l1.2,1.4h5.1v-2h0.5
			c0.7,0,1.5-0.1,2.2-0.3v2.4h4.2v-2.3h0.2c0.3,0,0.3,0,0.3,0.3v2h12.7c0.7,0,1.5-0.2,2.1-0.6v0.6h4c0.8,0,1.6-0.1,2.3-0.4v-1.6
			C54.8,18,54,18.3,53.3,18.2L53.3,18.2z M27.4,16.2h-1.9v2.1h-3l-1.9-2.1l-2,2.1h-6.2V12h6.3l1.9,2l2-2h5c1.2,0,2.6,0.3,2.6,2.1
			S28.8,16.2,27.4,16.2L27.4,16.2z M36.8,15.9c0.2,0.3,0.3,0.7,0.3,1.1v1.2h-1.6v-0.8c0-0.4,0-0.9-0.3-1.2c-0.3-0.2-0.7-0.3-1.1-0.3
			h-1.7v2.3h-1.6V12h3.6c0.6-0.1,1.3,0,1.9,0.3c0.5,0.3,0.8,0.8,0.8,1.4c0,0.7-0.4,1.4-1.1,1.7C36.3,15.4,36.6,15.6,36.8,15.9
			L36.8,15.9z M43.2,13.3h-3.6v1.1h3.6v1.3h-3.6v1.2l3.6,0v1.3H38V12h5.2V13.3z M47.2,18.2h-3v-1.3h3c0.2,0,0.4,0,0.6-0.2
			c0.1-0.1,0.2-0.3,0.2-0.4c0-0.2-0.1-0.3-0.2-0.4c-0.2-0.1-0.4-0.2-0.6-0.1c-1.5,0-3.3,0-3.3-1.9c0-0.9,0.6-1.9,2.2-1.9h3.1v1.3
			h-2.9c-0.2,0-0.4,0-0.6,0.1c-0.2,0.1-0.2,0.3-0.2,0.4c0,0.2,0.1,0.4,0.3,0.5c0.2,0.1,0.4,0.1,0.6,0.1l0.8,0
			c0.6-0.1,1.3,0.1,1.8,0.5c0.3,0.4,0.5,0.8,0.5,1.3C49.7,17.6,48.8,18.2,47.2,18.2L47.2,18.2z M35.1,13.4c-0.2-0.1-0.5-0.1-0.7-0.1
			h-1.9v1.4h1.9c0.3,0,0.5,0,0.8-0.1c0.2-0.1,0.3-0.4,0.3-0.6C35.5,13.7,35.4,13.5,35.1,13.4L35.1,13.4z M52.5,13.3
			c-0.2,0-0.4,0-0.6,0.1c-0.2,0.1-0.2,0.3-0.2,0.4c0,0.2,0.1,0.4,0.3,0.5c0.2,0.1,0.4,0.1,0.6,0.1l0.8,0c0.6-0.1,1.3,0.1,1.8,0.5
			c0.1,0,0.1,0.1,0.1,0.2v-1.8L52.5,13.3L52.5,13.3z M27.5,13.3h-2v1.6h2c0.6,0,1-0.3,1-0.8S28.1,13.3,27.5,13.3L27.5,13.3z
			 M14,13.3v1.1h3.4v1.3H14v1.2h3.8l1.8-1.8l-1.7-1.8L14,13.3z M23.9,17.6v-5l-2.4,2.5L23.9,17.6L23.9,17.6z M14.1,7.6v1.1h13l0-2.3
			h0.3c0.2,0,0.2,0,0.2,0.3v2h6.7V8.2c0.8,0.4,1.6,0.6,2.5,0.5h2.8l0.6-1.4h1.3l0.6,1.4h5.5V7.4l0.8,1.3h4.4V0h-4.3v1l-0.6-1h-4.4v1
			l-0.6-1h-6c-0.9,0-1.8,0.1-2.6,0.5V0h-4.1v0.5C29.6,0.1,29,0,28.4,0H13.3l-1,2.2l-1-2.2H6.5v1L5.9,0H1.9L0,4.1v3.3l2.8-6.2h2.3
			l2.6,5.9V1.2h2.5l2,4.2l1.9-4.2h2.6v6.2h-1.6l0-4.9l-2.3,4.9h-1.4L9.3,2.6v4.9H6.1L5.5,6.1H2.3L1.7,7.5H0v1.3h2.7l0.6-1.4h1.3
			l0.6,1.4h5.2V7.6l0.5,1.1h2.7L14.1,7.6L14.1,7.6z M34.6,1.9c0.7-0.5,1.5-0.8,2.4-0.7h1.5v1.3H37c-0.4-0.1-0.9,0.1-1.2,0.4
			c-0.3,0.4-0.5,0.9-0.4,1.4c0,0.5,0.1,1,0.4,1.5c0.3,0.2,0.7,0.4,1.1,0.3h0.7l2.2-4.9h2.3l2.6,5.9V1.2h2.4l2.7,4.3V1.2h1.6v6.2
			h-2.2l-3-4.7v4.7h-3.2l-0.6-1.4h-3.2l-0.6,1.4h-1.8c-0.8,0-1.6-0.2-2.3-0.7c-0.6-0.6-0.9-1.5-0.8-2.4C33.7,3.5,34,2.6,34.6,1.9
			L34.6,1.9z M31.4,1.2H33v6.2h-1.6L31.4,1.2z M24.2,1.2h3.6c0.6-0.1,1.3,0,1.9,0.3c0.5,0.3,0.8,0.8,0.8,1.4c0,0.7-0.4,1.4-1.1,1.7
			c0.3,0.1,0.6,0.3,0.8,0.5c0.2,0.3,0.3,0.7,0.3,1.1v1.2h-1.6l0-0.8c0.1-0.4,0-0.9-0.2-1.2c-0.3-0.2-0.7-0.3-1.1-0.3h-1.7v2.3h-1.6
			L24.2,1.2L24.2,1.2z M17.9,1.2h5.2v1.3h-3.6v1.1h3.6v1.3h-3.6v1.2h3.6v1.3h-5.2V1.2z"/>
	</g>
</g>
<g>
	<path class="st0" d="M374.1,17.9c-1.1-1-2.1-2-3.1-3.1c-1.2-1.3-1.2-3.4,0-4.7c0.9-1.1,2-2.1,3.1-3.1c0.7,0.1,1.5,0.1,2.2,0
		c0.6,0.1,1.1,0.4,1.5,0.8c1.1,1.1,2.2,2.2,3.4,3.4c1,1,2,1,3,0c1.1-1.1,2.2-2.1,3.2-3.2c0.6-0.7,1.4-0.9,2.3-1
		c0.9,0,1.6,0.2,2.2,0.9c0.6,0.7,1.2,1.2,1.8,1.9c1.5,1.6,1.5,3.8,0,5.4c-0.8,0.8-1.6,1.7-2.5,2.5c-0.1,0.1-0.2,0.3-0.3,0.3
		c-1.2,0-2.4,0.3-3.3-0.7c-1.1-1.2-2.3-2.3-3.5-3.5c-0.9-0.9-2-0.9-2.9,0c-1.1,1.1-2.3,2.3-3.4,3.4c-0.4,0.4-0.9,0.7-1.5,0.8
		C375.6,17.8,374.9,17.8,374.1,17.9z"/>
	<path class="st0" d="M383.2,0.2c0.7,0.1,1.3,0.3,1.8,0.8c1.5,1.5,3,3,4.5,4.4c0.1,0.1,0.3,0.2,0.4,0.4c-1.7,0-2.7,0.9-3.7,1.9
		c-0.9,0.9-1.8,1.8-2.7,2.7c-0.6,0.6-0.8,0.6-1.4,0c-1.1-1.1-2.2-2.2-3.3-3.3c-0.9-0.9-1.9-1.4-3.2-1.3c-0.1,0-0.2,0-0.3,0
		c1.6-1.7,3.2-3.3,4.9-4.9c0.5-0.5,1.1-0.7,1.8-0.8C382.4,0.2,382.8,0.2,383.2,0.2z"/>
	<path class="st0" d="M382,24.8c-0.7-0.1-1.3-0.3-1.8-0.8c-1.6-1.6-3.2-3.3-4.9-5c0.3,0,0.7,0,1,0c0.9-0.1,1.6-0.5,2.2-1.1
		c1.1-1.2,2.3-2.3,3.4-3.5c0.6-0.6,0.8-0.6,1.5,0c1,1,2.1,2.1,3.1,3.1c0.9,0.9,1.9,1.5,3.2,1.4c0,0.2-0.1,0.3-0.2,0.4
		c-1.4,1.4-2.8,2.8-4.2,4.2c-0.6,0.6-1.3,1.1-2.2,1.2C382.8,24.7,382.4,24.7,382,24.8z"/>
	<path class="st0" d="M376.4,7c-0.7,0.2-1.5,0.2-2.2,0C374.9,7,375.6,7,376.4,7z"/>
	<path class="st0" d="M374.1,17.9c0.7-0.2,1.5-0.2,2.2,0C375.6,18,374.9,18,374.1,17.9z"/>
	<path class="st0" d="M383.2,0.2c-0.4,0.2-0.7,0.2-1.1,0C382.4,0.1,382.8,0.1,383.2,0.2z"/>
	<path class="st0" d="M382,24.8c0.4-0.2,0.7-0.2,1.1,0C382.8,24.8,382.4,24.8,382,24.8z"/>
</g>
</svg>
