<svg width="261" height="260" viewBox="0 0 261 260" fill="none" xmlns="http://www.w3.org/2000/svg">
<path d="M116.584 250.784C116.601 251.46 116.867 252.006 117.383 252.421C117.898 252.841 118.57 253.087 119.4 253.159C119.995 253.211 120.517 253.161 120.967 253.01C121.417 252.864 121.777 252.638 122.045 252.334C122.309 252.033 122.459 251.678 122.494 251.267C122.524 250.923 122.47 250.619 122.331 250.355C122.187 250.091 121.991 249.862 121.742 249.67C121.487 249.481 121.211 249.317 120.915 249.177C120.617 249.042 120.33 248.927 120.053 248.832L118.67 248.341C118.218 248.188 117.757 247.994 117.288 247.758C116.819 247.523 116.39 247.229 116.002 246.877C115.615 246.525 115.314 246.104 115.099 245.615C114.88 245.126 114.799 244.555 114.856 243.904C114.927 243.084 115.202 242.373 115.682 241.773C116.157 241.173 116.811 240.723 117.645 240.425C118.474 240.126 119.455 240.026 120.587 240.124C121.672 240.218 122.596 240.471 123.358 240.884C124.121 241.297 124.699 241.839 125.092 242.51C125.485 243.186 125.668 243.962 125.639 244.839L123.446 244.649C123.448 244.121 123.316 243.67 123.05 243.296C122.777 242.925 122.415 242.635 121.963 242.424C121.506 242.218 120.996 242.091 120.435 242.042C119.817 241.989 119.259 242.038 118.761 242.19C118.258 242.346 117.852 242.586 117.544 242.911C117.235 243.241 117.06 243.642 117.019 244.113C116.982 244.543 117.074 244.905 117.296 245.199C117.512 245.494 117.821 245.749 118.22 245.964C118.615 246.179 119.066 246.377 119.573 246.559L121.245 247.174C122.378 247.591 123.258 248.135 123.884 248.807C124.505 249.479 124.772 250.319 124.685 251.329C124.612 252.164 124.323 252.873 123.816 253.457C123.309 254.04 122.654 254.47 121.85 254.748C121.047 255.03 120.159 255.129 119.187 255.044C118.206 254.959 117.355 254.712 116.635 254.303C115.91 253.893 115.357 253.367 114.975 252.726C114.593 252.089 114.426 251.381 114.475 250.601L116.584 250.784Z" fill="#1AFFB3"/>
<path d="M107.895 238.639L104.359 252.748L95.5131 250.531L95.9724 248.698L102.689 250.382L103.767 246.083L97.5116 244.515L97.9692 242.69L104.225 244.258L105.307 239.938L98.5077 238.234L98.967 236.401L107.895 238.639Z" fill="#1AFFB3"/>
<path d="M77.925 238.951C77.8776 239.401 77.8916 239.828 77.967 240.234C78.0362 240.642 78.1675 241.02 78.3609 241.369C78.5524 241.721 78.8089 242.038 79.1304 242.319C79.4476 242.598 79.8272 242.834 80.2695 243.028C81.0195 243.358 81.7806 243.462 82.5526 243.34C83.3246 243.219 84.0499 242.862 84.7284 242.271C85.4006 241.682 85.9727 240.85 86.4447 239.774C86.9186 238.695 87.1436 237.705 87.1197 236.805C87.0958 235.905 86.8629 235.128 86.421 234.474C85.9791 233.82 85.3679 233.322 84.5875 232.979C83.8634 232.661 83.1679 232.532 82.5009 232.591C81.8295 232.647 81.2285 232.88 80.6977 233.288C80.1606 233.699 79.7313 234.271 79.4097 235.003L78.9322 234.677L82.7432 236.35L82.0153 238.009L76.7801 235.711L77.4452 234.195C77.9362 233.077 78.6009 232.21 79.4394 231.596C80.2717 230.984 81.2042 230.638 82.237 230.559C83.2654 230.478 84.3172 230.673 85.3925 231.145C86.5978 231.674 87.5338 232.416 88.2007 233.371C88.8633 234.323 89.2246 235.42 89.2846 236.662C89.3428 237.908 89.0635 239.233 88.4469 240.638C87.9807 241.7 87.4146 242.589 86.7487 243.305C86.0828 244.021 85.3538 244.557 84.5617 244.912C83.7634 245.27 82.9337 245.447 82.0726 245.441C81.2053 245.438 80.3403 245.247 79.4775 244.868C78.7578 244.552 78.1346 244.152 77.6078 243.667C77.0768 243.181 76.6541 242.636 76.3398 242.033C76.0211 241.427 75.8194 240.786 75.7345 240.107C75.6477 239.433 75.6907 238.746 75.8635 238.046L77.925 238.951Z" fill="#1AFFB3"/>
<path d="M57.3998 232.16L55.5709 230.934L60.8972 222.987C61.464 222.142 62.1648 221.526 62.9997 221.139C63.8319 220.756 64.7331 220.619 65.7033 220.728C66.6708 220.841 67.6384 221.221 68.6059 221.87C69.5696 222.516 70.2873 223.265 70.7593 224.117C71.2286 224.973 71.4445 225.858 71.4067 226.774C71.3664 227.693 71.0628 228.575 70.4961 229.421L65.1697 237.368L63.3467 236.146L68.5742 228.347C68.9406 227.8 69.1462 227.234 69.191 226.648C69.2318 226.06 69.1118 225.495 68.8308 224.953C68.5471 224.415 68.1005 223.942 67.4909 223.534C66.8773 223.122 66.2679 222.888 65.6626 222.83C65.0508 222.773 64.4846 222.878 63.9639 223.145C63.4392 223.409 62.9937 223.814 62.6273 224.361L57.3998 232.16Z" fill="#1AFFB3"/>
<path d="M38.8226 216.118L48.9203 205.648L50.3721 207.048L48.2881 219.859L48.3852 219.953L55.7908 212.275L57.3704 213.798L47.2728 224.268L45.8107 222.858L47.8995 210.032L47.8024 209.938L40.3869 217.626L38.8226 216.118Z" fill="#1AFFB3"/>
<path d="M40.981 195.879L43.7423 199.693L31.9602 208.223L29.1115 204.288C28.2757 203.134 27.7939 201.971 27.6659 200.801C27.5341 199.634 27.7476 198.512 28.3066 197.435C28.859 196.357 29.7469 195.376 30.9704 194.49C32.1977 193.601 33.4148 193.062 34.6218 192.872C35.826 192.679 36.9713 192.831 38.0577 193.331C39.1403 193.833 40.1147 194.683 40.981 195.879ZM40.9021 199.04L39.4985 197.102C38.8488 196.204 38.14 195.58 37.3721 195.23C36.6004 194.883 35.7855 194.795 34.9274 194.966C34.0654 195.14 33.1684 195.564 32.2365 196.239C31.3122 196.908 30.6347 197.623 30.2042 198.385C29.7709 199.143 29.597 199.932 29.6826 200.753C29.7682 201.574 30.122 202.414 30.7439 203.273L32.2266 205.321L40.9021 199.04Z" fill="#1AFFB3"/>
<path d="M32.2741 182.304L33.2869 184.402L17.9123 186.012L16.81 183.729L27.6333 172.691L28.646 174.789L19.7142 183.668L19.7636 183.77L32.2741 182.304ZM26.9747 184.429L23.6894 177.624L25.3523 176.821L28.6377 183.626L26.9747 184.429Z" fill="#1AFFB3"/>
<path d="M18.6983 151.902C18.8084 152.465 18.7719 153.005 18.5887 153.523C18.4008 154.043 18.1019 154.487 17.6918 154.857C17.2808 155.222 16.7942 155.459 16.2319 155.57C15.665 155.681 15.1248 155.644 14.6111 155.46C14.0918 155.272 13.6496 154.973 13.2845 154.562C12.9148 154.152 12.6748 153.665 12.5648 153.103C12.4538 152.536 12.4927 151.996 12.6814 151.481C12.8646 150.963 13.1617 150.521 13.5727 150.156C13.9781 149.787 14.4643 149.547 15.0312 149.436C15.5934 149.326 16.1342 149.365 16.6534 149.553C17.1717 149.736 17.6158 150.032 17.9856 150.443C18.3498 150.849 18.5874 151.336 18.6983 151.902Z" fill="#1AFFB3"/>
<path d="M9.75336 118.332C9.31469 118.442 8.91792 118.602 8.56305 118.812C8.20376 119.017 7.89361 119.27 7.63261 119.571C7.36688 119.873 7.15738 120.222 7.00411 120.621C6.85114 121.014 6.75942 121.452 6.72896 121.934C6.6773 122.751 6.84099 123.502 7.22004 124.185C7.59909 124.869 8.18291 125.427 8.97149 125.862C9.75565 126.291 10.7337 126.542 11.9056 126.616C13.0822 126.691 14.089 126.562 14.926 126.231C15.7629 125.899 16.4128 125.414 16.8754 124.774C17.3381 124.134 17.5963 123.389 17.6501 122.539C17.6999 121.75 17.5827 121.052 17.2984 120.446C17.0144 119.835 16.5896 119.35 16.024 118.992C15.4539 118.628 14.7696 118.421 13.971 118.371L14.1131 117.81L13.8506 121.964L12.0431 121.85L12.4037 116.144L14.0553 116.248C15.2744 116.325 16.3165 116.652 17.1815 117.229C18.042 117.8 18.6869 118.557 19.1159 119.5C19.5453 120.438 19.723 121.493 19.6489 122.665C19.5659 123.979 19.1906 125.113 18.523 126.067C17.8558 127.016 16.9494 127.732 15.804 128.215C14.6539 128.697 13.3133 128.89 11.7822 128.793C10.6245 128.72 9.59507 128.494 8.69392 128.114C7.79277 127.735 7.03923 127.234 6.43331 126.612C5.82296 125.985 5.3726 125.266 5.08225 124.456C4.78746 123.64 4.66978 122.762 4.72921 121.822C4.77879 121.037 4.9407 120.315 5.21495 119.653C5.4895 118.988 5.85614 118.404 6.31488 117.901C6.77391 117.394 7.30746 116.984 7.91551 116.672C8.51883 116.359 9.17879 116.163 9.89536 116.085L9.75336 118.332Z" fill="#1AFFB3"/>
<path d="M21.2812 108.072L20.7275 110.335L7.84294 101.793L8.44556 99.3303L23.8183 97.703L23.2646 99.9658L10.7249 101.131L10.6979 101.241L21.2812 108.072ZM15.8412 106.339L17.6373 98.9983L19.431 99.4372L17.6349 106.777L15.8412 106.339Z" fill="#1AFFB3"/>
<path d="M26.371 90.3918L13.0193 84.6208L15.0764 79.8617C15.5235 78.8273 16.0727 78.0459 16.724 77.5176C17.3772 76.985 18.0922 76.6853 18.8689 76.6187C19.6413 76.5502 20.4382 76.6935 21.2597 77.0486C22.0768 77.4017 22.7219 77.8843 23.195 78.4963C23.6656 79.1021 23.9242 79.8225 23.9707 80.6576C24.0191 81.4884 23.8198 82.421 23.3727 83.4554L21.8144 87.0606L20.0803 86.311L21.5597 82.8884C21.8414 82.2364 21.9772 81.6658 21.9669 81.1765C21.9585 80.6828 21.8174 80.2633 21.5436 79.918C21.2699 79.5728 20.8831 79.2921 20.3833 79.0761C19.8792 78.8582 19.4001 78.7672 18.9461 78.8031C18.494 78.8346 18.081 79.0146 17.7069 79.3429C17.3304 79.6651 16.9984 80.1586 16.711 80.8236L15.6177 83.3531L27.2417 88.3773L26.371 90.3918ZM23.196 81.1971L30.6457 80.502L29.6538 82.7968L22.2322 83.4267L23.196 81.1971Z" fill="#1AFFB3"/>
<path d="M34.5604 73.4099L33.2916 75.3636L23.944 63.0514L25.325 60.9249L40.3746 64.4576L39.1058 66.4112L26.8832 63.3766L26.8213 63.4719L34.5604 73.4099ZM29.9962 69.9799L34.1122 63.6424L35.6608 64.6481L31.5449 70.9857L29.9962 69.9799Z" fill="#1AFFB3"/>
<path d="M42.5596 39.8662L53.1741 49.8112L51.795 51.2831L38.9553 49.3848L38.8631 49.4833L46.6477 56.777L45.1472 58.3785L34.5327 48.4335L35.9215 46.9512L48.7765 48.854L48.8687 48.7555L41.0737 41.4522L42.5596 39.8662Z" fill="#1AFFB3"/>
<path d="M50.8886 34.8837L49.752 33.3746L58.7441 26.6022L59.8807 28.1113L56.2555 30.8416L63.8696 40.9513L62.1223 42.2673L54.5081 32.1576L50.8886 34.8837Z" fill="#1AFFB3"/>
<path d="M69.2443 20.2043L76.3816 32.8782L74.4693 33.9551L67.3321 21.2811L69.2443 20.2043Z" fill="#1AFFB3"/>
<path d="M85.0556 28.4541L82.8887 29.3091L82.4191 13.8576L84.7777 12.927L94.9854 24.5362L92.8184 25.3912L84.6243 15.8278L84.5186 15.8695L85.0556 28.4541ZM83.3284 23.0122L90.3578 20.2387L91.0356 21.9564L84.0062 24.73L83.3284 23.0122Z" fill="#1AFFB3"/>
<path d="M116.378 17.1617C115.809 17.2299 115.273 17.1535 114.769 16.9326C114.265 16.7069 113.844 16.3759 113.506 15.9396C113.172 15.5028 112.971 14.9999 112.903 14.4311C112.834 13.8576 112.91 13.3214 113.132 12.8228C113.358 12.3188 113.689 11.9 114.126 11.5662C114.562 11.2277 115.065 11.0244 115.633 10.9562C116.207 10.8874 116.743 10.9661 117.243 11.1923C117.746 11.4133 118.164 11.7422 118.498 12.1791C118.836 12.6107 119.039 13.1132 119.108 13.6868C119.177 14.2556 119.098 14.792 118.872 15.2959C118.651 15.7993 118.322 16.2202 117.886 16.5587C117.454 16.8919 116.951 17.0929 116.378 17.1617Z" fill="#1AFFB3"/>
<path d="M148.659 9.66149C148.67 8.98497 148.426 8.42845 147.929 7.99194C147.432 7.55072 146.77 7.27684 145.944 7.17028C145.352 7.094 144.828 7.12192 144.372 7.25406C143.916 7.38151 143.548 7.5918 143.266 7.88495C142.99 8.174 142.826 8.5228 142.773 8.93135C142.729 9.27416 142.771 9.5803 142.898 9.84977C143.031 10.1198 143.217 10.3564 143.459 10.5593C143.705 10.7582 143.974 10.9337 144.264 11.0857C144.556 11.2331 144.838 11.3601 145.11 11.4669L146.472 12.0148C146.918 12.1869 147.37 12.4003 147.829 12.6552C148.288 12.9101 148.703 13.2215 149.076 13.5894C149.449 13.9573 149.732 14.3901 149.926 14.8877C150.124 15.3859 150.181 15.959 150.098 16.6071C149.992 17.4242 149.688 18.1224 149.183 18.7019C148.684 19.282 148.011 19.7037 147.165 19.9671C146.325 20.231 145.341 20.2904 144.214 20.1451C143.133 20.0058 142.221 19.7139 141.476 19.2694C140.732 18.8249 140.177 18.2592 139.812 17.5725C139.447 16.881 139.298 16.0978 139.363 15.223L141.546 15.5046C141.521 16.0313 141.635 16.4874 141.886 16.8731C142.142 17.2546 142.492 17.5599 142.935 17.7889C143.383 18.0138 143.887 18.1623 144.446 18.2343C145.061 18.3136 145.62 18.2879 146.124 18.1571C146.633 18.0222 147.049 17.7989 147.371 17.4871C147.693 17.1707 147.885 16.7776 147.945 16.308C148 15.8807 147.923 15.5151 147.714 15.2113C147.51 14.908 147.212 14.6405 146.822 14.4088C146.437 14.1777 145.994 13.9607 145.495 13.7579L143.851 13.0733C142.736 12.6097 141.88 12.0291 141.282 11.3314C140.69 10.6344 140.458 9.78337 140.588 8.77843C140.695 7.94724 141.014 7.25078 141.544 6.68903C142.075 6.12728 142.748 5.72465 143.562 5.48114C144.377 5.23292 145.268 5.17118 146.235 5.2959C147.212 5.42183 148.052 5.70433 148.754 6.1434C149.461 6.58308 149.992 7.13131 150.347 7.78809C150.702 8.44018 150.839 9.15486 150.758 9.93212L148.659 9.66149Z" fill="#1AFFB3"/>
<path d="M156.832 22.1583L160.955 8.20943L169.7 10.7943L169.165 12.606L162.524 10.6432L161.268 14.8933L167.452 16.7212L166.919 18.5261L160.734 16.6982L159.472 20.9687L166.195 22.9556L165.659 24.7673L156.832 22.1583Z" fill="#1AFFB3"/>
<path d="M186.789 23.0985C186.855 22.6511 186.859 22.2233 186.801 21.8151C186.749 21.4048 186.633 21.0214 186.455 20.665C186.278 20.3043 186.035 19.9771 185.725 19.6831C185.42 19.3913 185.051 19.1392 184.617 18.9268C183.881 18.5665 183.125 18.4309 182.349 18.5199C181.572 18.6089 180.833 18.9347 180.13 19.4974C179.434 20.058 178.828 20.8655 178.311 21.9201C177.793 22.9789 177.527 23.9584 177.513 24.8584C177.499 25.7585 177.699 26.5446 178.114 27.2167C178.528 27.8888 179.118 28.4122 179.883 28.7871C180.593 29.1349 181.283 29.2933 181.952 29.2624C182.625 29.2335 183.235 29.0262 183.782 28.6406C184.336 28.2527 184.789 27.6995 185.141 26.9808L185.604 27.3264L181.866 25.4959L182.663 23.8694L187.798 26.384L187.07 27.8702C186.533 28.9673 185.832 29.8053 184.969 30.3841C184.112 30.9608 183.166 31.2672 182.13 31.3033C181.099 31.3414 180.057 31.1023 179.002 30.5858C177.82 30.0069 176.916 29.2266 176.289 28.245C175.667 27.2655 175.352 26.1542 175.344 24.9113C175.338 23.6641 175.672 22.3516 176.347 20.9739C176.857 19.9321 177.46 19.0674 178.155 18.3798C178.85 17.6922 179.601 17.1873 180.407 16.8651C181.22 16.5408 182.056 16.3994 182.916 16.441C183.783 16.4805 184.639 16.7074 185.485 17.1218C186.191 17.4675 186.797 17.8934 187.303 18.3996C187.813 18.9078 188.213 19.4699 188.502 20.0859C188.795 20.7039 188.97 21.3536 189.026 22.035C189.085 22.7121 189.013 23.3967 188.811 24.0887L186.789 23.0985Z" fill="#1AFFB3"/>
<path d="M207.013 30.7408L208.789 32.042L203.136 39.7594C202.534 40.5807 201.808 41.167 200.958 41.5184C200.11 41.866 199.204 41.9653 198.239 41.8161C197.277 41.663 196.326 41.2424 195.387 40.554C194.451 39.8685 193.765 39.0902 193.329 38.2191C192.896 37.3442 192.717 36.4503 192.793 35.5374C192.872 34.6208 193.212 33.7518 193.814 32.9306L199.467 25.2131L201.238 26.5101L195.689 34.0843C195.3 34.6152 195.071 35.1723 195.002 35.7555C194.937 36.3415 195.033 36.911 195.291 37.464C195.552 38.0132 195.978 38.5046 196.57 38.9383C197.166 39.3749 197.765 39.6347 198.368 39.7179C198.977 39.8001 199.547 39.7188 200.078 39.4742C200.613 39.2324 201.075 38.846 201.464 38.3151L207.013 30.7408Z" fill="#1AFFB3"/>
<path d="M224.903 47.5455L214.377 57.584L212.985 56.1243L215.603 43.4117L215.509 43.314L207.79 50.6762L206.275 49.088L216.801 39.0496L218.203 40.5195L215.58 53.2471L215.673 53.3448L223.404 45.9728L224.903 47.5455Z" fill="#1AFFB3"/>
<path d="M221.902 67.6758L219.302 63.7496L231.43 55.7196L234.112 59.7702C234.899 60.9585 235.332 62.1398 235.411 63.3141C235.494 64.4857 235.233 65.5978 234.63 66.6504C234.033 67.7044 233.105 68.6483 231.846 69.4821C230.582 70.3186 229.344 70.8064 228.13 70.9457C226.919 71.089 225.781 70.8884 224.716 70.344C223.655 69.7969 222.717 68.9075 221.902 67.6758ZM222.113 64.5208L223.434 66.5165C224.046 67.4403 224.728 68.0932 225.48 68.4751C226.237 68.8543 227.047 68.9764 227.912 68.8413C228.78 68.7035 229.694 68.317 230.654 67.6819C231.605 67.0519 232.312 66.3654 232.774 65.6222C233.238 64.883 233.445 64.1017 233.394 63.2781C233.343 62.4546 233.024 61.6006 232.439 60.7163L231.043 58.6081L222.113 64.5208Z" fill="#1AFFB3"/>
<path d="M230.034 81.6023L229.11 79.464L244.538 78.4977L245.544 80.8251L234.269 91.4009L233.345 89.2625L242.64 80.7651L242.595 80.6608L230.034 81.6023ZM235.418 79.7009L238.416 86.6375L236.721 87.3702L233.723 80.4336L235.418 79.7009Z" fill="#1AFFB3"/>
<path d="M242.328 112.545C242.242 111.979 242.301 111.44 242.505 110.93C242.715 110.419 243.032 109.988 243.457 109.635C243.883 109.288 244.379 109.071 244.946 108.984C245.517 108.897 246.055 108.956 246.56 109.161C247.071 109.371 247.501 109.688 247.848 110.114C248.201 110.539 248.42 111.035 248.506 111.601C248.594 112.173 248.532 112.711 248.322 113.217C248.117 113.728 247.802 114.157 247.376 114.504C246.956 114.856 246.46 115.075 245.889 115.162C245.323 115.249 244.784 115.187 244.273 114.978C243.763 114.773 243.332 114.459 242.979 114.033C242.632 113.612 242.415 113.116 242.328 112.545Z" fill="#1AFFB3"/>
<path d="M249.863 146.46C250.306 146.368 250.709 146.225 251.072 146.03C251.44 145.84 251.76 145.6 252.034 145.31C252.312 145.02 252.536 144.68 252.706 144.288C252.875 143.901 252.985 143.468 253.035 142.987C253.121 142.173 252.989 141.416 252.639 140.718C252.288 140.019 251.729 139.436 250.959 138.97C250.193 138.508 249.227 138.216 248.059 138.093C246.886 137.969 245.875 138.056 245.025 138.352C244.175 138.648 243.505 139.106 243.016 139.726C242.527 140.346 242.238 141.079 242.149 141.927C242.066 142.713 242.154 143.415 242.413 144.033C242.671 144.655 243.075 145.157 243.625 145.539C244.18 145.926 244.855 146.161 245.651 146.245L245.485 146.799L245.921 142.66L247.722 142.849L247.124 148.535L245.478 148.362C244.263 148.234 243.235 147.864 242.395 147.252C241.559 146.645 240.947 145.862 240.557 144.902C240.168 143.947 240.034 142.885 240.157 141.717C240.295 140.408 240.717 139.291 241.424 138.366C242.13 137.445 243.066 136.767 244.231 136.333C245.4 135.899 246.747 135.762 248.273 135.923C249.427 136.044 250.446 136.314 251.33 136.73C252.215 137.147 252.947 137.679 253.526 138.326C254.11 138.978 254.53 139.714 254.786 140.537C255.046 141.364 255.127 142.246 255.029 143.183C254.946 143.965 254.754 144.68 254.453 145.329C254.151 145.983 253.76 146.551 253.281 147.034C252.801 147.521 252.251 147.909 251.63 148.196C251.014 148.483 250.347 148.651 249.627 148.699L249.863 146.46Z" fill="#1AFFB3"/>
<path d="M237.917 156.229L238.564 153.992L251.081 163.064L250.376 165.499L234.949 166.483L235.596 164.246L248.174 163.605L248.205 163.496L237.917 156.229ZM243.279 158.188L241.178 165.447L239.405 164.934L241.506 157.675L243.279 158.188Z" fill="#1AFFB3"/>
<path d="M232.093 173.681L245.192 180.005L242.938 184.674C242.448 185.689 241.867 186.447 241.194 186.947C240.519 187.452 239.792 187.722 239.013 187.756C238.239 187.792 237.448 187.616 236.642 187.227C235.841 186.84 235.216 186.331 234.769 185.699C234.324 185.074 234.096 184.344 234.085 183.507C234.071 182.675 234.309 181.752 234.799 180.737L236.506 177.2L238.208 178.022L236.587 181.379C236.278 182.019 236.118 182.583 236.108 183.073C236.096 183.566 236.22 183.991 236.479 184.348C236.738 184.704 237.112 185.001 237.603 185.237C238.097 185.476 238.572 185.587 239.027 185.57C239.48 185.558 239.901 185.395 240.288 185.083C240.678 184.777 241.03 184.297 241.345 183.645L242.543 181.163L231.139 175.658L232.093 173.681ZM234.881 183.001L227.409 183.384L228.496 181.133L235.937 180.813L234.881 183.001Z" fill="#1AFFB3"/>
<path d="M223.201 190.306L224.55 188.407L233.376 201.099L231.907 203.166L217.018 199.008L218.367 197.109L230.453 200.652L230.518 200.559L223.201 190.306ZM227.618 193.924L223.241 200.084L221.736 199.015L226.113 192.854L227.618 193.924Z" fill="#1AFFB3"/>
<path d="M213.808 223.487L203.618 213.107L205.058 211.694L217.807 214.127L217.903 214.032L210.43 206.42L211.996 204.883L222.186 215.262L220.736 216.685L207.972 214.247L207.876 214.342L215.359 221.964L213.808 223.487Z" fill="#1AFFB3"/>
<path d="M205.278 228.117L206.351 229.673L197.083 236.063L196.011 234.508L199.747 231.932L192.562 221.513L194.363 220.271L201.548 230.69L205.278 228.117Z" fill="#1AFFB3"/>
<path d="M186.325 242.017L179.723 229.056L181.679 228.06L188.281 241.021L186.325 242.017Z" fill="#1AFFB3"/>
<path d="M170.872 233.114L173.073 232.35L172.897 247.808L170.501 248.639L160.788 236.614L162.988 235.85L170.776 245.747L170.883 245.71L170.872 233.114ZM172.371 238.623L165.232 241.101L164.626 239.356L171.765 236.879L172.371 238.623Z" fill="#1AFFB3"/>
<path d="M139.106 243.088C139.677 243.044 140.209 243.142 140.703 243.384C141.197 243.631 141.604 243.979 141.924 244.429C142.239 244.879 142.419 245.39 142.463 245.961C142.508 246.537 142.41 247.07 142.167 247.559C141.921 248.053 141.572 248.458 141.122 248.773C140.672 249.093 140.161 249.275 139.59 249.319C139.014 249.364 138.482 249.263 137.992 249.016C137.498 248.774 137.094 248.428 136.779 247.978C136.459 247.532 136.277 247.022 136.232 246.446C136.188 245.875 136.289 245.342 136.535 244.848C136.777 244.354 137.123 243.947 137.573 243.628C138.019 243.313 138.53 243.133 139.106 243.088Z" fill="#1AFFB3"/>
</svg>
