<svg width="264" height="264" viewBox="0 0 264 264" fill="none" xmlns="http://www.w3.org/2000/svg">
<path d="M122.418 244.241L120.566 258.668L115.423 258.008C114.301 257.864 113.397 257.54 112.712 257.037C112.028 256.534 111.548 255.904 111.272 255.148C110.996 254.397 110.915 253.579 111.029 252.696C111.143 251.809 111.431 251.034 111.893 250.373C112.349 249.715 112.975 249.228 113.77 248.91C114.56 248.596 115.514 248.511 116.632 248.654L120.168 249.108L119.931 250.954L116.592 250.525C115.883 250.434 115.292 250.482 114.819 250.67C114.346 250.862 113.978 251.159 113.717 251.559C113.455 251.96 113.289 252.433 113.219 252.978C113.149 253.523 113.191 254.019 113.343 254.469C113.495 254.918 113.779 255.291 114.195 255.588C114.605 255.884 115.172 256.078 115.896 256.171L118.629 256.522L120.242 243.962L122.418 244.241Z" fill="#1AFFB3"/>
<path d="M104.997 241.385L100.918 255.346L95.941 253.892C94.8593 253.576 94.0162 253.128 93.4115 252.546C92.8023 251.964 92.4168 251.291 92.2548 250.529C92.0915 249.771 92.1354 248.962 92.3864 248.103C92.636 247.249 93.0353 246.549 93.5842 246.004C94.1273 245.462 94.8103 245.117 95.6333 244.968C96.4517 244.817 97.4018 244.9 98.4835 245.216L102.253 246.317L101.724 248.131L98.1445 247.085C97.4628 246.886 96.8798 246.822 96.3955 246.892C95.9066 246.962 95.5077 247.153 95.1989 247.468C94.89 247.782 94.6592 248.2 94.5065 248.723C94.3525 249.25 94.3213 249.737 94.4129 250.183C94.5 250.628 94.7296 251.015 95.1016 251.346C95.4677 251.68 95.9984 251.948 96.6938 252.151L99.3389 252.924L102.89 240.769L104.997 241.385ZM96.2642 245.67L94.6552 238.363L97.0549 239.064L98.5957 246.351L96.2642 245.67Z" fill="#1AFFB3"/>
<path d="M80.3972 248.193L86.2004 234.856L88.2127 235.731L82.4096 249.069L80.3972 248.193Z" fill="#1AFFB3"/>
<path d="M70.7571 243.673L68.4982 242.262L70.5598 230.219L70.4153 230.129L60.4983 237.266L58.2393 235.855L65.9442 223.518L67.7152 224.624L62.1397 233.552L62.2542 233.623L71.4569 226.986L72.9267 227.904L70.9973 239.092L71.1117 239.163L76.691 230.23L78.462 231.336L70.7571 243.673Z" fill="#1AFFB3"/>
<path d="M59.7973 218.596L50.0263 229.371L43.271 223.245L44.54 221.846L49.6697 226.498L52.6468 223.215L47.8696 218.883L49.1339 217.488L53.9111 221.82L56.9025 218.522L51.7097 213.813L52.9788 212.413L59.7973 218.596Z" fill="#1AFFB3"/>
<path d="M34.6958 213.969L45.7444 204.509L47.1718 206.176L36.1231 215.637L34.6958 213.969Z" fill="#1AFFB3"/>
<path d="M40.4093 197.849L28.2583 205.844L25.4084 201.513C24.789 200.572 24.4372 199.684 24.3529 198.85C24.266 198.011 24.4078 197.249 24.7783 196.563C25.1449 195.88 25.702 195.292 26.4495 194.8C27.1932 194.311 27.9506 194.037 28.7218 193.977C29.4865 193.916 30.2307 194.095 30.9543 194.514C31.6754 194.93 32.3457 195.608 32.9651 196.549L35.124 199.83L33.5458 200.869L31.4962 197.754C31.1059 197.161 30.7033 196.734 30.2886 196.474C29.8712 196.21 29.4431 196.098 29.0043 196.138C28.5654 196.177 28.1185 196.346 27.6637 196.646C27.2049 196.947 26.8659 197.298 26.6468 197.697C26.4251 198.093 26.3489 198.537 26.4182 199.029C26.4809 199.521 26.7113 200.069 27.1095 200.675L28.6243 202.977L39.2029 196.016L40.4093 197.849ZM30.9802 195.458L34.4869 188.849L35.8611 190.937L32.3153 197.487L30.9802 195.458Z" fill="#1AFFB3"/>
<path d="M30.6923 181.685L31.6352 183.815L16.2158 184.916L15.1896 182.598L26.3716 171.924L27.3145 174.054L18.0942 182.633L18.1402 182.736L30.6923 181.685ZM25.3256 183.634L22.2669 176.723L23.9555 175.976L27.0142 182.886L25.3256 183.634Z" fill="#1AFFB3"/>
<path d="M18.0708 150.868C18.1646 151.433 18.1124 151.972 17.9144 152.485C17.7117 152.998 17.4 153.434 16.9794 153.792C16.5581 154.145 16.0648 154.369 15.4996 154.462C14.9298 154.557 14.3907 154.505 13.8826 154.306C13.369 154.103 12.9356 153.791 12.5825 153.37C12.2247 152.949 11.9989 152.456 11.9051 151.891C11.8105 151.321 11.865 150.782 12.0685 150.273C12.2666 149.76 12.5763 149.327 12.9976 148.974C13.4135 148.617 13.9064 148.391 14.4763 148.297C15.0415 148.203 15.5809 148.257 16.0945 148.46C16.6073 148.658 17.0426 148.967 17.4004 149.388C17.7527 149.805 17.9762 150.298 18.0708 150.868Z" fill="#1AFFB3"/>
<path d="M10.0179 117.084C9.5766 117.183 9.17601 117.333 8.81607 117.534C8.45184 117.73 8.13554 117.976 7.86719 118.271C7.59411 118.565 7.37606 118.909 7.21301 119.304C7.05039 119.694 6.9479 120.129 6.90557 120.61C6.83376 121.426 6.97891 122.18 7.34099 122.873C7.70308 123.565 8.27294 124.138 9.05058 124.592C9.82392 125.04 10.7955 125.316 11.9652 125.419C13.1396 125.522 14.1493 125.418 14.9942 125.108C15.839 124.797 16.5006 124.328 16.9789 123.7C17.4572 123.071 17.7337 122.333 17.8084 121.484C17.8777 120.696 17.7778 119.996 17.5085 119.383C17.2397 118.765 16.8269 118.27 16.2703 117.898C15.7093 117.52 15.0303 117.297 14.2332 117.227L14.3891 116.67L14.0243 120.816L12.2202 120.657L12.7214 114.962L14.3698 115.107C15.5867 115.214 16.6204 115.566 17.4709 116.164C18.3171 116.757 18.9431 117.529 19.3488 118.482C19.7549 119.431 19.9065 120.49 19.8036 121.66C19.6882 122.971 19.285 124.095 18.5942 125.032C17.9037 125.965 16.98 126.659 15.823 127.113C14.6613 127.567 13.3164 127.726 11.7882 127.592C10.6326 127.49 9.60908 127.239 8.71756 126.837C7.82604 126.435 7.08508 125.916 6.49467 125.28C5.89996 124.638 5.46746 123.908 5.19718 123.091C4.92259 122.268 4.8266 121.387 4.90919 120.449C4.97809 119.666 5.15777 118.947 5.44824 118.293C5.73912 117.634 6.12005 117.059 6.59104 116.568C7.06243 116.073 7.60592 115.676 8.22149 115.379C8.83235 115.081 9.49692 114.901 10.2152 114.841L10.0179 117.084Z" fill="#1AFFB3"/>
<path d="M21.7816 107.103L21.1788 109.353L8.48317 100.533L9.13924 98.0839L24.5437 96.7915L23.941 99.0417L11.3789 99.9338L11.3495 100.044L21.7816 107.103ZM16.3806 105.251L18.336 97.952L20.1197 98.4298L18.1644 105.729L16.3806 105.251Z" fill="#1AFFB3"/>
<path d="M27.2449 89.5281L14.0054 83.5043L16.1526 78.7851C16.6193 77.7594 17.1833 76.9886 17.8445 76.4728C18.5078 75.9527 19.2283 75.6667 20.0062 75.6149C20.7797 75.5611 21.5737 75.7195 22.3883 76.0901C23.1985 76.4587 23.8343 76.9535 24.2957 77.5744C24.7547 78.189 24.9996 78.9142 25.0302 79.75C25.0628 80.5816 24.8458 81.5102 24.3791 82.5359L22.7525 86.1108L21.033 85.3284L22.5772 81.9345C22.8713 81.2881 23.0179 80.7201 23.0169 80.2307C23.0178 79.737 22.8848 79.3149 22.6176 78.9645C22.3505 78.614 21.9692 78.3261 21.4735 78.1006C20.9736 77.8731 20.4964 77.773 20.0418 77.8003C19.5892 77.8232 19.1728 77.9953 18.7926 78.3165C18.41 78.6314 18.0687 79.1185 17.7687 79.7779L16.6274 82.2862L28.1538 87.5306L27.2449 89.5281ZM24.2453 80.2746L31.7069 79.7214L30.6716 81.9969L23.2394 82.4855L24.2453 80.2746Z" fill="#1AFFB3"/>
<path d="M35.7482 72.6939L34.4477 74.6267L25.3017 62.164L26.7171 60.0603L41.7072 63.8373L40.4068 65.7701L28.2351 62.5369L28.1717 62.6312L35.7482 72.6939ZM31.2403 69.19L35.4588 62.9203L36.9909 63.9511L32.7724 70.2209L31.2403 69.19Z" fill="#1AFFB3"/>
<path d="M44.2324 39.2801L54.713 49.3662L53.3143 50.8195L40.5011 48.7496L40.4076 48.8469L48.094 56.244L46.5722 57.8253L36.0917 47.7392L37.5002 46.2756L50.3285 48.3502L50.4221 48.253L42.7254 40.846L44.2324 39.2801Z" fill="#1AFFB3"/>
<path d="M52.5968 34.4192L51.4762 32.8982L60.5393 26.2211L61.6598 27.7421L58.006 30.434L65.513 40.6235L63.7519 41.921L56.2449 31.7315L52.5968 34.4192Z" fill="#1AFFB3"/>
<path d="M71.0739 19.9321L78.1046 32.6655L76.1834 33.7263L69.1527 20.9929L71.0739 19.9321Z" fill="#1AFFB3"/>
<path d="M86.8167 28.3063L84.6446 29.148L84.27 13.6939L86.6342 12.7778L96.7704 24.4494L94.5982 25.2911L86.463 15.6776L86.357 15.7186L86.8167 28.3063ZM85.123 22.8539L92.1693 20.1236L92.8365 21.8454L85.7902 24.5757L85.123 22.8539Z" fill="#1AFFB3"/>
<path d="M118.193 17.1481C117.624 17.2153 117.089 17.1378 116.586 16.9159C116.082 16.6892 115.661 16.3574 115.324 15.9205C114.991 15.483 114.791 14.9797 114.724 14.4108C114.656 13.8371 114.734 13.3011 114.956 12.8029C115.183 12.2994 115.515 11.8812 115.952 11.5483C116.389 11.2107 116.892 11.0083 117.461 10.9412C118.035 10.8735 118.571 10.9533 119.07 11.1805C119.573 11.4024 119.991 11.7322 120.324 12.1697C120.661 12.6019 120.863 13.1049 120.931 13.6785C120.998 14.2475 120.918 14.7838 120.692 15.2873C120.47 15.7902 120.14 16.2105 119.703 16.5481C119.27 16.8804 118.767 17.0805 118.193 17.1481Z" fill="#1AFFB3"/>
<path d="M141.24 19.2791L143.069 4.84918L148.213 5.50135C149.336 5.64369 150.24 5.96595 150.925 6.46812C151.611 6.97028 152.092 7.59924 152.368 8.35498C152.646 9.10602 152.728 9.92308 152.616 10.8062C152.504 11.6939 152.217 12.4689 151.756 13.1312C151.3 13.7893 150.675 14.278 149.88 14.5973C149.091 14.9124 148.137 14.9991 147.019 14.8574L143.482 14.4089L143.716 12.5629L147.056 12.9863C147.766 13.0763 148.356 13.0271 148.829 12.8388C149.302 12.6459 149.669 12.3487 149.93 11.9475C150.191 11.5463 150.356 11.0732 150.425 10.5283C150.494 9.98344 150.452 9.48652 150.299 9.03756C150.146 8.58861 149.861 8.21606 149.445 7.91992C149.034 7.62437 148.467 7.43074 147.744 7.33902L145.01 6.99239L143.417 19.5552L141.24 19.2791Z" fill="#1AFFB3"/>
<path d="M158.666 22.1086L162.723 8.14048L167.702 9.58668C168.784 9.90101 169.628 10.3483 170.233 10.9285C170.844 11.51 171.23 12.1819 171.393 12.9442C171.558 13.702 171.515 14.5106 171.266 15.37C171.017 16.2248 170.619 16.9251 170.071 17.471C169.529 18.0136 168.846 18.3602 168.024 18.5108C167.205 18.6626 166.255 18.5814 165.173 18.267L161.401 17.1715L161.928 15.3573L165.509 16.3973C166.191 16.5955 166.774 16.6588 167.258 16.5875C167.747 16.5174 168.146 16.325 168.454 16.0103C168.762 15.6955 168.993 15.2767 169.144 14.7538C169.298 14.2264 169.328 13.7397 169.236 13.2938C169.148 12.8492 168.918 12.4618 168.545 12.1318C168.179 11.7985 167.647 11.5308 166.952 11.3287L164.305 10.56L160.773 22.7208L158.666 22.1086ZM167.392 17.8095L169.012 25.1139L166.611 24.4166L165.059 17.1319L167.392 17.8095Z" fill="#1AFFB3"/>
<path d="M183.254 15.2611L177.472 28.6079L175.459 27.7355L181.241 14.3887L183.254 15.2611Z" fill="#1AFFB3"/>
<path d="M192.902 19.766L195.163 21.1732L193.12 33.2196L193.265 33.3096L203.171 26.1567L205.432 27.5639L197.747 39.9132L195.974 38.8099L201.535 29.8736L201.421 29.8023L192.228 36.454L190.757 35.5383L192.669 24.3474L192.554 24.2761L186.989 33.2185L185.216 32.1153L192.902 19.766Z" fill="#1AFFB3"/>
<path d="M203.901 44.8252L213.655 34.0348L220.42 40.1501L219.153 41.5515L214.016 36.908L211.044 40.1957L215.828 44.5201L214.566 45.9164L209.782 41.5919L206.796 44.8954L211.996 49.5961L210.73 50.9976L203.901 44.8252Z" fill="#1AFFB3"/>
<path d="M229.01 49.4126L217.976 58.8903L216.546 57.2256L227.58 47.7478L229.01 49.4126Z" fill="#1AFFB3"/>
<path d="M223.322 65.5421L235.461 57.5275L238.317 61.8541C238.938 62.7945 239.291 63.6819 239.377 64.5161C239.465 65.3544 239.325 66.1167 238.955 66.8032C238.59 67.4871 238.034 68.0756 237.287 68.5687C236.544 69.0591 235.787 69.3348 235.016 69.3958C234.251 69.458 233.507 69.2801 232.782 68.8619C232.061 68.4476 231.389 67.7703 230.768 66.8299L228.604 63.5523L230.181 62.5114L232.235 65.623C232.627 66.2157 233.03 66.6417 233.445 66.9009C233.863 67.1641 234.291 67.2756 234.73 67.2356C235.169 67.1955 235.615 67.0254 236.07 66.7254C236.528 66.4228 236.866 66.0717 237.085 65.6721C237.306 65.2765 237.382 64.8323 237.311 64.3395C237.248 63.8481 237.017 63.3001 236.618 62.6956L235.099 60.396L224.532 67.3735L223.322 65.5421ZM232.755 67.9182L229.259 74.5331L227.881 72.4469L231.417 65.8912L232.755 67.9182Z" fill="#1AFFB3"/>
<path d="M233.065 81.6906L232.118 79.5619L247.536 78.4365L248.566 80.7534L237.401 91.4449L236.455 89.3162L245.661 80.7233L245.615 80.6195L233.065 81.6906ZM238.428 79.7337L241.498 86.639L239.811 87.3891L236.741 80.4838L238.428 79.7337Z" fill="#1AFFB3"/>
<path d="M245.735 112.488C245.64 111.923 245.692 111.384 245.889 110.871C246.091 110.357 246.402 109.92 246.822 109.562C247.242 109.208 247.735 108.984 248.3 108.889C248.87 108.794 249.409 108.845 249.918 109.043C250.432 109.245 250.865 109.556 251.219 109.977C251.578 110.397 251.804 110.89 251.899 111.455C251.994 112.024 251.941 112.564 251.738 113.073C251.541 113.586 251.232 114.02 250.811 114.374C250.396 114.731 249.903 114.958 249.334 115.053C248.768 115.148 248.229 115.094 247.715 114.892C247.202 114.695 246.766 114.387 246.408 113.967C246.055 113.55 245.83 113.058 245.735 112.488Z" fill="#1AFFB3"/>
<path d="M253.841 146.259C254.282 146.159 254.683 146.008 255.042 145.807C255.406 145.61 255.722 145.364 255.99 145.069C256.263 144.774 256.48 144.429 256.643 144.034C256.805 143.644 256.906 143.209 256.948 142.728C257.018 141.912 256.872 141.158 256.509 140.466C256.146 139.774 255.575 139.202 254.797 138.749C254.023 138.302 253.051 138.028 251.881 137.927C250.706 137.826 249.697 137.931 248.852 138.243C248.008 138.555 247.347 139.025 246.87 139.654C246.392 140.283 246.117 141.022 246.044 141.871C245.976 142.659 246.077 143.359 246.347 143.972C246.617 144.589 247.03 145.083 247.588 145.455C248.149 145.831 248.828 146.054 249.626 146.123L249.471 146.68L249.829 142.533L251.633 142.689L251.141 148.385L249.492 148.243C248.275 148.138 247.241 147.787 246.39 147.191C245.542 146.599 244.915 145.827 244.508 144.875C244.1 143.927 243.947 142.869 244.048 141.699C244.162 140.387 244.563 139.262 245.252 138.324C245.941 137.39 246.864 136.695 248.02 136.239C249.181 135.783 250.526 135.622 252.054 135.754C253.21 135.853 254.234 136.104 255.126 136.504C256.018 136.904 256.76 137.422 257.351 138.058C257.947 138.698 258.381 139.427 258.652 140.245C258.928 141.067 259.026 141.947 258.945 142.886C258.877 143.669 258.698 144.388 258.409 145.043C258.119 145.702 257.739 146.277 257.269 146.769C256.798 147.265 256.255 147.663 255.64 147.961C255.03 148.26 254.366 148.44 253.647 148.502L253.841 146.259Z" fill="#1AFFB3"/>
<path d="M242.093 156.259L242.692 154.008L255.402 162.807L254.75 165.258L239.347 166.574L239.947 164.323L252.507 163.411L252.536 163.301L242.093 156.259ZM247.497 158.101L245.553 165.404L243.769 164.929L245.713 157.626L247.497 158.101Z" fill="#1AFFB3"/>
<path d="M236.657 173.842L249.906 179.845L247.767 184.568C247.302 185.594 246.739 186.366 246.078 186.882C245.416 187.404 244.696 187.691 243.918 187.744C243.145 187.799 242.35 187.642 241.535 187.272C240.724 186.905 240.088 186.411 239.625 185.791C239.165 185.177 238.919 184.452 238.887 183.617C238.854 182.785 239.069 181.856 239.534 180.83L241.155 177.252L242.876 178.032L241.337 181.428C241.044 182.075 240.898 182.643 240.9 183.133C240.9 183.627 241.034 184.048 241.301 184.398C241.569 184.748 241.951 185.036 242.447 185.26C242.947 185.487 243.424 185.587 243.879 185.559C244.332 185.535 244.748 185.362 245.127 185.04C245.509 184.725 245.85 184.237 246.149 183.577L247.286 181.067L235.752 175.841L236.657 173.842ZM239.672 183.091L232.211 183.656L233.243 181.379L240.674 180.878L239.672 183.091Z" fill="#1AFFB3"/>
<path d="M228.181 190.69L229.479 188.755L238.644 201.203L237.232 203.309L222.236 199.556L223.534 197.621L235.71 200.835L235.774 200.74L228.181 190.69ZM232.695 194.186L228.486 200.463L226.952 199.434L231.161 193.158L232.695 194.186Z" fill="#1AFFB3"/>
<path d="M219.75 224.117L209.253 214.047L210.649 212.592L223.466 214.641L223.559 214.544L215.861 207.159L217.381 205.575L227.877 215.645L226.471 217.111L213.639 215.056L213.546 215.154L221.254 222.548L219.75 224.117Z" fill="#1AFFB3"/>
<path d="M211.393 228.991L212.516 230.51L203.464 237.202L202.341 235.682L205.99 232.985L198.467 222.807L200.226 221.507L207.749 231.684L211.393 228.991Z" fill="#1AFFB3"/>
<path d="M192.939 243.507L185.888 230.785L187.808 229.721L194.859 242.443L192.939 243.507Z" fill="#1AFFB3"/>
<path d="M177.183 235.158L179.354 234.313L179.753 249.766L177.39 250.686L167.235 239.03L169.406 238.185L177.556 247.786L177.662 247.745L177.183 235.158ZM178.885 240.607L171.843 243.349L171.173 241.628L178.215 238.887L178.885 240.607Z" fill="#1AFFB3"/>
<path d="M145.824 246.366C146.393 246.298 146.929 246.374 147.432 246.595C147.936 246.821 148.357 247.152 148.695 247.589C149.029 248.026 149.23 248.529 149.298 249.098C149.366 249.671 149.29 250.207 149.068 250.706C148.842 251.21 148.511 251.628 148.074 251.962C147.637 252.3 147.135 252.503 146.566 252.571C145.992 252.64 145.456 252.561 144.957 252.335C144.453 252.114 144.035 251.784 143.701 251.347C143.364 250.916 143.16 250.413 143.092 249.84C143.024 249.271 143.103 248.734 143.329 248.23C143.55 247.727 143.878 247.306 144.315 246.968C144.747 246.635 145.25 246.434 145.824 246.366Z" fill="#1AFFB3"/>
</svg>
