<?xml version="1.0" encoding="UTF-8"?><svg id="Camada_2" xmlns="http://www.w3.org/2000/svg" xmlns:xlink="http://www.w3.org/1999/xlink" viewBox="0 0 515.62 236.69"><defs><style>.cls-1{fill:#08ffff;}.cls-2{fill:#fff;}.cls-3{fill:url(#Gradiente_sem_nome_418);}</style><linearGradient id="Gradiente_sem_nome_418" x1="-922.79" y1="974.26" x2="-992.45" y2="974.26" gradientTransform="translate(-702.73 -811.88) rotate(-90)" gradientUnits="userSpaceOnUse"><stop offset="0" stop-color="#07ffff"/><stop offset=".24" stop-color="#08adc3"/><stop offset=".38" stop-color="#0984a5"/><stop offset=".42" stop-color="#09799d"/><stop offset=".61" stop-color="#0a4577"/><stop offset=".78" stop-color="#0b1f5b"/><stop offset=".91" stop-color="#0b084b"/><stop offset="1" stop-color="#0c0045"/></linearGradient></defs><g id="Camada_2-2"><g><g><path class="cls-2" d="M58.15,0V33.78h-11.39l-12.74-21.62v21.62h-9.26V0h11.39l12.74,21.62V0h9.26Z"/><path class="cls-2" d="M99.21,0c.97,0,1.9,.19,2.8,.58,.9,.39,1.69,.91,2.36,1.57,.68,.66,1.21,1.43,1.62,2.32s.6,1.84,.6,2.87V26.44c0,.96-.19,1.89-.58,2.77s-.91,1.66-1.57,2.34-1.44,1.21-2.34,1.62c-.9,.4-1.87,.6-2.9,.6h-18.67c-.96,0-1.89-.19-2.77-.58-.88-.39-1.67-.91-2.34-1.57-.68-.66-1.21-1.43-1.62-2.32s-.6-1.84-.6-2.87V7.33c0-.97,.19-1.89,.58-2.77,.39-.88,.91-1.67,1.57-2.34s1.43-1.21,2.32-1.62c.88-.4,1.84-.6,2.87-.6h18.67Zm-1.88,10.23c0-.58-.21-1.08-.63-1.5s-.92-.63-1.5-.63h-10.66c-.55,0-1.03,.21-1.45,.63-.42,.42-.63,.92-.63,1.5v13.32c0,.58,.21,1.08,.63,1.5,.42,.42,.9,.63,1.45,.63h10.66c.58,0,1.08-.21,1.5-.63s.63-.92,.63-1.5V10.23Z"/><path class="cls-2" d="M156.43,0l-14.28,33.78h-9.26L118.6,0h9.5l9.41,23.5L146.88,0h9.55Z"/><path class="cls-2" d="M191.08,33.78l-2.32-5.84h-14.33l-2.32,5.84h-9.41L176.99,0h9.26l14.28,33.78h-9.46Zm-13.51-13.61h8.11l-4.05-10.18-4.05,10.18Z"/><path class="cls-2" d="M270.74,33.78h-29.14V0h29.14V8.11h-19.83v4.44h16.12v8.15h-16.12v4.97h19.83v8.11Z"/><path class="cls-2" d="M311.7,0c.96,0,1.89,.19,2.77,.58,.88,.39,1.66,.91,2.34,1.57,.68,.66,1.21,1.43,1.62,2.32s.6,1.84,.6,2.87V15.54c0,.9-.16,1.76-.48,2.58-.32,.82-.77,1.55-1.35,2.2s-1.27,1.18-2.07,1.62c-.8,.43-1.69,.72-2.65,.84l6.66,11h-10.04l-6.61-10.91h-7.38v10.91h-9.31V0h25.91Zm-1.93,10.23c0-.58-.2-1.08-.6-1.5-.4-.42-.89-.63-1.47-.63h-12.59v6.66h12.59c.58,0,1.07-.21,1.47-.63,.4-.42,.6-.92,.6-1.5v-2.41Z"/><path class="cls-2" d="M358.94,33.78l-2.32-5.84h-14.33l-2.32,5.84h-9.41L344.85,0h9.26l14.28,33.78h-9.46Zm-13.51-13.61h8.11l-4.05-10.18-4.05,10.18Z"/><path class="cls-2" d="M442.71,26.44c0,.96-.19,1.89-.58,2.77s-.91,1.66-1.57,2.34-1.44,1.21-2.34,1.62c-.9,.4-1.87,.6-2.9,.6h-25.86V0h25.86c.96,0,1.9,.19,2.8,.58,.9,.39,1.69,.91,2.36,1.57,.68,.66,1.21,1.43,1.62,2.32s.6,1.84,.6,2.87V26.44Zm-9.31-16.21c0-.58-.2-1.08-.6-1.5s-.89-.63-1.47-.63h-12.59V25.67h12.59c.58,0,1.07-.21,1.47-.63s.6-.92,.6-1.5V10.23Z"/><path class="cls-2" d="M483.48,0c.97,0,1.9,.19,2.8,.58,.9,.39,1.69,.91,2.36,1.57,.68,.66,1.21,1.43,1.62,2.32s.6,1.84,.6,2.87V26.44c0,.96-.19,1.89-.58,2.77s-.91,1.66-1.57,2.34-1.44,1.21-2.34,1.62c-.9,.4-1.87,.6-2.9,.6h-18.67c-.96,0-1.89-.19-2.77-.58-.88-.39-1.67-.91-2.34-1.57-.68-.66-1.21-1.43-1.62-2.32s-.6-1.84-.6-2.87V7.33c0-.97,.19-1.89,.58-2.77,.39-.88,.91-1.67,1.57-2.34s1.43-1.21,2.32-1.62c.88-.4,1.84-.6,2.87-.6h18.67Zm-1.88,10.23c0-.58-.21-1.08-.63-1.5s-.92-.63-1.5-.63h-10.66c-.55,0-1.03,.21-1.45,.63-.42,.42-.63,.92-.63,1.5v13.32c0,.58,.21,1.08,.63,1.5,.42,.42,.9,.63,1.45,.63h10.66c.58,0,1.08-.21,1.5-.63s.63-.92,.63-1.5V10.23Z"/></g><g><g><g><path class="cls-2" d="M163.73,121.77v34.16c0,7.44-6.03,13.47-13.47,13.47H26.94v67.29H0v-80.76c0-7.44,6.03-13.47,13.47-13.47h123.32v-15.11l-26.33-26.28H0v-26.94H116.02c3.57,0,6.99,1.41,9.52,3.94l34.23,34.16c2.53,2.53,3.95,5.96,3.95,9.53Z"/><path class="cls-2" d="M333,209.75v26.94h-102.55c-3.56,0-6.99-1.41-9.51-3.93l-34.23-34.16c-2.53-2.53-3.95-5.96-3.95-9.53V74.14h26.94v109.33l26.33,26.28h96.98Z"/></g><path class="cls-2" d="M511.67,180.57l-11.17-11.17h1.64c7.43,0,13.47-6.03,13.47-13.46v-34.17c0-3.57-1.42-7-3.95-9.53l-34.16-34.16c-2.53-2.52-5.95-3.94-9.52-3.94h-115.95s-34,0-34,0v26.94h144.37l26.27,26.27v15.11h-123.18c-7.44,0-13.47,6.03-13.47,13.47v80.76h26.94v-67.29h83.44l26.27,26.27v41.01h26.94v-46.59c0-3.57-1.42-7-3.94-9.53Z"/></g><g><polygon class="cls-3" points="299.04 143.21 271.53 115.7 271.52 115.7 271.52 115.7 244.01 143.21 251.1 150.3 266.77 134.63 266.77 172.1 276.8 172.1 276.8 135.14 291.95 150.3 299.04 143.21"/><polygon class="cls-1" points="290.41 134.58 271.53 115.7 271.52 115.7 271.52 115.7 252.64 134.58 257.51 139.44 268.26 128.69 268.26 151.59 275.14 151.59 275.14 129.04 285.54 139.44 290.41 134.58"/></g></g></g></g></svg>