<svg width="32" height="32" viewBox="0 0 32 32" fill="none" xmlns="http://www.w3.org/2000/svg">
<path d="M16 26.1818C16.3165 26.1818 16.6258 26.0965 16.8889 25.9367C17.152 25.7769 17.3571 25.5497 17.4782 25.2839C17.5993 25.0181 17.631 24.7257 17.5693 24.4435C17.5075 24.1614 17.3551 23.9022 17.1314 23.6988C16.9076 23.4953 16.6225 23.3568 16.3121 23.3007C16.0018 23.2446 15.6801 23.2734 15.3877 23.3834C15.0953 23.4935 14.8455 23.68 14.6696 23.9192C14.4938 24.1584 14.4 24.4396 14.4 24.7273C14.4 25.113 14.5686 25.483 14.8686 25.7558C15.1687 26.0286 15.5757 26.1818 16 26.1818ZM24 26.1818C24.3165 26.1818 24.6258 26.0965 24.8889 25.9367C25.152 25.7769 25.3571 25.5497 25.4782 25.2839C25.5993 25.0181 25.631 24.7257 25.5693 24.4435C25.5075 24.1614 25.3551 23.9022 25.1314 23.6988C24.9076 23.4953 24.6225 23.3568 24.3121 23.3007C24.0018 23.2446 23.6801 23.2734 23.3877 23.3834C23.0953 23.4935 22.8455 23.68 22.6696 23.9192C22.4938 24.1584 22.4 24.4396 22.4 24.7273C22.4 25.113 22.5686 25.483 22.8686 25.7558C23.1687 26.0286 23.5757 26.1818 24 26.1818ZM24 20.3636C24.3165 20.3636 24.6258 20.2783 24.8889 20.1185C25.152 19.9587 25.3571 19.7315 25.4782 19.4657C25.5993 19.1999 25.631 18.9075 25.5693 18.6253C25.5075 18.3432 25.3551 18.084 25.1314 17.8806C24.9076 17.6772 24.6225 17.5386 24.3121 17.4825C24.0018 17.4264 23.6801 17.4552 23.3877 17.5653C23.0953 17.6754 22.8455 17.8618 22.6696 18.101C22.4938 18.3402 22.4 18.6214 22.4 18.9091C22.4 19.2949 22.5686 19.6648 22.8686 19.9376C23.1687 20.2104 23.5757 20.3636 24 20.3636ZM16 20.3636C16.3165 20.3636 16.6258 20.2783 16.8889 20.1185C17.152 19.9587 17.3571 19.7315 17.4782 19.4657C17.5993 19.1999 17.631 18.9075 17.5693 18.6253C17.5075 18.3432 17.3551 18.084 17.1314 17.8806C16.9076 17.6772 16.6225 17.5386 16.3121 17.4825C16.0018 17.4264 15.6801 17.4552 15.3877 17.5653C15.0953 17.6754 14.8455 17.8618 14.6696 18.101C14.4938 18.3402 14.4 18.6214 14.4 18.9091C14.4 19.2949 14.5686 19.6648 14.8686 19.9376C15.1687 20.2104 15.5757 20.3636 16 20.3636ZM27.2 2.90909H25.6V1.45455C25.6 1.06878 25.4314 0.698807 25.1314 0.426026C24.8313 0.153246 24.4243 0 24 0C23.5757 0 23.1687 0.153246 22.8686 0.426026C22.5686 0.698807 22.4 1.06878 22.4 1.45455V2.90909H9.6V1.45455C9.6 1.06878 9.43143 0.698807 9.13137 0.426026C8.83131 0.153246 8.42435 0 8 0C7.57565 0 7.16869 0.153246 6.86863 0.426026C6.56857 0.698807 6.4 1.06878 6.4 1.45455V2.90909H4.8C3.52696 2.90909 2.30606 3.36883 1.40589 4.18717C0.505713 5.00551 0 6.11542 0 7.27273V27.6364C0 28.7937 0.505713 29.9036 1.40589 30.7219C2.30606 31.5403 3.52696 32 4.8 32H27.2C28.473 32 29.6939 31.5403 30.5941 30.7219C31.4943 29.9036 32 28.7937 32 27.6364V7.27273C32 6.11542 31.4943 5.00551 30.5941 4.18717C29.6939 3.36883 28.473 2.90909 27.2 2.90909ZM28.8 27.6364C28.8 28.0221 28.6314 28.3921 28.3314 28.6649C28.0313 28.9377 27.6243 29.0909 27.2 29.0909H4.8C4.37565 29.0909 3.96869 28.9377 3.66863 28.6649C3.36857 28.3921 3.2 28.0221 3.2 27.6364V14.5455H28.8V27.6364ZM28.8 11.6364H3.2V7.27273C3.2 6.88696 3.36857 6.51699 3.66863 6.24421C3.96869 5.97143 4.37565 5.81818 4.8 5.81818H6.4V7.27273C6.4 7.6585 6.56857 8.02847 6.86863 8.30125C7.16869 8.57403 7.57565 8.72727 8 8.72727C8.42435 8.72727 8.83131 8.57403 9.13137 8.30125C9.43143 8.02847 9.6 7.6585 9.6 7.27273V5.81818H22.4V7.27273C22.4 7.6585 22.5686 8.02847 22.8686 8.30125C23.1687 8.57403 23.5757 8.72727 24 8.72727C24.4243 8.72727 24.8313 8.57403 25.1314 8.30125C25.4314 8.02847 25.6 7.6585 25.6 7.27273V5.81818H27.2C27.6243 5.81818 28.0313 5.97143 28.3314 6.24421C28.6314 6.51699 28.8 6.88696 28.8 7.27273V11.6364ZM8 20.3636C8.31645 20.3636 8.62579 20.2783 8.88891 20.1185C9.15203 19.9587 9.35711 19.7315 9.47821 19.4657C9.59931 19.1999 9.63099 18.9075 9.56926 18.6253C9.50752 18.3432 9.35513 18.084 9.13137 17.8806C8.90761 17.6772 8.62251 17.5386 8.31214 17.4825C8.00177 17.4264 7.68007 17.4552 7.38771 17.5653C7.09535 17.6754 6.84546 17.8618 6.66965 18.101C6.49384 18.3402 6.4 18.6214 6.4 18.9091C6.4 19.2949 6.56857 19.6648 6.86863 19.9376C7.16869 20.2104 7.57565 20.3636 8 20.3636ZM8 26.1818C8.31645 26.1818 8.62579 26.0965 8.88891 25.9367C9.15203 25.7769 9.35711 25.5497 9.47821 25.2839C9.59931 25.0181 9.63099 24.7257 9.56926 24.4435C9.50752 24.1614 9.35513 23.9022 9.13137 23.6988C8.90761 23.4953 8.62251 23.3568 8.31214 23.3007C8.00177 23.2446 7.68007 23.2734 7.38771 23.3834C7.09535 23.4935 6.84546 23.68 6.66965 23.9192C6.49384 24.1584 6.4 24.4396 6.4 24.7273C6.4 25.113 6.56857 25.483 6.86863 25.7558C7.16869 26.0286 7.57565 26.1818 8 26.1818Z" fill="#1AFFB3"/>
</svg>
