<svg width="15" height="29" viewBox="0 0 15 29" fill="none" xmlns="http://www.w3.org/2000/svg">
<path d="M12.8 10.7596L3.61997 1.57963C3.24525 1.20713 2.73834 0.998047 2.20997 0.998047C1.6816 0.998047 1.1747 1.20713 0.799971 1.57963C0.612514 1.76556 0.463726 1.98676 0.362188 2.23048C0.260651 2.4742 0.208374 2.73561 0.208374 2.99963C0.208374 3.26366 0.260651 3.52507 0.362188 3.76879C0.463726 4.0125 0.612514 4.23371 0.799971 4.41963L9.99997 13.5796C10.1874 13.7656 10.3362 13.9868 10.4378 14.2305C10.5393 14.4742 10.5916 14.7356 10.5916 14.9996C10.5916 15.2637 10.5393 15.5251 10.4378 15.7688C10.3362 16.0125 10.1874 16.2337 9.99997 16.4196L0.799971 25.5796C0.423363 25.9536 0.210734 26.4618 0.208858 26.9926C0.206983 27.5233 0.416017 28.033 0.789972 28.4096C1.16393 28.7862 1.67217 28.9989 2.2029 29.0007C2.73363 29.0026 3.24337 28.7936 3.61997 28.4196L12.8 19.2396C13.9236 18.1146 14.5547 16.5896 14.5547 14.9996C14.5547 13.4096 13.9236 11.8846 12.8 10.7596Z" fill="#019BD8"/>
</svg>
