<svg width="15" height="29" viewBox="0 0 15 29" fill="none" xmlns="http://www.w3.org/2000/svg">
<path d="M2.20003 18.2404L11.38 27.4204C11.7548 27.7929 12.2617 28.002 12.79 28.002C13.3184 28.002 13.8253 27.7929 14.2 27.4204C14.3875 27.2344 14.5363 27.0132 14.6378 26.7695C14.7393 26.5258 14.7916 26.2644 14.7916 26.0004C14.7916 25.7363 14.7393 25.4749 14.6378 25.2312C14.5363 24.9875 14.3875 24.7663 14.2 24.5804L5.00003 15.4204C4.81257 15.2344 4.66378 15.0132 4.56225 14.7695C4.46071 14.5258 4.40843 14.2644 4.40843 14.0004C4.40843 13.7363 4.46071 13.4749 4.56225 13.2312C4.66378 12.9875 4.81257 12.7663 5.00003 12.5804L14.2 3.42036C14.5766 3.04641 14.7893 2.53817 14.7911 2.00744C14.793 1.47671 14.584 0.966972 14.21 0.590364C13.8361 0.213758 13.3278 0.00112534 12.7971 -0.000749588C12.2664 -0.00262451 11.7566 0.206411 11.38 0.580366L2.20003 9.76037C1.07642 10.8854 0.445305 12.4104 0.445305 14.0004C0.445305 15.5904 1.07642 17.1154 2.20003 18.2404Z" fill="#019BD8"/>
</svg>
