<svg width="40" height="40" viewBox="0 0 40 40" fill="none" xmlns="http://www.w3.org/2000/svg">
<path d="M28.3333 16.6667C21.9017 16.6667 16.6667 21.9 16.6667 28.3333C16.6667 34.7667 21.9017 40 28.3333 40C34.765 40 40 34.7667 40 28.3333C40 21.9 34.765 16.6667 28.3333 16.6667ZM28.3333 36.6667C23.7383 36.6667 20 32.9283 20 28.3333C20 23.7383 23.7383 20 28.3333 20C32.9283 20 36.6667 23.7383 36.6667 28.3333C36.6667 32.9283 32.9283 36.6667 28.3333 36.6667ZM30 27.6433L32.845 30.4883L30.4883 32.845L26.6667 29.0233V23.3333H30V27.6433ZM40 8.33333V18.915C39.0517 17.7417 37.9217 16.7283 36.6667 15.885V8.33333C36.6667 7.415 35.92 6.66667 35 6.66667H5C4.08167 6.66667 3.33333 7.415 3.33333 8.33333V13.3333H28.3333C24.7633 13.3333 21.49 14.585 18.915 16.6667H3.33333V36.6667H15.8633C16.7067 37.9267 17.7383 39.0483 18.915 40H0V8.33333C0 5.57667 2.24333 3.33333 5 3.33333H10V0H13.3333V3.33333H26.6667V0H30V3.33333H35C37.7567 3.33333 40 5.57667 40 8.33333Z" fill="#1AFFB3"/>
</svg>
