<svg width="20" height="20" viewBox="0 0 23 23" fill="none" xmlns="http://www.w3.org/2000/svg">
<mask id="path-1-inside-1_51_148" fill="white">
<path d="M11.1824 0.276661C11.0057 0.278781 10.837 0.351244 10.7135 0.478112C10.5899 0.604981 10.5217 0.775868 10.5238 0.953194L10.6383 10.6877L0.934674 10.8026C0.75791 10.8047 0.589223 10.8772 0.465708 11.0041C0.342192 11.1309 0.273962 11.3018 0.276022 11.4792C0.278136 11.6565 0.350368 11.8257 0.476834 11.9496C0.603301 12.0735 0.773646 12.142 0.95041 12.1399L10.6541 12.025L10.7686 21.7595C10.7707 21.9368 10.843 22.106 10.9694 22.23C11.0959 22.3539 11.2662 22.4223 11.443 22.4202C11.6198 22.4181 11.7885 22.3457 11.912 22.2188C12.0355 22.0919 12.1037 21.921 12.1017 21.7437L11.9871 12.0092L21.6908 11.8943C21.8675 11.8922 22.0362 11.8197 22.1597 11.6928C22.2832 11.566 22.3515 11.3951 22.3494 11.2177C22.3473 11.0404 22.2751 10.8712 22.1486 10.7473C22.0221 10.6234 21.8518 10.5549 21.675 10.557L11.9714 10.6719L11.8568 0.937407C11.8547 0.760081 11.7825 0.590858 11.656 0.46695C11.5295 0.343042 11.3592 0.274595 11.1824 0.276661Z"/>
</mask>
<path d="M11.1824 0.276661C11.0057 0.278781 10.837 0.351244 10.7135 0.478112C10.5899 0.604981 10.5217 0.775868 10.5238 0.953194L10.6383 10.6877L0.934674 10.8026C0.75791 10.8047 0.589223 10.8772 0.465708 11.0041C0.342192 11.1309 0.273962 11.3018 0.276022 11.4792C0.278136 11.6565 0.350368 11.8257 0.476834 11.9496C0.603301 12.0735 0.773646 12.142 0.95041 12.1399L10.6541 12.025L10.7686 21.7595C10.7707 21.9368 10.843 22.106 10.9694 22.23C11.0959 22.3539 11.2662 22.4223 11.443 22.4202C11.6198 22.4181 11.7885 22.3457 11.912 22.2188C12.0355 22.0919 12.1037 21.921 12.1017 21.7437L11.9871 12.0092L21.6908 11.8943C21.8675 11.8922 22.0362 11.8197 22.1597 11.6928C22.2832 11.566 22.3515 11.3951 22.3494 11.2177C22.3473 11.0404 22.2751 10.8712 22.1486 10.7473C22.0221 10.6234 21.8518 10.5549 21.675 10.557L11.9714 10.6719L11.8568 0.937407C11.8547 0.760081 11.7825 0.590858 11.656 0.46695C11.5295 0.343042 11.3592 0.274595 11.1824 0.276661Z" fill="white"/>
<path d="M11.1824 0.276661L11.0653 -9.73851L11.0623 -9.73847L11.1824 0.276661ZM10.5238 0.953194L0.540333 1.06916L0.540351 1.07067L10.5238 0.953194ZM10.6383 10.6877L10.7569 20.7029L20.7396 20.5846L20.6218 10.5702L10.6383 10.6877ZM0.934674 10.8026L0.816072 0.787467L0.814564 0.787485L0.934674 10.8026ZM0.465708 11.0041L-6.67724 4.00562L0.465708 11.0041ZM0.276022 11.4792L-9.70742 11.5951L-9.70739 11.5981L0.276022 11.4792ZM0.95041 12.1399L1.06751 22.1551L1.06901 22.1551L0.95041 12.1399ZM10.6541 12.025L20.6375 11.9075L20.5196 1.89159L10.5355 2.00983L10.6541 12.025ZM10.7686 21.7595L0.78519 21.877L0.785208 21.8785L10.7686 21.7595ZM10.9694 22.23L3.99368 29.3951L10.9694 22.23ZM11.443 22.4202L11.5601 32.4354L11.5631 32.4354L11.443 22.4202ZM12.1017 21.7437L22.0851 21.6277L22.0851 21.6262L12.1017 21.7437ZM11.9871 12.0092L11.8685 1.99404L1.88583 2.11226L2.00368 12.1267L11.9871 12.0092ZM21.6908 11.8943L21.8094 21.9094L21.8109 21.9094L21.6908 11.8943ZM22.3494 11.2177L32.3329 11.1018L32.3328 11.0988L22.3494 11.2177ZM21.675 10.557L21.5579 0.54183L21.5564 0.541847L21.675 10.557ZM11.9714 10.6719L1.98794 10.7894L2.1058 20.8053L12.09 20.6871L11.9714 10.6719ZM11.8568 0.937407L21.8402 0.819929L21.8402 0.818416L11.8568 0.937407ZM11.0623 -9.73847C8.23833 -9.7046 5.54358 -8.54696 3.57052 -6.52034L17.8564 7.47656C16.1304 9.24945 13.773 10.2622 11.3025 10.2918L11.0623 -9.73847ZM3.57052 -6.52034C1.59746 -4.49372 0.507423 -1.76382 0.540334 1.06916L20.5072 0.837228C20.536 3.31556 19.5824 5.70368 17.8564 7.47656L3.57052 -6.52034ZM0.540351 1.07067L0.654903 10.8052L20.6218 10.5702L20.5072 0.835715L0.540351 1.07067ZM10.5197 0.672551L0.816072 0.787467L1.05328 20.8178L10.7569 20.7029L10.5197 0.672551ZM0.814564 0.787485C-2.00942 0.821356 -4.70417 1.97899 -6.67724 4.00562L7.60865 18.0025C5.88262 19.7754 3.52524 20.7881 1.05478 20.8178L0.814564 0.787485ZM-6.67724 4.00562C-8.6503 6.03225 -9.74033 8.76215 -9.70742 11.5951L10.2595 11.3632C10.2883 13.8415 9.33469 16.2296 7.60865 18.0025L-6.67724 4.00562ZM-9.70739 11.5981C-9.67362 14.4311 -8.51961 17.1349 -6.49891 19.1147L7.45258 4.78449C9.22034 6.51649 10.2299 8.88181 10.2594 11.3602L-9.70739 11.5981ZM-6.49891 19.1147C-4.47822 21.0945 -1.75653 22.1881 1.06751 22.1551L0.833315 2.12473C3.30382 2.09584 5.68482 3.05249 7.45258 4.78449L-6.49891 19.1147ZM1.06901 22.1551L10.7727 22.0401L10.5355 2.00983L0.831808 2.12474L1.06901 22.1551ZM0.670639 12.1425L0.785191 21.877L20.752 21.642L20.6375 11.9075L0.670639 12.1425ZM0.785208 21.8785C0.818972 24.7115 1.973 27.4153 3.99368 29.3951L17.9452 15.0648C19.7129 16.7968 20.7225 19.1621 20.752 21.6405L0.785208 21.8785ZM3.99368 29.3951C6.01437 31.3749 8.73606 32.4684 11.5601 32.4354L11.3259 12.4051C13.7964 12.3762 16.1774 13.3328 17.9452 15.0648L3.99368 29.3951ZM11.5631 32.4354C14.3871 32.4015 17.0819 31.2439 19.0549 29.2172L4.76903 15.2203C6.49505 13.4475 8.85242 12.4347 11.3229 12.4051L11.5631 32.4354ZM19.0549 29.2172C21.028 27.1906 22.118 24.4607 22.0851 21.6277L2.11821 21.8597C2.08942 19.3813 3.04301 16.9932 4.76903 15.2203L19.0549 29.2172ZM22.0851 21.6262L21.9705 11.8917L2.00368 12.1267L2.11823 21.8612L22.0851 21.6262ZM12.1057 22.0243L21.8094 21.9094L21.5722 1.87913L11.8685 1.99404L12.1057 22.0243ZM21.8109 21.9094C24.6349 21.8755 27.3296 20.7179 29.3027 18.6913L15.0168 4.69438C16.7428 2.92151 19.1002 1.90878 21.5707 1.87914L21.8109 21.9094ZM29.3027 18.6913C31.2757 16.6647 32.3658 13.9348 32.3329 11.1018L12.366 11.3337C12.3372 8.85536 13.2908 6.46725 15.0168 4.69438L29.3027 18.6913ZM32.3328 11.0988C32.2991 8.26573 31.145 5.56196 29.1243 3.58217L15.1729 17.9124C13.4051 16.1804 12.3955 13.8151 12.366 11.3367L32.3328 11.0988ZM29.1243 3.58217C27.1037 1.60237 24.382 0.508813 21.5579 0.54183L21.7921 20.5722C19.3216 20.6011 16.9406 19.6444 15.1729 17.9124L29.1243 3.58217ZM21.5564 0.541847L11.8528 0.656765L12.09 20.6871L21.7936 20.5722L21.5564 0.541847ZM21.9548 10.5544L21.8402 0.819929L1.87339 1.05488L1.98794 10.7894L21.9548 10.5544ZM21.8402 0.818416C21.8065 -2.01461 20.6524 -4.71837 18.6318 -6.69817L4.68026 7.63207C2.91252 5.90009 1.90295 3.53477 1.87341 1.0564L21.8402 0.818416ZM18.6318 -6.69817C16.6111 -8.67797 13.8894 -9.77153 11.0653 -9.73851L11.2995 10.2918C8.829 10.3207 6.44801 9.36406 4.68026 7.63207L18.6318 -6.69817Z" fill="white" mask="url(#path-1-inside-1_51_148)"/>
</svg>
